<?xml version="1.0" encoding="utf-8"?>
<!-- Generator: Adobe Illustrator 26.2.1, SVG Export Plug-In . SVG Version: 6.00 Build 0)  -->
<svg version="1.1" id="Layer_1" xmlns="http://www.w3.org/2000/svg" xmlns:xlink="http://www.w3.org/1999/xlink" x="0px" y="0px"
	 viewBox="0 0 38.2 126.3" style="enable-background:new 0 0 38.2 126.3;" xml:space="preserve">
<style type="text/css">
	.st0{fill:#841A5E;}
</style>
<g>
	<path class="st0" d="M32.1,112.3c0.1,0.5,0.3,0.9,0.2,1.3c0,0.2,0.1,0.3,0.3,0.3c0.6,0,1.2,0,1.7,0.1c0.3,0,0.7,0.2,1,0.3
		c0,0,0,0,0,0c0.5,0,0.9,0.1,1.4,0.1c0.5,0,0.5,0,0.6,0.5c0,0.1,0.1,0.2,0.2,0.3c0.1,0.1,0.2,0.1,0.2,0.1c0.3,0.2,0.4,0.3,0.1,0.5
		c-0.3,0.3-0.2,0.6-0.2,0.9c0,0.3-0.1,0.5-0.3,0.6c-0.3,0.2-0.6,0.1-0.7-0.2c-0.1-0.2-0.1-0.3-0.3-0.1c-0.5,0.6-1.1,1.1-1.8,1.4
		c-0.1,0-0.2,0.2-0.2,0.2c-0.6,0.6-1.3,1.1-1.9,1.7c-0.4,0.3-0.7,0.8-1.1,1.2c-0.1,0.1-0.1,0.2-0.2,0.2c-0.8,0.3-1.2,1-1.7,1.5
		c-0.5,0.5-0.8,1-1.2,1.5c-0.2,0.2-0.2,0.4-0.1,0.5c0.2,0.3,0,0.4-0.1,0.5c-0.1,0.1-0.3,0.2-0.4,0.3c-0.3,0.2-0.6,0.2-0.9-0.1
		c-0.3-0.2-0.6-0.4-1.1-0.2c-0.1,0.1-0.3,0-0.4,0c-0.3-0.1-0.7,0-1,0c-1.5,0.1-3.1,0.1-4.6,0.1c-0.4,0-0.7-0.2-1.1-0.3
		c-0.5-0.1-1-0.2-1.6-0.2c-0.1,0-0.2,0-0.3,0c-0.2,0-0.3-0.1-0.5-0.2c-0.1,0-0.3,0-0.5,0c-0.2,0-0.3-0.1-0.5-0.1
		c-0.7,0-1.4-0.1-2-0.2c-0.4,0.2-0.8,0.1-1.1,0.1c-0.8,0.1-1.6-0.2-2.4-0.4c-0.8-0.2-1.6-0.4-2.4-0.4c-0.4,0-0.8-0.1-1.1-0.2
		c-0.3-0.1-0.6-0.2-0.9-0.2c-1-0.2-1.9-0.5-2.9-0.7c-0.4-0.1-0.9-0.2-1.3-0.3c-0.4-0.2-0.8-0.4-0.7-0.9c-0.3-0.7-0.1-1.5-0.3-2.2
		c0.2-0.2,0.1-0.5,0.5-0.7c0.5-0.2,0.9-0.5,1.3-0.7c0.8-0.4,1.5-0.9,2.3-1.4c0.4-0.3,0.8-0.6,1.2-1c0.2-0.3,0.5-0.3,0.8-0.2
		c0.2,0.1,0.2,0,0.3,0c0.7-0.5,1.5-0.7,2.3-1c0.5-0.2,1.1-0.2,1.6-0.5c0.5-0.2,0.9-0.5,1.3-0.8c0.1-0.1,0.3-0.3,0.1-0.5
		c0,0,0-0.1,0-0.2c0-1.3-0.1-2.5-0.1-3.8c0-0.5-0.2-1-0.1-1.5c0.1-0.5,0.1-1,0.1-1.5c0-0.2,0.1-0.5-0.1-0.7
		c-0.1-0.1,0.1-0.4,0.1-0.6c0-0.7,0.1-1.3-0.1-2c0.3-0.3,0-0.7,0.1-1.1c0.1-0.4,0-0.8,0-1.2c0-0.6-0.1-1.2-0.1-1.8
		c0-0.2,0.1-0.4,0-0.6c-0.1-1.1-0.2-2.3-0.1-3.4c0.2-2.6,0-5.2,0.1-7.8c0-0.2,0.1-0.5-0.1-0.7c0,0,0-0.2,0-0.2
		c0.2-0.3,0.1-0.6,0.1-0.9c-0.1-0.4-0.1-0.8-0.1-1.1c0-0.9,0.1-1.9,0.2-2.8c0.1-0.5,0-1,0-1.5c0-0.3-0.1-0.6,0.1-0.9
		c0-0.1,0-0.2,0-0.3c-0.2-0.5-0.1-1-0.1-1.5c0-0.2,0.1-0.4,0.1-0.7c0-0.5-0.1-1-0.2-1.5c0-0.6-0.3-1.2-0.1-1.9
		c0.1-0.4,0.1-0.9,0.1-1.4c0-0.6,0-1.1,0-1.7c0-1.4,0.1-2.8,0.1-4.2c0-1.1-0.1-2.2-0.1-3.2c-0.2-0.3,0-0.7,0-1c0-1.8,0-3.6-0.1-5.4
		c-0.1-1.2-0.1-2.5-0.2-3.7c-0.1-1,0-2.1-0.1-3.1C11.1,47.5,11,45.7,11,44c0-0.5,0-1.1,0.1-1.6c0.1-0.5,0-1,0-1.5
		c0.1-0.9,0-1.8,0.1-2.6c0.2-1.2,0.1-2.4,0.1-3.5c-0.1-1.4,0-2.7-0.1-4.1c0.2-0.5,0.1-1.1,0.2-1.6c0.1-0.6,0.1-1.3,0-2
		c-0.1-0.3-0.1-0.8,0-1.2c0.1-0.6,0.1-1.2,0-1.8c-0.1-0.6-0.1-1.1,0-1.6c0.1-0.6,0.2-1.3,0.1-1.9c0-0.2,0-0.4,0-0.6
		c0-0.2,0-0.5,0-0.7c0-0.2,0.1-0.4,0.1-0.6c0-0.1,0-0.2,0-0.3c-0.2-0.3-0.1-0.5-0.1-0.8c0-0.9,0-1.8,0-2.7c0-0.8,0.1-1.6,0.1-2.4
		c0-1-0.1-2.1-0.1-3.1c0.1-1.2,0-2.3,0.1-3.5c0.1-0.6,0.1-1.3,0.1-1.9c0-0.3-0.1-0.5,0.1-0.7C11.9,3,12,2.9,12.2,2.9
		c0.2,0,0.3-0.1,0.4-0.3c0.3-0.6,0.8-1.1,1.4-1.3c0.5-0.2,1-0.5,1.5-0.6c0.6-0.1,1.2-0.4,1.8-0.4c0.6,0,1.3-0.2,1.9-0.3
		c0.4,0,0.7,0,1.1,0.1c0.4,0.1,0.8,0.2,1.2,0.2c0.8,0.1,1.4,0.6,2,1.1c0.4,0.3,0.7,0.6,0.9,1c0,0.1,0.1,0.1,0.2,0.2
		c0.3,0.2,0.3,0.4,0,0.5c-0.1,0-0.1,0.1-0.2,0.1c-0.2,0.1-0.3,0.3-0.1,0.5c0.2,0.2,0.2,0.5,0.2,0.8c-0.2,0.8-0.2,1.6,0,2.3
		c0,0.1,0,0.3-0.1,0.5c-0.2,0.5-0.2,1.1-0.1,1.6c0,0.1,0,0.1,0,0.2c0,1,0,2,0.1,3c0.1,1.3,0,2.6,0.1,3.9c0.2,1.8,0.1,3.5,0.2,5.2
		c0,0.8,0,1.6,0.1,2.4c0.1,0.4,0,0.9,0.1,1.3c0,0.1-0.1,0.2-0.1,0.3c0,0.2,0,0.3,0,0.5c0,0.1,0.1,0.2,0.1,0.3c0,0.3-0.1,0.5-0.1,0.8
		c0,0.2,0.1,0.4,0,0.7c-0.1,0.2,0,0.5,0.1,0.8c0.1,0.6,0.1,1.5,0,2.2c0,0.1,0,0.2,0,0.3c0,0.5,0,1.1,0,1.6c0,0.8,0.1,1.6,0.2,2.3
		c0,0.2,0,0.4,0,0.6c-0.1,0.2,0.3,0.4,0,0.6c0.3,0.6-0.1,1.3,0.2,1.9c0,0.1,0,0.2,0,0.4c0,0.6,0,1.3,0,1.9c0,1.3-0.1,2.6-0.1,3.8
		c0,1.1,0,2.2,0.1,3.3c0.1,0.8,0,1.6,0.1,2.4c0.1,0.5,0.1,1,0.2,1.4c0.1,0.5,0.1,1,0,1.6c0,0.4-0.1,0.7-0.1,1.1
		c0,1.4-0.1,2.9-0.1,4.3c0,0.4,0.1,0.8,0.2,1.2c0,0,0,0.1,0,0.1c0.6,0.3,0.1,0.8,0.1,1.2c0,0.4,0,0.8,0,1.3c0,0.4,0,0.7,0,1.1
		c0,0-0.1,0.1-0.1,0.1c0.1,0.3,0,0.6,0,0.9c0,0.3-0.1,0.7,0,1c0.1,0.5,0.1,1,0.1,1.5c0,0.3,0,0.6-0.1,0.9c-0.1,0.2,0,0.5,0.1,0.8
		c0,0.1,0,0.2,0,0.2C25.9,68.4,26,68.7,26,69c0,0.3,0.2,0.6,0,0.9c0.2,0.3,0.1,0.6,0.1,0.9c0,0.7,0,1.4,0,2.2c0,0.2,0.1,0.4-0.1,0.6
		c-0.1,0.1,0,0.3,0,0.4c0.2,0.6,0.1,1.3,0.1,2c0,0.2,0.2,0.4,0,0.7c-0.1,0.2,0,0.5,0,0.7c0,0.5,0.1,0.9,0.2,1.4c0,0.1,0,0.1,0,0.2
		c0,0.3,0.1,0.6,0.1,0.9c0,0.3-0.1,0.5-0.1,0.8c0,0.1,0,0.2,0,0.4c0,0.2,0,0.5,0,0.7c0,0.1-0.1,0.2,0,0.3c0.2,0.5,0.2,1,0,1.5
		c0,0.1,0,0.2,0,0.2c0.2,0.5,0,1,0.2,1.4c0,0.1,0,0.2,0,0.3c0,0.7,0,1.4,0,2c0,1,0,2,0.1,2.9c0.1,0.8,0,1.5,0.2,2.3
		c0.1,0.6,0,1.2,0.1,1.8c0.1,0.6-0.1,1.2,0.3,1.7c0,0,0,0.1,0,0.1c0,0.8,0.1,1.5,0.1,2.3c0,0.4,0,0.8,0.1,1.2c0.1,0.2,0.1,0.4,0,0.5
		c-0.2,0.7-0.1,1.4-0.1,2.1c0,0.3,0.1,0.7,0.1,1c-0.2,1.5,0,3.1-0.1,4.6c0,0.2-0.2,0.5-0.1,0.7c0.2,0.6,0.1,1.2,0.1,1.7
		c0,0.3,0.2,0.7-0.1,1c0.2,0.6,0.1,1.3,0.1,1.9c0,0.1,0.1,0.2,0.2,0.1c0.6-0.3,1.1-0.1,1.6,0.1c0.2,0.1,0.2,0.1,0.2-0.2
		c0-0.8,0.2-1.4,0.7-2c0.3-0.4,0.8-0.5,1.1-0.2c0.2,0.1,0.3,0.3,0.4,0.5C31.8,111.8,31.9,112,32.1,112.3 M17.1,5.5
		c-0.2-0.1-0.4-0.2-0.6-0.2c-0.2,0-0.4,0.1-0.6,0.2c-0.4,0.1-0.8,0-1.3,0c-0.2,0-0.4-0.2-0.5-0.3c0,0,0-0.2,0-0.3c0,0,0.1,0,0.1,0
		C14.6,5,14.9,4.9,15.1,5c0.3,0.1,0.6-0.1,0.8,0c0.1,0,0.2-0.1,0.4-0.1c0.3,0,0.5,0.1,0.8,0.1c0.3-0.1,0.6-0.1,0.9-0.1
		c0.8,0,1.5-0.1,2.3-0.1c0.1,0,0.1,0,0.2,0C21.2,4.4,22,4,22.7,3.7c0.2-0.1,0.3-0.2,0.2-0.4c-0.1-0.4-0.1-0.8-0.5-1
		c-0.1-0.1-0.3-0.2-0.3-0.4c0-0.4-0.3-0.4-0.5-0.5c-0.5-0.1-1-0.2-1.5-0.3C19.8,0.9,19.3,1,18.9,1c-0.6,0-1.3,0.2-1.9,0.4
		c-0.7,0.2-1.3,0.4-1.9,0.8c-0.5,0.4-1,0.7-1.3,1.3c0,0.1-0.1,0.1-0.1,0.2c0,0-0.1,0.1-0.1,0.1C13,4,13,4,13,4.5c0,0.1,0,0.2,0,0.3
		c-0.2,0.7-0.3,1.4-0.3,2.2c0,0.5-0.1,1.1,0.1,1.6c0.1,0.2-0.1,0.5-0.1,0.8c0,0.4,0.1,0.9,0.1,1.3c0,0.6,0.1,1.2,0.1,1.8
		c0,1.4,0.2,2.8-0.1,4.2c0,0.1,0,0.2,0,0.3c0.1,0.8,0.2,1.6,0.2,2.3c0,0.4-0.1,0.9-0.1,1.3c-0.1,0.8,0,1.6-0.1,2.4
		c-0.1,0.7,0,1.4,0,2c0,0.2,0.1,0.4,0.1,0.5c-0.1,0.3-0.1,0.6-0.1,0.8c0,0.5,0.1,1,0.1,1.5c0,1-0.1,1.9-0.1,2.9
		c0,1.7-0.1,3.5,0.1,5.2c0.1,1.2,0,2.3-0.1,3.5c0,0,0,0,0,0.1c-0.2,0.6-0.1,1.2-0.2,1.9c-0.1,0.5-0.1,1.1,0.1,1.7c0,0.1,0,0.2,0,0.2
		c-0.2,0.2-0.1,0.4-0.1,0.6c0,0.8,0,1.5,0.1,2.3c0.1,1.1,0,2.2,0.1,3.3c0,0.3-0.1,0.6-0.1,0.9c0,0.8-0.1,1.6,0.1,2.4
		c0.1,0.7,0,1.5,0.1,2.3c0.1,0.7,0.1,1.3,0.1,2c0,1.2,0.1,2.4-0.1,3.6c-0.1,0.6-0.3,1.2,0,1.7c-0.1,1.5,0.1,2.9-0.1,4.4
		c-0.1,0.5,0,1,0,1.6c0,0.5,0,1,0,1.5c0,0.2-0.1,0.4,0,0.6c0,0.2,0.1,0.5,0,0.6c-0.2,0.5-0.1,1.1-0.2,1.6c-0.1,0.7,0.1,1.5,0.2,2.2
		c0.1,0.8,0.2,1.7-0.1,2.5c0,0.1,0,0.3,0,0.4c0.1,0.4,0.1,0.9,0.2,1.3c0,0.2-0.1,0.4-0.1,0.7c0,0.8,0.2,1.5,0.4,2.3
		c0.1,0.4,0.2,0.9-0.2,1.2c-0.4,0.2-0.4,0.5-0.4,0.8c0.1,0.3,0,0.7,0,1c0.2,0.8,0.3,1.6,0.4,2.4c0,0.5,0.2,1.1,0.1,1.6
		c-0.1,0.4-0.1,0.9,0,1.4c0.1,0.7,0.1,1.4,0.1,2.2c0,0.8,0,1.5-0.1,2.3c0,1-0.1,2.1,0.1,3.1c0.1,0.5,0,1.1,0.1,1.7
		c0.1,0.5,0,1,0,1.5c0,0.5,0.1,0.9,0,1.4c0,0.3,0.1,0.6,0.1,0.9c0,0.6,0,1.1,0,1.7c0,0.2-0.1,0.4-0.1,0.6c0.2,0.6,0.1,1.3,0.1,2
		c0,0.1,0,0.2,0,0.4c0,0.1,0,0.2,0,0.4c0,0.5,0.2,1,0.1,1.6c-0.1,0.5-0.1,1,0,1.5c0.1,0.7,0.3,1.3,0.3,2c0,0.1,0,0.3,0,0.4
		c0,0,0,0.1,0.1,0.1c0,0,0.1,0,0.1-0.1c0.1-0.2,0.1-0.4,0.2-0.6c0.1-0.2,0.6-0.5,0.8-0.5c0.3,0,0.7,0.6,0.7,0.9c0,0.5,0.1,1,0.1,1.5
		c0,0.1,0,0.2,0.1,0.2c0.4,0.1,0.7,0.3,1,0.5c0.2,0.2,0.3,0.3,0.3,0.5c-0.1,0.3,0.1,0.5,0.3,0.5c1.1,0.3,2.2,0.4,3.3-0.1
		c0.5-0.2,1-0.3,1.6-0.4c0.3,0,0.5-0.1,0.8-0.3c0.3-0.3,0.7-0.5,1.1-0.8c0.1-0.1,0.3-0.3,0.5-0.1c0.2,0.2,0.1,0.4,0.1,0.6
		c0,0-0.1,0-0.1,0.1c0,0.3-0.2,0.4-0.4,0.6c0,0,0,0.1,0,0.2c0.2-0.1,0.5-0.1,0.6-0.3c0.1-0.3,0.1-0.6,0.1-1c0-0.3-0.2-0.6-0.3-0.8
		c-0.2-0.6-0.1-1,0.4-1.2c0.2-0.1,0.3-0.1,0.3-0.3c0-0.9,0.2-1.8,0.2-2.7c0.1-1.5,0-3.1,0.1-4.6c0.1-0.9-0.1-1.9,0.1-2.9
		c0.1-0.5,0.1-1.1-0.1-1.6c0-0.1,0-0.2,0-0.3c0.2-0.5,0.2-1,0.2-1.5c0-0.3,0-0.5-0.3-0.7c-0.1-0.1-0.3-0.2-0.3-0.4
		c0-0.3-0.2-0.5,0-0.8c0.1-0.1,0.1-0.3,0-0.5c-0.1-0.2-0.1-0.5-0.1-0.7c0-0.2-0.1-0.5-0.1-0.7c0-0.5,0-1,0-1.5c0-0.5-0.2-0.9,0-1.4
		c0-0.1,0-0.2-0.1-0.3c-0.1-0.4-0.2-0.9-0.1-1.3c0-0.3,0-0.5,0-0.8c-0.1-0.7-0.1-1.4-0.1-2.1c0-1.5,0-3-0.1-4.4
		c0-0.1-0.1-0.2-0.1-0.3c0-0.1,0-0.2,0-0.4c0-0.2,0.1-0.3,0.1-0.5c0-1.4,0-2.9,0-4.3c0-0.3-0.1-0.6-0.4-0.7
		c-0.4-0.2-0.4-0.4-0.4-0.8c0-0.6,0.1-1.3-0.1-1.9c-0.1-0.4,0-0.8-0.1-1.3c0-0.4,0-0.9-0.1-1.3c0-0.1,0-0.2,0-0.3
		c-0.2-0.7-0.1-1.4-0.2-2.1c0-0.2,0.2-0.5,0.1-0.6c-0.2-0.4,0-0.8-0.1-1.2c-0.1-0.8,0-1.6-0.1-2.4c-0.1-0.8,0-1.7,0-2.5
		c0-0.1,0.1-0.3,0.1-0.4c0-0.3,0.1-0.6,0.1-0.9c0-0.4,0-0.9,0.2-1.3c0-0.1,0.1-0.2,0.1-0.3c0.2-0.5,0.2-0.7,0.1-1.1
		c0-0.2-0.1-0.4-0.1-0.5c0.1-0.2,0.1-0.4,0.1-0.6c0-0.5-0.1-0.9-0.1-1.4c-0.1-0.7,0.1-1.3,0-2c0-0.1,0-0.1,0-0.2
		c0.2-0.7,0.1-1.5,0.2-2.2c0.1-0.8-0.1-1.7-0.2-2.6c-0.1-1.1-0.1-2.2-0.2-3.3c-0.1-1.2-0.1-2.4-0.1-3.6c0-0.5,0.1-0.9,0.1-1.4
		c0-1.3,0-2.7-0.1-4c-0.1-1.1-0.1-2.3-0.2-3.4c0-0.3,0-0.6,0-1c0-0.3,0-0.6,0-1c0-0.3,0-0.6,0-0.9c0-2.5,0.1-5.1,0.1-7.6
		c0-0.1,0-0.2,0-0.3c-0.2-1-0.2-2-0.2-3c0-1.2,0.1-2.4-0.1-3.6c-0.1-0.9-0.1-1.8-0.1-2.7c0-0.3,0.2-0.7,0-1c0-0.1,0.1-0.3,0.1-0.4
		c-0.2-0.3-0.1-0.7-0.1-1c-0.1-0.8,0.1-1.5-0.1-2.3c-0.1-0.2,0-0.5,0-0.7c0-0.2-0.1-0.4,0-0.6c0.1-0.2-0.1-0.4-0.1-0.7
		c0-0.6,0-1.3,0-1.9c0-0.3,0-0.7,0.3-0.9c0,0,0-0.1,0-0.1c-0.1,0-0.1-0.1-0.2-0.1c-0.1,0-0.2,0.1-0.3,0.1c-0.5,0.2-1,0.5-1.5,0.7
		c-0.4,0.1-0.9,0.1-1.4,0.2C18.9,5.7,18,5.6,17.1,5.5 M28.5,116.1c-0.3,0.1-0.6,0.1-0.9-0.1c-0.1-0.1-0.3-0.2-0.6,0
		c-0.1,0.1-0.3,0.1-0.5,0.1c-0.1,0-0.1,0-0.2,0c-0.1,0.1-0.2,0.1-0.2,0.2c0.1,0.1,0.2,0.3,0.3,0.3c0.2,0.1,0.4,0.1,0.6,0.1
		c0.2,0.1,0.4,0.1,0.5,0.3c0.1,0.3,0.2,0.7,0.2,1c0.1,0.6,0.1,1.2,0.1,1.7c0,0.1,0,0.1,0,0.2c0.1,0.4,0,0.7-0.3,0.9
		c-0.2,0.1-0.4,0.1-0.5,0.3c-0.4,0.4-0.4,0.4-0.9,0.3c-0.2-0.1-0.5-0.1-0.7-0.2c-0.5-0.2-0.8-0.8-0.6-1.4c0.1-0.2,0.2-0.5,0.2-0.7
		c0-0.3,0-0.7,0-1c-0.3,0-0.6,0-0.9,0c-0.2,0-0.4,0-0.7,0.2c-0.4,0.3-0.9,0.5-1.4,0.7c-0.6,0.2-1.3,0.3-2,0.2c-0.3,0-0.7,0-1,0.1
		c-0.3,0.1-0.6,0.3-0.9,0.4c-0.4,0.1-0.7,0.2-1.1,0.2c-0.3,0-0.6-0.2-0.9-0.3c-0.3-0.1-0.5-0.2-0.8-0.3c-0.6-0.2-1.3-0.1-1.9-0.1
		c-0.2,0-0.3,0-0.4-0.1c-1.1-0.2-1.5-1.2-2-2c-0.2-0.4-0.2-0.4-0.6-0.2c-0.1,0.1-0.3,0.2-0.4,0.2c-0.4,0.2-0.8,0.3-1.2,0.5
		c-0.5,0.3-0.9,0.6-1.4,0.9c-0.2,0.1-0.5,0.2-0.4,0.5c0,0.3,0,0.5,0,0.8c0,0,0,0.1,0,0.1c0.3,0,0.5,0.1,0.8,0.1c0.2,0,0.5,0,0.6,0.2
		c0.1,0.3,0,0.6-0.3,0.6c-0.3,0.1-0.6,0.2-0.9,0.2c-0.4-0.1-0.9,0.1-1.3,0c0,0-0.1,0-0.1,0c0,0,0.1,0.1,0.1,0.1
		c0.1,0,0.2,0.1,0.3,0.1c0.5,0,1,0.1,1.5,0.3c0.2,0.1,0.4,0.1,0.6,0.1c0.7,0.1,1.4,0.2,2.1,0.2c0.8,0.1,1.6,0.1,2.4,0.1
		c0.4,0,0.8,0.1,1.3-0.1c0.3-0.1,0.6,0.1,0.9,0.1c0.4,0,0.7,0,1.1,0c0.3,0,0.6,0.1,1,0c0.4,0,0.9-0.3,1.3,0c0,0,0.1,0,0.1,0
		c0.6-0.2,1.3-0.1,1.9-0.1c0.6,0.1,1.2,0.2,1.9,0.2c0.2,0,0.4,0,0.5,0c0.2,0,0.4,0.1,0.7,0.1c0.2,0,0.5,0.1,0.7,0.1
		c0.4,0,0.7,0.1,1.1,0.1c0.2,0,0.4,0.1,0.5,0.3c0.2,0.2,0.6,0.3,0.8,0c0.4-0.4,1-0.5,1.2-1.1c0.1-0.1,0.2-0.2,0.3-0.3
		c0.3-0.2,0.7-0.5,1-0.7c0.8-0.7,1.7-1.5,2.5-2.3c0.5-0.5,1.1-0.9,1.7-1.3c0.8-0.4,1.5-0.9,2.1-1.5c0-0.1,0.2-0.1,0.1-0.2
		c-0.1,0-0.2,0-0.3,0c-0.1,0-0.2,0-0.3,0c-0.8-0.1-1.5-0.4-2.3-0.4c-0.2,0-0.3,0-0.3,0.3c0,0.3-0.1,0.3-0.4,0.4
		c-0.4,0.1-0.8,0.1-1.1,0.5c-0.1,0.2-0.3,0.2-0.5,0.1c-0.2-0.1-0.4-0.2-0.4-0.3c-0.2-0.3-0.3-0.5-0.3-0.9c0-0.1-0.1-0.3-0.2-0.3
		c-0.2-0.1-0.5-0.1-0.8-0.1c0,0-0.1,0.2-0.1,0.2c0,0.3-0.1,0.6,0.1,0.9C28.7,115.7,28.7,116,28.5,116.1 M12.1,124
		c0.3,0,0.6-0.1,0.9-0.1c0.5,0,1-0.1,1.5,0.2c0.8,0,1.6,0.1,2.4,0.2c0.5,0.1,1,0.2,1.5,0.3c0.8,0.2,1.6,0.3,2.4,0.3
		c1.1,0,2.2-0.1,3.3-0.1c0.3,0,0.6,0.1,0.8-0.1c0,0,0.1,0,0.1,0c0.3,0,0.6,0.1,0.9,0.1c0,0,0.1,0,0.1-0.1c0.1-0.4-0.2-1.1-0.6-1.1
		c-0.7,0-1.2-0.4-1.9-0.4c-0.5,0-1-0.2-1.5-0.3c-0.8-0.1-1.5-0.1-2.3-0.1c-1.4,0-2.8-0.1-4.2,0.1c-0.5,0.1-1-0.1-1.5-0.1
		c-1.5,0-3,0-4.5-0.1c-0.7-0.1-1.3-0.1-2-0.1c-0.1,0-0.1,0-0.2-0.1c-0.6-0.1-1.2-0.4-1.8-0.4c-0.3,0-0.7-0.1-1-0.2
		c-0.4-0.1-0.8-0.2-1.2-0.2c-0.6-0.1-1.2-0.1-1.7-0.2c-0.1,0-0.2-0.1-0.3,0c0,0.1,0.1,0.3,0.1,0.3c0.4,0.1,0.8,0.3,1.2,0.3
		c0.3,0,0.6,0.1,0.8,0.2c0.2,0.1,0.4,0.1,0.6,0.2c0.5,0.1,1.1,0.2,1.6,0.3c0.9,0.3,1.9,0.3,2.8,0.4c0.3,0,0.6,0,0.9,0.2
		c0.3,0.2,0.6,0.3,1,0.2c0.1,0,0.3,0,0.4,0C11.2,124,11.6,124.1,12.1,124 M31.7,119.7c-0.5,0.4-0.9,0.9-1.4,1.3
		c-1,0.6-1.7,1.5-2.6,2.1c-0.1,0-0.3,0.2-0.1,0.4c0.2,0.2,0,0.4-0.2,0.6c-0.1,0.1-0.4,0.1-0.3,0.3c0,0.2,0.1,0.3,0.2,0.5
		c0,0,0.1,0.2,0.2,0c0.1-0.4,0.4-0.6,0.6-0.9c0.4-0.6,0.8-1.1,1.3-1.6c0.4-0.4,0.7-0.7,1.1-1.1c0.9-0.9,1.8-1.8,2.8-2.7
		c0.1,0,0.1-0.1,0.2-0.2c0.1-0.1,0.2-0.2,0.2-0.2c-0.1,0-0.3,0.1-0.4,0.1c-0.1,0.1-0.2,0.2-0.3,0.3C32.5,119,32.1,119.3,31.7,119.7
		 M8.3,116.8c0.1,0,0.2-0.1,0.2-0.1c0.3-0.3,0.6-0.4,1-0.5c0.4-0.1,0.7-0.3,1.1-0.4c0.1,0,0.2-0.1,0.2-0.2c0-0.4,0.3-0.6,0.6-0.7
		c0.1,0,0.2-0.1,0.3-0.2c0,0,0-0.1,0.1-0.1c0,0-0.1,0-0.1,0c-0.1,0-0.1,0-0.2,0.1c-0.6,0.3-1.1,0.6-1.8,0.7
		c-0.6,0.1-1.1,0.3-1.6,0.6c-0.3,0.2-0.6,0.4-0.9,0.6c-0.2,0.1-0.2,0.3-0.2,0.4c0,0.1,0.1,0.2,0.1,0.3c0.1,0.1,0.1,0.2,0.3,0.1
		C7.6,117.1,7.9,117,8.3,116.8 M15.1,117.1c0.2,0,0.4,0.1,0.6,0.2c0.2,0.1,0.1,0,0.1-0.1c-0.1-0.2-0.3-0.4-0.5-0.5
		c-0.5-0.2-0.6-0.2-0.5-0.7c0-0.5,0.1-1,0.1-1.5c0-0.1,0-0.2-0.1-0.3c-0.1,0.1-0.1,0.2-0.1,0.3c0,0.1,0,0.1,0,0.2
		c-0.2,0.4,0,0.9-0.3,1.3c-0.2,0.3,0,0.6,0.3,0.8C14.8,116.9,15,117,15.1,117.1 M13.8,118.3c0.1,0,0.3,0.1,0.4,0.1
		c0.1,0,0.2,0,0.3,0c0,0,0.1-0.1,0.1-0.1c0,0-0.1,0-0.1-0.1c-0.2-0.1-0.5-0.2-0.7-0.3c-0.3-0.2-0.6-0.3-0.7-0.6
		c-0.1-0.4-0.3-0.6-0.7-0.8c-0.1,0-0.1-0.1-0.2-0.1c0,0.1,0,0.2,0,0.3C12.6,117.3,13,118,13.8,118.3 M3.2,119.3
		c0.4-0.2,0.8-0.4,1.3-0.5c0.3-0.1,0.1-0.2,0.2-0.4c-0.1,0-0.2-0.1-0.3,0c-0.1,0-0.3,0.1-0.4,0.2c-0.5,0.3-1,0.5-1.5,0.8
		c0,0-0.1,0.1-0.1,0.1c0,0,0.1,0,0.1,0C2.7,119.5,2.9,119.5,3.2,119.3 M26.6,119.6c0,0.3,0,0.5,0,0.8c0,0.1,0.1,0.1,0.1,0.2
		c0-0.1,0.1-0.1,0.1-0.2c0-0.5-0.1-1.1-0.1-1.6c0-0.3-0.1-0.7-0.1-1c0,0-0.1-0.1-0.1-0.1c0,0-0.1,0-0.1,0.1c0,0.3-0.2,0.6,0,1
		c0.1,0.2,0.1,0.4,0.1,0.5C26.5,119.3,26.6,119.4,26.6,119.6 M27.9,114.8c0-0.1,0-0.1,0.1-0.2c0-0.1,0.1-0.2,0.1-0.3
		c-0.1-0.1-0.2-0.1-0.4-0.1c-0.1,0-0.3,0.1-0.3,0.1c0,0.2-0.1,0.5,0.1,0.6C27.7,115.2,27.8,115.1,27.9,114.8 M25.8,119.7
		c0-0.1,0-0.2,0-0.3c0,0,0-0.1,0-0.1c-0.1,0-0.1,0.1-0.1,0.1c0,0.4-0.1,0.8,0.1,1.2c0,0,0.1,0.1,0.1,0.1c0,0,0-0.1,0-0.1
		C25.8,120.2,25.8,120,25.8,119.7 M4.7,119.7c0,0-0.1,0.1-0.1,0.1c0.1,0,0.1,0.1,0.2,0.1c0.2,0,0.5,0,0.7,0c0.1,0,0.1,0,0.2-0.1
		c-0.1,0-0.1-0.1-0.2-0.1C5.2,119.7,5,119.7,4.7,119.7 M5.8,117.3c0,0.2-0.1,0.3-0.1,0.5c0,0,0.1,0.1,0.2,0.1c0,0,0.1-0.1,0.1-0.2
		C6,117.6,5.9,117.4,5.8,117.3 M20.6,118.4c0.2,0,0.3-0.1,0.5-0.1c0,0,0.1-0.1,0.1-0.1c0,0,0-0.1-0.1-0.1
		C20.9,118.1,20.7,118.1,20.6,118.4z"/>
	<path class="st0" d="M7.6,119.6C7.6,119.6,7.6,119.6,7.6,119.6C7.6,119.5,7.6,119.6,7.6,119.6z"/>
	<path class="st0" d="M21.8,124.7C21.8,124.6,21.8,124.6,21.8,124.7C21.9,124.6,21.8,124.7,21.8,124.7z"/>
</g>
</svg>
