<svg enable-background="new 0 0 99.2 135.6" viewBox="0 0 99.2 135.6" xmlns="http://www.w3.org/2000/svg"><path d="m52.8 38.6.3.3c.1.1.1.2 0 .3 0 .1 0 .2-.1.3 0-.1 0-.2 0-.3s0-.1 0-.2v.2c0 .3-.1.7-.1 1v1.2 4c0 .8 0 1.6.1 2.4 0 .1.1.3.1.3.2 0 .2.2.2.4 0 .5-.1 1 .1 1.4 0 .1 0 .3-.1.4-.2.4-.5.8-.8 1.2-.1.2-.2.4-.2.6v1.2c0 .2.1.4-.1.6v.3c.1.6 0 1.3.1 2 .1.8.1 1.5.1 2.3 0 1.2 0 2.3-.1 3.5-.1.7 0 1.5-.1 2.2 0 .4-.1.8-.2 1.2 0 .1-.1.1-.2.2 0-.1 0-.2 0-.3 0-.7 0-1.4-.3-2-.1-.2 0-.4 0-.6-.1-1-.1-2-.1-3 0-.5 0-1 .1-1.5.1-.7 0-1.4.1-2.1 0-.5 0-.9.1-1.4 0-.4.1-.8.1-1.2 0-.2 0-.3 0-.5 0-.3 0-.5.1-.8s0-.6-.2-.8-.4-.5-.6-.7c-.1-.1-.2-.2-.2-.5 0-.8 0-1.5 0-2.3 0-.4 0-.5.3-.4h.2v-.1c0-.9-.2-1.8-.2-2.8 0-.9-.1-1.8-.1-2.7 0-.8.1-1.5.1-2.3 0-.4.1-.8.1-1.2 0-.1 0-.1 0-.2-.1 0-.1.1-.1.1-.2.4-.3.5-.5.2-.3-.5-.8-.5-1.3-.5-.3 0-.7-.1-1-.2-.2-.1-.5-.2-.7-.2s-.5-.3-.7 0c0 0 0 0-.1 0-.2-.3-.5-.2-.7-.2-.4 0-.8-.1-1.2 0-.2 0-.4-.1-.6-.1s-.3 0-.5-.2h-.1c-.1 0-.2.1-.2.1-.2-.2-.5-.1-.7-.2-.4-.1-.8-.2-1.2-.4-.1 0-.3-.1-.4-.1-.4-.1-.9-.2-1.3-.4-.4-.1-.7 0-1.1-.3-.1-.1-.2 0-.3 0-.3 0-.7 0-1-.2 0 0 0 0-.1 0-.4 0-.7-.1-1.1-.1-.6 0-1.1-.1-1.7-.2-.4-.1-.7-.1-1.1-.1-.2 0-.4 0-.6-.1-.1-.1-.3 0-.5 0-.4-.1-.8-.1-1.3-.1-.2 0-.4 0-.6-.1s-.4-.1-.6-.1-.4 0-.6-.1-.2.5-.5.5c0 0-.1.1-.1.1 0-.1 0-.2 0-.2 0-.1.1-.1.1-.2s0-.2 0-.2c-.1 0-.1.1-.2.1s-.1 0-.2 0c-.3-.1-.7-.3-1-.3-.5-.1-1-.2-1.5-.3-.3-.1-.5-.1-.8-.1-.4 0-.9-.1-1.3-.2s-.9 0-1.4.1h-.1c-.2-.2-.5-.1-.7-.2-.4-.2-.9 0-1.3-.3-.4-.2-.8-.2-1.2-.3-.5-.2-1-.1-1.5-.3 0 0-.1.1-.1.1 0 .5 0 1.1-.1 1.6-.1 1.4 0 2.7-.1 4.1 0 .6-.1 1.2 0 1.8.1.5.1 1 0 1.5-.1 1.7 0 3.3-.1 5 0 .2.1.5 0 .7-.1.3 0 .5 0 .7v.7.4c0 .1.1.2 0 .2-.2.4 0 .8 0 1.1v.6.6c.1.6.1 1.1 0 1.7 0 .3 0 .6.1.8v1.9.1c-.1 0-.1.1-.1.2 0 .3.1 0 .1 0v.2c0 .6-.1 1.1-.1 1.7 0 1 0 1.9.1 2.9.1 1.1 0 2.2.1 3.3.1 1.7 0 3.5.1 5.2.1 1.5 0 2.9.1 4.4.1 3.3 0 6.5.1 9.8 0 .2 0 .3.1.5v.5c-.1.4-.1.7-.1 1.1 0 1.2 0 2.4-.1 3.6 0 .8-.1 1.5-.2 2.3v.4 1.5c-.1.5.1.9 0 1.3-.1.3 0 .6-.1.9-.1.2.1.6.1.9-.2.3.1.8-.1 1.2 0 .1 0 .3.1.5v1.2c0 .2 0 .4-.2.5 0 0-.1.2 0 .3.2.3.1.6.1.8-.1.3.1.4.2.4.2.1.5-.1.7.1.1-.2.2-.3.3-.6 0-.1 0-.3.1-.3.1-.1.2 0 .2.2 0 .5-.1 1.1-.1 1.6v.4c0 .9 0 1.8-.1 2.7 0 .6 0 1.1-.1 1.7-.1.7 0 1.5-.1 2.2-.1 1-.1 2-.1 3 0 .4 0 .8.2 1.1.1.2.1.2-.1.3-.1 0-.1.2-.1.3 0 .7 0 1.4.1 2v2c0 .6.1 1.2.1 1.8 0 .2 0 .4-.1.6v.5 1.4.3 3 .2c0-.1.1-.1.1-.2.2-.3.4-.6.5-.9h.1v.2c0 .1-.1.3-.2.4-.1.2-.2.3-.3.5-.5.5-.4 1.2-.3 2 0 .2-.1.4-.1.6 0 .1-.1.1-.1.2.1.5-.1 1 0 1.5 0 .1 0 .2.1.2.1.4.2.6.1 1.1 0 .3-.1.7-.1 1 0 .2-.1.4-.1.6 0 .3.1.7 0 .8-.2.3-.5.5-.8.6-.2.1-.5.1-.7.1-.7 0-1.4 0-2 .1s-1.3.1-1.9.5c-.2.2-.4-.1-.3-.5 0-.3 0-.7 0-1 0 0-.1-.1-.1-.1-.2 0-.4 0-.6.1-.2.2-.5.2-.8.3-.5.2-1 .3-1.5.5-.2 0-.3 0-.5 0 0 0-.1-.1-.1-.1v-.1c.2-.1.3-.2.5-.2.6-.2 1.2-.3 1.7-.6.4-.2.8-.4 1.2-.7.1 0 .2-.1.2-.2.1-.1.1-.3.2-.4-.1 0-.2-.1-.3-.1-.2 0-.3 0-.5 0-.1 0-.1 0-.2-.1 0 0 0-.1-.1-.2 0 0 .1-.1.1-.1.2 0 .4-.1.7-.1.2 0 .3-.1.3-.5-.1-.8 0-1.7-.1-2.5 0-.2 0-.4 0-.7 0-.1 0-.2 0-.2-.1-.2-.1-.6-.1-.8s.1-.4.1-.5c0-1 0-2 0-3 0-.4 0-.8 0-1.2-.1-1.2 0-2.3-.1-3.5 0-.6-.2-1.2-.1-1.8.1-.7-.2-1.4-.1-2.1.1-.5-.1-.9.1-1.4 0-.1 0-.3-.1-.3-.2-.1-.2-.3 0-.5s.2-.5.2-.9c0-.8 0-1.6.1-2.4.2-.3 0-.6 0-.9.1-.3 0-.7 0-1 .1-1 .1-2.1.3-3.1 0-.1 0-.2 0-.2-.1-.5 0-.9.1-1.4 0-.3 0-.6 0-1 0-.2 0-.4 0-.6 0-.4.1-.5.3-.3s.2.2.2-.2c0-.5 0-1.1.1-1.6 0-.5.1-.9.1-1.4 0-.4 0-.9 0-1.3 0-.5 0-1 0-1.4.1-.9 0-1.8.1-2.7 0-.5.1-.9 0-1.4.2-.7 0-1.5.1-2.2.1-.4 0-.9 0-1.4 0-.2-.1-.4 0-.6.1-.5.1-.9.1-1.4 0-.9 0-1.8 0-2.7.1-.9 0-1.8.1-2.7 0-.5.1-1 0-1.5 0-.6 0-1.3 0-1.9s0-1.3 0-1.9c.1-.8 0-1.6.1-2.4v-.1c0-.9 0-1.8.1-2.7 0-.5 0-.9.1-1.4v-.1c0-.6.1-1.2.1-1.8 0-1.4 0-2.8 0-4.2 0-.6 0-1.1.1-1.7 0-.2 0-.5-.1-.8-.1-.2.1-.4 0-.7s-.1-.7 0-1c.1-.2 0-.5 0-.7s0-.4 0-.6-.1-.4 0-.5c.2-.3.1-.7 0-1 0-.4 0-.7 0-1.1-.1-.4-.1-.8.1-1.1 0-.1 0-.3 0-.5s0-.8 0-1.1 0-.6 0-.9.1-.6 0-.8c-.1-.3 0-.5 0-.8s0-.5-.1-.8c0-.1 0-.2 0-.3 0-.7.2-1.4 0-2.1 0-.1 0-.1 0-.2.1-.6.1-1.1 0-1.7 0-.3 0-.5 0-.9-.1-.7-.1-1.5-.1-2.3s-.1-1.7-.1-2.5.1-1.5.1-2.3c0-.6-.1-1.1-.1-1.7 0-.3.1-.4.3-.4 0 0 .1 0 .1.1 0 .6.2.1.2 0 .1-.2.1-.3.2-.5-.1 0-.2 0-.3.1-.4.1-.8.2-1.2.2-.1 0-.1.1-.2.1-.1.1-.1 0-.1-.1 0-.6-.1-1.1-.1-1.7 0-.3 0-.6.1-1 0-.3-.1-.6.1-.9 0-.1 0-.2 0-.3 0-.2 0-.2-.1-.1-.6.3-1.1.7-1.7 1-.5.4-1.1.8-1.6 1.1-.4.3-.9.5-1.4.8s-.9.5-1.4.7c-.7.3-1.4.8-2.1 1.2-.3.2-.6.3-.9.4-.3.2-.6.3-.9.5 0 0 0 .1-.1.2.2.1.1.3 0 .5 0 .4 0 .8.1 1.1 0 .2.1.4.1.6 0 .3-.1.5-.2.6-.2-.2-.2-.2-.2.3 0 .9 0 1.8-.1 2.6s0 1.6-.1 2.4c-.1.6 0 1.3-.1 1.9v.5c0 1.4 0 2.9-.1 4.3-.1.9 0 1.8-.1 2.7 0 .7 0 1.4-.1 2.1-.1 1.1 0 2.2-.1 3.3 0 .9 0 1.9-.1 2.8s-.1 1.8-.2 2.7c0 .6 0 1.2-.1 1.8.1 1.2.1 2.5 0 3.7 0 .9-.1 1.8-.1 2.7 0 .8 0 1.6-.2 2.3-.1.8-.1 1.5-.2 2.3-.1.5-.1 1-.1 1.5 0 .3-.1.6-.1.9s0 .6-.1.8v.1c0 .7 0 1.4-.1 2.1 0 1 .2 1.8 0 2.6.1.6 0 1.1 0 1.7 0 .3 0 .6-.1 1s0 .8 0 1.3v7.3 1.3c-.1 1.5 0 3.1-.1 4.6 0 .7.1 1.5-.1 2.2 0 .1.1.3.1.4 0 .4.1.8-.1 1.1 0 .1.1.4.1.6v.7c0 .3.1.5-.1.8.2.4 0 .7 0 1.1 0 .9 0 1.9-.1 2.7-.2 1.7-.1 3.3-.1 5 0 .3-.1.7-.1 1s0 .6.1.8v.4c-.1.6 0 1.2-.1 1.7 0 1.2-.1 2.4-.1 3.6 0 .2 0 .4.1.5.1.4.1.7.1 1.1 0 .3 0 .7.1 1 0 .2-.1.4-.1.6s.1.4.1.5v2.8c0 .4 0 .8-.1 1.1v.2s.1-.1.1-.1c0-.1.1-.3.1-.5v-.1.2c0 .1-.1.2-.1.3-.1.4-.1.9-.2 1.3 0 .1-.1.2-.1.3s-.1.1-.1.1c0-.1 0-.1 0-.2 0-.4.1-.9.1-1.3 0-2.1 0-4.2 0-6.3 0-.2 0-.5-.1-.7-.1-.5-.1-1 0-1.4 0-.2 0-.4 0-.6 0-1.5 0-3 .1-4.6 0-.5-.1-.9 0-1.4 0-.5 0-.9 0-1.4 0-.9.1-1.9.1-2.8 0-.8.1-1.7.1-2.5.1-1.1.1-2.2.1-3.3 0-1.5 0-3.1.1-4.6.1-1.3 0-2.5.1-3.8.1-1.7.1-3.5.1-5.2 0-.2 0-.5 0-.7 0-.3 0-.5 0-.8-.1-.6 0-1.3 0-1.9 0-.7 0-1.3 0-2 0-.1 0-.3 0-.4 0-.2.1-.5 0-.6-.1-.2-.1-.4 0-.6v-.2c0-1 .1-2 .1-3 0-.9.1-1.8.1-2.7s.1-1.8.1-2.7c0-1 .2-2 .3-2.9 0-.5.1-1 .1-1.4 0-.8 0-1.7.1-2.5.1-.5.1-1.1.1-1.6 0-.9 0-1.9.1-2.8.1-1.2.1-2.5.2-3.7-.1-1.5-.1-2.6 0-3.8 0-.7 0-1.3.1-2 0-.8 0-1.6.1-2.4s.1-1.6.1-2.5c0-1.1 0-2.3.1-3.4 0-.7 0-1.3.1-2s0-1.3.1-2c.2-1.4.1-2.8.2-4.2 0-.7 0-1.5.1-2.2 0-.2 0-.4-.1-.5-.2-.2-.1-.6-.1-.9.1-.6.1-1.3.3-1.9 0 0-.1-.1-.1-.1-.2.1-.5.3-.7.5-.5.4-.9.6-1.5.7-.1 0-.1.1-.2.2s-.2.1-.2 0 0-.3 0-.4c.1-.2.2-.4.4-.3.1 0 .2-.1.3-.2.4-.4.9-.7 1.4-1 .1-.1.3-.2.4-.3s.1-.2.2-.4c.1-.6.2-1.3.3-1.9.1-.7.3-1.3.3-1.9s.2-1.2.2-1.7c.1-.6.2-1.3.3-1.9 0-.3.1-.6.1-.9.1-.7.2-1.4.4-2.1.1-.3.1-.7.2-1.1.1-.5.2-1 .2-1.4.1-.7.2-1.3.3-2 .1-.8.2-1.5.4-2.2 0-.1.1-.3.1-.5 0-.9.2-1.7.3-2.6.2-1 .3-1.9.5-2.9.1-.8.2-1.7.4-2.5.1-.7.3-1.3.4-2 .1-.4.1-.9.2-1.3.1-.6.2-1.2.3-1.8 0-.2.1-.3.2-.4v.5c-.3 1.1-.4 1.8-.6 2.5 0 .4-.1.7-.1 1.1-.2.8-.4 1.7-.5 2.6-.1.8-.2 1.6-.4 2.3-.2 1.2-.4 2.4-.6 3.6-.1.3 0 .7-.1 1.1 0 .3-.1.5-.1.8-.1.5-.2 1-.3 1.5-.2 1.1-.3 2.2-.5 3.2-.1.9-.3 1.8-.4 2.7-.1.7-.2 1.4-.3 2-.1.7-.2 1.3-.3 2s-.2 1.3-.3 2c-.1.9-.3 1.8-.4 2.6 0 .2-.1.4-.1.6s0 .2.1.2.1 0 .2-.1c.4-.3.8-.6 1.3-1 .3-.2.6-.4 1-.6.3-.2.6-.5.9-.7.6-.4 1.3-.9 1.9-1.3.9-.6 1.7-1.3 2.6-1.9.3-.2.6-.5.9-.8.3-.2.5-.3.8-.5.2-.1.4-.3.5-.6 0-.1.1-.1.2 0s.2 0 .3-.1c.2-.2.5-.5.7-.8.1-.2.2-.3.4-.3.1 0 .2 0 .1-.4-.1-.8-.4-1.5-.5-2.2-.2-.9-.4-1.8-.7-2.7-.1-.5-.2-1-.4-1.5-.3-.9-.5-1.7-.7-2.6-.1-.4-.3-.7-.4-1.1-.2-.7-.5-1.5-.7-2.2-.4-1.4-.8-2.8-1.2-4.2-.1-.5-.3-.9-.4-1.4-.5-1.1-.9-2.2-1.1-3.4 0-.1-.4-.6-.5-.6-.2-.1-.4-.2-.6-.4 0 0-.1-.2 0-.4.1-.5.2-1 .2-1.5 0-.3.2-.5.3-.8.1-.2.4-.2.5 0 .1.3.1.5.2.7 0 .1.1.2.2.3.5.3.9.5 1.4.5.1 0 .1.1.2.1h.2c.3-.3.4-.3.6 0s.4.3.7.4c.6 0 1.1-.1 1.6.1.5.1 1.1 0 1.6.1.3 0 .5.1.8.1.2 0 .5-.1.8.1.1.1.2 0 .3 0 .5 0 1 .1 1.5.3.2.1.4.1.6.1.4 0 .8.1 1.2.1.3 0 .6.2.9.2.2.1.5.1.7.1.5.1 1 .2 1.4.3.5.1.9.1 1.4.2.4.3.8.5 1.1.6.2.1.5.1.7.1.3.1.6.2.9.2.2.1.4.1.6.1.6.2 1.1.2 1.7.5.2.1.5.1.8.1.5.1 1 .2 1.5.4.3.1.7.2 1 .3.4.1.8.3 1.1.3.4.1.8.2 1.3.2.3.1.6.2 1 .3.3.1.7.2 1 .3.5.1.9.3 1.4.4.2.1.5.1.7.2.4.1.8.1 1.1.2.5.2 1 .2 1.6.4.5.2 1.1.3 1.6.5.2.1.4.2.5.2.3.1.5.1.8 0 .4-.1.8-.1 1.2.2.1.1.2 0 .3 0 .4 0 .7.1 1.1.2s.8.2 1.3.3c.3.1.6.2 1 .3.5.1 1 .4 1.5.4.3 0 .6.1.9.2.1 0 .2 0 .2-.1 0-.5.3-.2.5-.4.1-.1.3 0 .4 0 .2 0 .3 0 .3.4 0 0 .1.1.1.1.6 0 1.2.3 1.9.3.1 0 .3.2.5.2.3.1.6.1.9.3.6.3 1.3.4 1.9.5.5.1 1 .3 1.5.5.1 0 .2.1.3.1.4-.3.8-.3 1.2-.3.1 0 .2-.1.3-.2.1-.2.2 0 .2.1.1.3.2.6.2.9s.1.4.2.6c.2.3.5.5.7.8 0 0 0 .1.1.1.3 0 .5.4.7.6.6.6 1.2 1.3 1.9 2 .6.6 1.1 1.2 1.7 1.8.2.2.4.5.7.1.1-.1.3-.2.3.2 0 .2.1.2.2.3.2.1.5.2.6.7 0 .1.2.2.3.3h.2c.1 0 .1.1.1.2s-.1.1-.1.2h-.1s-.1 0-.1.1c0 0 0 .1.1.1.1.1.1.1.2.1.3.1.6.4.9.7.7.6 1.4 1.1 2.1 1.5.5.3.9.8 1.4 1.1.6.4 1.1.9 1.7 1.4.3.3.7.5 1 .8s.7.6 1 .9c.4.3.8.6 1.1.9.5.4 1 .8 1.5 1.2.2.2.4.3.6.4.1.1.3.3.4.4.3.3.7.5 1 .8.6.5 1.2 1.1 1.9 1.6 1.2.9 2.4 1.9 3.6 2.9.1.1.2.2.4.4.9.9 1.9 1.6 2.8 2.4.1.1.2.1.3.2.3.5.7.7 1 1.2.4.5.8.8 1.1 1.4.2.4.5.6.8.9.3.2.6.6.8.9s.5.5.8.7c.1.1.2.1.3 0 .2-.2.3 0 .4.1h.6.3c.2.1.3.1.4.5.1.7.1.7-.3 1.2-.1.2-.3.4-.4.5-.2.2-.4.3-.5 0-.2-.2-.3-.2-.4-.2-.2 0-.3.1-.5.1-.3 0-.6.1-.9 0-.3 0-.6 0-1 0-.3 0-.6 0-.9 0-.1 0-.2 0-.3-.1-.2-.1-.4-.2-.6-.2-.4 0-.7.1-1.1-.2h-.1c-.5 0-.9 0-1.4-.1-.8-.1-1.6-.2-2.4-.2-.5 0-1-.2-1.5-.3-.1 0-.2 0-.3 0-.4 0-.8-.1-1.1-.2-.2-.1-.5-.1-.7-.1-.4 0-.9 0-1.3-.1-.3-.1-.6 0-.9-.2h-.1c-.7-.1-1.3-.1-2-.3-.4-.1-.7-.1-1.1-.3-.2-.1-.5-.1-.7-.1-.1 0-.2-.1-.3-.1s-.3-.1-.4-.1-.3 0-.4.1-.1.2-.2.4c0 .1-.1.2-.1.3 0 0 0-.1-.1-.1-.1-.1-.1-.2 0-.4 0-.1.1-.2.1-.3-.1-.5-.2-.5-.3-.4 0 0-.1.1-.1.1-.1.3-.2.1-.3 0-.2-.3-.4-.3-.7-.3-.2 0-.4-.1-.5-.1-.2 0-.4.1-.5-.1 0 0-.1 0-.2 0-.4 0-.9-.1-1.3-.2-.3-.1-.6-.1-.9-.1-.1 0-.2 0-.3 0s-.2-.1-.2-.1c0 .1.1.2.1.3.1.2.2.4.3.5 0 .1.1.1.1.1 0-.1.1-.1.1-.2v.1c0 .2-.1.5-.1.7 0 0-.1-.1-.1-.1-.2-.4-.4-.8-.6-1.3-.1-.2-.1-.2-.3-.3-.4-.1-.8-.1-1.3-.1-.2 0-.4-.1-.5-.1s-.2-.1-.2.2c0 0-.1.1-.1.1-.1-.2-.3-.2-.4-.3-.1-.2-.3-.2-.4-.2-.3-.1-.6-.2-.9-.2-.2-.1-.4 0-.6.3-.1.1-.2.3-.3.4h-.1s0-.1 0-.2c.1-.5.1-.6-.3-.7s-.7-.3-1.1-.3-.8-.4-1.2 0c-.1 0-.2 0-.2-.1 0 0-.1-.1 0-.1 0-.1.1-.1.1-.1.2 0 .4-.1.6-.1.1 0 .1-.1.1-.2 0 0-.1-.1-.1-.1-.5 0-.9.1-1.4.1-.2 0-.3.1-.5-.1h-.1c-.4.3-.8-.1-1.2.2 0 0-.1 0-.1-.1-.2-.4-.5-.3-.7-.2s-.4.2-.6-.1c-.1-.1-.2-.1-.4-.2-.3-.1-.5-.2-.8-.2s-.6-.1-.9-.1c-.5-.1-1-.2-1.5-.4-.1 0-.1 0-.2 0-.4 0-.9-.1-1.3-.2h-.1c-.2.3-.5.1-.7 0-.4-.2-.8-.2-1.2-.4-.1-.2-.1-.1-.1 0-.4-.1-.7-.1-1-.3-.1 0-.1-.2-.1.1 0 .1 0 .2.1.4 0 .1.1.3.1.4 0-.1 0-.1-.1-.2 0-.1-.1-.1-.2-.2 0 .1-.1.2-.1.3v.6c-.2.7-.1 1.4-.1 2-.1 1 0 2.1.1 3.1 0 .1 0 .3.1.4.2.4.1.8.1 1.2v.9c0 .1 0 .3.1.3.2.2.5.3.7.4s.3 0 .3-.4c0-.1 0-.2 0-.3-.1-2.8-.2-5.8 0-8.7m-36.3-7.8s0 .1-.1.1v.1s0-.1.1-.1c0-.1 0-.1 0-.1.1 0 .1-.1.1-.1v-.1s0 .1-.1.1c.1 0 .1 0 0 .1m24.9 3.5v.1-.1c.1 0 .1-.1.1-.1-.1 0-.1.1-.1.1m-2.4 1s0 0-.1-.1c-.2-.2-.3-.4-.5-.7l-.7-.7c-.2-.1-.5 0-.7.3-.1.2-.2.3-.3.4 0 .1-.1.2-.1.3.1 0 .1.1.2.1.4 0 .8.1 1.2.1h.1c.3.1.5.2.9.3v.1h.1c-.1 0-.1 0-.1-.1m-24.3 18.6c0-.1 0-.1 0-.2-.1.1-.1.2 0 .2-.1 0-.1.1-.1.1s0 0 .1-.1m2.4 51.9s0 0 0-.1v-.1c0-.1-.1-.1-.1-.2v.3c-.1 0 0 0 .1.1m.4-17.9v.2.4c0-.1.1-.3.1-.4s-.1-.2-.1-.2c.1-.1.1-.2.1-.3-.1 0-.1.1-.1.3 0-.1 0-.1 0 0m77.3-44.6c-.1 0-.1 0-.2 0 .1.1.1.1.2 0v.1c.1 0 .1.1.2.1s.1.3.1.1c0 0-.1-.2-.1-.3 0 .1-.1.1-.2 0m-78.3 62.4s0 0 0-.1c-.1-.1-.2-.2-.3-.3 0 0-.1 0-.2.1 0 .1.1.2.1.3.2-.1.3-.1.4 0m.8 7.2v.1.8.2s.1 0 .1-.1c.3-.5.3-.5 0-.9 0 0-.1 0-.1-.1m-7.1-111.3c-.1 0-.1 0 0 0v.1c.4.3.8.5 1.2.6 0 0 .1 0 .1.1 0-.1 0-.2-.1-.2 0-.1-.1-.1-.2-.2-.3-.2-.6-.2-1-.4m3.6 101.1v.1c.5.8 1.1 1.3 1.6 2h.1s0-.1 0-.2-.1-.2-.1-.2c-.4-.4-.7-.8-1.1-1.2-.1-.1-.3-.4-.5-.5m77.4-60.2c.1.1.2.2.4.3 0 0 .1 0 .1-.1s-.1-.2-.1-.3c-.1 0-.2 0-.4-.1-.1-.1-.1-.2-.2-.2-.4-.1-.8-.2-1.2-.4-.2-.1-.5-.1-.7-.1 0 0-.1.1-.1.2-.1.1 0 .2 0 .2.1.1.2.2.3.3.4.1.7.1 1.1.1h.1c.3.5.5.2.7.1m-7.2 1.3v.1c.2.1.4.1.7.2.2 0 .3 0 .5.1.1.1.3 0 .4 0s.1-.1.1-.2c0-.3 0-.5-.2-.7-.1-.1-.2-.3-.5-.2-.2.3-.6.7-1 .7m3 .7c.2 0 .5 0 .7.1 0 0 .1-.1.1-.1s-.1-.1-.1-.1c-.1 0-.2 0-.3-.2-.1-.3-.2-.2-.3 0 0 .1-.1.2-.1.2-.1-.2-.1-.3 0-.5 0-.1.1-.3.1-.3-.2-.4-.3-.7-.5-1 0-.1-.1-.1-.2-.2v.3c.1.4.2.9.4 1.3v.2s-.1-.1-.1-.1c-.1-.4-.3-.8-.4-1.2 0-.1-.1-.1-.1-.2 0 .1-.1.1-.1.2 0 .5-.1.9-.2 1.3-.1.1 0 .2.1.2.4 0 .7 0 1 .1m-62.4-11.3c.1 0 .1 0 0 0 0 0 0 0 0-.1-.2-.3-.4-.6-.5-1s-.4-.3-.6-.5c-.1 0-.2 0-.2.1-.2.4-.5.8-.7 1.2v.2h.1c.1-.4.3-.3.6-.3.4 0 .7.1 1.1.1 0 0 .1 0 .1.1-.1.3.1.1.1.2m.7-4.5c-.2.4-.4.9-.6 1.3-.2.3-.3.6-.5 1-.1.1 0 .2.1.2h.9s.1-.1.1-.2c-.1-.7-.1-1.5 0-2.3.1 0 .1-.1.1-.1-.1.1-.1.1-.1.1m60.8 12.4s0 .1 0 0c.1.1.1.1.2.2v-.1c0-.1-.1-.1-.2-.1 0-.1 0-.1 0-.1-.4-.1-.7-.2-1.1-.3-.2 0-.4-.2-.6-.2-.1 0-.2 0-.2 0 0 .2 0 .4.1.5.3.7.7.9 1.3.8h.1c.1 0 .3.1.4.1.2 0 .2-.1.1-.3-.2-.2-.4-.4-.1-.5m-34-7.9c-.1 0-.1 0-.2 0h.2v.1c.1.1.2.3 0 .3-.1 0-.1 0-.2-.1-.3-.2-.6-.3-.8-.5-.1 0-.1 0-.2 0 0 .1.1.1.1.2.1.1.1.2.2.4.2.5.5.9.7 1.4.2.3.3.5.5.8s.2.3.4 0c.2-.4.4-.7.6-1.1.1-.2.2-.4.3-.7.1-.1.1-.2.1-.4-.1 0-.2-.1-.3-.1 0 0 0 0-.1 0-.4 0-.9-.2-1.3-.3m21.9 4.9c0 .1 0 .1 0 0 .1.1.1.1.2.2v-.1c0-.1-.1-.1-.2-.1 0-.1 0-.1 0-.1-.4-.3-.7-.5-1.1-.8-.3-.2-.5-.5-.7-.9-.4-.6-.8-1.3-1.3-2-.2-.3-.4-.7-.6-1-.3-.4-.5-.8-.8-1.3s-.5-1-.8-1.5c-.2-.4-.4-.9-.6-1.3s-.4-.9-.5-1.4c-.3-.8-.6-1.5-1-2.3-.3-.7-.5-1.4-.8-2-.2-.5-.4-1.1-.6-1.6-.1-.5-.3-.9-.4-1.4-.1-.4-.2-.7-.3-1.1-.1-.6-.3-1.2-.5-1.8-.3-.9-.6-1.7-.9-2.6 0-.1-.1-.2-.1-.2h-.1v.1c.1.8.2 1.5.4 2.2.3 1.1.5 2.2.7 3.4.3 1.1.6 2.1 1 3.1.1.3.2.6.3.9.1.2.2.3.2.5.3 1.1.7 2 1.1 3 .3.8.6 1.4 1 2.2.3.8.7 1.5 1.1 2.3.3.6.6 1.1.9 1.6s.6 1 1 1.3c.5.5 1 1.2 1.6 1.7.2.2.4.5.7.6.2.2.7.5 1.1.4m-59.2 2.1v.4c0 .2.1.6-.1.7v.2c.2.1.1.5.2.7-.2.3-.1.6-.1.9v1.3 1.3 1.3 1.3 1.2 1 .9.6c0 .2.1.5.1.7 0 .4-.1.8-.1 1.2v1.4c0 1.3.1 2.6-.1 3.9-.1.7-.1 1.5-.1 2.2v4.5c0 .2 0 .4-.1.6v.5c0 .4 0 .8-.1 1.2.2.5.1.9-.1 1.4v.3c.1.3.1.6 0 .9s0 .6-.1 1c-.1.3-.1.7-.1.9.2.9-.1 1.7 0 2.6-.2.2.1.4 0 .7s-.1.6-.1.9c0 .2 0 .5-.1.7v.3c0 .3.1.7 0 1v.6c0 .2-.1.4 0 .6v.3c-.1.9 0 1.8-.1 2.7v.9c0 .3.1.6.1.9 0 1 0 2.1-.1 3.1-.1.8 0 1.5-.1 2.3-.1 1 0 2.1-.1 3.1v1.1 1 .9c0 .8 0 1.5-.1 2.3v.2c0 .6-.1 1.2 0 1.7v.6c-.1.4.1.7.4.7.2 0 .3-.1.5 0 .3.2.5 0 .8.1 0 0 .1-.1.1-.1 0-.1 0-.2-.1-.2-.2 0-.2-.2-.2-.4 0-.8.1-1.5.1-2.3 0-1.3 0-2.5.1-3.8 0-.4-.1-.7-.1-1.1 0-.7 0-1.4-.1-2.1 0-1.3-.1-2.6 0-4 .1-.5.1-1.1.1-1.7 0-.5.1-1 .1-1.6 0-.7.1-1.4.1-2 0-.4 0-.8.1-1.3.1-.8.1-1.6.1-2.4 0-.7.1-1.4 0-2.1 0 0 0 0 0-.1 0-.4.1-.8.1-1.1s0-.6 0-.8c0-.3-.1-.7 0-.9.1-.3 0-.6 0-.9 0-.1 0-.2 0-.3.1-.3.1-.7.1-1 0-.4 0-.8 0-1.2s0-.9 0-1.3 0-.8 0-1.2 0-.9 0-1.3 0-.8 0-1.1c0-.5.1-1.1.1-1.6 0-.6 0-1.2-.1-1.8 0-.6 0-1.2 0-1.7-.1-3.3.1-6.7-.1-10 0-.3 0-.6 0-.9 0-.5 0-.8.1-1.2 0 0 0-.1 0-.2-.2-.4-.2-.9-.2-1.4 0-.2 0-.5 0-.6-.1-.6-.1-1.3-.2-2-.1-.4 0-.8-.1-1.2-.1-.5-.1-1-.1-1.6 0-.7.1-1.4 0-2s0-1.1-.1-1.7c0-.2.1-.4 0-.6-.1-.6-.1-1.2 0-1.8s0-1.2.1-1.8c0-.1 0-.1 0-.2 0 0-.1.1-.1.1-.1.2-.1.3-.2.5-.2.4-.4.8-.3 1.4 0 .4.1.9 0 1.3-.1.5-.1 1 0 1.4.1.5.1 1 0 1.5.2.1.2.3.3.6-.1.1-.1.1-.1.2.1 0 .1-.1.1-.2m-1.3-12.9v.9c0 .2.1.4.2.4 0 0 0 .1.1.1.1.3.3.6.4.9.2.4.3.7.5 1 .1.3.3.5.4.8s.3.6.5.9c.1.1.1.1.2 0 .2-.3.4-.7.5-1 0 0 0-.1.1-.2h-.1c-.2.2-.2 0-.1-.2.1-.3.1-.5 0-.8-.1-.4-.1-.8-.2-1.1-.1-.6-.2-1.2-.3-1.8 0-.2-.1-.5-.3-.3 0 0-.1-.1-.2-.1 0-.1.1-.2.1-.2.2 0 .3 0 .2-.4v-.2s.1.1.1.1 0 .1.1.2c.1.2.2.4.4.1.1-.2.3-.3.4-.5h.1v.2c-.1.1-.1.2-.2.3.1 0 .2 0 .3-.1h.2c.1.2.3.1.4.1.4-.1.8 0 1.1 0h1.3.3c.4.3.8.2 1.2.3.8.1 1.6.1 2.3.1.2.1.5-.1.7 0s.5.1.7.1.3.2.5 0c.6.2 1.1.1 1.7.3.3.1.7.1 1 .1.6 0 1.1.4 1.6.4s.9.2 1.4.2c.3 0 .6.2.9.2s.5.2.7.3c.4.1.9.2 1.3.2.5 0 1 .2 1.5.4.4.1.9.2 1.3.2.1 0 .3.1.4.1.4 0 .7.1 1.1.1h.1c.2.2.5.2.8.2.4 0 .8.2 1.3.4.3.1.6.2.9.2.1 0 .3.1.4.1.2-.1.5-.2.7-.3l1.8-.9c.3-.1.6-.2.9-.4 0 0 .1-.1.1-.1s-.1-.1-.1-.1c-.4-.4-.9-.8-1.3-1.2-.3-.2-.5-.5-.8-.7-.4-.3-.8-.6-1.2-.8-.3-.2-.7-.5-1-.8-.2-.2-.5-.3-.7-.5-.3-.2-.5-.5-.8-.7-.4-.4-.9-.8-1.3-1.2-.3-.3-.7-.7-1-1-.8-.6-1.5-1.2-2.3-1.8-.6-.4-1.1-.9-1.7-1.2-.7-.3-1.3-.7-1.9-1.2-.8-.6-1.5-1.2-2.3-1.8-.3-.3-.6-.6-1-.8-1-.5-1.9-1.3-2.8-2-.5-.3-.9-.7-1.4-1-.1-.1-.2-.1-.3 0-.2.4-.4.3-.7.1-.2-.1-.3-.3-.2-.6.1-.2 0-.3-.1-.3-.1-.1-.2-.1-.3-.2-.3-.2-.7-.4-1-.7-.2-.2-.4-.4-.6-.5-.6-.4-1.2-.8-1.8-1.2-.4-.2-.8-.4-1.1-.7-.4-.3-.8-.8-1.1-1.2-.5-.5-.9-1.2-1.5-1.5-.7-.4-1.5-.9-2.2-1.4-.6-.4-1.1-.9-1.7-1.5-.1-.1-.3-.3-.4-.3-.4-.1-.8-.4-1.2-.7-.1.4-.2.4-.3.3-.1 0-.2.1-.2.4 0 .4.2.8.4 1.1.3.6.4 1.2.6 1.7.5 1.2 1 2.4 1.4 3.6.3 1 .6 2 .9 3 .2.6.3 1.3.6 1.9.3.9.7 1.8 1 2.7.3.8.5 1.7.8 2.6.2.7.5 1.4.7 2.2.3 1.1.5 2.1.9 3.1.1.4.1.4.3.1 0-.1.1-.1.1-.2.1-.2.3-.2.4 0 .1.1-.1.4-.3.4-.1 0-.1.1 0 .2s.2.2.2.3c0 .5-.2.9-.1 1.4 0 0 0 .1-.1.2v.1s-.1-.1-.1-.1c-.1-.4-.2-.8-.3-1.2 0-.1-.1-.1-.1-.1 0 .3-.2.2-.3.3-.6.5-1.2.9-1.8 1.4-.2.2-.4.3-.6.4-.6.4-1.2.8-1.8 1.2-.5.4-1.1.9-1.6 1.3-.8.6-1.6 1.2-2.4 1.7-.6.4-1.2.9-1.8 1.4-.8.6-1.7 1.3-2.6 1.9-.6.4-1.1.8-1.7 1.1-.1 0-.1.1-.2.2.1 0 .2.1.2.1.1 0 .1-.1.2-.1.7-.4 1.4-.9 2.1-1.3.2-.1.4-.3.6-.3.2-.1.3-.1.5-.3.6-.4 1.2-.7 1.8-1.1.5-.3 1-.5 1.4-.7.2-.1.5-.4.7-.5.5-.2 1-.5 1.5-.8.4-.2.8-.6 1.2-.8.1-.1.2-.2.3-.2.4-.2.7-.5 1.1-.7.1-.1.1-.1.1-.3-.1-.2-.3-.4-.4-.6 0-.1 0-.2 0-.3h.2c.1.1.1.2.1.3 0 0 .1.1.1.1 0-.1 0-.1 0-.2 0-.2 0-.4 0-.6.1-.2.2-.2.3-.1m35.4-17.2c-.2-.1-.3-.1-.5-.2-.4-.1-.8-.1-1.2-.1-.1 0-.1 0-.2 0-.4-.2-.7-.2-1.1-.2 0 0-.1 0-.1.1 0 0 .1 0 .1.1.1.1.3.2.4.3 0 0 0 .1.1.1h-.1c-.1-.1-.3-.2-.4-.2-.5-.2-1-.5-1.6-.6-.4-.1-.8-.5-1.3-.4-.7-.5-1.5-.4-2.2-.7-.4-.1-.9-.2-1.3-.3-.2 0-.3 0-.5-.1-.3-.1-.7-.2-1-.3-.4-.1-.9-.2-1.3-.4-.4-.1-.8-.2-1.1-.3-.4-.1-.7-.2-1.1-.3s-.7-.2-1.1-.3c-.3-.1-.7-.2-1-.3-.4-.1-.8-.2-1.2-.3-.2-.1-.5 0-.7-.1-.5-.3-1.1-.3-1.6-.4-.4-.1-.7-.3-1.1-.3-.2 0-.4 0-.6-.1-.5-.1-1-.2-1.4-.4-.2 0-.4 0-.6-.1-.5-.3-.9-.2-1.4-.3-.2-.1-.5 0-.7-.1-.6-.3-1.2-.2-1.8-.4-.4-.1-.9-.2-1.3-.2-.6 0-1.1-.2-1.7-.4-.4-.1-.9-.1-1.3-.1s-.8 0-1.1-.1c-.2 0-.3-.1-.5 0 0 0-.1 0-.2 0-.1-.1-.2-.1-.3 0s-.2 0-.3 0c-.4-.2-.8-.1-1.2-.2-.2-.1-.5.1-.7-.1 0 0-.1 0-.1.1s.1.1.1.2c.1.1.1.1.2.1 0 0 .1 0 .2.1-.1.1-.1.2-.2.2s-.2-.1-.3-.2-.1-.3-.2-.4-.3-.1-.5-.1c.1.2.2.3.3.5.4.2.8.4 1.1.6.2.1.5.2.7.5.4.6.9.9 1.3 1.4.2.2.4.3.6.4s.5.2.7.4c.4-.1.9.4 1.4.9.5.4 1 .8 1.4 1.3.2.2.4.3.6.5.4.4.8.8 1.3 1.2.3.3.6.6.9.8.2.2.3.2.5-.1s.3-.2.5.1c0 .1.1.1.2.1.1.1.1.2.1.4-.1.3 0 .5.1.6.9.6 1.8 1.3 2.7 1.9.4.3.7.6 1.1.8.7.3 1.3 1 2 1.4.5.4 1 .9 1.6 1.3.2.2.4.3.6.4.4.3.9.5 1.3.8s.8.6 1.2.8c.8.5 1.6 1.2 2.4 1.8.6.4 1.2 1.1 1.8 1.7.6.5 1.1 1 1.7 1.5.5.5 1.2.8 1.7 1.3.4.4.9.6 1.3 1 .4.3.7.6 1.1.9s.8.7 1.2 1c.2.1.3.3.5.1.5-.4 1-.7 1.6-1.1.6-.5 1.3-.9 1.9-1.4.7-.5 1.4-1 2.2-1.6.9-.7 1.8-1.5 2.7-2.2.6-.5 1.2-1.1 1.8-1.6.8-.7 1.6-1.3 2.3-2.2.8-.9 1.6-1.6 2.3-2.6.5-.7 1-1.3 1.5-1.9.1-.1.2-.2.3-.4-.1 0-.3 0-.4 0-.5-.3-1.1-.1-1.7-.3-.2-.1-.4-.1-.7-.2-.4-.1-.8-.3-1.3-.4-.3-.1-.6-.2-.9-.3-.5-.2-1.1-.2-1.6-.4-.2-.1-.3-.1-.4-.1-.4-.1-.8-.1-1.1-.3-.1-.1-.2 0-.2.1-.1.4-.3.3-.4.3s-.3-.1-.4-.2c-.1 0-.1-.1-.1-.2 0-.6-.3-.5-.5-.5-.4-.1-.8-.2-1.1-.2-.3-.1-.6-.2-.9-.3-.7-.4-1.2-.4-1.8-.6m14.5 5.2c.1.4.3.9.4 1.3s.3.8.4 1.2c.2.6.3 1.3.5 1.9.1.4.3.8.4 1.2.2.5.3 1 .5 1.5.3.8.6 1.5.9 2.3.2.5.4 1.1.7 1.6.3.8.6 1.5.9 2.3.3.6.6 1.1.8 1.7.4.7.7 1.4 1.1 2.1s.8 1.3 1.2 1.9.7 1.2 1.1 1.7c.3.4.6.8.9 1.1.5.4 1 .7 1.5 1.2h.1c.5.1 1 .2 1.4.4s.7.3 1.1 0c.1-.1.3-.1.4.1.1.1.2.2.3.1h.2c.3.2.7.1 1.1.2.3.1.6.1 1 .1.2 0 .4.1.6.1.3 0 .5.2.8.1.2-.1.4 0 .5-.1 0 0 .1.1.1.1 0 .3.1.3.2.3s.3.1.4-.2c0-.1.1-.2.1-.2v.2c0 .1.1.2.1.2.2.1.4.1.6.1.4.1.9.3 1.3.3.3 0 .5.3.8.1.2-.1.4-.1.6.2.1.1.2.2.3.2.2.1.5.1.7.1s.5 0 .7.1c.5.2 1.1.2 1.6.4s1 .3 1.5.5c.1 0 .2 0 .2-.1 0 0 0-.2.1-.3 0 .1.1.2.1.3.1.1.1.1.2.2.6.4 1.3.4 2 .6.3.1.6.2.9.2h.2c0-.1-.1-.2-.1-.3s-.2-.2 0-.4c.1-.1.2.1.2.2v.3c.1.1.1.5.3.4.4-.1.7.2 1 .2 0 0 .1.2.1 0 0 0 0-.1-.1-.1-.4-.4-.7-.7-1.1-1.1-.7-.6-1.3-1.3-1.8-2s-1-1.3-1.6-1.7c-.7-.6-1.4-1.1-2-1.7-.4-.3-.8-.8-1.2-1.1-.6-.5-1.2-1.1-1.9-1.5-.5-.3-1-.8-1.5-1.2-.8-.6-1.5-1.3-2.3-1.9-.6-.5-1.2-.9-1.8-1.4-.4-.3-.8-.6-1.1-.9-.6-.5-1.2-1-1.9-1.5-.2-.2-.5-.4-.7-.6-.3-.3-.6-.5-.9-.8-.4-.4-.8-.7-1.3-1-.8-.6-1.6-1.1-2.4-1.7-.7-.5-1.5-1.1-2.2-1.7-.2-.1-.3-.1-.5.1-.1.1-.1.1-.2.2 0-.1 0-.3 0-.4 0-.3 0-.4-.2-.6-.2-.1-.4-.1-.7-.2-.2-.1-.3-.3-.3-.6 0-.2-.1-.4-.2-.5-.1-.2-.3-.3-.5-.4-.3-.3-.5-.5-.8-.8-.7-.7-1.3-1.5-2-2.2-.5-.5-.9-.9-1.4-1.4-.2-.2-.4-.4-.5-.5-.1-.2-.2 0-.3.1-.1.2 0 .3 0 .4.3.6.3.8.4 1m-14.4 16.2c.2.1.4.3.6.4s.4.2.6.4.4 0 .6.2.6.2.9.3c.5.1.9.2 1.4.2.2 0 .4 0 .6.1.5.2.9.3 1.4.3.2 0 .5 0 .7.1.3.1.5.2.8.2.3.1.6.1.8.1.3 0 .5.2.8.2.2 0 .4.1.6.2.3.1.6.1.9.2 0 0 .1-.1.1-.2.1-.5.1-1.1.1-1.6 0-.8.2-1.6.2-2.4 0-.6.1-1.2.2-1.8s.2-1.1.2-1.7c.1-.7.3-1.4.2-2.2 0-.2.2-.5 0-.7 0 0 0-.2.1-.2 0-.1.1-.2.1-.4.1-.4.1-.7.2-1.1 0-.3.1-.6.1-.9 0-1 .2-1.9.4-2.8.1-.5.1-1.1.2-1.6s.1-1 .2-1.4c.1-.5.2-1 .1-1.5 0-.1 0-.1-.1-.2 0 0-.1 0-.1.1-.5.6-1 1.2-1.5 1.9-.6.9-1.3 1.5-2 2.3-.5.5-1 1-1.4 1.4-.9.8-1.8 1.6-2.6 2.4-.3.3-.7.5-1 .8s-.6.6-.9.8c-.5.4-1 .9-1.6 1.3-.9.7-1.8 1.3-2.7 2-.1.1-.2.2-.3.2-.5.3-.9.6-1.4.9-.4.2-.7.6-1.1.8 0 0 0 .1-.1.1 0 0 0 .1.1.1.5.4 1.1.8 1.6 1.1.9.7 1.4 1.3 2 1.6m20.9 3.6c-.4-.7-.9-1.4-1.3-2.1-.3-.6-.6-1.3-.9-2s-.6-1.5-.9-2.2-.6-1.3-.8-2c-.3-1.1-.7-2.1-1.1-3.1-.2-.6-.5-1.2-.6-1.9-.3-1.3-.6-2.7-.9-4.1-.1-.4-.2-.9-.2-1.3 0-.1-.1-.1-.1-.2v.2c0 .5 0 1-.1 1.5 0 .5-.1.9-.1 1.4-.1.6-.1 1.2-.2 1.8s-.1 1.2-.2 1.8c-.1.3-.1.4.1.5 0 0 .1.1.1.2s-.1.2-.1.2c-.2 0-.2.2-.2.4-.1.7-.2 1.5-.2 2.3v.7c0 .3-.1.6-.1 1-.1.8-.2 1.6-.2 2.5-.1.9-.1 1.8-.2 2.7v.2c0 .4-.1.8-.1 1.2 0 .1.1.2.1.2h.3c.3 0 .6.1.9.3.1.1.1 0 .1-.1.1-.1.2-.3.4-.5h.1v.2c-.1.2-.2.3-.3.5-.1.1-.1.2 0 .3.3.5.6 1.1.9 1.7.1.2.3.4.4.7.1.5.4 1 .5 1.5.1.2.1.2.2.1.2-.2.4-.4.6-.5s.3-.3.2-.6c-.1-.2 0-.2.1-.2s.2-.1.2 0c.1.2.2 0 .2-.1.1-.1.1-.2.2-.2.2-.2.4-.3.6-.5.3-.3.6-.5.6-1.2v-.1c.1.1.3 0 .4-.1 0 .4.2.4.4.4.3 0 .6 0 .9.1.4.1.7.1 1.1.4.2.2.5.2.7.3.4.1.7.1 1.1.3 0 0 .1 0 .1-.1s0-.1-.1-.2c-.3-.3-.6-.6-.9-1-.7-.2-1.2-.7-1.7-1.3m-52.7 25.2c0-.3 0-.6 0-.8 0-.3 0-.5 0-.7 0-.3-.1-.5-.1-.8 0-1.3 0-2.7-.1-4 0-.5.1-1-.1-1.4 0-.1 0-.3 0-.3.1-.2.1-.4.1-.6 0-.3 0-.6 0-.9 0-1 .1-2-.1-3 0-.1 0-.3 0-.4.1-.2.1-.3 0-.5 0-.1 0-.3 0-.4 0-.5.1-.9.1-1.4 0-.4.1-.8-.1-1.1.2-.4 0-.9.1-1.3 0-.5 0-1.1 0-1.6 0-.3 0-.6 0-.9s0-.6 0-.9c0-1.4 0-2.8.1-4.1.1-.8 0-1.7 0-2.5 0-.4-.1-.6-.4-.6-.1 0-.2 0-.2 0s-.1-.1-.1-.1 0-.1.1-.2c.1-.3.3-.1.5-.2.2 0 .3-.1.3-.4 0-.1 0-.2 0-.2 0-.1.1-.1.1-.1.1 0 .1.1.1.1v.3c0 .3.1.5.3.5.3.1.5.2.8.2.3.1.7.2 1.1.2.3.1.5 0 .8.1.3.2.7.2 1 .2h.5c.3.1.3.1.3-.4v-.1c0-.5-.1-.6-.4-.7 0 0-.1-.1-.1-.1-.3 0-.6-.3-.9-.1-.1.1-.2 0-.3 0-.3-.2-.6-.3-1-.3-.3 0-.7 0-1-.1-.5-.1-1-.2-1.5-.2-.1 0-.2 0-.3.2-.3.6-.6 1.1-.9 1.7v.1h.1c.1 0 .3-.1.3.2 0 0-.2.2-.3.3 0 0 0 0-.1 0-.2-.1-.2.1-.2.3v.4c0-.1 0-.2 0-.3s.1-.1.2-.1v.1c-.2.2-.1.5-.1.7 0 .3-.1.6-.1 1 0 .3.1.6.1 1 0 .5.1.9-.1 1.3v.2c.1.4 0 .9 0 1.3 0 .7 0 1.5.1 2.2 0 .3.1.5 0 .8v.2c.2.5 0 1 .1 1.6.1.4 0 .8.1 1.2.3 1.1.3 2.2.4 3.3.1.8 0 1.7.1 2.6v1 1.5 1.4c0 .4.2.9-.1 1.3 0 .6 0 1.1.1 1.7v1c0 .4.1.8 0 1.1-.1.5-.1 1 0 1.5s0 1 0 1.5c0 .2-.1.4-.1.7 0 .2.1.5.1.7v1.7c0 .5.1 1 0 1.5-.1.2-.1.6 0 .8v.9c0 .4 0 .8.1 1.2.1.2 0 .5-.1.8 0 1.3.1 2.5-.1 3.8-.1.8 0 1.6-.1 2.4-.1.9 0 1.9-.1 2.8 0 .3-.1.7 0 1v.2c-.1.4-.1.8-.1 1.3 0 .3-.1.5-.1.8 0 .2.1.5.1.7 0 .3 0 .6-.1.9s.1.6 0 .8v1c0 .6 0 1.1-.1 1.7v.1c-.2.2-.1.5 0 .8v.2c0 .7-.1 1.4-.1 2.2 0 .3.1.6.1.9 0 .2-.1.4-.1.5v.7.8c0 .9.1 1.9-.1 2.9 0 .3 0 .6.1.8.1.3-.1.4 0 .7.1.2 0 .6 0 .9s-.1.6 0 .8c0 .2.1.3 0 .5s.1.5.2.4c.2 0 .3-.1.5-.1.3 0 .3 0 .3-.6 0-1.3 0-2.6.1-3.9.1-.7.1-1.5.2-2.3.1-.7.1-1.5.1-2.2 0-.8 0-1.7.1-2.5.1-1.5 0-3.1.1-4.6.1-2.1.1-4.3.1-6.4 0-.2 0-.4 0-.5.1-.2 0-.3 0-.5 0-.5 0-.9-.1-1.4-.1-.4.1-.8 0-1.3-.1-.8 0-1.6-.1-2.4-.1-1 .1-1.9-.1-2.9 0-.2 0-.4 0-.6 0-.3.1-.7 0-1 0-.2 0-.4-.1-.6 0-.7.1-1.3 0-2 0-.2 0-.3 0-.5 0-.6-.1-1.2 0-1.8 0-.1 0-.2 0-.3-.1-.2-.1-.4-.1-.6.2-.7.2-1.5.2-2.4m-1.1 66.2c-.3-.3-.6-.7-.9-1s-.4-.3-.7 0c-.1.1-.2.3-.3.4-.2.2-.3.3-.5.5s-.3.4-.4.6c-.3.4-.3.4-.3 1.1v.8 1.7c0 .3-.1.6 0 .9 0 .1 0 .2.1.2.3 0 .5.1.8-.1 0 0 .1-.1.1-.1h-.1c-.2 0-.4 0-.6 0-.1 0-.1-.2-.2-.3.1 0 .1-.1.2-.1.2 0 .5.1.7.2.3.1.5.2.8.3.2.1.4-.1.5-.3.2-.4.5-.7.7-1 .4-.6.8-1.1 1.1-1.7 0 0 .1-.2 0-.2-.1-.2-.2-.4-.3-.6-.2-.5-.4-.9-.7-1.3m-4.4-114.1c.3.9.5 1.9.8 2.8.3.8.4 1.6.7 2.4s.5 1.6.7 2.5c.4 1.5.8 3 1.1 4.5.1.6.1.7.6.3.1-.1.3-.2.4-.3.2-.3.2-.5.1-.8-.2-.5-.4-1-.5-1.5-.2-1-.5-1.9-.8-2.8-.1-.2-.2-.5-.2-.7-.3-.9-.5-1.8-.8-2.6-.3-.7-.6-1.4-.8-2.2-.4-1.3-.8-2.6-1.2-3.9-.3-.9-.6-1.8-.9-2.7s-.7-1.7-1-2.5c-.3-.9-.7-1.6-.8-2.4-.1 0-.1-.1-.1-.1 0 .1-.1.1 0 .2.1.8.2 1.6.5 2.4.2.7.5 1.4.7 2.2s.4 1.6.7 2.4c.2.8.5 1.8.8 2.8m4.7 103.4c.1-.2.2-.5.4-.7.3-.3.1-.9.3-1.3-.2-.3.1-.7-.1-1 .2-.2 0-.3-.1-.4-.3-.3-.7-.6-1-1-.2-.1-.2.1-.2.2.2.8 0 1.6.1 2.4.1.4 0 1 .1 1.4 0 .1.1.4-.1.2 0 0-.1.1-.1.1v.2c0-.1-.1-.2-.1-.3 0-.6-.1-1.1-.1-1.7 0-.3 0-.5 0-.8s0-.6 0-.8 0-.5 0-.7 0-.6-.2-.8c-.3-.2-.7-.5-1-.8h-.1s-.1.2-.1.2c0 .3 0 .5.1.8 0 .4-.1.9 0 1.3s0 .8.1 1.2c0 .1 0 .1-.1.2s-.3 0-.3-.3c0-.2.1-.5 0-.7 0-.6-.2-1.2-.1-1.9v-.1s-.1 0-.1.1c0 0 0 .1-.1.2-.1.3-.2.6-.4.9-.3.4-.6.8-.5 1.5v.2c-.1.3 0 .4.1.5.2.1.5.3.7.5.2.1.3.2.5.3s.3.3.4.4c.3.2.5.5.8.7.2.2.4.5.5.4.2 0 .3-.4.5-.6.1.1.1 0 .2 0m-.6 7.8c-.1 0-.1.1-.2.1 0 .2-.1.2-.1.3-.1.1-.1.3-.2.4 0 .1-.1.3-.2.1 0 0-.1.1-.1.1v.1c.3.3.6.8.9 1.1.4.5.8 1 1.2 1.6.3.4.3.5.6 0 .2-.3.3-.7.2-1.1 0-.6-.1-1.2 0-1.8.1-.8 0-1.5.1-2.3.1-.5 0-1-.1-1.5 0-.3-.2-.3-.3-.2-.5.7-1.1 1.4-1.6 2.3 0 .3-.1.5-.2.8m-.6-4.2c-.1.2-.2.3-.2.5-.1.2-.3.5-.4.7-.1.1-.1.2-.2.4 0-.2-.1-.3-.1-.5v-.1-.1s-.1.1-.1.1v.5c0 .1 0 .2-.1.3-.1.2-.3.5-.4.7s0 .6-.3.8c-.1.1-.1.4 0 .5s.2.2.3.3c.3.2.5.4.8.6.1.1.2.1.3 0 .3-.5.6-.9.9-1.3.4-.6.8-1.2 1.2-1.7.2-.3.4-.5.6-.8.1-.1.1-.2 0-.4-.3-.4-.6-.7-1-1-.1-.2-.3-.3-.4-.5-.2-.1-.4-.1-.4.2-.1.3-.3.5-.5.8m-.5 12.9c-.1.1-.2.1-.3.2-.3.1-.5.3-.8.3-.2 0-.4.1-.6.2-.1 0-.2.2-.2.4s.1.1.2 0c.6-.2 1.2-.5 1.7-.8h.3s.1.1.1.1-.1.1-.1.1c-.2.1-.3.2-.5.2-.5.3-1 .6-1.5.8s-.6.4-.5 1c0 .2 0 .4.2.2.2-.1.3-.2.5-.3s.7-.1.9-.1c.1 0 .2.1.3 0 .2-.2.3-.1.5-.1.7 0 1.3-.1 2-.1.4 0 .7-.4.7-.9.1-.7.1-1.4.1-2.1 0-.2-.1-.2-.1-.2-.3 0-.6.1-1 .1 0 .1-.1.1-.1.2 0 0 .1.1.1.1.2 0 .4 0 .5.1.1 0 .1.1.2.2-.1.1-.1.1-.2.2 0 0-.1.1-.1 0-.1-.2-.3-.1-.4 0-.2.1-.4.1-.5 0-.4-.3-.9-.2-1.4.2m-1.5-16.8c-.1-.2-.4-.2-.4-.6 0-.1-.1-.2-.1-.2v.3c0 1 0 1.9.1 2.9s.1 2 .1 3c0 .5 0 1 .1 1.4v.1h.1c.1-.4.4-.6.5-.9.3-.6.5-1.2.8-1.7l.9-1.8c.1-.1.2-.4 0-.5-.3-.2-.5-.5-.8-.7-.5-.4-.9-.7-1.3-1.3m3.7-85.7c.3-.5.6-1 .9-1.5.2-.4.5-.7.7-1.1h.1v.2c-.3.5-.5.9-.8 1.4-.2.3-.4.6-.6.8 0 0-.2.3.1.3.2 0 .4 0 .5.1.6.2 1.1.3 1.7.4.2 0 .4.1.6.2 0 0 .1.1.1.1 0-.1 0-.3-.1-.3-.3-.1-.3-.6-.5-.9-.2-.4-.4-1-.6-1.5-.1-.2-.2-.5-.2-.7 0-.4-.1-.4-.3-.4-.3 0-.7 0-1 0s-.6-.2-1 0c-.2.1-.4 0-.6 0 0 0-.1.2-.1.2.1.7.2 1.5.3 2.2 0 .1.1.3.2.3.2.2.4.2.6.2m43.3 4.1v.8c.1 0 .3-.1.4-.1s.3.1.4.2.1 0 .1-.1c0-.4 0-.8.1-1.1 0-.7.1-1.3.1-2s.1-1.4.2-2c.1-.8.2-1.6.2-2.3.1-1 .1-2.1.3-3.1 0-.1 0-.2 0-.2 0-.1-.6.1-.7.2v.2c-.1.8-.2 1.6-.3 2.5-.1.7-.1 1.4-.2 2.2-.1.6-.1 1.3-.2 1.9 0 .4-.1.8-.1 1.3 0 .3 0 .5-.1.8-.1.1-.2.4-.2.8m-10.7-1.5c.1 0 .3.1.4.1h.1v-.1c-.2-.1-.3-.3-.5-.4-.4-.2-.9-.4-1.3-.7-.9-.8-1.8-1.3-2.7-2-.1-.1-.3-.1-.4-.1-.4.2-.8.4-1.2.7-.3.1-.6.3-.9.4s-.5.4-.8.3c0 0-.1.1-.1.2 0 0 .1.1.1.1h.5c.5.1 1 .2 1.4.3.3.1.6 0 .8.1s.3 0 .5 0c.4.2.9.2 1.3.2.3 0 .5 0 .8.2s.7.2 1 .3c.4.1.7.2 1 .4m11.3 6c0-.6-.1-.8-.5-.8-.2 0-.4 0-.6 0-.1 0-.2 0-.2.2s-.1.2-.1.1c-.1-.1-.2-.2-.3-.3-.2-.3-.3-.2-.5 0-.1.2-.2.6-.4.3 0 0-.1.1-.1.1-.1.1-.1.2-.2.4-.2.4-.4.4-.5 0-.1-.2-.1-.4-.2-.6s-.2-.3-.3-.3c-.3-.1-.5.2-.8-.1 0 0-.2 0-.1.3v.3c-.1.1-.2.2-.3.2 0 0-.1-.1-.1-.1 0-.1 0-.1 0-.2s.1-.1.1-.1 0-.1.1-.1c0 0 0 0-.1 0s-.2 0-.2.1c-.1.2-.3.4-.4.7 0 .1-.1.1-.1.2h.1c.2 0 .3-.2.5-.1s.5.1.7.1h.2c.6.3 1.2.3 1.7.4.4.1.9.1 1.3.2s.8.2 1.1.3c.1 0 .2 0 .2-.1.1-.2.2-.1.2 0 0 0 0 .1.1.1 0-.1 0-.1 0-.2-.1-.2-.2-.6-.3-1m-43.5 68.1c-.1-.1-.1-.2-.2-.2v.2c.1.2.2.4.4.6.1.1.2.2.3.3v.3c-.1 0-.1 0-.2 0-.2 0-.3-.2-.4-.4 0 0-.1-.1-.1-.1v.2c.1.2.1.5.1.8 0 .4-.1.8-.1 1.2 0 .3 0 .6.1 1 .1.5-.2.9 0 1.4-.2.3 0 .4.1.6.3.3.3.3.4.8 0 .1 0 .1.1.2 0-.1 0-.1 0-.2 0-.4 0-.8 0-1.2s.2-.8 0-1.1c.2-.5.1-1.1.1-1.6.1-.9.1-1.9.2-2.8.1-1 .1-2 .2-3 0-.1 0-.2-.1-.2 0 .1-.1.1-.1.2s0 .2-.1.3c-.2.4-.5.8-.7 1.3 0 .1-.1.1-.2.2.2.3-.1.6 0 .8 0 .1.1.3.1.4 0 0 .1.1.1.1 0-.1 0-.1 0-.2s-.1-.3.1-.3c0 0 0 .2.1.3v.2.5c.1-.3 0-.4-.2-.6m2.2-77.9c.3.6.6 1.2.8 1.8.1.2.2.2.3 0 .5-.9 1.1-1.8 1.6-2.6.1-.1 0-.3-.1-.3-.3 0-.5-.1-.8-.1-.4 0-.8-.1-1.2-.1h-.1c-.3-.3-.7 0-1-.2-.2-.1-.3.1-.1.4.3.3.4.6.6 1.1m18.5 4.5c.2.5.2.5.4.5s.5.1.7.1c.3 0 .5.1.8.1.4.1.8.2 1.1.3.1 0 .2-.1.3-.2 0 0 0-.2-.1-.3-.1-.3-.2-.5-.4-.8-.1-.2-.1-.4-.2-.5-.1-.2-.2-.5-.3-.7-.1-.6-.3-.7-.6-.6-.1.1-.3.2-.4.3-.4.6-.8 1.2-1.3 1.8m23.7 4.6c-.2-.1-.4.3-.6.2v.1.4c.1.3.1.5.2.8.1.4.1.5.3.5h2.4c.2 0 .3 0 .5-.1-.1-.2-.1-.4-.2-.6-.2-.5-.4-1-.9-1.1-.2 0-.4 0-.6-.1-.3 0-.7 0-1.1-.1m-27.9-5.4c.2.4.2.4.5 0 .3-.6.6-1.2.9-1.8.1-.1.2-.3.1-.4-.1-.2-.2-.4-.3-.4-.4 0-.7-.2-1.1-.2-.6-.1-1.2-.1-1.8-.4 0 0-.1 0-.1.1s0 .1.1.2c0 0 .1 0 .1.1.5.8 1 1.8 1.6 2.8m2.6-1.4s.1.1.1.1c.3.7.8 1.2 1 1.9 0 .1 0 .2.1.1.2-.3.4-.5.6-.8.4-.4.7-.9 1.1-1.3 0-.1.1-.1.1-.2-.1-.1-.1-.2-.2-.2-.1-.1-.2-.1-.3-.1s-.2 0-.3 0c-.4-.1-.7-.3-1.1-.3-.6-.1-1.1-.2-1.7-.4 0 0-.1 0-.1.1v.2c.3.3.5.6.7.9m-19.9 75.5s-.1-.1-.1 0c-.2.2-.3.4-.4.6 0 .1-.1.1-.1.2-.1.4-.2.8-.1 1.2v.8c0 .3.1.5 0 .8 0 .1 0 .3.1.3.4.4.7.8 1.1 1.3 0 0 .1-.1.1-.1.1-.6-.1-1.2 0-1.9 0-.1 0-.1 0-.2s-.1-.2 0-.3c.1-.6 0-1.3.1-1.9 0-.1 0-.2 0-.3-.4-.2-.5-.3-.7-.5m13-76.1c.2.4.4.7.5 1.1.2.4.3.4.5.1 0 0 .1-.1.1-.1.1-.2.1-.3 0-.4-.1 0-.1-.1-.2-.1 0 0-.1-.1-.1-.1 0-.1.1-.2.1-.2.1-.1.2.1.2.2.1.2.1.2.2 0 .2-.5.5-.9.7-1.4.1-.2.1-.4-.1-.4-.3-.1-.7-.2-1-.2-.4 0-.9-.1-1.3-.2-.1 0-.2 0-.3.1 0 .1-.1.3 0 .4.3.3.5.7.7 1.2m22.8 21c.1-.1.1-.2.2-.3.2-.3.4-.5.5-.9.1-.3 0-.8 0-1.2v-.1c0-.3 0-.3-.2-.2-.2 0-.3 0-.5-.1-.3-.2-.7-.6-1.1-.6-.2 0-.3-.1-.3.3v1.5c0 .3 0 .6.3.8.2.1.3.4.5.7.1.1.1.2.2-.1 0-.1.1-.1.1.1v.3c.2-.1.2-.1.3-.2m-9.9-17.4c.1.3.2.6.3.6.4.1.9.2 1.3.3h.5c.2.1.3 0 .5-.1.3-.2.3-.3.1-.6-.4-.6-.8-1.2-1.2-1.8-.1-.1-.2-.3-.3-.4-.1 0-.2.2-.3.4 0 .1-.1.1-.1.2-.3.4-.5.8-.8 1.4m-15.5-6c-.4-.2-.7-.1-1-.1-.1 0-.3.3-.2.4.2.4.3.8.5 1.3s.4.9.6 1.3c.1.2.2.1.2 0 0 0 .1-.1.1-.1.4-.7.8-1.4 1.2-2.1.1-.1.1-.2.1-.3 0 0 0-.2-.1-.2-.4 0-.9-.1-1.4-.2m4.8 4.5c.1 0 .1.1.2.1.3 0 .7.1 1 .1.3.1.6.2.8.2h.1c0-.1 0-.1-.1-.2-.3-.4-.5-.8-.8-1.3-.3-.6-.6-1.2-.9-1.7-.1-.1-.1-.2-.2 0-.2.3-.3.6-.5.9-.2.4-.4.8-.6 1.2 0 .1-.1.3-.1.3 0 .1.1.2.2.3h.2c.2.1.4.1.7.1m16.6 0c-.2-.1-.5-.1-.7-.2-.1 0-.1 0-.2 0v.2c.1.2.2.5.3.7.3.7.7 1.3 1 2 .2.4.4.4.6 0s.4-.9.6-1.3c.2-.3.2-.8.5-.9h.1s-.1-.1-.1-.1c-.2 0-.4.1-.6 0-.3-.1-.6-.1-.9-.1-.1-.1-.3-.2-.6-.3m-5.5.2c.2-.3.4-.7.6-1 0 0 .1-.1.1-.1s-.1-.1-.1-.1c-.2 0-.5 0-.7-.1s-.4 0-.6-.1-.4 0-.6-.1c-.2 0-.4-.1-.6-.1s-.2.1-.1.3c.3 1 .6 1.8 1 2.7.1.2.2.2.3 0 .1-.4.4-.9.7-1.4m-17.9-4.9c-.2 0-.5 0-.7-.1-.5-.2-1 0-1.5-.1-.1 0-.1.1-.1.2.1.4.3.8.4 1.1s.2.6.3.8.3.4.3.7c0 .2.1.1.2 0 .2-.4.4-.7.7-1.1 0-.1.2-.2.2-.1.1.2.1 0 .2-.1.1-.2.2-.4.3-.5.1-.2.2-.4.1-.6v-.1c.1 0 .1-.1.2-.1-.1 0-.2 0-.2 0-.2 0-.3 0-.4 0m10.4 3.2c-.2.4-.4.7-.5 1.1-.1.1-.2.2-.2.4 0 .3.2 0 .3.3.1.5.3.3.6.4.3 0 .6.1.9.1h.1c.3.1.6.1.9.2 0 0 .1 0 .1-.1 0 0 0-.1-.1-.1 0-.1-.1-.1-.1-.2-.3-1-.9-1.6-1.4-2.4-.2-.3-.2-.2-.4.1-.1 0-.1.1-.2.2m26.7-7.5c.2-.7.2-1.5.3-2.3.1-.4 0-.9.1-1.3 0-.3 0-.6.1-.9.1-.7.1-1.5.2-2.2 0-.1 0-.2-.1-.4 0-.1 0-.2 0-.3.2-.3.1-.7.1-1 0-.1 0-.1 0-.2 0 0-.1.1-.1.1-.1.4-.2.8-.2 1.3-.1.8-.2 1.6-.4 2.4-.1.6-.2 1.2-.3 1.8-.1.8-.1 1.7-.3 2.5 0 .1 0 .3.1.3h.2c-.1.1-.1.1-.2.2h-.1v.2s.1.1.1.1c.1-.1.3-.2.5-.3m-15.3 9.8c-.2.4-.5.8-.7 1.2-.1.3 0 .6.2.7.6.1 1.2.2 1.8.4.2 0 .4.1.6.2h.2c0-.1-.1-.1-.1-.2-.1-.2-.2-.4-.4-.6-.2-.4-.4-.7-.6-1.1-.2-.3-.2-.8-.5-1.1 0 0 0-.1 0-.2 0-.3-.1-.2-.2 0s-.2.5-.3.7m3.1 1.8c-.1.2-.1.5-.2.7 0 .1-.1.2 0 .2.3 0 .5.1.8.1.3.1.6.2.9.2.3.1.6.1.9.2h.1c0-.1 0-.2 0-.2-.1-.1-.2-.2-.3-.4-.4-.8-.9-1.5-1.3-2.4-.1-.3-.2-.3-.3 0-.2.5-.4 1-.6 1.6m-3.7-1.3c.3-.5.5-1 .8-1.4.1-.1 0-.2-.1-.2-.2 0-.4.1-.6 0-.3-.1-.6-.2-.9-.2-.1 0-.2 0-.3 0-.3-.2-.6 0-.9-.2 0 0-.1 0-.2.1 0 .1 0 .2.1.2.4.7.8 1.3 1.3 2 .1.2.2.5.4.1 0-.1.1 0 .2 0 0-.2.1-.3.2-.4m9.3 2.3c-.4-.6-.8-1.2-1.2-1.8-.1-.2-.2-.2-.4 0-.3.5-.5 1.1-.7 1.8v.2c.1.1.2.3.4.3.3.1.5.1.8.1.4 0 .9 0 1.3.2h.1c0-.1 0-.2 0-.2 0-.1-.1-.3-.3-.6m-41.3 71.1c.1-.2.1-.3.2-.4h.1v.1c-.1.3-.3.6-.4.9v.2h.2c.4-.7.9-1.4 1.3-2.1.2-.3.2-.5-.1-.8-.4-.4-.7-.8-1.1-1.2-.1-.1-.2-.2-.3-.3v.6.2.8 1c0 .1.1.3 0 .3-.2.3 0 .5.1.7m43.1-72.7c-.3-.1-.5-.1-.8-.2-.4-.1-.7-.2-1.1-.3-.3-.1-.5-.2-.8-.2-.1 0-.2 0-.2 0l.2.2c.1.2.3.4.4.6.4.6.7 1.2 1.1 1.8.2.3.2.3.3.1.3-.7.6-1.3.9-2m-41 83.5c.6.7 1.2 1.3 1.7 2 .1.1.2 0 .1-.1 0-.5-.1-.9-.1-1.4 0-1.2-.1-2.4-.1-3.7v-.1s0-.1-.1-.1c0 0-.1.1-.1.1 0 .3-.2.5-.3.6s-.1.2-.1.3c0 .7-.1 1.4-.1 2.1 0 .3.1.5.3.6.1 0 .2.1.2.1.1.1.1.2.1.3-.1 0-.1.1-.2.1-.2 0-.4-.1-.5-.1s-.2-.1-.3-.4c0-.3-.5-.8-.7-.8.2.2 0 .2.2.5m35.5-54.7v.3c.1.1.1.3.2.4 0-.2 0-.3 0-.5s.1-.4.1-.6c0-1.1 0-2.1.1-3.2 0-.4 0-.7.1-1.1 0-.2 0-.4 0-.6s-.1-.5-.1-.7c0-.3 0-1 0-1.2 0-.7 0-1.3 0-2 0-.4 0-.7 0-1.1v-.1s-.1.1-.1.1v.2c-.1.9-.1 1.7-.1 2.6 0 1.3-.1 2.5-.2 3.8 0 .6.1 1.2-.1 1.8.1.5 0 1.2.1 1.9m20.2-21.4c.3 0 .6 0 .9.1.1 0 .2-.1.2-.3.1-.4.1-.8.3-1.1v-.2c-.1-.1-.3-.1-.4-.1-.4 0-.7-.1-1.1-.2-.2-.1-.4.1-.5.3-.1.1 0 .2 0 .3.2.4.3.8.5 1.2-.1-.1 0-.1.1 0m-58.2 82.1c-.1-.1-.2-.2-.2-.2-.2-.1-.3-.3-.5-.2s0 .4 0 .6v.2.8.9.8.2s.1 0 .1-.1c.3-.6.7-.9 1.1-1.4.1-.2.3-.3.4-.5 0-.1 0-.2.1-.3 0 0-.1-.1-.1-.1-.5-.1-.6-.2-.9-.7m.1-93.9c-.1-.2-.1-.3-.2-.5 0 0 0-.1-.1-.1v.1c0 .3-.1.7-.1 1 0 .4 0 .7-.1 1.1s0 .9.1 1.3h.1.7c.2 0 .4-.1.6-.1h.2c-.1-.1-.1-.1-.2-.2-.2-.2-.3-.5-.5-.8-.1-.1-.1-.2-.1-.3 0-.2 0-.3.1-.2h.2c0-.1-.1-.2-.1-.2-.1-.1-.1-.1-.2-.2-.1-.3-.2-.5-.4-.9m13.8 3.5c.1 0 .3.1.4.1.2 0 .4.1.6.2.1 0 .1.1.2.1 0 0 .1 0 .1-.1 0 0 0-.1-.1-.1-.2-.1-.4-.4-.5-.6-.3-.5-.6-1-1.1-.9 0 0 0 0-.1 0-.3-.3-.6.1-.9 0 0 0 0 0-.1.1-.2.2-.3.5-.5.7-.1.1-.1.2-.1.3.1 0 .1-.1.2-.1h.4c.1 0 .1.1.2.1.4-.1.8.1 1.3.2m1.3-2.4c0-.1-.1-.2-.1-.3-.1-.6-.1-1.2-.2-1.8 0-.1 0-.1-.1-.2 0 0-.1.1-.1.1-.1.5-.3.9-.5 1.2-.2.2-.4.5-.6.8v.3c.2.4.4.7.8.7.2 0 .4.1.6.2s.2-.1.1-.3c.1-.2.1-.4.1-.7m41.6 6.5c-.1 0-.1-.1-.2-.1s0 .1 0 .2c.1.5.3 1 .5 1.5 0 .1.1.2.2.2.2 0 .5-.1.7-.2.3-.2.6-.6.9-.9 0 0 .1-.1.1-.2-.1 0-.1-.1-.2-.1-.4 0-.7-.1-1.1-.2-.2 0-.5-.1-.9-.2m-27.8-1.4c.2 0 .3.1.5.1h.1s0-.1-.1-.1c-.2-.3-.4-.5-.6-.9-.1-.3-.3-.4-.5-.4s-.3.1-.5.1h-.1s.1-.1.1-.1c0-.1.1-.2 0-.2-.2.1-.4-.1-.6 0-.4.2-.7.5-1 .8v.1c.3 0 .6.1.9.1.2 0 .4.1.6.2zm2.6-.5s-.1.1-.1.1c0-.1-.1-.2 0-.2.1-.2 0-.2-.1-.2-.4-.1-.7.3-1 .6-.1.1-.2.2-.3.4 0 0 0 .1-.1.2 0 0 .1 0 .1.1.2 0 .5.1.7.1.6 0 1.2.1 1.7.1.1 0 .1.1.2.1h.1s0-.1-.1-.1c-.2-.4-.5-.6-.6-1.2 0 0-.1 0-.1-.1 0-.2-.2-.2-.4.1m-27.7 95.1c.1 0 .3-.2.2-.3-.1-.3 0-.4 0-.7s.1-.6 0-.8c0-.2-.2-.2-.3-.4-.1-.1-.1-.1-.2 0-.1.3-.3.6-.4.8-.4.5-.7 1-1.1 1.6 0 .1-.1.1-.1.2h.2c.5-.4 1-.3 1.7-.4m59.9-89.2c0-.1 0-.2 0-.3 0-.3 0-.4-.2-.4-.3 0-.6 0-.9-.1-.3-.2-.4 0-.6.2-.1.1-.1.1 0 .3.3.4.5.9.8 1.3 0 .1.1.1.2.1h.6s.1-.1.1-.2c-.1-.2-.1-.5 0-.9m-12.6-1.1c.2 0 .5 0 .7.1.3.2.7.2 1 .2.2 0 .3-.2.3-.4 0-.3.1-.6.2-.9 0 0 0-.3-.1-.3-.2-.1-.5-.2-.7-.2-.1 0-.2 0-.3.1-.4.4-.8.8-1.2 1.2 0 0 0 .1.1.2m-48.2-33.5c.1.1.2.2.3.3.3.3.6.6.9.8.5.3.9.5 1.4.9.4.3.8.5 1.2.8.3.2.6.5.9.8h.1s0-.1-.1-.1c-.1-.1-.3-.3-.4-.4-1.1-.7-2-1.8-3-2.7-.7-.6-1.4-1.1-2.1-1.6h-.1s0 .1.1.1c.3.4.5.7.8 1.1m39.6 29.8c0 .1 0 .2.1.2h.3c.1 0 .2.2.2-.1 0-.1 0-.2.1-.2s.1-.1.2.1c0 .1.1.2.2.2.3.3.7.1 1 0 .1 0 .2-.3.1-.5-.3-.5-.5-1-.8-1.4 0-.1-.2-.1-.2 0-.1 0-.1.2-.2.3-.4.4-.7.9-1 1.4m24.4 3.8c.2-.2.3-.3.5-.5v-.1s0-.1-.1-.1c-.4 0-.9-.1-1.3-.2-.3-.1-.7-.1-1-.1 0 0-.1 0-.1-.1h-.1v.3c.3.3.3 1.2.8 1 .4.1.9.3 1.3-.2m-6.1.9c.2-.2.4-.3.6-.5v-.2c-.1-.2-.2-.4-.3-.4-.4 0-.8-.1-1.1-.2-.1 0-.2 0-.3.2-.1.4-.2.8-.2 1.2 0 .3 0 .4.2.3.1 0 .2-.1.4-.1s.4 0 .7-.3m6.9 1.6s.1-.1.1-.1c0-.4.1-.9.3-1.2 0 0 0-.2-.1-.2-.4-.1-.9-.2-1.3-.2 0 0-.6.4-.6.4.1.1.2.3.3.4 0 0 0 .1.1.1.3.3.5.6.8.8.1.1.2.2.3.3 0 0 .1.1.1.2 0-.1 0-.2.1-.2-.1 0-.1-.1-.1-.3m-22.6-6.4c.3-.5.6-.9 1-1.4v-.1s-.1-.1-.1-.1c-.3 0-.5-.1-.8-.1-.2 0-.4-.2-.6-.2-.2-.1-.5-.1-.7-.1 0 0-.1 0-.1.1s.1.1.1.2c.1.2.3.3.4.5.2.2.5.7.8 1.2m-41.7 65.6v.2c.1-.1.2-.3.3-.4-.1 0-.2-.1-.3-.1s-.3-.1-.4.2h-.1c-.2 0-.5 0-.7 0-.1 0-.3.2-.3.3v1.8c0 .1 0 .2.1.2s.2 0 .2-.1c.2-.3.4-.6.5-.9.2-.3.3-.6.3-1 .2-.3.3-.2.4-.2m-3.8 1.6c0-.2 0-.4 0-.6 0-.3 0-.6 0-.9 0 0 0-.1-.1-.1 0 0-.1 0-.1.1 0 .4-.1.7-.1 1.1-.1.6-.1 1.1-.1 1.7v.2c-.1.6 0 1.2-.1 1.8 0 .2 0 .4-.1.6 0 .1 0 .4.1.4.2.1.4.2.6.2s.2-.2.1-.4c-.2-.3-.2-.6-.2-1 0-1 0-2 0-3.1m65.4-62.7c-.3-.1-.6-.2-.9-.2-.2 0-.2.1-.2.4 0 .4 0 .8-.1 1.2-.1.2.1.3.2.3.5-.2.9-.6 1.3-.9.1-.1.2-.1.3-.2 0-.1-.3-.4-.4-.5s-.1-.1-.2-.1m-28.2-3.5c.2 0 .4.1.6.1.2-.1.3-.3.5-.5.1-.1.2-.2.3-.4 0 0 .1-.1.1-.1s-.1-.1-.1-.1c-.4 0-.9.1-1.3-.1-.3-.1-.6 0-.9-.2-.1 0-.2 0-.2 0 .1.1.1.2.2.3s.2.2.2.4zm31.9 5.9c0 .1-.2.1 0 .2.3.1.6.1.9.1.2 0 .2-.2.2-.3.1-.4.1-.8.1-1.2s0-.4-.3-.4c-.1 0-.2-.1-.3-.1-.2 0-.3-.1-.4.2 0 .4-.1.9-.2 1.5m-20-7.8c0-.1.2-.1.1-.2s-.2-.4-.3-.1c-.2.4-.4.3-.6.2s-.4-.2-.6-.2c0 0-.1.1-.1.2 0-.1-.1-.2-.1-.3 0 0-.1 0-.2 0v.2c.1.2.2.3.2.5.1.5.3.8.4 1.3.1.2.1.2.2 0 .3-.6.6-1.1 1-1.6m0 .4c-.3.4-.5.8-.8 1.2v.1s.1.1.1 0c.7 0 1.3.2 1.9.4h.1v-.1c-.3-.6-.6-1.1-.9-1.7-.1-.3-.2-.1-.4.1m-41.4-6.1c-.1.1-.1.2-.2.3v.2c.4.1.8.2 1.2.2 0 0 .1-.1.1-.2 0-.6.1-1.2.1-1.8 0-.2-.1-.4.1-.6v-.1h-.1c-.1.1-.1.2-.2.2-.4.7-.7 1.2-1 1.8m48 8.7c.1-.2.2-.4.4-.6s.3-.5.5-.7c.1-.1 0-.2-.1-.2-.2 0-.4-.1-.7-.1-.3-.1-.5-.2-.8-.2-.1 0-.1-.1-.1.2.2.6.3 1.2.4 1.8 0 .1.1.3.2.3 0-.2.1-.3.2-.5m-16-1.9c-.3-.2-.6-.2-.9.2-.1.2-.3.4-.4.6-.1.1-.1.2-.2.3.1 0 .1-.1.2-.1h.2c.2 0 .3.1.5.1.4 0 .8.1 1.2.2 0 0 .1 0 .1-.1s0-.1-.1-.2c-.1-.2-.3-.6-.6-1m23 3.3c.3-.3.5-.6.8-.7 0 0 .1-.1.1-.1s-.1-.1-.1-.1c-.2 0-.3 0-.5-.1-.4-.1-.8-.3-1.2-.4-.1 0-.3 0-.4-.1.1.2.2.4.2.6.1.4.2.9.6.8 0 0 .1 0 .2.1 0 .2.1.1.3 0m2.8 2.3c-.2.1-.4.2-.6.4-.1 0-.1 0-.2.1.1.1.1.1.2.2h.3c.2 0 .4-.1.5 0 .6.3 1.2.4 1.8.6 0 0 .1 0 .1-.1s0-.1-.1-.2c-.2-.2-.5-.5-.7-.7-.3-.2-.4-.6-.6-.7-.1-.1-.4.1-.7.4.1-.1.1-.1 0 0m-42.8-7.7c.2 0 .3 0 .4-.3.1-.2.2-.3.3-.4s.1-.2.2-.3c-.1 0-.2 0-.2-.1-.1 0-.2-.1-.3-.1-.6-.1-1.1-.2-1.7-.4 0 0-.1 0-.1.1v.1c.3.2.5.6.8.9.2.2.3.6.6.5m-2.8-1.1c-.1.2-.3.3-.4.5 0 0-.1.1-.1.1s.1.1.1.1c.5 0 .9.1 1.4.1.1 0 .1.1.2.1.3.1.6.1.9.2 0 0 .1 0 .1-.1 0 0 0-.1-.1-.1-.1-.1-.3-.2-.4-.3-.2-.2-.4-.5-.6-.8s-.3-.3-.5.1c0 .1-.1.2-.2.2 0 0-.1.1-.2.1 0-.1 0-.2 0-.2 0-.1 0-.1 0-.2 0 0-.1 0-.1.1.1 0 0 .1-.1.1m-10.9-4.2v1.1c0 .3.1.4.3.4.1 0 .3-.1.4 0 .2.2.3.1.4-.1s-.1-.4-.1-.5c-.2-.7-.6-1.3-.7-2.1 0 0-.1-.1-.1-.1s-.1.1-.1.1c0 .3-.1.7-.1 1.2m-7.7 73.8c.2.2.4.4.6.6 0 0 .1.1.1.1 0-.1 0-.1 0-.2 0-.4 0-.9 0-1.3 0-.1 0-.2.1-.1h.1c0-.1-.1-.1-.1-.2-.1 0-.1 0-.2 0-.5-.1-1.1.2-1.6-.2h-.1s0 0-.1 0v.1c.5.5.9.8 1.2 1.2m15.7-70.5c-.1.1-.2.2-.2.2-.4-.1-.4.5-.5.8-.1.1-.1.2.1.2.4-.1.8 0 1.1.1.4.1.7.2 1.1.3.1 0 .1 0 .2-.1 0-.1-.1-.1-.1-.2-.4-.2-.7-.5-1-.8-.3-.1-.5-.3-.7-.5m1.6.2c-.1-.2-.3-.1-.4-.1s-.3-.1-.4-.1h-.1s0 .1.1.1c.1.1.2.1.3.2.2.5.6.6.8.9.1.2.3.1.4 0 .3-.3.6-.5.9-.8 0 0 0-.1.1-.1 0 0 0 0-.1 0-.5 0-1-.1-1.6-.1m-6.5-3.6s0 .1 0 0v1.5c0 .3.1.5.3.5.1 0 .3 0 .4.1.2.2.3-.1.4-.1 0 0 0-.1 0-.2-.3-.4-.4-.9-.6-1.4-.1-.3-.2-.6-.3-.8 0-.1-.1-.1-.1-.1 0 .1 0 .2-.1.2zm14.6 5.6c.2-.1.3-.3.5-.4 0 0 0-.1.1-.1h-.1c-.2 0-.3-.1-.5-.1-.5-.1-1-.1-1.5-.4 0 0-.1 0-.1.1s.1.1.1.2c.2.3.4.5.6.8.1.1.2.2.2.3.2.1.4-.1.7-.4m20.3 1c-.1-.2-.1-.4-.2-.6s-.1-.2-.1 0c-.1.3-.1.7-.2 1 0 .1 0 .2-.1.3 0-.1-.1-.2-.1-.3s0-.2 0-.2c0-.1 0-.3 0-.4 0 .1-.1.2-.1.3-.2.3-.3.5-.5.8 0 .1-.1.2-.1.2.1 0 .1.1.2.1.4.1.9-.1 1.3.1.1 0 .1 0 .1-.2 0-.4-.1-.7-.2-1.1m-11.5.3c0-.1 0-.1 0-.1-.1.1-.3.1-.4.2-.3.2-.5.3-.8.5 0 0-.1.1-.1.1s.1.1.1.1c.2 0 .4.1.6.1.6.1 1.1.1 1.7.3 0 0 .1 0 .1-.1s0-.1-.1-.2c-.2-.3-.4-.4-.6-.8-.1-.2-.2-.2-.3-.1s-.1.2-.2.2h-.1c0-.1 0-.1 0-.2 0 .2 0 .1.1 0m-1-.4c-.5-.1-1-.2-1.4-.3 0 0-.1 0-.1.1s0 .1.1.2c.2.3.3.5.5.8s.3.3.5.2c.4-.2.7-.6 1.1-.6 0 0 .1-.1.1-.1s-.1-.1-.1-.1c-.3-.1-.5-.1-.7-.2m8.4-24.4c-.3-.3-.5 0-.8 0 0 0 0 0-.1.1 0 0 .1.1.1.1.3 0 .5.1.8.1.2 0 .3.2.5.2.3.1.7.1 1 .3.5.3 1 .3 1.6.4.5.1 1.1.2 1.6.5h.3s.1 0 .1-.1c0 0 0 0-.1 0-.3-.1-.6-.3-.9-.4-.5-.1-1-.3-1.5-.3-.2 0-.4-.2-.6-.2-.3-.1-.5-.2-.8-.2-.4-.2-.8-.3-1.2-.5m-1.1 25.8c-.1 0-.2-.1-.3-.1-.4 0-.7-.1-1.1-.1-.1 0-.1-.1-.2-.1s-.2 0-.2 0c0 .2.1.2.1.2.1 0 .1.1.2.2.1.3.3.5.4.8.2.4.3.4.5.1.2-.2.3-.4.5-.6.3-.1.2-.3.1-.4m17.4 1.6c-.2.2-.4.4-.5.5 0 .1-.1.1-.1.2.1 0 .1.1.2.1.3 0 .6.1 1 .1.3.1.3.1.5-.4.1-.2.1-.4.2-.6 0-.1 0-.2 0-.3s-.1-.1-.1-.1c-.6.3-.9.1-1.2.5m20.7 5.2c0-.2.1-.4.1-.5 0 0-.1-.1-.1-.1-.3.2-.7.4-1 .7 0 0-.1.2-.1.2.1.3.3.6.4.9.2.3.5.1.5-.2.1-.4.1-.7.2-1m.8 1.4c.1 0 .3 0 .4-.1.3-.2.6-.4.8-.6.2-.1.3-.1.2-.4 0-.2-.2-.3-.4-.3-.2.1-.3.2-.5.3-.4.2-.8.5-1.3.7v.1s0 .1.1.1c.3.2.4.2.7.2m-4.6-2c-.2-.2-.3-.4-.5-.6s-.3-.1-.4.3-.2.8-.2 1.2v.3s0 .1.1.1c0-.1 0-.1 0-.2.1-.1.1-.4.2-.4.2-.1.5-.2.7-.2s.3 0 .5-.1c0-.3-.2-.2-.4-.4m-19-3.3c.1 0 .1-.1.2-.1s.1-.1.2-.1c-.1-.1-.1-.2-.2-.2h-.1c-.2 0-.3-.1-.5-.1-.4-.1-.5 0-.7.7 0 .2-.1.4-.1.6v.3h.2c.3-.5.7-.7 1-1.1m-2.7-2.9c0 .1 0 .2-.1.3-.1.4-.2.8-.3 1.3 0 .1 0 .2.1.2.3-.1.6-.1.9.1h.1c0-.1 0-.1 0-.2-.1-.6-.3-1.2-.4-1.7 0-.1-.1-.2-.1-.3-.1 0-.1.1-.2.3m29 7.3c-.3-.4-.5-.1-.6.1-.1.1 0 .3.1.5v.1c0 .3.1.3.2.3h.9c.2 0 .1-.1 0-.2 0-.1-.1-.1 0-.2s.1 0 .1 0c.1.1.2.1.3-.1.1-.1.1-.3.2-.4 0-.1 0-.1 0-.2 0 0-.1-.1-.1 0-.2.1-.4.2-.6.3-.2.3-.2.3-.5-.2m-83.3 65.1c-.2-.1-.3-.2-.5-.4s-.2-.1-.2.2c0 .2-.1.4-.1.5v1.6.2s.1-.1.1-.1c.2-.5.4-.9.7-1.4.2-.3.2-.3 0-.6m77.1-65.1c-.1 0-.3.1-.4.1v.1c.1.2.4.1.6-.1.1-.1.1-.3.3-.3.2-.1.4-.2.6-.4.1-.1.2-.1.2-.3-.1-.2-.1-.5-.2-.6-.2-.2-.6.1-.7.4v.2c.2 0 .1.1 0 .2s-.2.1-.3.2-.1.1 0 .2c-.1.1-.1.2-.1.3m-16.1-5.7c-.1-.3-.3-.4-.5-.3-.1.1-.2.3-.2.5-.1.2-.1.4-.1.6v.2c.2.1.3.1.5.1s.3-.1.5.1c0 0 .1-.1.1-.1 0-.1 0-.2 0-.2-.1-.3-.2-.6-.3-.9m-4.1 1.8c-.1.2-.4 0-.3.5h-.1c-.1 0-.2 0-.2 0 .1.1.2.2.3.2.1.1.2.1.3.1.4.1.7-.1 1.1.1h.1c0-.1 0-.1-.1-.2-.1-.2-.1-.3-.2-.5s-.2-.6-.3-.6c-.2.1-.4.3-.6.4m11.3 2.9c.1 0 .2 0 .3.1.1 0 .1 0 .1-.1 0-.2 0-.3.1-.5.1-.4.2-.8.3-1.1 0-.2-.1-.4-.1-.3-.1.2-.2 0-.3 0s-.2.1-.2.2c-.1.5-.2 1.1-.2 1.7m5.1-1.6c.4 0 .7.1 1.1.2h.3c.1 0 .1-.2.1-.3-.2 0 0-.4-.2-.4-.3 0-.6-.2-.9-.2-.2 0-.4-.1-.6-.1 0 0-.1.1-.1.1s.1.1.1.1c.1 0 .1.1.2.1 0 .1-.1.2-.1.2-.1.1-.2.2-.3.3v.1.1c0-.3.2 0 .4-.2m-19.3-1.4c.3-.3.5-.6.8-.9.1-.1.1-.1.2-.2-.1 0-.1 0-.2 0-.2 0-.3 0-.5-.1-.1-.1-.3-.1-.5 0-.1 0-.1.4-.1.5-.1.2-.1.4-.1.6v.5c.1 0 .2-.1.3-.1 0 0 0-.1.1-.3m.4.5c.4.1.7.1 1.1.2.1 0 .2-.1.1-.2-.1-.4-.2-.7-.3-1.1 0-.1-.1-.1-.2 0s-.2.3-.3.4c-.2.2-.4.4-.6.5 0 0 0 .1-.1.1h.1c.1 0 .1 0 .2.1m-55.5-37.5c.7.4 1.3.9 2 1.3.1.1.3.2.4.2h.1s0-.1-.1-.1c-.2-.2-.4-.3-.5-.5-.7-.7-1.6-1-2.3-1.7-.2-.1-.4-.2-.5-.4h-.1v.1c.3.4.6.7 1 1.1m65.9 35.9c-.1-.2-.2-.1-.4-.1-.1 0-.3 0-.4 0 0 .2 0 .3.1.5v.1c0 .4 0 .4.3.4 0 0 .1 0 .1.1.2.1.5.1.7.2.1 0 .1-.1.1-.2-.2-.3-.3-.6-.5-1m-63.7 76.9c.2.2.5.5.7.7 0 0 .1.1.1.1.1 0 .1-.1.1-.1 0-.1 0-.1-.1-.2-.2-.2-.4-.4-.5-.5-.3-.3-.6-.5-.9-.8s-.6-.6-.9-.7h-.1c0 .1 0 .1.1.2.5.5 1 .9 1.5 1.3m79.1-71.7c.3-.2.6-.3.9-.5.1-.1.3-.2.4-.3v-.1s0 0-.1 0c-.4-.1-.8-.2-1.2-.2-.1 0-.2.1-.2.1-.1.3-.1.6-.2 1 0 .1 0 .1.1.2.1-.1.2-.2.3-.2m-9.4-1.4c.3-.2.5-.4.8-.5.1-.1 0-.1 0-.2-.2-.5-.6-.4-.9-.5-.1-.1-.2 0-.2.3s0 .6-.1.9v.3c.1 0 .2-.1.3-.1 0 0 0-.1.1-.2m-8.9-1.4c-.2 0-.5 0-.7.1-.1.1-.3.1-.4.1s-.2 0-.3 0c0 0-.1.1-.1.1v.1h.2c.7 0 1.3 0 2 .3h.1v-.1c-.1-.1-.2-.2-.2-.3-.1-.2-.3-.5-.4-.7-.1-.1-.3-.2-.3-.1-.1.2.1.1.1.2zm-46-11.3c-.1-.2-.2-.5-.3-.7 0-.1-.1-.1-.1-.2v.2c.1.6.1 1.1.2 1.7 0 .2.1.5.2.5.2.1.4.1.6.1.1 0 .1 0 .2-.1 0-.1-.1-.2-.1-.2-.3-.3-.6-.7-.7-1.3m.4 2.3c0-.1.1-.2.1-.2-.1 0-.1 0-.2 0s-.2 0-.3 0c-.1-.1-.1-.2-.1.1v.6s-.1.1-.1.1-.1-.1-.1-.1c0-.1 0-.2 0-.3 0-.2 0-.4-.1-.4-.3-.2-.6-.3-.9-.4 0 0-.1 0-.1.1v.1c.4.2.6.8.9 1.2.2.2.3.2.5-.1s.2-.4.4-.7m-15.1 76.3c.1.3.3.4.5.5s.3.1.3-.2c0-.5 0-1.1 0-1.6 0-.2 0-.1-.1-.1-.4.4-.5.9-.7 1.4m84-63.7c.1-.1.1-.2.2-.3s.2-.2.1-.5c-.1-.2-.1-.4-.3-.4-.1 0-.2 0-.3 0h-.1c0 .1.1.1.1.2s.1.2.1.3-.1.2-.2.2c-.1.2-.2.3-.3.5 0 .1-.1.1-.1.2s.1.3.1.3c.1 0 .3.1.4-.1.1-.1.2-.2.3-.4m-16.9-4.2c.1-.3.2-.5.3-.8.1-.4.1-.4-.2-.4-.1 0-.3 0-.4.1-.2.1-.3.3-.5.5-.1.1-.1.2-.2.3v.2s.1.1.1.1c.2-.1.4.1.6 0 .1-.1.2-.1.3 0m-14.3-3.3c.1-.3.2-.6.3-1 0-.1 0-.1 0-.2 0 0-.1.1-.1.1-.2.5-.4.9-.7 1.1-.2.1-.3.3-.5.5 0 0 0 .1-.1.2 0 0 .1.1.1.1h.4c.1 0 .3.2.3.1.1-.1.1-.4.1-.5.1-.2.1-.3.2-.4m-24.3-2.4c.1.1.1.2.2.3.1.3.2.2.4.1.2-.2.3-.4.5-.6 0 0 .1-.1.1-.1s-.1-.1-.1-.1c-.2 0-.4 0-.6 0s-.5.1-.7-.2c0 0 0 0-.1 0v.2c.1 0 .2.2.3.4m40.5 5.3c-.1-.2-.1-.4-.2-.5s-.2-.1-.3-.1-.1.3-.1.4v.4c0 .2.1.4.2.3h.3c.1 0 .2.1.3 0 .1 0 .2-.1.1-.3-.2.1-.2 0-.3-.2m-13.7-2.9c-.3.3-.2.9-.4 1.3v.1h.1c.2-.2.5-.1.7 0 0 0 .1.1.1.1 0-.1 0-.2 0-.3-.1-.2-.2-.4-.2-.7s-.1-.4-.3-.5m-45.4-5.6c.1.2.2.3.3.5.2.3.3.3.3-.2 0-.2 0-.5 0-.7s-.2-.1-.3-.2c-.1 0-.1-.1-.2-.1s-.2 0-.3.1c0 .1.1.2.1.4 0 0 0 0 .1.2m-9.7 75.3c.2-.3.4-.5.5-.8 0-.1 0-.3 0-.4-.1.1-.1.1-.2.2s-.1.3-.2.4c-.4.5-.7 1-1 1.6v.3h.2c.1-.1.1-.2.2-.3.2-.4.3-.7.5-1m67.3-66.4c.2 0 .4.1.5-.1.1-.1 0-.5.1-.7.1-.3 0-.3-.1-.3s-.2 0-.3 0c0 0-.1.1-.1.1 0 .3-.2.6-.1 1m-64.6 61.3c-.1.1-.1.2-.2.3-.1.2-.1.3-.2.5 0 .1 0 .3.1.5v.2s.1-.1.1-.1c.1-.2.2-.4.3-.7.1-.2.2-.3.3-.5 0-.1 0-.3 0-.4-.1 0-.1 0-.2.1 0 0-.1 0-.2.1m72.7-59.5c-.1 0-.3-.1-.4-.1s-.2.1-.3.1c.1.1.2.2.2.4.1.2.3.5.5.5s.3-.3.4-.5c0 0 .1-.1.1-.1 0-.1-.1-.1-.1-.2-.1-.2-.2-.1-.4-.1m-13.4-3.2c-.1.1-.3.2-.4.4 0 0 0 .1-.1.2 0 0 .1.1.1.1.2-.2.4 0 .6 0 .3 0 .3 0 .3-.5 0-.1 0-.3 0-.4-.1.1-.2.1-.3.2-.1-.2-.1-.1-.2 0m15.2 5.3h.1c0-.1 0-.1-.1-.2 0-.1-.1-.1-.1-.2-.1-.4-.2-.4-.4-.3-.1 0-.1 0-.2.1-.1.2-.3.2-.5.3 0 0-.1.1-.1.1s0 .1.1.1c.5 0 .8 0 1.2.1m-75.5 59.2c-.1.1-.2.3-.3.4v.3c.1 0 .2.1.3 0 .2-.2.3-.4.3-.9 0-.2.1-.4.1-.6 0 0 .1-.1.1-.1s-.1-.1-.1 0c-.1.1-.1.2-.2.3 0 .1-.1.3-.2.6m79-59.3c-.2.1-.4.2-.7.3 0 0-.1.1-.1.1s.1.1.1.1c.4.1.7-.1 1.1.1 0 0 .1-.2.1-.2-.1-.2-.2-.5-.5-.4m-73.1-13.6c-.1.4-.1.8 0 1.1h.1c.1-.2.2-.5.4-.7.1-.1.1-.2.2-.3 0 0 0-.1 0-.2 0 0-.1-.1-.1 0-.2.2-.3 0-.6.1m-13.8-29.8c0-.3-.1-.3-.3-.2-.1 0-.1.2-.2.3 0 .1-.1.3-.1.4 0 .2 0 .4.1.5s.2 0 .3.1v-.1-.1c-.1 0-.1 0-.2 0s-.1-.1-.2-.1c.1 0 .1-.1.2-.1h.1c.3-.1.3-.2.3-.4 0-.1 0-.2 0-.3m79.2 41c-.2-.2-.4-.1-.6-.1-.1 0-.3-.2-.4 0 .1.2.2.4.3.6h.2c.3-.1.4-.3.5-.5m-72.9 67.3c-.1-.1-.3-.2-.4-.3 0 0-.1 0-.2.1v.3c0 .1.1.1.1.1.3.2.5.4.8.6h.1v-.1c-.1-.4-.3-.5-.4-.7m42.7-71.7c.1-.3.3-.5.4-.8-.2 0-.4 0-.6 0-.1 0-.1.1-.1.2.1.2.1.4.3.6m-4.3-27.4c0 .1-.1.2-.1.3-.1.2-.1.3.1.4.1.1.2.1.3.2.1 0 .1 0 .2-.1v-.1c-.1 0-.1-.1-.2-.1s-.2-.1-.3-.1c0 0-.1-.1-.1-.1s.1-.1.1-.1c.1 0 .2.1.4.2 0 0 .1 0 .2-.1 0-.1-.1-.1-.1-.2-.1-.1-.3-.1-.5-.2m-27.8 20.9c-.1 0-.2-.1-.2.2v.4.5c.1-.1.1-.3.2-.4 0-.1.1-.1.1-.1.1-.1.2-.2.3-.4 0 0 0-.1 0-.2h-.1c0 .2-.1.2-.3 0m63.6 12.8c-.1 0-.2 0-.3.2.1 0 .2.1.3.1.3 0 .7.2.9-.3 0 0 .1 0 .1-.1 0 0-.1-.1-.1 0-.3-.1-.6 0-.9.1m-72.6 72.3c-.1.2-.1.3 0 .4s.2.2.3.3c0-.2 0-.4 0-.6 0-.1 0-.2 0-.2 0-.1 0-.2 0-.3-.1 0-.1.1-.2.1 0 .1-.1.2-.1.3m-.4-5.5c.2.1.3.3.5.4 0 0 .1 0 .1.1 0-.1 0-.1 0-.2s-.1-.1-.1-.1c-.3-.4-.6-.7-.9-1.1v-.1.1c0 .1 0 .2.1.3-.1.2.1.4.3.6m46-98.2.2-.3c0-.1 0-.1 0-.2 0 0 0 0-.1 0-.2 0-.5.1-.7.2 0 0-.1.1-.1.2 0 0 .1.1.1.1.2-.1.4-.1.6 0m-48.8 118.9c-.1 0-.2.1-.3.1 0 0-.1.1-.1.2.1 0 .1.1.2.1.2-.2.3-.1.5-.1.2-.1.4-.1.6-.2 0 0 .1-.1.1-.1h-.1c-.3-.1-.6-.1-.9 0m79.3-89.2c.2 0 .3.1.5.1h.1c0-.1-.1-.1-.1-.2-.1 0-.2-.1-.3-.1-.3-.1-.6-.1-.9-.2 0 0-.1.1-.1.1s0 .1.1.1c.2.2.4.2.7.2m-4.5 0c-.1.5-.1 1-.2 1.5v.3c.1-.1.1-.1.1-.2.1-.5.2-1.1.3-1.6.1-.1 0-.3-.2 0m-85-5.7c0-.2 0-.4-.1-.5 0-.1-.1-.2-.2-.4v.3.1c0 .4-.1.7-.1 1.1v.2c0-.1 0-.2 0-.2.2-.1.2-.2.3-.3h.1s0-.1 0-.3m10.1 71.9c.2.3.4.2.6.2h.1s-.1-.1-.1-.1c-.3-.1-.5-.2-.7-.5 0 0 0-.1-.1-.1s-.2.1-.3.1c.1.1.1.2.2.2.1.1.2.2.3.2m74.3-65.6c0 .1-.1.1-.1.2.1.1.2.3.3.4 0-.1.1-.2.1-.3s0-.2.1-.3c0-.1 0-.2.1-.3-.1 0-.2.1-.2.1-.1 0-.2.1-.3.2m-73-11.9c.1.5.4.7.6 1.1h.1v-.1c-.2-.4-.4-.7-.7-1m54.3 8c0 .1-.1.1 0 0 0 .2.1.4.1.5s0 .3.1.4c0-.1.1-.2.1-.4.1-.5.1-.5-.3-.5m-44.3-10c0-.1 0-.2.1-.2 0 0-.1 0-.1.1-.2.4-.5.7-.7 1.1 0 .1 0 .2-.1.3.1 0 .1 0 .1-.1.3-.4.5-.7.7-1.2m61.3 12.9c-.1.1-.2.1-.2.2 0 0-.1.2 0 .2.1.1.2.2.3.3 0-.1.1-.2.1-.3s.1-.2.1-.2c0-.1 0-.2 0-.3-.2 0-.3 0-.3.1m-68.2 71.5c-.2.3-.3.5-.5.8v.2h.1c.2-.3.4-.6.6-1 0-.1.1-.1.1-.2-.1 0-.1 0-.2 0s-.1.1-.1.2m36.5-102.8c-.1.1-.2.3 0 .3s.3-.1.5-.1c0 0 .1 0 .1-.1h-.1c-.1-.3-.2-.1-.5-.1m37.7 32.1c0 .3.1.3.3.3.1 0 .2-.1.2-.1.1 0 .1-.1.2-.1-.1-.1-.2-.2-.2-.2-.1.2-.3 0-.5.1m-22.4-4.3c0-.2 0-.3 0-.5-.1.1-.2.3-.3.4s-.1.2-.2.3v.2s.1-.1.1 0c.2-.1.3-.2.4-.4m-51.8 89.2c.1.1.1.3.2.4 0-.2 0-.3 0-.5 0-.1 0-.2-.1-.4 0 0 0-.1-.1-.1.1.3-.1.3 0 .6m-2.6-9.7v.2s.1-.1.1-.1c.1-.2.3-.4.4-.6 0 0 .2.1.1-.2 0-.1-.1-.1-.2 0-.1.2-.2.4-.4.7m81.6-74.6c-.2 0-.4 0-.6.1 0 0-.1.2 0 .2 0 .1.1.1.1.1.1-.1.3-.2.5-.4m-81 62.3c0 .1 0 .1.1.2.1-.1.1-.2.2-.3 0-.1.1-.2.1-.2-.1 0-.1-.1-.2-.1-.3-.1-.1.2-.2.4m77.9-63c.2.1.3.1.5.2.1 0 .2.1.2-.1 0 0-.1-.1-.2-.1s-.1-.1-.2-.1c0-.1-.2 0-.3.1m-77 62.6c.1.2.1.3.2.4 0 .1.1.1.2.1 0-.1 0-.3 0-.4-.1 0-.2-.1-.4-.1m6.3-93.7c0-.1.1-.1.1-.2 0 0-.1-.1-.1-.1-.1 0-.3 0-.4.1.1.3.3.1.4.2m22.3 22.9h.1c.2 0 .2-.2.3-.3v-.1c-.1.1-.2.1-.3.2-.1 0-.2.1-.1.2m-30.5 20.2c0-.1 0-.2 0-.3v-.1s-.1.1-.1.1c0 .3.1.6 0 1 0 0 0 .1.1.1 0-.1 0-.1 0-.2 0-.2 0-.4 0-.6m1.6-24.9c-.1.2 0 .3.1.4 0-.1.1-.2.1-.3 0 0 .1-.1.1-.1s.1-.1.1-.1-.1-.1-.1-.1c-.2.1-.2.1-.3.2m-1.8 19.9v.6.1s0 0 0-.1.1-.2 0-.2c-.1-.2-.1-.4 0-.6 0 0 0-.1-.1-.1.2.1.2.1.1.3m2.1-25.3c0 .1.1.3.1.4 0 0 0 .1.1.1v-.1c0-.1 0-.2 0-.3 0-.4-.1-.3-.2-.1m10.6 6.7h.2c0-.1-.1-.2-.1-.2 0-.1-.1-.1-.2-.2 0 0-.1 0-.1.1v.2s.1.1.2.1m58 10.9h.4s0-.1 0-.2c-.1 0-.2 0-.3 0-.1-.1-.2-.1-.1.2m-73.2 91.2c.1-.1.3-.2.4-.2-.1-.1-.2 0-.4.1h-.1c-.1.1-.1.1.1.1m4.4-17.4c-.1.1-.2.1-.2.2v.3s.1-.1.1-.1c.1-.1.1-.3.2-.4 0 0 0 0-.1 0m17.9-83.5c-.1.2-.1.3.1.2.1 0 .2 0 .3-.1-.1-.2-.2-.1-.4-.1m16.5 5.4c.1 0 .2.1.3.1v-.1c-.1-.2-.2-.2-.3-.2 0 0-.1 0-.1-.1 0 .2 0 .2.1.3m-33.9 77.6c0-.1 0-.2 0-.3-.1.1-.1.1-.2.2 0 .1-.1.2-.1.2v.1h.1zm25.1-81.5c0 .1-.1.1-.1.2 0 0 .1.1.1.1h.2s0 0 .1-.1c0 0 0-.1-.1-.1 0 0 0-.1-.2-.1m-24.6 20.2c0-.1 0-.1 0 0-.1 0-.1 0-.1.1v.4s0-.1.1-.1c0-.1 0-.2 0-.4m51.6-34.4c.1 0 .1.1.2.1 0-.1 0-.3 0-.3-.1 0-.3-.1-.2.2m-54.4 14.6c0-.1.1-.2.1-.4 0 0 0-.1 0-.2 0 0-.1.1-.1.1zm65.1 6.8c.1-.1.1-.1.2-.2-.1 0-.1-.1-.2-.1 0 0 0 0-.1 0 0 0-.1 0-.1.1s.1.2.2.2m-62.4-9.6v.3c0 .1 0 .2.1.3h.1c0-.1 0-.2 0-.4-.1 0-.1 0-.2-.2m-1.5 4.6c0-.1-.1-.2-.1-.3v.3.2s.1.1.1.1c0-.1 0-.1 0-.3m7.1-25.1c0-.1 0-.1 0-.2s0-.2 0-.3c0 .1-.1.2-.1.3 0 0 0 .1.1.2m52.6 29.4c.1-.1.1-.1.2-.2-.1 0-.1-.1-.2-.1-.1.1-.1.2 0 .3m-59.8 46.1v.3s.1.1.1.1c.1-.2.1-.3-.1-.4m-1-35.5c0-.1 0-.1-.1-.2 0 0-.1 0-.1.1 0 .2 0 .3.1.4.1-.1.1-.1.1-.3m8.5-39.9c0-.1.1-.1.1-.2 0 0-.1-.1-.1-.1-.1 0-.1.2-.1.2v.1c0 .1 0 .1.1 0m60.9 30c0 .1 0 .2.1.2 0 0 .1 0 .1.1 0-.1 0-.2 0-.2-.1-.2-.1-.2-.2-.1m-30.1-30.7h.2c0-.1-.1-.1-.1-.2-.1 0-.1.1-.1.2m-50.8 26.9s-.1.1-.1.1.1.1.1.1c.1 0 .1-.1 0-.2m14.2 17.6c0-.1 0-.1-.1-.2v.6-.1c.1 0 .1-.1.1-.3m71.2-13.5s.1-.1.1-.1-.1-.1-.1-.1c-.2-.1-.2 0 0 .2m-71 40.4v-.1c0-.1 0-.1 0-.2v.5-.1c0 .1 0 .1 0-.1m35.3-45.9c-.1.1-.1.1 0 0 0 .1.1.1.2.1v-.1c-.1 0-.1 0-.2 0m-38.3 20.9c0-.1 0-.3 0-.4 0 0 0-.1 0-.2v.2c-.1.2-.1.3 0 .4m2.7 41.3c-.1 0-.1-.1-.2-.1 0 .1 0 .1.2.1-.1.1 0 .2 0 .2s0-.1 0-.2m-3.5 5.9c-.1 0-.1.1-.1.2v.1c0-.1.1-.1.1-.2 0 .1 0 0 0-.1m3.4 11.2s-.1.1-.1.1c0 .1.1.1.1.2 0 0 0-.1 0-.3m-2.6-63.3s.1.2.1 0c0-.1 0-.1-.1-.2zm43.8-14.6c0-.1 0-.1 0 0 0-.1 0-.1 0-.2 0 .1-.1.2-.1.3 0 0 0 .1.1.1-.1-.1-.1-.1 0-.2m-41 14.5s-.1.1-.1.1 0 .1.1.1c0-.1 0-.1 0-.2m78.4-8c0-.1 0-.2 0-.2s0 0-.1 0c0 0 .1 0 .1.2m1 .2h.1s0 0 .1-.1c-.1 0-.2-.2-.2.1m-29.8-3c0-.1 0-.1 0-.2 0 0-.1.1-.1.1 0 .1 0 .1.1.1m-52.6 29s0 .1 0 0c0 .1.1.1 0 0 .1-.1.1-.1.1-.2-.1 0-.1.1-.1.2m3-1.3v.3.1-.1c0-.2 0-.2 0-.3m-2.8-11.2v.3.1-.1c0-.1 0-.1 0-.3m45.9-22.8s.1-.1.1-.1v-.1c0 .1-.1.1-.1.2m1.4.1c-.1 0-.1 0-.2.1h.1c.1.1.1 0 .1-.1m-46.1 69.6v.2s.1 0 .1-.1c0 0-.1 0-.1-.1m-.1 12.4v.1.2-.1c.1-.1.1-.2 0-.2m-1-76.6v.1.2-.1c.1-.1 0-.2 0-.2m43.9-3.5s.1-.1.1-.1c-.1 0-.1 0-.1.1m23.6 2.8c0-.1 0-.1 0 0 0-.1-.1-.1-.1-.1v.1c-.1-.1 0-.1.1 0m-65.8 91.7c.1 0 .1 0 .2-.1h-.1c-.1 0-.1 0-.1.1m46.2-118.3c0 .1.1.1.1.2v-.1c0-.1 0-.1-.1-.1m35.2 31.2c0-.1 0-.1 0-.2zm-82 43.3c0 .1 0 .1 0 0m0-1.7v.2c.1-.1.1-.1 0-.2m1.7-1.4v.1c.1 0 .1-.1 0-.1m52-64.7s.1 0 0 0c.1-.1.1-.1.1-.1-.1 0-.1 0-.1.1m-60.6-19c-.1 0-.1 0 0 0-.1 0-.1.1-.1.1s.1-.1.1-.1m8.6 72c0-.1 0-.1 0-.2s-.1.1 0 .2m-2.9-15.5c0 .1 0 .1 0 0m2.5 60.9c.1 0 .1 0 0 0 .1-.1.1-.1 0 0m-2.6-62.2c.1 0 .1 0 0 0 .1 0 .1-.1 0 0m.2-2.9h-.1v.1c0-.1 0-.1.1-.1m1.3 63.9s0 .1 0 0m1.3-4.6c0-.1 0-.1 0 0 0-.1-.1-.1 0 0m.3-37.2c-.1.1-.1.1 0 0-.1.1 0 .1 0 0m-.3 24.4c0-.1-.1-.1 0 0m-8.8-99.2s0 .1 0 0c0 .1 0 .1 0 0m61.7 20.3c0 .1-.1.1 0 0 0 .1 0 .1 0 0m-42.3 8.7s0 .1 0 0zm-10.3 56.3c-.1 0 0 0 0 0m6.1-54.8c0-.1 0-.1 0 0"/></svg>