<?xml version="1.0" encoding="utf-8"?>
<!-- Generator: Adobe Illustrator 26.2.1, SVG Export Plug-In . SVG Version: 6.00 Build 0)  -->
<svg version="1.1" id="Layer_1" xmlns="http://www.w3.org/2000/svg" xmlns:xlink="http://www.w3.org/1999/xlink" x="0px" y="0px"
	 viewBox="0 0 99.2 135.6" style="enable-background:new 0 0 99.2 135.6;" xml:space="preserve">
<path d="M52.8,38.6c0.1,0.1,0.2,0.2,0.3,0.3c0.1,0.1,0.1,0.2,0,0.3c0,0.1,0,0.2-0.1,0.3c0-0.1,0-0.2,0-0.3c0-0.1,0-0.1,0-0.2
	c0,0.1,0,0.1,0,0.2c0,0.3-0.1,0.7-0.1,1c0,0.4,0,0.8,0,1.2c0,1.3,0,2.7,0,4c0,0.8,0,1.6,0.1,2.4c0,0.1,0.1,0.3,0.1,0.3
	c0.2,0,0.2,0.2,0.2,0.4c0,0.5-0.1,1,0.1,1.4c0,0.1,0,0.3-0.1,0.4c-0.2,0.4-0.5,0.8-0.8,1.2c-0.1,0.2-0.2,0.4-0.2,0.6
	c0,0.4,0,0.8,0,1.2c0,0.2,0.1,0.4-0.1,0.6c0,0.1,0,0.2,0,0.3c0.1,0.6,0,1.3,0.1,2c0.1,0.8,0.1,1.5,0.1,2.3c0,1.2,0,2.3-0.1,3.5
	c-0.1,0.7,0,1.5-0.1,2.2c0,0.4-0.1,0.8-0.2,1.2c0,0.1-0.1,0.1-0.2,0.2c0-0.1,0-0.2,0-0.3c0-0.7,0-1.4-0.3-2c-0.1-0.2,0-0.4,0-0.6
	c-0.1-1-0.1-2-0.1-3c0-0.5,0-1,0.1-1.5c0.1-0.7,0-1.4,0.1-2.1c0-0.5,0-0.9,0.1-1.4c0-0.4,0.1-0.8,0.1-1.2c0-0.2,0-0.3,0-0.5
	c0-0.3,0-0.5,0.1-0.8c0.1-0.3,0-0.6-0.2-0.8c-0.2-0.2-0.4-0.5-0.6-0.7c-0.1-0.1-0.2-0.2-0.2-0.5c0-0.8,0-1.5,0-2.3
	c0-0.4,0-0.5,0.3-0.4c0.1,0,0.1,0,0.2,0c0,0,0-0.1,0-0.1c0-0.9-0.2-1.8-0.2-2.8c0-0.9-0.1-1.8-0.1-2.7c0-0.8,0.1-1.5,0.1-2.3
	c0-0.4,0.1-0.8,0.1-1.2c0-0.1,0-0.1,0-0.2c-0.1,0-0.1,0.1-0.1,0.1c-0.2,0.4-0.3,0.5-0.5,0.2C50.4,38,49.9,38,49.4,38
	c-0.3,0-0.7-0.1-1-0.2c-0.2-0.1-0.5-0.2-0.7-0.2c-0.2,0-0.5-0.3-0.7,0c0,0,0,0-0.1,0c-0.2-0.3-0.5-0.2-0.7-0.2c-0.4,0-0.8-0.1-1.2,0
	c-0.2,0-0.4-0.1-0.6-0.1c-0.2,0-0.3,0-0.5-0.2c0,0-0.1,0-0.1,0c-0.1,0-0.2,0.1-0.2,0.1c-0.2-0.2-0.5-0.1-0.7-0.2
	c-0.4-0.1-0.8-0.2-1.2-0.4c-0.1,0-0.3-0.1-0.4-0.1c-0.4-0.1-0.9-0.2-1.3-0.4c-0.4-0.1-0.7,0-1.1-0.3c-0.1-0.1-0.2,0-0.3,0
	c-0.3,0-0.7,0-1-0.2c0,0,0,0-0.1,0c-0.4,0-0.7-0.1-1.1-0.1c-0.6,0-1.1-0.1-1.7-0.2c-0.4-0.1-0.7-0.1-1.1-0.1c-0.2,0-0.4,0-0.6-0.1
	c-0.1-0.1-0.3,0-0.5,0c-0.4-0.1-0.8-0.1-1.3-0.1c-0.2,0-0.4,0-0.6-0.1c-0.2-0.1-0.4-0.1-0.6-0.1c-0.2,0-0.4,0-0.6-0.1
	c-0.2-0.1-0.2,0.5-0.5,0.5c0,0-0.1,0.1-0.1,0.1c0-0.1,0-0.2,0-0.2c0-0.1,0.1-0.1,0.1-0.2c0-0.1,0-0.2,0-0.2c-0.1,0-0.1,0.1-0.2,0.1
	c-0.1,0-0.1,0-0.2,0c-0.3-0.1-0.7-0.3-1-0.3c-0.5-0.1-1-0.2-1.5-0.3c-0.3-0.1-0.5-0.1-0.8-0.1c-0.4,0-0.9-0.1-1.3-0.2
	c-0.4-0.1-0.9,0-1.4,0.1c0,0-0.1,0-0.1,0c-0.2-0.2-0.5-0.1-0.7-0.2c-0.4-0.2-0.9,0-1.3-0.3c-0.4-0.2-0.8-0.2-1.2-0.3
	c-0.5-0.2-1-0.1-1.5-0.3c0,0-0.1,0.1-0.1,0.1c0,0.5,0,1.1-0.1,1.6c-0.1,1.4,0,2.7-0.1,4.1c0,0.6-0.1,1.2,0,1.8c0.1,0.5,0.1,1,0,1.5
	c-0.1,1.7,0,3.3-0.1,5c0,0.2,0.1,0.5,0,0.7c-0.1,0.3,0,0.5,0,0.7c0,0.2,0,0.5,0,0.7c0,0.1,0,0.3,0,0.4c0,0.1,0.1,0.2,0,0.2
	c-0.2,0.4,0,0.8,0,1.1c0,0.2,0,0.4,0,0.6c0,0.2,0,0.4,0,0.6c0.1,0.6,0.1,1.1,0,1.7c0,0.3,0,0.6,0.1,0.8c0,0.6,0,1.3,0,1.9
	c0,0,0,0.1,0,0.1c-0.1,0-0.1,0.1-0.1,0.2c0,0.3,0.1,0,0.1,0c0,0.1,0,0.1,0,0.2c0,0.6-0.1,1.1-0.1,1.7c0,1,0,1.9,0.1,2.9
	c0.1,1.1,0,2.2,0.1,3.3c0.1,1.7,0,3.5,0.1,5.2c0.1,1.5,0,2.9,0.1,4.4c0.1,3.3,0,6.5,0.1,9.8c0,0.2,0,0.3,0.1,0.5c0,0.2,0,0.4,0,0.5
	c-0.1,0.4-0.1,0.7-0.1,1.1c0,1.2,0,2.4-0.1,3.6c0,0.8-0.1,1.5-0.2,2.3c0,0.1,0,0.3,0,0.4c0,0.5,0,1,0,1.5c-0.1,0.5,0.1,0.9,0,1.3
	c-0.1,0.3,0,0.6-0.1,0.9c-0.1,0.2,0.1,0.6,0.1,0.9c-0.2,0.3,0.1,0.8-0.1,1.2c0,0.1,0,0.3,0.1,0.5c0,0.4,0,0.8,0,1.2
	c0,0.2,0,0.4-0.2,0.5c0,0-0.1,0.2,0,0.3c0.2,0.3,0.1,0.6,0.1,0.8c-0.1,0.3,0.1,0.4,0.2,0.4c0.2,0.1,0.5-0.1,0.7,0.1
	c0.1-0.2,0.2-0.3,0.3-0.6c0-0.1,0-0.3,0.1-0.3c0.1-0.1,0.2,0,0.2,0.2c0,0.5-0.1,1.1-0.1,1.6c0,0.1,0,0.3,0,0.4c0,0.9,0,1.8-0.1,2.7
	c0,0.6,0,1.1-0.1,1.7c-0.1,0.7,0,1.5-0.1,2.2c-0.1,1-0.1,2-0.1,3c0,0.4,0,0.8,0.2,1.1c0.1,0.2,0.1,0.2-0.1,0.3
	c-0.1,0-0.1,0.2-0.1,0.3c0,0.7,0,1.4,0.1,2c0,0.7,0,1.3,0,2c0,0.6,0.1,1.2,0.1,1.8c0,0.2,0,0.4-0.1,0.6c0,0.1,0,0.3,0,0.5
	c0,0.5,0,1,0,1.4c0,0.1,0,0.2,0,0.3c0,1,0,2,0,3c0,0.1,0,0.1,0,0.2c0-0.1,0.1-0.1,0.1-0.2c0.2-0.3,0.4-0.6,0.5-0.9c0,0,0.1,0,0.1,0
	c0,0,0,0.1,0,0.2c0,0.1-0.1,0.3-0.2,0.4c-0.1,0.2-0.2,0.3-0.3,0.5c-0.5,0.5-0.4,1.2-0.3,2c0,0.2-0.1,0.4-0.1,0.6
	c0,0.1-0.1,0.1-0.1,0.2c0.1,0.5-0.1,1,0,1.5c0,0.1,0,0.2,0.1,0.2c0.1,0.4,0.2,0.6,0.1,1.1c0,0.3-0.1,0.7-0.1,1
	c0,0.2-0.1,0.4-0.1,0.6c0,0.3,0.1,0.7,0,0.8c-0.2,0.3-0.5,0.5-0.8,0.6c-0.2,0.1-0.5,0.1-0.7,0.1c-0.7,0-1.4,0-2,0.1
	c-0.6,0.1-1.3,0.1-1.9,0.5c-0.2,0.2-0.4-0.1-0.3-0.5c0-0.3,0-0.7,0-1c0,0-0.1-0.1-0.1-0.1c-0.2,0-0.4,0-0.6,0.1
	c-0.2,0.2-0.5,0.2-0.8,0.3c-0.5,0.2-1,0.3-1.5,0.5c-0.2,0-0.3,0-0.5,0c0,0-0.1-0.1-0.1-0.1c0,0,0-0.1,0-0.1c0.2-0.1,0.3-0.2,0.5-0.2
	c0.6-0.2,1.2-0.3,1.7-0.6c0.4-0.2,0.8-0.4,1.2-0.7c0.1,0,0.2-0.1,0.2-0.2c0.1-0.1,0.1-0.3,0.2-0.4c-0.1,0-0.2-0.1-0.3-0.1
	c-0.2,0-0.3,0-0.5,0c-0.1,0-0.1,0-0.2-0.1c0,0,0-0.1-0.1-0.2c0,0,0.1-0.1,0.1-0.1c0.2,0,0.4-0.1,0.7-0.1c0.2,0,0.3-0.1,0.3-0.5
	c-0.1-0.8,0-1.7-0.1-2.5c0-0.2,0-0.4,0-0.7c0-0.1,0-0.2,0-0.2c-0.1-0.2-0.1-0.6-0.1-0.8c0-0.2,0.1-0.4,0.1-0.5c0-1,0-2,0-3
	c0-0.4,0-0.8,0-1.2c-0.1-1.2,0-2.3-0.1-3.5c0-0.6-0.2-1.2-0.1-1.8c0.1-0.7-0.2-1.4-0.1-2.1c0.1-0.5-0.1-0.9,0.1-1.4
	c0-0.1,0-0.3-0.1-0.3c-0.2-0.1-0.2-0.3,0-0.5c0.2-0.2,0.2-0.5,0.2-0.9c0-0.8,0-1.6,0.1-2.4c0.2-0.3,0-0.6,0-0.9c0.1-0.3,0-0.7,0-1
	c0.1-1,0.1-2.1,0.3-3.1c0-0.1,0-0.2,0-0.2c-0.1-0.5,0-0.9,0.1-1.4c0-0.3,0-0.6,0-1c0-0.2,0-0.4,0-0.6c0-0.4,0.1-0.5,0.3-0.3
	c0.2,0.2,0.2,0.2,0.2-0.2c0-0.5,0-1.1,0.1-1.6c0-0.5,0.1-0.9,0.1-1.4c0-0.4,0-0.9,0-1.3c0-0.5,0-1,0-1.4c0.1-0.9,0-1.8,0.1-2.7
	c0-0.5,0.1-0.9,0-1.4c0.2-0.7,0-1.5,0.1-2.2c0.1-0.4,0-0.9,0-1.4c0-0.2-0.1-0.4,0-0.6c0.1-0.5,0.1-0.9,0.1-1.4c0-0.9,0-1.8,0-2.7
	c0.1-0.9,0-1.8,0.1-2.7c0-0.5,0.1-1,0-1.5c0-0.6,0-1.3,0-1.9c0-0.6,0-1.3,0-1.9c0.1-0.8,0-1.6,0.1-2.4c0,0,0-0.1,0-0.1
	c0-0.9,0-1.8,0.1-2.7c0-0.5,0-0.9,0.1-1.4c0,0,0-0.1,0-0.1c0-0.6,0.1-1.2,0.1-1.8c0-1.4,0-2.8,0-4.2c0-0.6,0-1.1,0.1-1.7
	c0-0.2,0-0.5-0.1-0.8c-0.1-0.2,0.1-0.4,0-0.7c-0.1-0.3-0.1-0.7,0-1c0.1-0.2,0-0.5,0-0.7c0-0.2,0-0.4,0-0.6c0-0.2-0.1-0.4,0-0.5
	c0.2-0.3,0.1-0.7,0-1c0-0.4,0-0.7,0-1.1c-0.1-0.4-0.1-0.8,0.1-1.1c0-0.1,0-0.3,0-0.5c0-0.2,0-0.8,0-1.1c0-0.3,0-0.6,0-0.9
	c0-0.3,0.1-0.6,0-0.8c-0.1-0.3,0-0.5,0-0.8c0-0.3,0-0.5-0.1-0.8c0-0.1,0-0.2,0-0.3c0-0.7,0.2-1.4,0-2.1c0-0.1,0-0.1,0-0.2
	c0.1-0.6,0.1-1.1,0-1.7c0-0.3,0-0.5,0-0.9c-0.1-0.7-0.1-1.5-0.1-2.3c0-0.8-0.1-1.7-0.1-2.5c0-0.8,0.1-1.5,0.1-2.3
	c0-0.6-0.1-1.1-0.1-1.7c0-0.3,0.1-0.4,0.3-0.4c0,0,0.1,0,0.1,0.1c0,0.6,0.2,0.1,0.2,0c0.1-0.2,0.1-0.3,0.2-0.5c-0.1,0-0.2,0-0.3,0.1
	c-0.4,0.1-0.8,0.2-1.2,0.2c-0.1,0-0.1,0.1-0.2,0.1c-0.1,0.1-0.1,0-0.1-0.1c0-0.6-0.1-1.1-0.1-1.7c0-0.3,0-0.6,0.1-1
	c0-0.3-0.1-0.6,0.1-0.9c0-0.1,0-0.2,0-0.3c0-0.2,0-0.2-0.1-0.1c-0.6,0.3-1.1,0.7-1.7,1c-0.5,0.4-1.1,0.8-1.6,1.1
	c-0.4,0.3-0.9,0.5-1.4,0.8c-0.5,0.3-0.9,0.5-1.4,0.7c-0.7,0.3-1.4,0.8-2.1,1.2c-0.3,0.2-0.6,0.3-0.9,0.4c-0.3,0.2-0.6,0.3-0.9,0.5
	c0,0,0,0.1-0.1,0.2c0.2,0.1,0.1,0.3,0,0.5c0,0.4,0,0.8,0.1,1.1c0,0.2,0.1,0.4,0.1,0.6c0,0.3-0.1,0.5-0.2,0.6C3,38.4,3,38.4,3,38.9
	c0,0.9,0,1.8-0.1,2.6c-0.1,0.8,0,1.6-0.1,2.4c-0.1,0.6,0,1.3-0.1,1.9c0,0.1,0,0.3,0,0.5c0,1.4,0,2.9-0.1,4.3c-0.1,0.9,0,1.8-0.1,2.7
	c0,0.7,0,1.4-0.1,2.1c-0.1,1.1,0,2.2-0.1,3.3c0,0.9,0,1.9-0.1,2.8c-0.1,0.9-0.1,1.8-0.2,2.7c0,0.6,0,1.2-0.1,1.8
	C2,67.2,2,68.5,1.9,69.7c0,0.9-0.1,1.8-0.1,2.7c0,0.8,0,1.6-0.2,2.3c-0.1,0.8-0.1,1.5-0.2,2.3c-0.1,0.5-0.1,1-0.1,1.5
	c0,0.3-0.1,0.6-0.1,0.9c0,0.3,0,0.6-0.1,0.8c0,0,0,0.1,0,0.1c0,0.7,0,1.4-0.1,2.1C1,83.4,1.2,84.2,1,85c0.1,0.6,0,1.1,0,1.7
	c0,0.3,0,0.6-0.1,1c-0.1,0.4,0,0.8,0,1.3c0,2.4,0,4.9,0,7.3c0,0.4,0,0.9,0,1.3c-0.1,1.5,0,3.1-0.1,4.6c0,0.7,0.1,1.5-0.1,2.2
	c0,0.1,0.1,0.3,0.1,0.4c0,0.4,0.1,0.8-0.1,1.1c0,0.1,0.1,0.4,0.1,0.6c0,0.2,0,0.5,0,0.7c0,0.3,0.1,0.5-0.1,0.8c0.2,0.4,0,0.7,0,1.1
	c0,0.9,0,1.9-0.1,2.7c-0.2,1.7-0.1,3.3-0.1,5c0,0.3-0.1,0.7-0.1,1c0,0.3,0,0.6,0.1,0.8c0,0.1,0,0.3,0,0.4c-0.1,0.6,0,1.2-0.1,1.7
	c0,1.2-0.1,2.4-0.1,3.6c0,0.2,0,0.4,0.1,0.5c0.1,0.4,0.1,0.7,0.1,1.1c0,0.3,0,0.7,0.1,1c0,0.2-0.1,0.4-0.1,0.6
	c0,0.2,0.1,0.4,0.1,0.5c0,0.9,0,1.9,0,2.8c0,0.4,0,0.8-0.1,1.1c0,0,0,0.1,0,0.2c0,0,0.1-0.1,0.1-0.1c0-0.1,0.1-0.3,0.1-0.5
	c0,0,0-0.1,0-0.1c0,0.1,0,0.1,0,0.2c0,0.1-0.1,0.2-0.1,0.3c-0.1,0.4-0.1,0.9-0.2,1.3c0,0.1-0.1,0.2-0.1,0.3c0,0.1-0.1,0.1-0.1,0.1
	c0-0.1,0-0.1,0-0.2c0-0.4,0.1-0.9,0.1-1.3c0-2.1,0-4.2,0-6.3c0-0.2,0-0.5-0.1-0.7c-0.1-0.5-0.1-1,0-1.4c0-0.2,0-0.4,0-0.6
	c0-1.5,0-3,0.1-4.6c0-0.5-0.1-0.9,0-1.4c0-0.5,0-0.9,0-1.4c0-0.9,0.1-1.9,0.1-2.8c0-0.8,0.1-1.7,0.1-2.5c0.1-1.1,0.1-2.2,0.1-3.3
	c0-1.5,0-3.1,0.1-4.6c0.1-1.3,0-2.5,0.1-3.8c0.1-1.7,0.1-3.5,0.1-5.2c0-0.2,0-0.5,0-0.7c0-0.3,0-0.5,0-0.8c-0.1-0.6,0-1.3,0-1.9
	c0-0.7,0-1.3,0-2c0-0.1,0-0.3,0-0.4c0-0.2,0.1-0.5,0-0.6c-0.1-0.2-0.1-0.4,0-0.6c0,0,0-0.2,0-0.2c0-1,0.1-2,0.1-3
	c0-0.9,0.1-1.8,0.1-2.7c0-0.9,0.1-1.8,0.1-2.7c0-1,0.2-2,0.3-2.9c0-0.5,0.1-1,0.1-1.4c0-0.8,0-1.7,0.1-2.5c0.1-0.5,0.1-1.1,0.1-1.6
	c0-0.9,0-1.9,0.1-2.8c0.1-1.2,0.1-2.5,0.2-3.7C2,61.5,2,60.4,2.1,59.2c0-0.7,0-1.3,0.1-2c0-0.8,0-1.6,0.1-2.4
	c0.1-0.8,0.1-1.6,0.1-2.5c0-1.1,0-2.3,0.1-3.4c0-0.7,0-1.3,0.1-2c0.1-0.7,0-1.3,0.1-2c0.2-1.4,0.1-2.8,0.2-4.2c0-0.7,0-1.5,0.1-2.2
	c0-0.2,0-0.4-0.1-0.5c-0.2-0.2-0.1-0.6-0.1-0.9c0.1-0.6,0.1-1.3,0.3-1.9c0,0-0.1-0.1-0.1-0.1c-0.2,0.1-0.5,0.3-0.7,0.5
	c-0.5,0.4-0.9,0.6-1.5,0.7c-0.1,0-0.1,0.1-0.2,0.2c-0.1,0.1-0.2,0.1-0.2,0c0-0.1,0-0.3,0-0.4c0.1-0.2,0.2-0.4,0.4-0.3
	c0.1,0,0.2-0.1,0.3-0.2c0.4-0.4,0.9-0.7,1.4-1c0.1-0.1,0.3-0.2,0.4-0.3c0.1-0.1,0.1-0.2,0.2-0.4c0.1-0.6,0.2-1.3,0.3-1.9
	c0.1-0.7,0.3-1.3,0.3-1.9c0-0.6,0.2-1.2,0.2-1.7c0.1-0.6,0.2-1.3,0.3-1.9c0-0.3,0.1-0.6,0.1-0.9c0.1-0.7,0.2-1.4,0.4-2.1
	c0.1-0.3,0.1-0.7,0.2-1.1c0.1-0.5,0.2-1,0.2-1.4c0.1-0.7,0.2-1.3,0.3-2c0.1-0.8,0.2-1.5,0.4-2.2c0-0.1,0.1-0.3,0.1-0.5
	c0-0.9,0.2-1.7,0.3-2.6c0.2-1,0.3-1.9,0.5-2.9c0.1-0.8,0.2-1.7,0.4-2.5c0.1-0.7,0.3-1.3,0.4-2c0.1-0.4,0.1-0.9,0.2-1.3
	c0.1-0.6,0.2-1.2,0.3-1.8c0-0.2,0.1-0.3,0.2-0.4c0,0.2,0,0.3,0,0.5C7.9,4.4,7.8,5.1,7.6,5.8C7.6,6.2,7.5,6.5,7.5,6.9
	C7.3,7.7,7.1,8.6,7,9.5c-0.1,0.8-0.2,1.6-0.4,2.3c-0.2,1.2-0.4,2.4-0.6,3.6c-0.1,0.3,0,0.7-0.1,1.1c0,0.3-0.1,0.5-0.1,0.8
	c-0.1,0.5-0.2,1-0.3,1.5C5.3,19.9,5.2,21,5,22c-0.1,0.9-0.3,1.8-0.4,2.7c-0.1,0.7-0.2,1.4-0.3,2C4.2,27.4,4.1,28,4,28.7
	c-0.1,0.7-0.2,1.3-0.3,2c-0.1,0.9-0.3,1.8-0.4,2.6c0,0.2-0.1,0.4-0.1,0.6c0,0.2,0,0.2,0.1,0.2c0.1,0,0.1,0,0.2-0.1
	c0.4-0.3,0.8-0.6,1.3-1c0.3-0.2,0.6-0.4,1-0.6c0.3-0.2,0.6-0.5,0.9-0.7c0.6-0.4,1.3-0.9,1.9-1.3c0.9-0.6,1.7-1.3,2.6-1.9
	c0.3-0.2,0.6-0.5,0.9-0.8c0.3-0.2,0.5-0.3,0.8-0.5c0.2-0.1,0.4-0.3,0.5-0.6c0-0.1,0.1-0.1,0.2,0c0.1,0.1,0.2,0,0.3-0.1
	c0.2-0.2,0.5-0.5,0.7-0.8c0.1-0.2,0.2-0.3,0.4-0.3c0.1,0,0.2,0,0.1-0.4c-0.1-0.8-0.4-1.5-0.5-2.2c-0.2-0.9-0.4-1.8-0.7-2.7
	c-0.1-0.5-0.2-1-0.4-1.5c-0.3-0.9-0.5-1.7-0.7-2.6c-0.1-0.4-0.3-0.7-0.4-1.1c-0.2-0.7-0.5-1.5-0.7-2.2c-0.4-1.4-0.8-2.8-1.2-4.2
	c-0.1-0.5-0.3-0.9-0.4-1.4C9.6,6,9.2,4.9,9,3.7c0-0.1-0.4-0.6-0.5-0.6C8.3,3,8.1,2.9,7.9,2.7c0,0-0.1-0.2,0-0.4
	c0.1-0.5,0.2-1,0.2-1.5c0-0.3,0.2-0.5,0.3-0.8c0.1-0.2,0.4-0.2,0.5,0C9,0.3,9,0.5,9.1,0.7c0,0.1,0.1,0.2,0.2,0.3
	c0.5,0.3,0.9,0.5,1.4,0.5c0.1,0,0.1,0.1,0.2,0.1c0.1,0,0.2,0,0.2,0c0.3-0.3,0.4-0.3,0.6,0c0.2,0.3,0.4,0.3,0.7,0.4
	C13,2,13.5,1.9,14,2.1c0.5,0.1,1.1,0,1.6,0.1c0.3,0,0.5,0.1,0.8,0.1c0.2,0,0.5-0.1,0.8,0.1c0.1,0.1,0.2,0,0.3,0c0.5,0,1,0.1,1.5,0.3
	c0.2,0.1,0.4,0.1,0.6,0.1c0.4,0,0.8,0.1,1.2,0.1c0.3,0,0.6,0.2,0.9,0.2c0.2,0.1,0.5,0.1,0.7,0.1c0.5,0.1,1,0.2,1.4,0.3
	c0.5,0.1,0.9,0.1,1.4,0.2C25.6,4,26,4.2,26.3,4.3c0.2,0.1,0.5,0.1,0.7,0.1c0.3,0.1,0.6,0.2,0.9,0.2c0.2,0.1,0.4,0.1,0.6,0.1
	c0.6,0.2,1.1,0.2,1.7,0.5c0.2,0.1,0.5,0.1,0.8,0.1c0.5,0.1,1,0.2,1.5,0.4c0.3,0.1,0.7,0.2,1,0.3c0.4,0.1,0.8,0.3,1.1,0.3
	c0.4,0.1,0.8,0.2,1.3,0.2c0.3,0.1,0.6,0.2,1,0.3c0.3,0.1,0.7,0.2,1,0.3c0.5,0.1,0.9,0.3,1.4,0.4c0.2,0.1,0.5,0.1,0.7,0.2
	c0.4,0.1,0.8,0.1,1.1,0.2c0.5,0.2,1,0.2,1.6,0.4c0.5,0.2,1.1,0.3,1.6,0.5c0.2,0.1,0.4,0.2,0.5,0.2c0.3,0.1,0.5,0.1,0.8,0
	c0.4-0.1,0.8-0.1,1.2,0.2c0.1,0.1,0.2,0,0.3,0c0.4,0,0.7,0.1,1.1,0.2c0.4,0.1,0.8,0.2,1.3,0.3c0.3,0.1,0.6,0.2,1,0.3
	c0.5,0.1,1,0.4,1.5,0.4c0.3,0,0.6,0.1,0.9,0.2c0.1,0,0.2,0,0.2-0.1c0-0.5,0.3-0.2,0.5-0.4c0.1-0.1,0.3,0,0.4,0c0.2,0,0.3,0,0.3,0.4
	c0,0,0.1,0.1,0.1,0.1c0.6,0,1.2,0.3,1.9,0.3c0.1,0,0.3,0.2,0.5,0.2c0.3,0.1,0.6,0.1,0.9,0.3c0.6,0.3,1.3,0.4,1.9,0.5
	c0.5,0.1,1,0.3,1.5,0.5c0.1,0,0.2,0.1,0.3,0.1c0.4-0.3,0.8-0.3,1.2-0.3c0.1,0,0.2-0.1,0.3-0.2c0.1-0.2,0.2,0,0.2,0.1
	c0.1,0.3,0.2,0.6,0.2,0.9c0,0.3,0.1,0.4,0.2,0.6c0.2,0.3,0.5,0.5,0.7,0.8c0,0,0,0.1,0.1,0.1c0.3,0,0.5,0.4,0.7,0.6
	c0.6,0.6,1.2,1.3,1.9,2c0.6,0.6,1.1,1.2,1.7,1.8c0.2,0.2,0.4,0.5,0.7,0.1c0.1-0.1,0.3-0.2,0.3,0.2c0,0.2,0.1,0.2,0.2,0.3
	c0.2,0.1,0.5,0.2,0.6,0.7c0,0.1,0.2,0.2,0.3,0.3c0.1,0,0.2,0,0.2,0c0.1,0,0.1,0.1,0.1,0.2c0,0.1-0.1,0.1-0.1,0.2c0,0-0.1,0-0.1,0
	c0,0-0.1,0-0.1,0.1c0,0,0,0.1,0.1,0.1c0.1,0.1,0.1,0.1,0.2,0.1c0.3,0.1,0.6,0.4,0.9,0.7c0.7,0.6,1.4,1.1,2.1,1.5
	c0.5,0.3,0.9,0.8,1.4,1.1c0.6,0.4,1.1,0.9,1.7,1.4c0.3,0.3,0.7,0.5,1,0.8c0.3,0.3,0.7,0.6,1,0.9c0.4,0.3,0.8,0.6,1.1,0.9
	c0.5,0.4,1,0.8,1.5,1.2c0.2,0.2,0.4,0.3,0.6,0.4c0.1,0.1,0.3,0.3,0.4,0.4c0.3,0.3,0.7,0.5,1,0.8c0.6,0.5,1.2,1.1,1.9,1.6
	c1.2,0.9,2.4,1.9,3.6,2.9c0.1,0.1,0.2,0.2,0.4,0.4c0.9,0.9,1.9,1.6,2.8,2.4c0.1,0.1,0.2,0.1,0.3,0.2c0.3,0.5,0.7,0.7,1,1.2
	c0.4,0.5,0.8,0.8,1.1,1.4c0.2,0.4,0.5,0.6,0.8,0.9c0.3,0.2,0.6,0.6,0.8,0.9c0.2,0.3,0.5,0.5,0.8,0.7c0.1,0.1,0.2,0.1,0.3,0
	c0.2-0.2,0.3,0,0.4,0.1C98,44,98.3,44,98.5,44c0.1,0,0.2,0,0.3,0c0.2,0.1,0.3,0.1,0.4,0.5c0.1,0.7,0.1,0.7-0.3,1.2
	c-0.1,0.2-0.3,0.4-0.4,0.5c-0.2,0.2-0.4,0.3-0.5,0C97.8,46,97.7,46,97.6,46c-0.2,0-0.3,0.1-0.5,0.1c-0.3,0-0.6,0.1-0.9,0
	c-0.3,0-0.6,0-1,0c-0.3,0-0.6,0-0.9,0c-0.1,0-0.2,0-0.3-0.1c-0.2-0.1-0.4-0.2-0.6-0.2c-0.4,0-0.7,0.1-1.1-0.2c0,0-0.1,0-0.1,0
	c-0.5,0-0.9,0-1.4-0.1c-0.8-0.1-1.6-0.2-2.4-0.2c-0.5,0-1-0.2-1.5-0.3c-0.1,0-0.2,0-0.3,0c-0.4,0-0.8-0.1-1.1-0.2
	c-0.2-0.1-0.5-0.1-0.7-0.1c-0.4,0-0.9,0-1.3-0.1c-0.3-0.1-0.6,0-0.9-0.2c0,0-0.1,0-0.1,0c-0.7-0.1-1.3-0.1-2-0.3
	c-0.4-0.1-0.7-0.1-1.1-0.3c-0.2-0.1-0.5-0.1-0.7-0.1c-0.1,0-0.2-0.1-0.3-0.1c-0.1,0-0.3-0.1-0.4-0.1c-0.1,0-0.3,0-0.4,0.1
	c-0.1,0.1-0.1,0.2-0.2,0.4c0,0.1-0.1,0.2-0.1,0.3c0,0,0-0.1-0.1-0.1c-0.1-0.1-0.1-0.2,0-0.4c0-0.1,0.1-0.2,0.1-0.3
	C77.2,43,77.1,43,77,43.1c0,0-0.1,0.1-0.1,0.1c-0.1,0.3-0.2,0.1-0.3,0c-0.2-0.3-0.4-0.3-0.7-0.3c-0.2,0-0.4-0.1-0.5-0.1
	c-0.2,0-0.4,0.1-0.5-0.1c0,0-0.1,0-0.2,0c-0.4,0-0.9-0.1-1.3-0.2c-0.3-0.1-0.6-0.1-0.9-0.1c-0.1,0-0.2,0-0.3,0
	c-0.1,0-0.2-0.1-0.2-0.1c0,0.1,0.1,0.2,0.1,0.3c0.1,0.2,0.2,0.4,0.3,0.5c0,0.1,0.1,0.1,0.1,0.1c0-0.1,0.1-0.1,0.1-0.2
	c0,0,0,0.1,0,0.1c0,0.2-0.1,0.5-0.1,0.7c0,0-0.1-0.1-0.1-0.1c-0.2-0.4-0.4-0.8-0.6-1.3c-0.1-0.2-0.1-0.2-0.3-0.3
	C71.1,42,70.7,42,70.2,42c-0.2,0-0.4-0.1-0.5-0.1c-0.1,0-0.2-0.1-0.2,0.2c0,0-0.1,0.1-0.1,0.1c-0.1-0.2-0.3-0.2-0.4-0.3
	c-0.1-0.2-0.3-0.2-0.4-0.2c-0.3-0.1-0.6-0.2-0.9-0.2c-0.2-0.1-0.4,0-0.6,0.3c-0.1,0.1-0.2,0.3-0.3,0.4c0,0-0.1,0-0.1,0
	c0,0,0-0.1,0-0.2c0.1-0.5,0.1-0.6-0.3-0.7c-0.4-0.1-0.7-0.3-1.1-0.3c-0.4,0-0.8-0.4-1.2,0c-0.1,0-0.2,0-0.2-0.1c0,0-0.1-0.1,0-0.1
	c0-0.1,0.1-0.1,0.1-0.1c0.2,0,0.4-0.1,0.6-0.1c0.1,0,0.1-0.1,0.1-0.2c0,0-0.1-0.1-0.1-0.1c-0.5,0-0.9,0.1-1.4,0.1
	c-0.2,0-0.3,0.1-0.5-0.1c0,0-0.1,0-0.1,0c-0.4,0.3-0.8-0.1-1.2,0.2c0,0-0.1,0-0.1-0.1c-0.2-0.4-0.5-0.3-0.7-0.2
	c-0.2,0.1-0.4,0.2-0.6-0.1c-0.1-0.1-0.2-0.1-0.4-0.2c-0.3-0.1-0.5-0.2-0.8-0.2c-0.3,0-0.6-0.1-0.9-0.1c-0.5-0.1-1-0.2-1.5-0.4
	c-0.1,0-0.1,0-0.2,0c-0.4,0-0.9-0.1-1.3-0.2c0,0-0.1,0-0.1,0c-0.2,0.3-0.5,0.1-0.7,0c-0.4-0.2-0.8-0.2-1.2-0.4
	C52.8,38.4,52.8,38.5,52.8,38.6c-0.4-0.1-0.7-0.1-1-0.3c-0.1,0-0.1-0.2-0.1,0.1c0,0.1,0,0.2,0.1,0.4c0,0.1,0.1,0.3,0.1,0.4
	c0-0.1,0-0.1-0.1-0.2c0-0.1-0.1-0.1-0.2-0.2c0,0.1-0.1,0.2-0.1,0.3c0,0.2,0,0.5,0,0.6c-0.2,0.7-0.1,1.4-0.1,2c-0.1,1,0,2.1,0.1,3.1
	c0,0.1,0,0.3,0.1,0.4c0.2,0.4,0.1,0.8,0.1,1.2c0,0.3,0,0.6,0,0.9c0,0.1,0,0.3,0.1,0.3c0.2,0.2,0.5,0.3,0.7,0.4
	c0.2,0.1,0.3,0,0.3-0.4c0-0.1,0-0.2,0-0.3C52.7,44.5,52.6,41.5,52.8,38.6 M16.5,30.8c0,0,0,0.1-0.1,0.1c0,0,0,0.1,0,0.1
	c0,0,0-0.1,0.1-0.1C16.5,30.8,16.5,30.8,16.5,30.8c0.1,0,0.1-0.1,0.1-0.1c0,0,0-0.1,0-0.1c0,0,0,0.1-0.1,0.1
	C16.6,30.7,16.6,30.7,16.5,30.8 M41.4,34.3c0,0,0,0.1,0,0.1C41.4,34.4,41.4,34.3,41.4,34.3c0.1,0,0.1-0.1,0.1-0.1
	C41.4,34.2,41.4,34.3,41.4,34.3 M39,35.3c0,0,0,0-0.1-0.1c-0.2-0.2-0.3-0.4-0.5-0.7l-0.7-0.7c-0.2-0.1-0.5,0-0.7,0.3
	c-0.1,0.2-0.2,0.3-0.3,0.4c0,0.1-0.1,0.2-0.1,0.3c0.1,0,0.1,0.1,0.2,0.1c0.4,0,0.8,0.1,1.2,0.1c0,0,0.1,0,0.1,0
	C38.4,35.1,38.6,35.2,39,35.3c0,0,0,0,0,0.1c0,0,0,0,0.1,0C39,35.4,39,35.4,39,35.3 M14.7,53.9c0-0.1,0-0.1,0-0.2c0,0,0,0,0,0
	C14.6,53.8,14.6,53.9,14.7,53.9c-0.1,0-0.1,0.1-0.1,0.1C14.6,54,14.6,54,14.7,53.9 M17.1,105.8C17.1,105.8,17.1,105.8,17.1,105.8
	c0,0,0,0,0-0.1c0,0,0-0.1,0-0.1c0-0.1-0.1-0.1-0.1-0.2c0,0.1,0,0.2,0,0.3C16.9,105.7,17,105.7,17.1,105.8 M17.5,87.9
	c0,0.1,0,0.1,0,0.2c0,0.1,0,0.3,0,0.4c0-0.1,0.1-0.3,0.1-0.4C17.6,88,17.5,87.9,17.5,87.9c0.1-0.1,0.1-0.2,0.1-0.3
	C17.5,87.6,17.5,87.7,17.5,87.9C17.5,87.8,17.5,87.8,17.5,87.9 M94.8,43.3c-0.1,0-0.1,0-0.2,0C94.7,43.4,94.7,43.4,94.8,43.3
	c0,0.1,0,0.1,0,0.1c0.1,0,0.1,0.1,0.2,0.1c0.1,0,0.1,0.3,0.1,0.1c0,0-0.1-0.2-0.1-0.3C95,43.4,94.9,43.4,94.8,43.3 M16.5,105.7
	C16.5,105.7,16.5,105.7,16.5,105.7c0,0,0,0,0-0.1c-0.1-0.1-0.2-0.2-0.3-0.3c0,0-0.1,0-0.2,0.1c0,0.1,0.1,0.2,0.1,0.3
	C16.3,105.6,16.4,105.6,16.5,105.7 M17.3,112.9C17.3,112.9,17.2,112.9,17.3,112.9c0,0,0,0,0,0.1c0,0.3,0,0.5,0,0.8
	c0,0.1,0,0.1,0,0.2c0,0,0.1,0,0.1-0.1c0.3-0.5,0.3-0.5,0-0.9C17.4,113,17.3,113,17.3,112.9 M10.2,1.6C10.1,1.6,10.1,1.6,10.2,1.6
	c0,0,0,0,0,0.1C10.6,2,11,2.2,11.4,2.3c0,0,0.1,0,0.1,0.1c0-0.1,0-0.2-0.1-0.2c0-0.1-0.1-0.1-0.2-0.2C10.9,1.8,10.6,1.8,10.2,1.6
	 M13.8,102.7C13.8,102.7,13.8,102.7,13.8,102.7c0,0,0,0,0,0.1c0.5,0.8,1.1,1.3,1.6,2c0,0,0.1,0,0.1,0c0,0,0-0.1,0-0.2
	c0-0.1-0.1-0.2-0.1-0.2c-0.4-0.4-0.7-0.8-1.1-1.2C14.2,103.1,14,102.8,13.8,102.7 M91.2,42.5c0.1,0.1,0.2,0.2,0.4,0.3
	c0,0,0.1,0,0.1-0.1c0-0.1-0.1-0.2-0.1-0.3c-0.1,0-0.2,0-0.4-0.1c-0.1-0.1-0.1-0.2-0.2-0.2c-0.4-0.1-0.8-0.2-1.2-0.4
	c-0.2-0.1-0.5-0.1-0.7-0.1c0,0-0.1,0.1-0.1,0.2c-0.1,0.1,0,0.2,0,0.2c0.1,0.1,0.2,0.2,0.3,0.3c0.4,0.1,0.7,0.1,1.1,0.1
	c0,0,0.1,0,0.1,0C90.8,42.9,91,42.6,91.2,42.5 M84,43.8C84,43.8,84,43.8,84,43.8c0,0,0,0,0,0.1c0.2,0.1,0.4,0.1,0.7,0.2
	c0.2,0,0.3,0,0.5,0.1c0.1,0.1,0.3,0,0.4,0c0.1,0,0.1-0.1,0.1-0.2c0-0.3,0-0.5-0.2-0.7c-0.1-0.1-0.2-0.3-0.5-0.2
	C84.8,43.4,84.4,43.8,84,43.8 M87,44.5c0.2,0,0.5,0,0.7,0.1c0,0,0.1-0.1,0.1-0.1c0,0-0.1-0.1-0.1-0.1c-0.1,0-0.2,0-0.3-0.2
	c-0.1-0.3-0.2-0.2-0.3,0c0,0.1-0.1,0.2-0.1,0.2c-0.1-0.2-0.1-0.3,0-0.5c0-0.1,0.1-0.3,0.1-0.3c-0.2-0.4-0.3-0.7-0.5-1
	c0-0.1-0.1-0.1-0.2-0.2c0,0.1,0,0.2,0,0.3c0.1,0.4,0.2,0.9,0.4,1.3c0,0.1,0,0.1,0,0.2c0,0-0.1-0.1-0.1-0.1c-0.1-0.4-0.3-0.8-0.4-1.2
	c0-0.1-0.1-0.1-0.1-0.2c0,0.1-0.1,0.1-0.1,0.2c0,0.5-0.1,0.9-0.2,1.3c-0.1,0.1,0,0.2,0.1,0.2C86.4,44.4,86.7,44.4,87,44.5
	 M24.6,33.2C24.7,33.2,24.7,33.2,24.6,33.2c0,0,0,0,0-0.1c-0.2-0.3-0.4-0.6-0.5-1c-0.1-0.4-0.4-0.3-0.6-0.5c-0.1,0-0.2,0-0.2,0.1
	c-0.2,0.4-0.5,0.8-0.7,1.2c0,0,0,0.1,0,0.2c0,0,0.1,0,0.1,0c0.1-0.4,0.3-0.3,0.6-0.3c0.4,0,0.7,0.1,1.1,0.1c0,0,0.1,0,0.1,0.1
	C24.4,33.3,24.6,33.1,24.6,33.2 M25.3,28.7c-0.2,0.4-0.4,0.9-0.6,1.3c-0.2,0.3-0.3,0.6-0.5,1c-0.1,0.1,0,0.2,0.1,0.2
	c0.3,0,0.6,0,0.9,0c0,0,0.1-0.1,0.1-0.2C25.2,30.3,25.2,29.5,25.3,28.7c0.1,0,0.1-0.1,0.1-0.1C25.3,28.7,25.3,28.7,25.3,28.7
	 M86.1,41.1C86.1,41.1,86.1,41.2,86.1,41.1c0.1,0.1,0.1,0.1,0.2,0.2c0,0,0-0.1,0-0.1C86.3,41.1,86.2,41.1,86.1,41.1
	c0-0.1,0-0.1,0-0.1c-0.4-0.1-0.7-0.2-1.1-0.3c-0.2,0-0.4-0.2-0.6-0.2c-0.1,0-0.2,0-0.2,0c0,0.2,0,0.4,0.1,0.5
	c0.3,0.7,0.7,0.9,1.3,0.8c0,0,0.1,0,0.1,0c0.1,0,0.3,0.1,0.4,0.1c0.2,0,0.2-0.1,0.1-0.3C86,41.4,85.8,41.2,86.1,41.1 M52.1,33.2
	c-0.1,0-0.1,0-0.2,0C51.9,33.2,52,33.2,52.1,33.2c0,0.1,0,0.1,0,0.1c0.1,0.1,0.2,0.3,0,0.3c-0.1,0-0.1,0-0.2-0.1
	c-0.3-0.2-0.6-0.3-0.8-0.5c-0.1,0-0.1,0-0.2,0c0,0.1,0.1,0.1,0.1,0.2c0.1,0.1,0.1,0.2,0.2,0.4c0.2,0.5,0.5,0.9,0.7,1.4
	c0.2,0.3,0.3,0.5,0.5,0.8c0.2,0.3,0.2,0.3,0.4,0c0.2-0.4,0.4-0.7,0.6-1.1c0.1-0.2,0.2-0.4,0.3-0.7c0.1-0.1,0.1-0.2,0.1-0.4
	c-0.1,0-0.2-0.1-0.3-0.1c0,0,0,0-0.1,0C53,33.5,52.5,33.3,52.1,33.2 M74,38.1C74,38.2,74,38.2,74,38.1c0.1,0.1,0.1,0.1,0.2,0.2
	c0,0,0-0.1,0-0.1C74.2,38.1,74.1,38.1,74,38.1c0-0.1,0-0.1,0-0.1c-0.4-0.3-0.7-0.5-1.1-0.8c-0.3-0.2-0.5-0.5-0.7-0.9
	c-0.4-0.6-0.8-1.3-1.3-2c-0.2-0.3-0.4-0.7-0.6-1c-0.3-0.4-0.5-0.8-0.8-1.3c-0.3-0.5-0.5-1-0.8-1.5c-0.2-0.4-0.4-0.9-0.6-1.3
	c-0.2-0.4-0.4-0.9-0.5-1.4c-0.3-0.8-0.6-1.5-1-2.3c-0.3-0.7-0.5-1.4-0.8-2c-0.2-0.5-0.4-1.1-0.6-1.6c-0.1-0.5-0.3-0.9-0.4-1.4
	c-0.1-0.4-0.2-0.7-0.3-1.1c-0.1-0.6-0.3-1.2-0.5-1.8c-0.3-0.9-0.6-1.7-0.9-2.6c0-0.1-0.1-0.2-0.1-0.2c0,0-0.1,0-0.1,0
	c0,0,0,0.1,0,0.1c0.1,0.8,0.2,1.5,0.4,2.2c0.3,1.1,0.5,2.2,0.7,3.4c0.3,1.1,0.6,2.1,1,3.1c0.1,0.3,0.2,0.6,0.3,0.9
	c0.1,0.2,0.2,0.3,0.2,0.5c0.3,1.1,0.7,2,1.1,3c0.3,0.8,0.6,1.4,1,2.2c0.3,0.8,0.7,1.5,1.1,2.3c0.3,0.6,0.6,1.1,0.9,1.6
	c0.3,0.5,0.6,1,1,1.3c0.5,0.5,1,1.2,1.6,1.7c0.2,0.2,0.4,0.5,0.7,0.6C73.1,37.9,73.6,38.2,74,38.1 M14.8,40.2c0,0.1,0,0.3,0,0.4
	c0,0.2,0.1,0.6-0.1,0.7c0,0.1,0,0.2,0,0.2c0.2,0.1,0.1,0.5,0.2,0.7c-0.2,0.3-0.1,0.6-0.1,0.9c0,0.4,0,0.9,0,1.3c0,0.4,0,0.9,0,1.3
	c0,0.4,0,0.9,0,1.3c0,0.4,0,0.9,0,1.3c0,0.4,0,0.8,0,1.2c0,0.3,0,0.7,0,1c0,0.3,0,0.6,0,0.9c0,0.2,0,0.4,0,0.6
	c0,0.2,0.1,0.5,0.1,0.7c0,0.4-0.1,0.8-0.1,1.2c0,0.5,0,0.9,0,1.4c0,1.3,0.1,2.6-0.1,3.9c-0.1,0.7-0.1,1.5-0.1,2.2c0,1.5,0,3,0,4.5
	c0,0.2,0,0.4-0.1,0.6c0,0.2,0,0.3,0,0.5c0,0.4,0,0.8-0.1,1.2c0.2,0.5,0.1,0.9-0.1,1.4c0,0.1,0,0.2,0,0.3c0.1,0.3,0.1,0.6,0,0.9
	c-0.1,0.3,0,0.6-0.1,1c-0.1,0.3-0.1,0.7-0.1,0.9c0.2,0.9-0.1,1.7,0,2.6c-0.2,0.2,0.1,0.4,0,0.7c-0.1,0.3-0.1,0.6-0.1,0.9
	c0,0.2,0,0.5-0.1,0.7c0,0.1,0,0.2,0,0.3c0,0.3,0.1,0.7,0,1c0,0.2,0,0.4,0,0.6c0,0.2-0.1,0.4,0,0.6c0,0.1,0,0.2,0,0.3
	c-0.1,0.9,0,1.8-0.1,2.7c0,0.3,0,0.6,0,0.9c0,0.3,0.1,0.6,0.1,0.9c0,1,0,2.1-0.1,3.1c-0.1,0.8,0,1.5-0.1,2.3c-0.1,1,0,2.1-0.1,3.1
	c0,0.3,0,0.7,0,1.1c0,0.3,0,0.7,0,1c0,0.3,0,0.6,0,0.9c0,0.8,0,1.5-0.1,2.3c0,0.1,0,0.1,0,0.2c0,0.6-0.1,1.2,0,1.7
	c0,0.2,0,0.4,0,0.6c-0.1,0.4,0.1,0.7,0.4,0.7c0.2,0,0.3-0.1,0.5,0c0.3,0.2,0.5,0,0.8,0.1c0,0,0.1-0.1,0.1-0.1c0-0.1,0-0.2-0.1-0.2
	c-0.2,0-0.2-0.2-0.2-0.4c0-0.8,0.1-1.5,0.1-2.3c0-1.3,0-2.5,0.1-3.8c0-0.4-0.1-0.7-0.1-1.1c0-0.7,0-1.4-0.1-2.1c0-1.3-0.1-2.6,0-4
	c0.1-0.5,0.1-1.1,0.1-1.7c0-0.5,0.1-1,0.1-1.6c0-0.7,0.1-1.4,0.1-2c0-0.4,0-0.8,0.1-1.3c0.1-0.8,0.1-1.6,0.1-2.4
	c0-0.7,0.1-1.4,0-2.1c0,0,0,0,0-0.1c0-0.4,0.1-0.8,0.1-1.1c0-0.3,0-0.6,0-0.8c0-0.3-0.1-0.7,0-0.9c0.1-0.3,0-0.6,0-0.9
	c0-0.1,0-0.2,0-0.3c0.1-0.3,0.1-0.7,0.1-1c0-0.4,0-0.8,0-1.2c0-0.4,0-0.9,0-1.3c0-0.4,0-0.8,0-1.2c0-0.4,0-0.9,0-1.3
	c0-0.4,0-0.8,0-1.1c0-0.5,0.1-1.1,0.1-1.6c0-0.6,0-1.2-0.1-1.8c0-0.6,0-1.2,0-1.7c-0.1-3.3,0.1-6.7-0.1-10c0-0.3,0-0.6,0-0.9
	c0-0.5,0-0.8,0.1-1.2c0,0,0-0.1,0-0.2c-0.2-0.4-0.2-0.9-0.2-1.4c0-0.2,0-0.5,0-0.6c-0.1-0.6-0.1-1.3-0.2-2c-0.1-0.4,0-0.8-0.1-1.2
	c-0.1-0.5-0.1-1-0.1-1.6c0-0.7,0.1-1.4,0-2c-0.1-0.6,0-1.1-0.1-1.7c0-0.2,0.1-0.4,0-0.6c-0.1-0.6-0.1-1.2,0-1.8
	c0.1-0.6,0-1.2,0.1-1.8c0-0.1,0-0.1,0-0.2c0,0-0.1,0.1-0.1,0.1c-0.1,0.2-0.1,0.3-0.2,0.5c-0.2,0.4-0.4,0.8-0.3,1.4
	c0,0.4,0.1,0.9,0,1.3c-0.1,0.5-0.1,1,0,1.4c0.1,0.5,0.1,1,0,1.5C14.7,39.7,14.7,39.9,14.8,40.2c-0.1,0.1-0.1,0.1-0.1,0.2
	c0,0,0,0,0,0C14.8,40.4,14.8,40.3,14.8,40.2 M13.5,27.3c0,0.3,0,0.6,0,0.9c0,0.2,0.1,0.4,0.2,0.4c0,0,0,0.1,0.1,0.1
	c0.1,0.3,0.3,0.6,0.4,0.9c0.2,0.4,0.3,0.7,0.5,1c0.1,0.3,0.3,0.5,0.4,0.8c0.1,0.3,0.3,0.6,0.5,0.9c0.1,0.1,0.1,0.1,0.2,0
	c0.2-0.3,0.4-0.7,0.5-1c0,0,0-0.1,0.1-0.2c0,0-0.1,0-0.1,0c-0.2,0.2-0.2,0-0.1-0.2c0.1-0.3,0.1-0.5,0-0.8c-0.1-0.4-0.1-0.8-0.2-1.1
	c-0.1-0.6-0.2-1.2-0.3-1.8c0-0.2-0.1-0.5-0.3-0.3c0,0-0.1-0.1-0.2-0.1c0-0.1,0.1-0.2,0.1-0.2c0.2,0,0.3,0,0.2-0.4c0,0,0-0.2,0-0.2
	c0,0,0.1,0.1,0.1,0.1c0,0,0,0.1,0.1,0.2c0.1,0.2,0.2,0.4,0.4,0.1c0.1-0.2,0.3-0.3,0.4-0.5c0,0,0.1,0,0.1,0c0,0.1,0,0.1,0,0.2
	c-0.1,0.1-0.1,0.2-0.2,0.3c0.1,0,0.2,0,0.3-0.1c0.1,0,0.1,0,0.2,0c0.1,0.2,0.3,0.1,0.4,0.1c0.4-0.1,0.8,0,1.1,0c0.4,0,0.8,0,1.3,0
	c0.1,0,0.2,0,0.3,0c0.4,0.3,0.8,0.2,1.2,0.3c0.8,0.1,1.6,0.1,2.3,0.1c0,0,0,0,0,0c0.2,0.1,0.5-0.1,0.7,0c0.2,0.1,0.5,0.1,0.7,0.1
	c0.2,0,0.3,0.2,0.5,0c0.6,0.2,1.1,0.1,1.7,0.3c0.3,0.1,0.7,0.1,1,0.1c0.6,0,1.1,0.4,1.6,0.4c0.5,0,0.9,0.2,1.4,0.2
	c0.3,0,0.6,0.2,0.9,0.2c0.3,0,0.5,0.2,0.7,0.3c0.4,0.1,0.9,0.2,1.3,0.2c0.5,0,1,0.2,1.5,0.4c0.4,0.1,0.9,0.2,1.3,0.2
	c0.1,0,0.3,0.1,0.4,0.1c0.4,0,0.7,0.1,1.1,0.1c0,0,0.1,0,0.1,0c0.2,0.2,0.5,0.2,0.8,0.2c0.4,0,0.8,0.2,1.3,0.4
	c0.3,0.1,0.6,0.2,0.9,0.2c0.1,0,0.3,0.1,0.4,0.1c0.2-0.1,0.5-0.2,0.7-0.3c0.6-0.3,1.2-0.6,1.8-0.9c0.3-0.1,0.6-0.2,0.9-0.4
	c0,0,0.1-0.1,0.1-0.1c0,0-0.1-0.1-0.1-0.1c-0.4-0.4-0.9-0.8-1.3-1.2c-0.3-0.2-0.5-0.5-0.8-0.7c-0.4-0.3-0.8-0.6-1.2-0.8
	c-0.3-0.2-0.7-0.5-1-0.8c-0.2-0.2-0.5-0.3-0.7-0.5c-0.3-0.2-0.5-0.5-0.8-0.7c-0.4-0.4-0.9-0.8-1.3-1.2c-0.3-0.3-0.7-0.7-1-1
	c-0.8-0.6-1.5-1.2-2.3-1.8c-0.6-0.4-1.1-0.9-1.7-1.2c-0.7-0.3-1.3-0.7-1.9-1.2c-0.8-0.6-1.5-1.2-2.3-1.8c-0.3-0.3-0.6-0.6-1-0.8
	c-1-0.5-1.9-1.3-2.8-2c-0.5-0.3-0.9-0.7-1.4-1c-0.1-0.1-0.2-0.1-0.3,0c-0.2,0.4-0.4,0.3-0.7,0.1c-0.2-0.1-0.3-0.3-0.2-0.6
	c0.1-0.2,0-0.3-0.1-0.3c-0.1-0.1-0.2-0.1-0.3-0.2c-0.3-0.2-0.7-0.4-1-0.7c-0.2-0.2-0.4-0.4-0.6-0.5c-0.6-0.4-1.2-0.8-1.8-1.2
	c-0.4-0.2-0.8-0.4-1.1-0.7c-0.4-0.3-0.8-0.8-1.1-1.2c-0.5-0.5-0.9-1.2-1.5-1.5c-0.7-0.4-1.5-0.9-2.2-1.4c-0.6-0.4-1.1-0.9-1.7-1.5
	c-0.1-0.1-0.3-0.3-0.4-0.3c-0.4-0.1-0.8-0.4-1.2-0.7C9.4,1.5,9.3,1.5,9.2,1.4C9.1,1.4,9,1.5,9,1.8c0,0.4,0.2,0.8,0.4,1.1
	C9.7,3.5,9.8,4.1,10,4.6c0.5,1.2,1,2.4,1.4,3.6c0.3,1,0.6,2,0.9,3c0.2,0.6,0.3,1.3,0.6,1.9c0.3,0.9,0.7,1.8,1,2.7
	c0.3,0.8,0.5,1.7,0.8,2.6c0.2,0.7,0.5,1.4,0.7,2.2c0.3,1.1,0.5,2.1,0.9,3.1c0.1,0.4,0.1,0.4,0.3,0.1c0-0.1,0.1-0.1,0.1-0.2
	c0.1-0.2,0.3-0.2,0.4,0c0.1,0.1-0.1,0.4-0.3,0.4c-0.1,0-0.1,0.1,0,0.2c0.1,0.1,0.2,0.2,0.2,0.3c0,0.5-0.2,0.9-0.1,1.4
	c0,0,0,0.1-0.1,0.2c0,0,0,0.1,0,0.1c0,0-0.1-0.1-0.1-0.1c-0.1-0.4-0.2-0.8-0.3-1.2c0-0.1-0.1-0.1-0.1-0.1c0,0.3-0.2,0.2-0.3,0.3
	c-0.6,0.5-1.2,0.9-1.8,1.4c-0.2,0.2-0.4,0.3-0.6,0.4c-0.6,0.4-1.2,0.8-1.8,1.2c-0.5,0.4-1.1,0.9-1.6,1.3c-0.8,0.6-1.6,1.2-2.4,1.7
	c-0.6,0.4-1.2,0.9-1.8,1.4c-0.8,0.6-1.7,1.3-2.6,1.9c-0.6,0.4-1.1,0.8-1.7,1.1c-0.1,0-0.1,0.1-0.2,0.2c0.1,0,0.2,0.1,0.2,0.1
	c0.1,0,0.1-0.1,0.2-0.1c0.7-0.4,1.4-0.9,2.1-1.3c0.2-0.1,0.4-0.3,0.6-0.3C4.8,34,4.9,34,5.1,33.8c0.6-0.4,1.2-0.7,1.8-1.1
	c0.5-0.3,1-0.5,1.4-0.7c0.2-0.1,0.5-0.4,0.7-0.5c0.5-0.2,1-0.5,1.5-0.8c0.4-0.2,0.8-0.6,1.2-0.8c0.1-0.1,0.2-0.2,0.3-0.2
	c0.4-0.2,0.7-0.5,1.1-0.7c0.1-0.1,0.1-0.1,0.1-0.3c-0.1-0.2-0.3-0.4-0.4-0.6c0-0.1,0-0.2,0-0.3c0.1,0,0.2,0,0.2,0
	c0.1,0.1,0.1,0.2,0.1,0.3c0,0,0.1,0.1,0.1,0.1c0-0.1,0-0.1,0-0.2c0-0.2,0-0.4,0-0.6C13.3,27.2,13.4,27.2,13.5,27.3 M48.9,10.1
	c-0.2-0.1-0.3-0.1-0.5-0.2c-0.4-0.1-0.8-0.1-1.2-0.1c-0.1,0-0.1,0-0.2,0c-0.4-0.2-0.7-0.2-1.1-0.2c0,0-0.1,0-0.1,0.1
	c0,0,0.1,0,0.1,0.1c0.1,0.1,0.3,0.2,0.4,0.3c0,0,0,0.1,0.1,0.1c0,0-0.1,0-0.1,0c-0.1-0.1-0.3-0.2-0.4-0.2c-0.5-0.2-1-0.5-1.6-0.6
	C43.9,9.3,43.5,8.9,43,9c-0.7-0.5-1.5-0.4-2.2-0.7c-0.4-0.1-0.9-0.2-1.3-0.3C39.3,8,39.2,8,39,7.9c-0.3-0.1-0.7-0.2-1-0.3
	c-0.4-0.1-0.9-0.2-1.3-0.4c-0.4-0.1-0.8-0.2-1.1-0.3c-0.4-0.1-0.7-0.2-1.1-0.3c-0.4-0.1-0.7-0.2-1.1-0.3c-0.3-0.1-0.7-0.2-1-0.3
	c-0.4-0.1-0.8-0.2-1.2-0.3c-0.2-0.1-0.5,0-0.7-0.1c-0.5-0.3-1.1-0.3-1.6-0.4c-0.4-0.1-0.7-0.3-1.1-0.3c-0.2,0-0.4,0-0.6-0.1
	c-0.5-0.1-1-0.2-1.4-0.4c-0.2,0-0.4,0-0.6-0.1c-0.5-0.3-0.9-0.2-1.4-0.3c-0.2-0.1-0.5,0-0.7-0.1c-0.6-0.3-1.2-0.2-1.8-0.4
	c-0.4-0.1-0.9-0.2-1.3-0.2c-0.6,0-1.1-0.2-1.7-0.4c-0.4-0.1-0.9-0.1-1.3-0.1c-0.4,0-0.8,0-1.1-0.1c-0.2,0-0.3-0.1-0.5,0
	c0,0-0.1,0-0.2,0c-0.1-0.1-0.2-0.1-0.3,0c-0.1,0.1-0.2,0-0.3,0c-0.4-0.2-0.8-0.1-1.2-0.2c-0.2-0.1-0.5,0.1-0.7-0.1
	c0,0-0.1,0-0.1,0.1c0,0.1,0.1,0.1,0.1,0.2c0.1,0.1,0.1,0.1,0.2,0.1c0,0,0.1,0,0.2,0.1c-0.1,0.1-0.1,0.2-0.2,0.2
	c-0.1,0-0.2-0.1-0.3-0.2c-0.1-0.1-0.1-0.3-0.2-0.4c-0.1-0.1-0.3-0.1-0.5-0.1c0.1,0.2,0.2,0.3,0.3,0.5c0,0,0,0,0,0
	c0.4,0.2,0.8,0.4,1.1,0.6c0.2,0.1,0.5,0.2,0.7,0.5c0.4,0.6,0.9,0.9,1.3,1.4c0.2,0.2,0.4,0.3,0.6,0.4c0.2,0.1,0.5,0.2,0.7,0.4
	C17,6.1,17.5,6.6,18,7.1c0.5,0.4,1,0.8,1.4,1.3c0.2,0.2,0.4,0.3,0.6,0.5c0.4,0.4,0.8,0.8,1.3,1.2c0.3,0.3,0.6,0.6,0.9,0.8
	c0.2,0.2,0.3,0.2,0.5-0.1c0.2-0.3,0.3-0.2,0.5,0.1c0,0.1,0.1,0.1,0.2,0.1c0.1,0.1,0.1,0.2,0.1,0.4c-0.1,0.3,0,0.5,0.1,0.6
	c0.9,0.6,1.8,1.3,2.7,1.9c0.4,0.3,0.7,0.6,1.1,0.8c0.7,0.3,1.3,1,2,1.4c0.5,0.4,1,0.9,1.6,1.3c0.2,0.2,0.4,0.3,0.6,0.4
	c0.4,0.3,0.9,0.5,1.3,0.8c0.4,0.3,0.8,0.6,1.2,0.8c0.8,0.5,1.6,1.2,2.4,1.8c0.6,0.4,1.2,1.1,1.8,1.7c0.6,0.5,1.1,1,1.7,1.5
	c0.5,0.5,1.2,0.8,1.7,1.3c0.4,0.4,0.9,0.6,1.3,1c0.4,0.3,0.7,0.6,1.1,0.9c0.4,0.3,0.8,0.7,1.2,1c0.2,0.1,0.3,0.3,0.5,0.1
	c0.5-0.4,1-0.7,1.6-1.1c0.6-0.5,1.3-0.9,1.9-1.4c0.7-0.5,1.4-1,2.2-1.6c0.9-0.7,1.8-1.5,2.7-2.2c0.6-0.5,1.2-1.1,1.8-1.6
	c0.8-0.7,1.6-1.3,2.3-2.2c0.8-0.9,1.6-1.6,2.3-2.6c0.5-0.7,1-1.3,1.5-1.9c0.1-0.1,0.2-0.2,0.3-0.4c-0.1,0-0.3,0-0.4,0
	c-0.5-0.3-1.1-0.1-1.7-0.3c-0.2-0.1-0.4-0.1-0.7-0.2c-0.4-0.1-0.8-0.3-1.3-0.4c-0.3-0.1-0.6-0.2-0.9-0.3c-0.5-0.2-1.1-0.2-1.6-0.4
	C55.6,12,55.5,12,55.4,12c-0.4-0.1-0.8-0.1-1.1-0.3c-0.1-0.1-0.2,0-0.2,0.1c-0.1,0.4-0.3,0.3-0.4,0.3c-0.1,0-0.3-0.1-0.4-0.2
	c-0.1,0-0.1-0.1-0.1-0.2c0-0.6-0.3-0.5-0.5-0.5c-0.4-0.1-0.8-0.2-1.1-0.2c-0.3-0.1-0.6-0.2-0.9-0.3C50,10.3,49.5,10.3,48.9,10.1
	 M63.4,15.3c0.1,0.4,0.3,0.9,0.4,1.3c0.1,0.4,0.3,0.8,0.4,1.2c0.2,0.6,0.3,1.3,0.5,1.9c0.1,0.4,0.3,0.8,0.4,1.2
	c0.2,0.5,0.3,1,0.5,1.5c0.3,0.8,0.6,1.5,0.9,2.3c0.2,0.5,0.4,1.1,0.7,1.6c0.3,0.8,0.6,1.5,0.9,2.3c0.3,0.6,0.6,1.1,0.8,1.7
	c0.4,0.7,0.7,1.4,1.1,2.1c0.4,0.7,0.8,1.3,1.2,1.9c0.4,0.6,0.7,1.2,1.1,1.7c0.3,0.4,0.6,0.8,0.9,1.1c0.5,0.4,1,0.7,1.5,1.2
	c0,0,0.1,0,0.1,0c0.5,0.1,1,0.2,1.4,0.4c0.4,0.2,0.7,0.3,1.1,0c0.1-0.1,0.3-0.1,0.4,0.1c0.1,0.1,0.2,0.2,0.3,0.1c0,0,0.1,0,0.2,0
	c0.3,0.2,0.7,0.1,1.1,0.2c0.3,0.1,0.6,0.1,1,0.1c0.2,0,0.4,0.1,0.6,0.1c0.3,0,0.5,0.2,0.8,0.1c0.2-0.1,0.4,0,0.5-0.1
	c0,0,0.1,0.1,0.1,0.1c0,0.3,0.1,0.3,0.2,0.3c0.1,0,0.3,0.1,0.4-0.2c0-0.1,0.1-0.2,0.1-0.2c0,0.1,0,0.2,0,0.2c0,0.1,0.1,0.2,0.1,0.2
	c0.2,0.1,0.4,0.1,0.6,0.1c0.4,0.1,0.9,0.3,1.3,0.3c0.3,0,0.5,0.3,0.8,0.1c0.2-0.1,0.4-0.1,0.6,0.2c0.1,0.1,0.2,0.2,0.3,0.2
	c0.2,0.1,0.5,0.1,0.7,0.1c0.2,0,0.5,0,0.7,0.1c0.5,0.2,1.1,0.2,1.6,0.4c0.5,0.2,1,0.3,1.5,0.5c0.1,0,0.2,0,0.2-0.1
	c0,0,0-0.2,0.1-0.3c0,0.1,0.1,0.2,0.1,0.3c0.1,0.1,0.1,0.1,0.2,0.2c0.6,0.4,1.3,0.4,2,0.6c0.3,0.1,0.6,0.2,0.9,0.2
	c0.1,0,0.1,0,0.2,0c0-0.1-0.1-0.2-0.1-0.3c0-0.1-0.2-0.2,0-0.4c0.1-0.1,0.2,0.1,0.2,0.2c0,0.1,0,0.2,0,0.3c0.1,0.1,0.1,0.5,0.3,0.4
	c0.4-0.1,0.7,0.2,1,0.2c0,0,0.1,0.2,0.1,0c0,0,0-0.1-0.1-0.1c-0.4-0.4-0.7-0.7-1.1-1.1c-0.7-0.6-1.3-1.3-1.8-2
	c-0.5-0.7-1-1.3-1.6-1.7c-0.7-0.6-1.4-1.1-2-1.7c-0.4-0.3-0.8-0.8-1.2-1.1c-0.6-0.5-1.2-1.1-1.9-1.5c-0.5-0.3-1-0.8-1.5-1.2
	c-0.8-0.6-1.5-1.3-2.3-1.9c-0.6-0.5-1.2-0.9-1.8-1.4c-0.4-0.3-0.8-0.6-1.1-0.9c-0.6-0.5-1.2-1-1.9-1.5c-0.2-0.2-0.5-0.4-0.7-0.6
	c-0.3-0.3-0.6-0.5-0.9-0.8c-0.4-0.4-0.8-0.7-1.3-1c-0.8-0.6-1.6-1.1-2.4-1.7c-0.7-0.5-1.5-1.1-2.2-1.7c-0.2-0.1-0.3-0.1-0.5,0.1
	c-0.1,0.1-0.1,0.1-0.2,0.2c0-0.1,0-0.3,0-0.4c0-0.3,0-0.4-0.2-0.6c-0.2-0.1-0.4-0.1-0.7-0.2c-0.2-0.1-0.3-0.3-0.3-0.6
	c0-0.2-0.1-0.4-0.2-0.5c-0.1-0.2-0.3-0.3-0.5-0.4c-0.3-0.3-0.5-0.5-0.8-0.8c-0.7-0.7-1.3-1.5-2-2.2c-0.5-0.5-0.9-0.9-1.4-1.4
	c-0.2-0.2-0.4-0.4-0.5-0.5c-0.1-0.2-0.2,0-0.3,0.1c-0.1,0.2,0,0.3,0,0.4C63.3,14.9,63.3,15.1,63.4,15.3 M49,31.5
	c0.2,0.1,0.4,0.3,0.6,0.4c0.2,0.1,0.4,0.2,0.6,0.4c0.2,0.2,0.4,0,0.6,0.2c0.2,0.2,0.6,0.2,0.9,0.3c0.5,0.1,0.9,0.2,1.4,0.2
	c0.2,0,0.4,0,0.6,0.1c0.5,0.2,0.9,0.3,1.4,0.3c0.2,0,0.5,0,0.7,0.1c0.3,0.1,0.5,0.2,0.8,0.2c0.3,0.1,0.6,0.1,0.8,0.1
	c0.3,0,0.5,0.2,0.8,0.2c0.2,0,0.4,0.1,0.6,0.2c0.3,0.1,0.6,0.1,0.9,0.2c0,0,0.1-0.1,0.1-0.2c0.1-0.5,0.1-1.1,0.1-1.6
	c0-0.8,0.2-1.6,0.2-2.4c0-0.6,0.1-1.2,0.2-1.8c0.1-0.6,0.2-1.1,0.2-1.7c0.1-0.7,0.3-1.4,0.2-2.2c0-0.2,0.2-0.5,0-0.7
	c0,0,0-0.2,0.1-0.2c0-0.1,0.1-0.2,0.1-0.4c0.1-0.4,0.1-0.7,0.2-1.1c0-0.3,0.1-0.6,0.1-0.9c0-1,0.2-1.9,0.4-2.8
	c0.1-0.5,0.1-1.1,0.2-1.6c0.1-0.5,0.1-1,0.2-1.4c0.1-0.5,0.2-1,0.1-1.5c0-0.1,0-0.1-0.1-0.2c0,0-0.1,0-0.1,0.1
	c-0.5,0.6-1,1.2-1.5,1.9c-0.6,0.9-1.3,1.5-2,2.3c-0.5,0.5-1,1-1.4,1.4c-0.9,0.8-1.8,1.6-2.6,2.4c-0.3,0.3-0.7,0.5-1,0.8
	c-0.3,0.3-0.6,0.6-0.9,0.8c-0.5,0.4-1,0.9-1.6,1.3c-0.9,0.7-1.8,1.3-2.7,2c-0.1,0.1-0.2,0.2-0.3,0.2c-0.5,0.3-0.9,0.6-1.4,0.9
	c-0.4,0.2-0.7,0.6-1.1,0.8c0,0,0,0.1-0.1,0.1c0,0,0,0.1,0.1,0.1c0.5,0.4,1.1,0.8,1.6,1.1C47.9,30.6,48.4,31.2,49,31.5 M69.9,35.1
	c-0.4-0.7-0.9-1.4-1.3-2.1c-0.3-0.6-0.6-1.3-0.9-2c-0.3-0.7-0.6-1.5-0.9-2.2c-0.3-0.7-0.6-1.3-0.8-2c-0.3-1.1-0.7-2.1-1.1-3.1
	c-0.2-0.6-0.5-1.2-0.6-1.9c-0.3-1.3-0.6-2.7-0.9-4.1c-0.1-0.4-0.2-0.9-0.2-1.3c0-0.1-0.1-0.1-0.1-0.2c0,0.1,0,0.1,0,0.2
	c0,0.5,0,1-0.1,1.5c0,0.5-0.1,0.9-0.1,1.4c-0.1,0.6-0.1,1.2-0.2,1.8c-0.1,0.6-0.1,1.2-0.2,1.8c-0.1,0.3-0.1,0.4,0.1,0.5
	c0,0,0.1,0.1,0.1,0.2c0,0.1-0.1,0.2-0.1,0.2c-0.2,0-0.2,0.2-0.2,0.4c-0.1,0.7-0.2,1.5-0.2,2.3c0,0.2,0,0.4,0,0.7
	c0,0.3-0.1,0.6-0.1,1c-0.1,0.8-0.2,1.6-0.2,2.5c-0.1,0.9-0.1,1.8-0.2,2.7c0,0.1,0,0.2,0,0.2c0,0.4-0.1,0.8-0.1,1.2
	c0,0.1,0.1,0.2,0.1,0.2c0.1,0,0.2,0,0.3,0c0.3,0,0.6,0.1,0.9,0.3c0.1,0.1,0.1,0,0.1-0.1c0.1-0.1,0.2-0.3,0.4-0.5c0,0,0.1,0,0.1,0
	c0,0,0,0.1,0,0.2c-0.1,0.2-0.2,0.3-0.3,0.5c-0.1,0.1-0.1,0.2,0,0.3c0.3,0.5,0.6,1.1,0.9,1.7c0.1,0.2,0.3,0.4,0.4,0.7
	c0.1,0.5,0.4,1,0.5,1.5c0.1,0.2,0.1,0.2,0.2,0.1c0.2-0.2,0.4-0.4,0.6-0.5c0.2-0.1,0.3-0.3,0.2-0.6c-0.1-0.2,0-0.2,0.1-0.2
	c0.1,0,0.2-0.1,0.2,0c0.1,0.2,0.2,0,0.2-0.1c0.1-0.1,0.1-0.2,0.2-0.2c0.2-0.2,0.4-0.3,0.6-0.5c0.3-0.3,0.6-0.5,0.6-1.2
	c0,0,0-0.1,0-0.1c0.1,0.1,0.3,0,0.4-0.1c0,0,0,0,0,0c0,0.4,0.2,0.4,0.4,0.4c0.3,0,0.6,0,0.9,0.1c0.4,0.1,0.7,0.1,1.1,0.4
	c0.2,0.2,0.5,0.2,0.7,0.3c0.4,0.1,0.7,0.1,1.1,0.3c0,0,0.1,0,0.1-0.1c0-0.1,0-0.1-0.1-0.2c-0.3-0.3-0.6-0.6-0.9-1
	C70.9,36.2,70.4,35.7,69.9,35.1 M17.2,60.3c0-0.3,0-0.6,0-0.8c0-0.3,0-0.5,0-0.7c0-0.3-0.1-0.5-0.1-0.8c0-1.3,0-2.7-0.1-4
	c0-0.5,0.1-1-0.1-1.4c0-0.1,0-0.3,0-0.3c0.1-0.2,0.1-0.4,0.1-0.6c0-0.3,0-0.6,0-0.9c0-1,0.1-2-0.1-3c0-0.1,0-0.3,0-0.4
	c0.1-0.2,0.1-0.3,0-0.5c0-0.1,0-0.3,0-0.4c0-0.5,0.1-0.9,0.1-1.4c0-0.4,0.1-0.8-0.1-1.1c0.2-0.4,0-0.9,0.1-1.3c0-0.5,0-1.1,0-1.6
	c0-0.3,0-0.6,0-0.9c0-0.3,0-0.6,0-0.9c0-1.4,0-2.8,0.1-4.1c0.1-0.8,0-1.7,0-2.5c0-0.4-0.1-0.6-0.4-0.6c-0.1,0-0.2,0-0.2,0
	c0,0-0.1-0.1-0.1-0.1c0,0,0-0.1,0.1-0.2c0.1-0.3,0.3-0.1,0.5-0.2c0.2,0,0.3-0.1,0.3-0.4c0-0.1,0-0.2,0-0.2c0-0.1,0.1-0.1,0.1-0.1
	c0.1,0,0.1,0.1,0.1,0.1c0,0.1,0,0.2,0,0.3c0,0.3,0.1,0.5,0.3,0.5c0.3,0.1,0.5,0.2,0.8,0.2c0.3,0.1,0.7,0.2,1.1,0.2
	c0.3,0.1,0.5,0,0.8,0.1c0.3,0.2,0.7,0.2,1,0.2c0.2,0,0.3,0,0.5,0c0.3,0.1,0.3,0.1,0.3-0.4c0,0,0-0.1,0-0.1c0-0.5-0.1-0.6-0.4-0.7
	c0,0-0.1-0.1-0.1-0.1c-0.3,0-0.6-0.3-0.9-0.1c-0.1,0.1-0.2,0-0.3,0c-0.3-0.2-0.6-0.3-1-0.3c-0.3,0-0.7,0-1-0.1
	c-0.5-0.1-1-0.2-1.5-0.2c-0.1,0-0.2,0-0.3,0.2c-0.3,0.6-0.6,1.1-0.9,1.7c0,0,0,0.1,0,0.1c0,0,0,0,0.1,0c0.1,0,0.3-0.1,0.3,0.2
	c0,0-0.2,0.2-0.3,0.3c0,0,0,0-0.1,0c-0.2-0.1-0.2,0.1-0.2,0.3c0,0.1,0,0.2,0,0.4c0-0.1,0-0.2,0-0.3c0-0.1,0.1-0.1,0.2-0.1
	c0,0,0,0.1,0,0.1c-0.2,0.2-0.1,0.5-0.1,0.7c0,0.3-0.1,0.6-0.1,1c0,0.3,0.1,0.6,0.1,1c0,0.5,0.1,0.9-0.1,1.3c0,0,0,0.1,0,0.2
	c0.1,0.4,0,0.9,0,1.3c0,0.7,0,1.5,0.1,2.2c0,0.3,0.1,0.5,0,0.8c0,0.1,0,0.2,0,0.2c0.2,0.5,0,1,0.1,1.6c0.1,0.4,0,0.8,0.1,1.2
	c0.3,1.1,0.3,2.2,0.4,3.3c0.1,0.8,0,1.7,0.1,2.6c0,0.3,0,0.7,0,1c0,0.5,0,1,0,1.5c0,0.5,0,1,0,1.4c0,0.4,0.2,0.9-0.1,1.3
	c0,0,0,0,0,0c0,0.6,0,1.1,0.1,1.7c0,0.3,0,0.7,0,1c0,0.4,0.1,0.8,0,1.1c-0.1,0.5-0.1,1,0,1.5c0.1,0.5,0,1,0,1.5
	c0,0.2-0.1,0.4-0.1,0.7c0,0.2,0.1,0.5,0.1,0.7c0,0.6,0,1.1,0,1.7c0,0.5,0.1,1,0,1.5c-0.1,0.2-0.1,0.6,0,0.8c0,0.3,0,0.6,0,0.9
	c0,0.4,0,0.8,0.1,1.2c0.1,0.2,0,0.5-0.1,0.8c0,1.3,0.1,2.5-0.1,3.8c-0.1,0.8,0,1.6-0.1,2.4c-0.1,0.9,0,1.9-0.1,2.8
	c0,0.3-0.1,0.7,0,1c0,0,0,0.1,0,0.2c-0.1,0.4-0.1,0.8-0.1,1.3c0,0.3-0.1,0.5-0.1,0.8c0,0.2,0.1,0.5,0.1,0.7c0,0.3,0,0.6-0.1,0.9
	c-0.1,0.3,0.1,0.6,0,0.8C16,86.1,16,86.4,16,86.8c0,0.6,0,1.1-0.1,1.7c0,0,0,0.1,0,0.1c-0.2,0.2-0.1,0.5,0,0.8c0,0.1,0,0.1,0,0.2
	c0,0.7-0.1,1.4-0.1,2.2c0,0.3,0.1,0.6,0.1,0.9c0,0.2-0.1,0.4-0.1,0.5c0,0.3,0,0.5,0,0.7c0,0.3,0,0.6,0,0.8c0,0.9,0.1,1.9-0.1,2.9
	c0,0.3,0,0.6,0.1,0.8c0.1,0.3-0.1,0.4,0,0.7c0.1,0.2,0,0.6,0,0.9c0,0.3-0.1,0.6,0,0.8c0,0.2,0.1,0.3,0,0.5c-0.1,0.2,0.1,0.5,0.2,0.4
	c0.2,0,0.3-0.1,0.5-0.1c0.3,0,0.3,0,0.3-0.6c0-1.3,0-2.6,0.1-3.9c0.1-0.7,0.1-1.5,0.2-2.3c0.1-0.7,0.1-1.5,0.1-2.2
	c0-0.8,0-1.7,0.1-2.5c0.1-1.5,0-3.1,0.1-4.6c0.1-2.1,0.1-4.3,0.1-6.4c0-0.2,0-0.4,0-0.5c0.1-0.2,0-0.3,0-0.5c0-0.5,0-0.9-0.1-1.4
	c-0.1-0.4,0.1-0.8,0-1.3c-0.1-0.8,0-1.6-0.1-2.4c-0.1-1,0.1-1.9-0.1-2.9c0-0.2,0-0.4,0-0.6c0-0.3,0.1-0.7,0-1c0-0.2,0-0.4-0.1-0.6
	c0-0.7,0.1-1.3,0-2c0-0.2,0-0.3,0-0.5c0-0.6-0.1-1.2,0-1.8c0-0.1,0-0.2,0-0.3c-0.1-0.2-0.1-0.4-0.1-0.6C17.2,62,17.2,61.2,17.2,60.3
	 M16.1,126.5c-0.3-0.3-0.6-0.7-0.9-1c-0.3-0.3-0.4-0.3-0.7,0c-0.1,0.1-0.2,0.3-0.3,0.4c-0.2,0.2-0.3,0.3-0.5,0.5
	c-0.2,0.2-0.3,0.4-0.4,0.6c-0.3,0.4-0.3,0.4-0.3,1.1c0,0.3,0,0.6,0,0.8c0,0.6,0,1.1,0,1.7c0,0.3-0.1,0.6,0,0.9c0,0.1,0,0.2,0.1,0.2
	c0.3,0,0.5,0.1,0.8-0.1c0,0,0.1-0.1,0.1-0.1c0,0-0.1,0-0.1,0c-0.2,0-0.4,0-0.6,0c-0.1,0-0.1-0.2-0.2-0.3c0.1,0,0.1-0.1,0.2-0.1
	c0.2,0,0.5,0.1,0.7,0.2c0.3,0.1,0.5,0.2,0.8,0.3c0.2,0.1,0.4-0.1,0.5-0.3c0.2-0.4,0.5-0.7,0.7-1c0.4-0.6,0.8-1.1,1.1-1.7
	c0,0,0.1-0.2,0-0.2c-0.1-0.2-0.2-0.4-0.3-0.6C16.6,127.3,16.4,126.9,16.1,126.5 M11.7,12.4c0.3,0.9,0.5,1.9,0.8,2.8
	c0.3,0.8,0.4,1.6,0.7,2.4c0.3,0.8,0.5,1.6,0.7,2.5c0.4,1.5,0.8,3,1.1,4.5c0.1,0.6,0.1,0.7,0.6,0.3c0.1-0.1,0.3-0.2,0.4-0.3
	c0.2-0.3,0.2-0.5,0.1-0.8c-0.2-0.5-0.4-1-0.5-1.5c-0.2-1-0.5-1.9-0.8-2.8c-0.1-0.2-0.2-0.5-0.2-0.7c-0.3-0.9-0.5-1.8-0.8-2.6
	c-0.3-0.7-0.6-1.4-0.8-2.2c-0.4-1.3-0.8-2.6-1.2-3.9c-0.3-0.9-0.6-1.8-0.9-2.7c-0.3-0.9-0.7-1.7-1-2.5C9.6,4,9.2,3.3,9.1,2.5
	C9,2.5,9,2.4,9,2.4c0,0.1-0.1,0.1,0,0.2C9.1,3.4,9.2,4.2,9.5,5c0.2,0.7,0.5,1.4,0.7,2.2c0.2,0.8,0.4,1.6,0.7,2.4
	C11.1,10.4,11.4,11.4,11.7,12.4 M16.4,115.8c0.1-0.2,0.2-0.5,0.4-0.7c0.3-0.3,0.1-0.9,0.3-1.3c-0.2-0.3,0.1-0.7-0.1-1
	c0.2-0.2,0-0.3-0.1-0.4c-0.3-0.3-0.7-0.6-1-1c-0.2-0.1-0.2,0.1-0.2,0.2c0.2,0.8,0,1.6,0.1,2.4c0.1,0.4,0,1,0.1,1.4
	c0,0.1,0.1,0.4-0.1,0.2c0,0-0.1,0.1-0.1,0.1c0,0.1,0,0.1,0,0.2c0-0.1-0.1-0.2-0.1-0.3c0-0.6-0.1-1.1-0.1-1.7c0-0.3,0-0.5,0-0.8
	c0-0.3,0-0.6,0-0.8c0-0.2,0-0.5,0-0.7c0-0.2,0-0.6-0.2-0.8c-0.3-0.2-0.7-0.5-1-0.8c0,0-0.1,0-0.1,0c0,0-0.1,0.2-0.1,0.2
	c0,0.3,0,0.5,0.1,0.8c0,0.4-0.1,0.9,0,1.3c0.1,0.4,0,0.8,0.1,1.2c0,0.1,0,0.1-0.1,0.2c-0.1,0.1-0.3,0-0.3-0.3c0-0.2,0.1-0.5,0-0.7
	c0-0.6-0.2-1.2-0.1-1.9c0,0,0-0.2,0-0.1c0,0-0.1,0-0.1,0.1c0,0,0,0.1-0.1,0.2c-0.1,0.3-0.2,0.6-0.4,0.9c-0.3,0.4-0.6,0.8-0.5,1.5
	c0,0.1,0,0.1,0,0.2c-0.1,0.3,0,0.4,0.1,0.5c0.2,0.1,0.5,0.3,0.7,0.5c0.2,0.1,0.3,0.2,0.5,0.3c0.2,0.1,0.3,0.3,0.4,0.4
	c0.3,0.2,0.5,0.5,0.8,0.7c0.2,0.2,0.4,0.5,0.5,0.4c0.2,0,0.3-0.4,0.5-0.6C16.3,115.9,16.3,115.8,16.4,115.8 M15.8,123.6
	c-0.1,0-0.1,0.1-0.2,0.1c0,0.2-0.1,0.2-0.1,0.3c-0.1,0.1-0.1,0.3-0.2,0.4c0,0.1-0.1,0.3-0.2,0.1c0,0-0.1,0.1-0.1,0.1
	c0,0,0,0.1,0,0.1c0.3,0.3,0.6,0.8,0.9,1.1c0.4,0.5,0.8,1,1.2,1.6c0.3,0.4,0.3,0.5,0.6,0c0.2-0.3,0.3-0.7,0.2-1.1
	c0-0.6-0.1-1.2,0-1.8c0.1-0.8,0-1.5,0.1-2.3c0.1-0.5,0-1-0.1-1.5c0-0.3-0.2-0.3-0.3-0.2c-0.5,0.7-1.1,1.4-1.6,2.3
	C16,123.1,15.9,123.3,15.8,123.6 M15.2,119.4c-0.1,0.2-0.2,0.3-0.2,0.5c-0.1,0.2-0.3,0.5-0.4,0.7c-0.1,0.1-0.1,0.2-0.2,0.4
	c0-0.2-0.1-0.3-0.1-0.5c0,0,0-0.1,0-0.1c0,0,0-0.1,0-0.1c0,0-0.1,0.1-0.1,0.1c0,0.2,0,0.4,0,0.5c0,0.1,0,0.2-0.1,0.3
	c-0.1,0.2-0.3,0.5-0.4,0.7c-0.1,0.2,0,0.6-0.3,0.8c-0.1,0.1-0.1,0.4,0,0.5c0.1,0.1,0.2,0.2,0.3,0.3c0.3,0.2,0.5,0.4,0.8,0.6
	c0.1,0.1,0.2,0.1,0.3,0c0.3-0.5,0.6-0.9,0.9-1.3c0.4-0.6,0.8-1.2,1.2-1.7c0.2-0.3,0.4-0.5,0.6-0.8c0.1-0.1,0.1-0.2,0-0.4
	c-0.3-0.4-0.6-0.7-1-1c-0.1-0.2-0.3-0.3-0.4-0.5c-0.2-0.1-0.4-0.1-0.4,0.2C15.6,118.9,15.4,119.1,15.2,119.4 M14.7,132.3
	c-0.1,0.1-0.2,0.1-0.3,0.2c-0.3,0.1-0.5,0.3-0.8,0.3c-0.2,0-0.4,0.1-0.6,0.2c-0.1,0-0.2,0.2-0.2,0.4c0,0.2,0.1,0.1,0.2,0
	c0.6-0.2,1.2-0.5,1.7-0.8c0.1,0,0.2,0,0.3,0c0,0,0.1,0.1,0.1,0.1c0,0-0.1,0.1-0.1,0.1c-0.2,0.1-0.3,0.2-0.5,0.2
	c-0.5,0.3-1,0.6-1.5,0.8c-0.5,0.2-0.6,0.4-0.5,1c0,0.2,0,0.4,0.2,0.2c0.2-0.1,0.3-0.2,0.5-0.3c0.2-0.1,0.7-0.1,0.9-0.1
	c0.1,0,0.2,0.1,0.3,0c0.2-0.2,0.3-0.1,0.5-0.1c0.7,0,1.3-0.1,2-0.1c0.4,0,0.7-0.4,0.7-0.9c0.1-0.7,0.1-1.4,0.1-2.1
	c0-0.2-0.1-0.2-0.1-0.2c-0.3,0-0.6,0.1-1,0.1c0,0,0,0,0,0c0,0.1-0.1,0.1-0.1,0.2c0,0,0.1,0.1,0.1,0.1c0.2,0,0.4,0,0.5,0.1
	c0.1,0,0.1,0.1,0.2,0.2c-0.1,0.1-0.1,0.1-0.2,0.2c0,0-0.1,0.1-0.1,0c-0.1-0.2-0.3-0.1-0.4,0c-0.2,0.1-0.4,0.1-0.5,0
	C15.7,131.8,15.2,131.9,14.7,132.3 M13.2,115.5c-0.1-0.2-0.4-0.2-0.4-0.6c0-0.1-0.1-0.2-0.1-0.2c0,0.1,0,0.2,0,0.3
	c0,1,0,1.9,0.1,2.9c0.1,1,0.1,2,0.1,3c0,0.5,0,1,0.1,1.4c0,0,0,0.1,0,0.1c0,0,0,0,0.1,0c0.1-0.4,0.4-0.6,0.5-0.9
	c0.3-0.6,0.5-1.2,0.8-1.7c0.3-0.6,0.6-1.2,0.9-1.8c0.1-0.1,0.2-0.4,0-0.5c-0.3-0.2-0.5-0.5-0.8-0.7C14,116.4,13.6,116.1,13.2,115.5
	 M16.9,29.8c0.3-0.5,0.6-1,0.9-1.5c0.2-0.4,0.5-0.7,0.7-1.1c0,0,0.1,0,0.1,0c0,0.1,0,0.2,0,0.2c-0.3,0.5-0.5,0.9-0.8,1.4
	c-0.2,0.3-0.4,0.6-0.6,0.8c0,0-0.2,0.3,0.1,0.3c0.2,0,0.4,0,0.5,0.1c0.6,0.2,1.1,0.3,1.7,0.4c0.2,0,0.4,0.1,0.6,0.2
	c0,0,0.1,0.1,0.1,0.1c0-0.1,0-0.3-0.1-0.3c-0.3-0.1-0.3-0.6-0.5-0.9c-0.2-0.4-0.4-1-0.6-1.5c-0.1-0.2-0.2-0.5-0.2-0.7
	c0-0.4-0.1-0.4-0.3-0.4c-0.3,0-0.7,0-1,0c-0.3,0-0.6-0.2-1,0c-0.2,0.1-0.4,0-0.6,0c0,0-0.1,0.2-0.1,0.2c0.1,0.7,0.2,1.5,0.3,2.2
	c0,0.1,0.1,0.3,0.2,0.3C16.5,29.8,16.7,29.8,16.9,29.8 M60.2,33.9c0,0.3,0,0.5,0,0.8c0.1,0,0.3-0.1,0.4-0.1c0.1,0,0.3,0.1,0.4,0.2
	c0.1,0.1,0.1,0,0.1-0.1c0-0.4,0-0.8,0.1-1.1c0-0.7,0.1-1.3,0.1-2c0-0.7,0.1-1.4,0.2-2c0.1-0.8,0.2-1.6,0.2-2.3
	c0.1-1,0.1-2.1,0.3-3.1c0-0.1,0-0.2,0-0.2c0-0.1-0.6,0.1-0.7,0.2c0,0,0,0.1,0,0.2c-0.1,0.8-0.2,1.6-0.3,2.5
	c-0.1,0.7-0.1,1.4-0.2,2.2c-0.1,0.6-0.1,1.3-0.2,1.9c0,0.4-0.1,0.8-0.1,1.3c0,0.3,0,0.5-0.1,0.8C60.3,33.2,60.2,33.5,60.2,33.9
	 M49.5,32.4c0.1,0,0.3,0.1,0.4,0.1c0,0,0,0,0.1,0c0,0,0-0.1,0-0.1c-0.2-0.1-0.3-0.3-0.5-0.4c-0.4-0.2-0.9-0.4-1.3-0.7
	c-0.9-0.8-1.8-1.3-2.7-2c-0.1-0.1-0.3-0.1-0.4-0.1c-0.4,0.2-0.8,0.4-1.2,0.7c-0.3,0.1-0.6,0.3-0.9,0.4c-0.3,0.1-0.5,0.4-0.8,0.3
	c0,0-0.1,0.1-0.1,0.2c0,0,0.1,0.1,0.1,0.1c0.2,0,0.3,0,0.5,0c0.5,0.1,1,0.2,1.4,0.3c0.3,0.1,0.6,0,0.8,0.1c0.2,0.1,0.3,0,0.5,0
	c0.4,0.2,0.9,0.2,1.3,0.2c0.3,0,0.5,0,0.8,0.2c0.3,0.2,0.7,0.2,1,0.3C48.9,32.1,49.2,32.2,49.5,32.4 M60.8,38.4
	c0-0.6-0.1-0.8-0.5-0.8c-0.2,0-0.4,0-0.6,0c-0.1,0-0.2,0-0.2,0.2c0,0.2-0.1,0.2-0.1,0.1c-0.1-0.1-0.2-0.2-0.3-0.3
	c-0.2-0.3-0.3-0.2-0.5,0c-0.1,0.2-0.2,0.6-0.4,0.3c0,0-0.1,0.1-0.1,0.1c-0.1,0.1-0.1,0.2-0.2,0.4c-0.2,0.4-0.4,0.4-0.5,0
	c-0.1-0.2-0.1-0.4-0.2-0.6c-0.1-0.2-0.2-0.3-0.3-0.3c-0.3-0.1-0.5,0.2-0.8-0.1c0,0-0.2,0-0.1,0.3c0,0.1,0,0.2,0,0.3
	c-0.1,0.1-0.2,0.2-0.3,0.2c0,0-0.1-0.1-0.1-0.1c0-0.1,0-0.1,0-0.2c0-0.1,0.1-0.1,0.1-0.1c0,0,0-0.1,0.1-0.1c0,0,0,0-0.1,0
	c-0.1,0-0.2,0-0.2,0.1c-0.1,0.2-0.3,0.4-0.4,0.7c0,0.1-0.1,0.1-0.1,0.2c0,0,0.1,0,0.1,0c0.2,0,0.3-0.2,0.5-0.1
	c0.2,0.1,0.5,0.1,0.7,0.1c0.1,0,0.1,0,0.2,0c0.6,0.3,1.2,0.3,1.7,0.4c0.4,0.1,0.9,0.1,1.3,0.2c0.4,0.1,0.8,0.2,1.1,0.3
	c0.1,0,0.2,0,0.2-0.1c0.1-0.2,0.2-0.1,0.2,0c0,0,0,0.1,0.1,0.1c0-0.1,0-0.1,0-0.2C61,39.2,60.9,38.8,60.8,38.4 M17.3,106.5
	C17.3,106.5,17.3,106.5,17.3,106.5c-0.1-0.1-0.1-0.2-0.2-0.2c0,0.1,0,0.2,0,0.2c0.1,0.2,0.2,0.4,0.4,0.6c0.1,0.1,0.2,0.2,0.3,0.3
	c0,0,0,0.2,0,0.3c-0.1,0-0.1,0-0.2,0c-0.2,0-0.3-0.2-0.4-0.4c0,0-0.1-0.1-0.1-0.1c0,0.1,0,0.2,0,0.2c0.1,0.2,0.1,0.5,0.1,0.8
	c0,0.4-0.1,0.8-0.1,1.2c0,0.3,0,0.6,0.1,1c0.1,0.5-0.2,0.9,0,1.4c-0.2,0.3,0,0.4,0.1,0.6c0.3,0.3,0.3,0.3,0.4,0.8
	c0,0.1,0,0.1,0.1,0.2c0-0.1,0-0.1,0-0.2c0-0.4,0-0.8,0-1.2c0-0.4,0.2-0.8,0-1.1c0.2-0.5,0.1-1.1,0.1-1.6c0.1-0.9,0.1-1.9,0.2-2.8
	c0.1-1,0.1-2,0.2-3c0-0.1,0-0.2-0.1-0.2c0,0.1-0.1,0.1-0.1,0.2c0,0.1,0,0.2-0.1,0.3c-0.2,0.4-0.5,0.8-0.7,1.3c0,0.1-0.1,0.1-0.2,0.2
	c0.2,0.3-0.1,0.6,0,0.8c0,0.1,0.1,0.3,0.1,0.4c0,0,0.1,0.1,0.1,0.1c0-0.1,0-0.1,0-0.2c0-0.1-0.1-0.3,0.1-0.3c0,0,0,0.2,0.1,0.3
	c0,0.1,0,0.1,0,0.2c0,0.2,0,0.3,0,0.5C17.6,106.8,17.5,106.7,17.3,106.5 M19.5,28.6c0.3,0.6,0.6,1.2,0.8,1.8c0.1,0.2,0.2,0.2,0.3,0
	c0.5-0.9,1.1-1.8,1.6-2.6c0.1-0.1,0-0.3-0.1-0.3c-0.3,0-0.5-0.1-0.8-0.1c-0.4,0-0.8-0.1-1.2-0.1c0,0-0.1,0-0.1,0
	c-0.3-0.3-0.7,0-1-0.2c-0.2-0.1-0.3,0.1-0.1,0.4C19.2,27.8,19.3,28.1,19.5,28.6 M38,33.1c0.2,0.5,0.2,0.5,0.4,0.5
	c0.2,0,0.5,0.1,0.7,0.1c0.3,0,0.5,0.1,0.8,0.1c0.4,0.1,0.8,0.2,1.1,0.3c0.1,0,0.2-0.1,0.3-0.2c0,0,0-0.2-0.1-0.3
	c-0.1-0.3-0.2-0.5-0.4-0.8c-0.1-0.2-0.1-0.4-0.2-0.5c-0.1-0.2-0.2-0.5-0.3-0.7c-0.1-0.6-0.3-0.7-0.6-0.6c-0.1,0.1-0.3,0.2-0.4,0.3
	C38.9,31.9,38.5,32.5,38,33.1 M61.7,37.7c-0.2-0.1-0.4,0.3-0.6,0.2c0,0,0,0.1,0,0.1c0,0.1,0,0.3,0,0.4c0.1,0.3,0.1,0.5,0.2,0.8
	c0.1,0.4,0.1,0.5,0.3,0.5c0.8,0,1.6,0,2.4,0c0.2,0,0.3,0,0.5-0.1c-0.1-0.2-0.1-0.4-0.2-0.6c-0.2-0.5-0.4-1-0.9-1.1
	c-0.2,0-0.4,0-0.6-0.1C62.5,37.8,62.1,37.8,61.7,37.7 M33.8,32.3c0.2,0.4,0.2,0.4,0.5,0c0.3-0.6,0.6-1.2,0.9-1.8
	c0.1-0.1,0.2-0.3,0.1-0.4c-0.1-0.2-0.2-0.4-0.3-0.4c-0.4,0-0.7-0.2-1.1-0.2c-0.6-0.1-1.2-0.1-1.8-0.4c0,0-0.1,0-0.1,0.1
	c0,0.1,0,0.1,0.1,0.2c0,0,0.1,0,0.1,0.1C32.7,30.3,33.2,31.3,33.8,32.3 M36.4,30.9c0,0,0.1,0.1,0.1,0.1c0.3,0.7,0.8,1.2,1,1.9
	c0,0.1,0,0.2,0.1,0.1c0.2-0.3,0.4-0.5,0.6-0.8c0.4-0.4,0.7-0.9,1.1-1.3c0-0.1,0.1-0.1,0.1-0.2c-0.1-0.1-0.1-0.2-0.2-0.2
	c-0.1-0.1-0.2-0.1-0.3-0.1c-0.1,0-0.2,0-0.3,0c-0.4-0.1-0.7-0.3-1.1-0.3c-0.6-0.1-1.1-0.2-1.7-0.4c0,0-0.1,0-0.1,0.1
	c0,0.1,0,0.2,0,0.2C36,30.3,36.2,30.6,36.4,30.9 M16.5,106.4c0,0-0.1-0.1-0.1,0c-0.2,0.2-0.3,0.4-0.4,0.6c0,0.1-0.1,0.1-0.1,0.2
	c-0.1,0.4-0.2,0.8-0.1,1.2c0,0.3,0,0.6,0,0.8c0,0.3,0.1,0.5,0,0.8c0,0.1,0,0.3,0.1,0.3c0.4,0.4,0.7,0.8,1.1,1.3c0,0,0.1-0.1,0.1-0.1
	c0.1-0.6-0.1-1.2,0-1.9c0-0.1,0-0.1,0-0.2c0-0.1-0.1-0.2,0-0.3c0.1-0.6,0-1.3,0.1-1.9c0-0.1,0-0.2,0-0.3
	C16.8,106.7,16.7,106.6,16.5,106.4 M29.5,30.3c0.2,0.4,0.4,0.7,0.5,1.1c0.2,0.4,0.3,0.4,0.5,0.1c0,0,0.1-0.1,0.1-0.1
	c0.1-0.2,0.1-0.3,0-0.4c-0.1,0-0.1-0.1-0.2-0.1c0,0-0.1-0.1-0.1-0.1c0-0.1,0.1-0.2,0.1-0.2c0.1-0.1,0.2,0.1,0.2,0.2
	c0.1,0.2,0.1,0.2,0.2,0c0.2-0.5,0.5-0.9,0.7-1.4c0.1-0.2,0.1-0.4-0.1-0.4c-0.3-0.1-0.7-0.2-1-0.2c-0.4,0-0.9-0.1-1.3-0.2
	c-0.1,0-0.2,0-0.3,0.1c0,0.1-0.1,0.3,0,0.4C29.1,29.4,29.3,29.8,29.5,30.3 M52.3,51.3c0.1-0.1,0.1-0.2,0.2-0.3
	c0.2-0.3,0.4-0.5,0.5-0.9c0.1-0.3,0-0.8,0-1.2c0,0,0-0.1,0-0.1c0-0.3,0-0.3-0.2-0.2c-0.2,0-0.3,0-0.5-0.1c-0.3-0.2-0.7-0.6-1.1-0.6
	c-0.2,0-0.3-0.1-0.3,0.3c0,0.5,0,1,0,1.5c0,0.3,0,0.6,0.3,0.8c0.2,0.1,0.3,0.4,0.5,0.7c0.1,0.1,0.1,0.2,0.2-0.1
	c0-0.1,0.1-0.1,0.1,0.1c0,0.1,0,0.2,0,0.3C52.2,51.4,52.2,51.4,52.3,51.3 M42.4,33.9C42.4,33.9,42.3,33.9,42.4,33.9
	c0.1,0.3,0.2,0.6,0.3,0.6c0.4,0.1,0.9,0.2,1.3,0.3c0.2,0,0.3,0,0.5,0c0.2,0.1,0.3,0,0.5-0.1c0.3-0.2,0.3-0.3,0.1-0.6
	c-0.4-0.6-0.8-1.2-1.2-1.8c-0.1-0.1-0.2-0.3-0.3-0.4c-0.1,0-0.2,0.2-0.3,0.4c0,0.1-0.1,0.1-0.1,0.2C42.9,32.9,42.7,33.3,42.4,33.9
	 M26.9,27.9C26.9,27.9,26.9,27.9,26.9,27.9c-0.4-0.2-0.7-0.1-1-0.1c-0.1,0-0.3,0.3-0.2,0.4c0.2,0.4,0.3,0.8,0.5,1.3
	c0.2,0.5,0.4,0.9,0.6,1.3c0.1,0.2,0.2,0.1,0.2,0c0,0,0.1-0.1,0.1-0.1c0.4-0.7,0.8-1.4,1.2-2.1c0.1-0.1,0.1-0.2,0.1-0.3
	c0,0,0-0.2-0.1-0.2C27.9,28.1,27.4,28,26.9,27.9 M31.7,32.4c0.1,0,0.1,0.1,0.2,0.1c0.3,0,0.7,0.1,1,0.1c0.3,0.1,0.6,0.2,0.8,0.2
	c0,0,0.1,0,0.1,0c0-0.1,0-0.1-0.1-0.2c-0.3-0.4-0.5-0.8-0.8-1.3c-0.3-0.6-0.6-1.2-0.9-1.7c-0.1-0.1-0.1-0.2-0.2,0
	c-0.2,0.3-0.3,0.6-0.5,0.9c-0.2,0.4-0.4,0.8-0.6,1.2c0,0.1-0.1,0.3-0.1,0.3c0,0.1,0.1,0.2,0.2,0.3c0.1,0,0.1,0,0.2,0
	C31.2,32.4,31.4,32.4,31.7,32.4 M48.3,32.4c-0.2-0.1-0.5-0.1-0.7-0.2c-0.1,0-0.1,0-0.2,0c0,0.1,0,0.1,0,0.2c0.1,0.2,0.2,0.5,0.3,0.7
	c0.3,0.7,0.7,1.3,1,2c0.2,0.4,0.4,0.4,0.6,0c0.2-0.4,0.4-0.9,0.6-1.3c0.2-0.3,0.2-0.8,0.5-0.9c0,0,0,0,0.1,0c0,0-0.1-0.1-0.1-0.1
	c-0.2,0-0.4,0.1-0.6,0c-0.3-0.1-0.6-0.1-0.9-0.1C48.8,32.6,48.6,32.5,48.3,32.4 M42.8,32.6c0.2-0.3,0.4-0.7,0.6-1
	c0,0,0.1-0.1,0.1-0.1c0,0-0.1-0.1-0.1-0.1c-0.2,0-0.5,0-0.7-0.1c-0.2-0.1-0.4,0-0.6-0.1c-0.2-0.1-0.4,0-0.6-0.1
	c-0.2,0-0.4-0.1-0.6-0.1c-0.2,0-0.2,0.1-0.1,0.3c0.3,1,0.6,1.8,1,2.7c0.1,0.2,0.2,0.2,0.3,0C42.2,33.6,42.5,33.1,42.8,32.6
	 M24.9,27.7c-0.2,0-0.5,0-0.7-0.1c-0.5-0.2-1,0-1.5-0.1c-0.1,0-0.1,0.1-0.1,0.2c0.1,0.4,0.3,0.8,0.4,1.1c0.1,0.3,0.2,0.6,0.3,0.8
	c0.1,0.2,0.3,0.4,0.3,0.7c0,0.2,0.1,0.1,0.2,0c0.2-0.4,0.4-0.7,0.7-1.1c0-0.1,0.2-0.2,0.2-0.1c0.1,0.2,0.1,0,0.2-0.1
	c0.1-0.2,0.2-0.4,0.3-0.5c0.1-0.2,0.2-0.4,0.1-0.6c0,0,0-0.1,0-0.1c0.1,0,0.1-0.1,0.2-0.1c-0.1,0-0.2,0-0.2,0
	C25.1,27.7,25,27.7,24.9,27.7 M35.3,30.9c-0.2,0.4-0.4,0.7-0.5,1.1c-0.1,0.1-0.2,0.2-0.2,0.4c0,0.3,0.2,0,0.3,0.3
	c0.1,0.5,0.3,0.3,0.6,0.4c0.3,0,0.6,0.1,0.9,0.1c0,0,0.1,0,0.1,0c0.3,0.1,0.6,0.1,0.9,0.2c0,0,0.1,0,0.1-0.1c0,0,0-0.1-0.1-0.1
	c0-0.1-0.1-0.1-0.1-0.2c-0.3-1-0.9-1.6-1.4-2.4c-0.2-0.3-0.2-0.2-0.4,0.1C35.4,30.7,35.4,30.8,35.3,30.9 M62,23.4
	c0.2-0.7,0.2-1.5,0.3-2.3c0.1-0.4,0-0.9,0.1-1.3c0-0.3,0-0.6,0.1-0.9c0.1-0.7,0.1-1.5,0.2-2.2c0-0.1,0-0.2-0.1-0.4
	c0-0.1,0-0.2,0-0.3c0.2-0.3,0.1-0.7,0.1-1c0-0.1,0-0.1,0-0.2c0,0-0.1,0.1-0.1,0.1c-0.1,0.4-0.2,0.8-0.2,1.3
	c-0.1,0.8-0.2,1.6-0.4,2.4c-0.1,0.6-0.2,1.2-0.3,1.8c-0.1,0.8-0.1,1.7-0.3,2.5c0,0.1,0,0.3,0.1,0.3c0.1,0,0.1,0,0.2,0
	c-0.1,0.1-0.1,0.1-0.2,0.2c0,0-0.1,0-0.1,0c0,0,0,0.1,0,0.2c0,0,0.1,0.1,0.1,0.1C61.6,23.6,61.8,23.5,62,23.4 M46.7,33.2
	c-0.2,0.4-0.5,0.8-0.7,1.2c-0.1,0.3,0,0.6,0.2,0.7c0.6,0.1,1.2,0.2,1.8,0.4c0.2,0,0.4,0.1,0.6,0.2c0.1,0,0.1,0,0.2,0
	c0-0.1-0.1-0.1-0.1-0.2c-0.1-0.2-0.2-0.4-0.4-0.6c-0.2-0.4-0.4-0.7-0.6-1.1c-0.2-0.3-0.2-0.8-0.5-1.1c0,0,0-0.1,0-0.2
	c0-0.3-0.1-0.2-0.2,0C46.9,32.7,46.8,33,46.7,33.2 M49.8,35c-0.1,0.2-0.1,0.5-0.2,0.7c0,0.1-0.1,0.2,0,0.2c0.3,0,0.5,0.1,0.8,0.1
	c0.3,0.1,0.6,0.2,0.9,0.2c0.3,0.1,0.6,0.1,0.9,0.2c0,0,0.1,0,0.1,0c0-0.1,0-0.2,0-0.2c-0.1-0.1-0.2-0.2-0.3-0.4
	c-0.4-0.8-0.9-1.5-1.3-2.4c-0.1-0.3-0.2-0.3-0.3,0C50.2,33.9,50,34.4,49.8,35 M46.1,33.7c0.3-0.5,0.5-1,0.8-1.4
	c0.1-0.1,0-0.2-0.1-0.2c-0.2,0-0.4,0.1-0.6,0c-0.3-0.1-0.6-0.2-0.9-0.2c-0.1,0-0.2,0-0.3,0c-0.3-0.2-0.6,0-0.9-0.2
	c0,0-0.1,0-0.2,0.1c0,0.1,0,0.2,0.1,0.2c0.4,0.7,0.8,1.3,1.3,2c0.1,0.2,0.2,0.5,0.4,0.1c0-0.1,0.1,0,0.2,0
	C45.9,33.9,46,33.8,46.1,33.7 M55.4,36c-0.4-0.6-0.8-1.2-1.2-1.8c-0.1-0.2-0.2-0.2-0.4,0c-0.3,0.5-0.5,1.1-0.7,1.8c0,0,0,0.2,0,0.2
	c0.1,0.1,0.2,0.3,0.4,0.3c0.3,0.1,0.5,0.1,0.8,0.1c0.4,0,0.9,0,1.3,0.2c0,0,0.1,0,0.1,0c0-0.1,0-0.2,0-0.2
	C55.7,36.5,55.6,36.3,55.4,36 M14.1,107.1c0.1-0.2,0.1-0.3,0.2-0.4c0,0,0.1,0,0.1,0c0,0,0,0.1,0,0.1c-0.1,0.3-0.3,0.6-0.4,0.9
	c0,0.1,0,0.1,0,0.2c0.1,0,0.1,0,0.2,0c0.4-0.7,0.9-1.4,1.3-2.1c0.2-0.3,0.2-0.5-0.1-0.8c-0.4-0.4-0.7-0.8-1.1-1.2
	c-0.1-0.1-0.2-0.2-0.3-0.3c0,0.2,0,0.4,0,0.6c0,0.1,0,0.1,0,0.2c0,0.3,0,0.6,0,0.8c0,0.3,0,0.7,0,1c0,0.1,0.1,0.3,0,0.3
	C13.8,106.7,14,106.9,14.1,107.1 M57.2,34.4c-0.3-0.1-0.5-0.1-0.8-0.2c-0.4-0.1-0.7-0.2-1.1-0.3c-0.3-0.1-0.5-0.2-0.8-0.2
	c-0.1,0-0.2,0-0.2,0c0.1,0.1,0.1,0.1,0.2,0.2c0.1,0.2,0.3,0.4,0.4,0.6c0.4,0.6,0.7,1.2,1.1,1.8c0.2,0.3,0.2,0.3,0.3,0.1
	C56.6,35.7,56.9,35.1,57.2,34.4 M16.2,117.9c0.6,0.7,1.2,1.3,1.7,2c0.1,0.1,0.2,0,0.1-0.1c0-0.5-0.1-0.9-0.1-1.4
	c0-1.2-0.1-2.4-0.1-3.7c0,0,0-0.1,0-0.1c0,0,0-0.1-0.1-0.1c0,0-0.1,0.1-0.1,0.1c0,0.3-0.2,0.5-0.3,0.6c-0.1,0.1-0.1,0.2-0.1,0.3
	c0,0.7-0.1,1.4-0.1,2.1c0,0.3,0.1,0.5,0.3,0.6c0.1,0,0.2,0.1,0.2,0.1c0.1,0.1,0.1,0.2,0.1,0.3c-0.1,0-0.1,0.1-0.2,0.1
	c-0.2,0-0.4-0.1-0.5-0.1c-0.1,0-0.2-0.1-0.3-0.4c0-0.3-0.5-0.8-0.7-0.8C16.2,117.6,16,117.6,16.2,117.9 M51.7,63.2
	c0,0.1,0,0.2,0,0.3c0.1,0.1,0.1,0.3,0.2,0.4c0-0.2,0-0.3,0-0.5c0-0.2,0.1-0.4,0.1-0.6c0-1.1,0-2.1,0.1-3.2c0-0.4,0-0.7,0.1-1.1
	c0-0.2,0-0.4,0-0.6c0-0.2-0.1-0.5-0.1-0.7c0-0.3,0-1,0-1.2c0-0.7,0-1.3,0-2c0-0.4,0-0.7,0-1.1c0,0,0-0.1,0-0.1c0,0-0.1,0.1-0.1,0.1
	c0,0.1,0,0.1,0,0.2c-0.1,0.9-0.1,1.7-0.1,2.6c0,1.3-0.1,2.5-0.2,3.8c0,0.6,0.1,1.2-0.1,1.8C51.7,61.8,51.6,62.5,51.7,63.2
	 M71.9,41.8c0.3,0,0.6,0,0.9,0.1c0.1,0,0.2-0.1,0.2-0.3c0.1-0.4,0.1-0.8,0.3-1.1c0,0,0-0.2,0-0.2c-0.1-0.1-0.3-0.1-0.4-0.1
	c-0.4,0-0.7-0.1-1.1-0.2c-0.2-0.1-0.4,0.1-0.5,0.3c-0.1,0.1,0,0.2,0,0.3c0.2,0.4,0.3,0.8,0.5,1.2C71.7,41.7,71.8,41.7,71.9,41.8
	 M13.7,123.9c-0.1-0.1-0.2-0.2-0.2-0.2c-0.2-0.1-0.3-0.3-0.5-0.2c-0.2,0.1,0,0.4,0,0.6c0,0,0,0.1,0,0.2c0,0.3,0,0.6,0,0.8
	c0,0.3,0,0.6,0,0.9c0,0.3,0,0.5,0,0.8c0,0.1,0,0.1,0,0.2c0,0,0.1,0,0.1-0.1c0.3-0.6,0.7-0.9,1.1-1.4c0.1-0.2,0.3-0.3,0.4-0.5
	c0-0.1,0-0.2,0.1-0.3c0,0-0.1-0.1-0.1-0.1C14.1,124.5,14,124.4,13.7,123.9 M13.8,30c-0.1-0.2-0.1-0.3-0.2-0.5c0,0,0-0.1-0.1-0.1
	c0,0,0,0.1,0,0.1c0,0.3-0.1,0.7-0.1,1c0,0.4,0,0.7-0.1,1.1c-0.1,0.4,0,0.9,0.1,1.3c0,0,0.1,0,0.1,0c0.2,0,0.4,0,0.7,0
	c0.2,0,0.4-0.1,0.6-0.1c0.1,0,0.2,0,0.2,0c-0.1-0.1-0.1-0.1-0.2-0.2c-0.2-0.2-0.3-0.5-0.5-0.8c-0.1-0.1-0.1-0.2-0.1-0.3
	c0-0.2,0-0.3,0.1-0.2c0.1,0,0.1,0,0.2,0c0-0.1-0.1-0.2-0.1-0.2c-0.1-0.1-0.1-0.1-0.2-0.2C14.1,30.6,14,30.4,13.8,30 M27.6,33.5
	c0.1,0,0.3,0.1,0.4,0.1c0.2,0,0.4,0.1,0.6,0.2c0.1,0,0.1,0.1,0.2,0.1c0,0,0.1,0,0.1-0.1c0,0,0-0.1-0.1-0.1c-0.2-0.1-0.4-0.4-0.5-0.6
	c-0.3-0.5-0.6-1-1.1-0.9c0,0,0,0-0.1,0c-0.3-0.3-0.6,0.1-0.9,0c0,0,0,0-0.1,0.1c-0.2,0.2-0.3,0.5-0.5,0.7c-0.1,0.1-0.1,0.2-0.1,0.3
	c0.1,0,0.1-0.1,0.2-0.1c0.1,0,0.3,0,0.4,0c0.1,0,0.1,0.1,0.2,0.1C26.7,33.2,27.1,33.4,27.6,33.5 M28.9,31.1c0-0.1-0.1-0.2-0.1-0.3
	c-0.1-0.6-0.1-1.2-0.2-1.8c0-0.1,0-0.1-0.1-0.2c0,0-0.1,0.1-0.1,0.1c-0.1,0.5-0.3,0.9-0.5,1.2c-0.2,0.2-0.4,0.5-0.6,0.8
	c0,0.1,0,0.2,0,0.3c0.2,0.4,0.4,0.7,0.8,0.7c0.2,0,0.4,0.1,0.6,0.2c0.2,0.1,0.2-0.1,0.1-0.3C28.9,31.6,28.9,31.4,28.9,31.1
	 M70.5,37.6c-0.1,0-0.1-0.1-0.2-0.1c-0.1,0,0,0.1,0,0.2c0.1,0.5,0.3,1,0.5,1.5c0,0.1,0.1,0.2,0.2,0.2c0.2,0,0.5-0.1,0.7-0.2
	c0.3-0.2,0.6-0.6,0.9-0.9c0,0,0.1-0.1,0.1-0.2c-0.1,0-0.1-0.1-0.2-0.1c-0.4,0-0.7-0.1-1.1-0.2C71.2,37.8,70.9,37.7,70.5,37.6
	 M42.7,36.2c0.2,0,0.3,0.1,0.5,0.1c0,0,0.1,0,0.1,0c0,0,0-0.1-0.1-0.1c-0.2-0.3-0.4-0.5-0.6-0.9c-0.1-0.3-0.3-0.4-0.5-0.4
	c-0.2,0-0.3,0.1-0.5,0.1c0,0-0.1,0-0.1,0c0,0,0.1-0.1,0.1-0.1c0-0.1,0.1-0.2,0-0.2c-0.2,0.1-0.4-0.1-0.6,0c-0.4,0.2-0.7,0.5-1,0.8
	c0,0,0,0.1,0,0.1c0.3,0,0.6,0.1,0.9,0.1c0.2,0,0.4,0.1,0.6,0.2C41.9,36,42.3,36.1,42.7,36.2 M45.3,35.7c0,0-0.1,0.1-0.1,0.1
	c0-0.1-0.1-0.2,0-0.2c0.1-0.2,0-0.2-0.1-0.2c-0.4-0.1-0.7,0.3-1,0.6c-0.1,0.1-0.2,0.2-0.3,0.4c0,0,0,0.1-0.1,0.2c0,0,0.1,0,0.1,0.1
	c0.2,0,0.5,0.1,0.7,0.1c0.6,0,1.2,0.1,1.7,0.1c0.1,0,0.1,0.1,0.2,0.1c0,0,0.1,0,0.1,0c0,0,0-0.1-0.1-0.1c-0.2-0.4-0.5-0.6-0.6-1.2
	c0,0-0.1,0-0.1-0.1C45.7,35.4,45.5,35.4,45.3,35.7 M17.6,130.8c0.1,0,0.3-0.2,0.2-0.3c-0.1-0.3,0-0.4,0-0.7c0-0.3,0.1-0.6,0-0.8
	c0-0.2-0.2-0.2-0.3-0.4c-0.1-0.1-0.1-0.1-0.2,0c-0.1,0.3-0.3,0.6-0.4,0.8c-0.4,0.5-0.7,1-1.1,1.6c0,0.1-0.1,0.1-0.1,0.2
	c0.1,0,0.1,0,0.2,0C16.4,130.8,16.9,130.9,17.6,130.8 M77.5,41.6c0-0.1,0-0.2,0-0.3c0-0.3,0-0.4-0.2-0.4c-0.3,0-0.6,0-0.9-0.1
	c-0.3-0.2-0.4,0-0.6,0.2c-0.1,0.1-0.1,0.1,0,0.3c0.3,0.4,0.5,0.9,0.8,1.3c0,0.1,0.1,0.1,0.2,0.1c0.2,0,0.4,0,0.6,0
	c0,0,0.1-0.1,0.1-0.2C77.4,42.3,77.4,42,77.5,41.6 M64.9,40.5c0.2,0,0.5,0,0.7,0.1c0.3,0.2,0.7,0.2,1,0.2c0.2,0,0.3-0.2,0.3-0.4
	c0-0.3,0.1-0.6,0.2-0.9c0,0,0-0.3-0.1-0.3c-0.2-0.1-0.5-0.2-0.7-0.2c-0.1,0-0.2,0-0.3,0.1c-0.4,0.4-0.8,0.8-1.2,1.2
	C64.8,40.3,64.8,40.4,64.9,40.5 M16.7,7c0.1,0.1,0.2,0.2,0.3,0.3c0.3,0.3,0.6,0.6,0.9,0.8c0.5,0.3,0.9,0.5,1.4,0.9
	c0.4,0.3,0.8,0.5,1.2,0.8c0.3,0.2,0.6,0.5,0.9,0.8c0,0,0.1,0,0.1,0c0,0,0-0.1-0.1-0.1c-0.1-0.1-0.3-0.3-0.4-0.4
	c-1.1-0.7-2-1.8-3-2.7c-0.7-0.6-1.4-1.1-2.1-1.6c0,0-0.1,0-0.1,0c0,0,0,0.1,0.1,0.1C16.2,6.3,16.4,6.6,16.7,7 M56.3,36.8
	c0,0.1,0,0.2,0.1,0.2c0.1,0,0.2,0,0.3,0c0.1,0,0.2,0.2,0.2-0.1c0-0.1,0-0.2,0.1-0.2c0.1,0,0.1-0.1,0.2,0.1c0,0.1,0.1,0.2,0.2,0.2
	c0.3,0.3,0.7,0.1,1,0c0.1,0,0.2-0.3,0.1-0.5c-0.3-0.5-0.5-1-0.8-1.4c0-0.1-0.2-0.1-0.2,0c-0.1,0-0.1,0.2-0.2,0.3
	C56.9,35.8,56.6,36.3,56.3,36.8 M80.7,40.6c0.2-0.2,0.3-0.3,0.5-0.5c0,0,0-0.1,0-0.1c0,0,0-0.1-0.1-0.1c-0.4,0-0.9-0.1-1.3-0.2
	c-0.3-0.1-0.7-0.1-1-0.1c0,0-0.1,0-0.1-0.1c0,0-0.1,0-0.1,0c0,0.1,0,0.2,0,0.3c0.3,0.3,0.3,1.2,0.8,1c0,0,0,0,0,0
	C79.8,40.9,80.3,41.1,80.7,40.6 M74.6,41.5c0.2-0.2,0.4-0.3,0.6-0.5c0,0,0-0.2,0-0.2c-0.1-0.2-0.2-0.4-0.3-0.4
	c-0.4,0-0.8-0.1-1.1-0.2c-0.1,0-0.2,0-0.3,0.2c-0.1,0.4-0.2,0.8-0.2,1.2c0,0.3,0,0.4,0.2,0.3c0.1,0,0.2-0.1,0.4-0.1
	C74.1,41.8,74.3,41.8,74.6,41.5 M81.5,43.1c0,0,0.1-0.1,0.1-0.1c0-0.4,0.1-0.9,0.3-1.2c0,0,0-0.2-0.1-0.2c-0.4-0.1-0.9-0.2-1.3-0.2
	c0,0-0.6,0.4-0.6,0.4c0.1,0.1,0.2,0.3,0.3,0.4c0,0,0,0.1,0.1,0.1c0.3,0.3,0.5,0.6,0.8,0.8c0.1,0.1,0.2,0.2,0.3,0.3
	c0,0,0.1,0.1,0.1,0.2c0-0.1,0-0.2,0.1-0.2C81.5,43.4,81.5,43.3,81.5,43.1 M58.9,36.7c0.3-0.5,0.6-0.9,1-1.4c0,0,0-0.1,0-0.1
	c0,0-0.1-0.1-0.1-0.1c-0.3,0-0.5-0.1-0.8-0.1c-0.2,0-0.4-0.2-0.6-0.2c-0.2-0.1-0.5-0.1-0.7-0.1c0,0-0.1,0-0.1,0.1
	c0,0.1,0.1,0.1,0.1,0.2c0.1,0.2,0.3,0.3,0.4,0.5C58.3,35.7,58.6,36.2,58.9,36.7 M17.2,102.3c0,0.1,0,0.1,0,0.2
	c0.1-0.1,0.2-0.3,0.3-0.4c-0.1,0-0.2-0.1-0.3-0.1c-0.1,0-0.3-0.1-0.4,0.2c0,0-0.1,0-0.1,0c-0.2,0-0.5,0-0.7,0
	c-0.1,0-0.3,0.2-0.3,0.3c0,0.6,0,1.2,0,1.8c0,0.1,0,0.2,0.1,0.2c0.1,0,0.2,0,0.2-0.1c0.2-0.3,0.4-0.6,0.5-0.9c0.2-0.3,0.3-0.6,0.3-1
	C17,102.2,17.1,102.3,17.2,102.3 M13.4,103.9c0-0.2,0-0.4,0-0.6c0-0.3,0-0.6,0-0.9c0,0,0-0.1-0.1-0.1c0,0-0.1,0-0.1,0.1
	c0,0.4-0.1,0.7-0.1,1.1c-0.1,0.6-0.1,1.1-0.1,1.7c0,0.1,0,0.2,0,0.2c-0.1,0.6,0,1.2-0.1,1.8c0,0.2,0,0.4-0.1,0.6
	c0,0.1,0,0.4,0.1,0.4c0.2,0.1,0.4,0.2,0.6,0.2c0.2,0,0.2-0.2,0.1-0.4c-0.2-0.3-0.2-0.6-0.2-1C13.4,106,13.4,105,13.4,103.9
	 M78.8,41.2c-0.3-0.1-0.6-0.2-0.9-0.2c-0.2,0-0.2,0.1-0.2,0.4c0,0.4,0,0.8-0.1,1.2c-0.1,0.2,0.1,0.3,0.2,0.3
	c0.5-0.2,0.9-0.6,1.3-0.9c0.1-0.1,0.2-0.1,0.3-0.2c0-0.1-0.3-0.4-0.4-0.5C78.9,41.2,78.9,41.2,78.8,41.2 M50.6,37.7
	c0.2,0,0.4,0.1,0.6,0.1c0.2-0.1,0.3-0.3,0.5-0.5c0.1-0.1,0.2-0.2,0.3-0.4c0,0,0.1-0.1,0.1-0.1c0,0-0.1-0.1-0.1-0.1
	c-0.4,0-0.9,0.1-1.3-0.1c-0.3-0.1-0.6,0-0.9-0.2c-0.1,0-0.2,0-0.2,0c0.1,0.1,0.1,0.2,0.2,0.3c0.1,0.1,0.2,0.2,0.2,0.4
	C50.2,37.3,50.4,37.5,50.6,37.7 M82.5,43.6c0,0.1-0.2,0.1,0,0.2c0.3,0.1,0.6,0.1,0.9,0.1c0.2,0,0.2-0.2,0.2-0.3
	c0.1-0.4,0.1-0.8,0.1-1.2c0-0.4,0-0.4-0.3-0.4c-0.1,0-0.2-0.1-0.3-0.1c-0.2,0-0.3-0.1-0.4,0.2C82.7,42.5,82.6,43,82.5,43.6
	 M62.5,35.8c0-0.1,0.2-0.1,0.1-0.2c-0.1-0.1-0.2-0.4-0.3-0.1c-0.2,0.4-0.4,0.3-0.6,0.2c-0.2-0.1-0.4-0.2-0.6-0.2
	c0,0-0.1,0.1-0.1,0.2c0-0.1-0.1-0.2-0.1-0.3c0,0-0.1,0-0.2,0c0,0.1,0,0.1,0,0.2c0.1,0.2,0.2,0.3,0.2,0.5c0.1,0.5,0.3,0.8,0.4,1.3
	c0.1,0.2,0.1,0.2,0.2,0C61.8,36.8,62.1,36.3,62.5,35.8 M62.5,36.2c-0.3,0.4-0.5,0.8-0.8,1.2c0,0,0,0.1,0,0.1c0,0,0.1,0.1,0.1,0
	c0.7,0,1.3,0.2,1.9,0.4c0,0,0.1,0,0.1,0c0,0,0-0.1,0-0.1c-0.3-0.6-0.6-1.1-0.9-1.7C62.8,35.8,62.7,36,62.5,36.2 M21.1,30.1
	c-0.1,0.1-0.1,0.2-0.2,0.3c0,0,0,0.2,0,0.2c0.4,0.1,0.8,0.2,1.2,0.2c0,0,0.1-0.1,0.1-0.2c0-0.6,0.1-1.2,0.1-1.8
	c0-0.2-0.1-0.4,0.1-0.6c0,0,0-0.1,0-0.1c0,0-0.1,0-0.1,0c-0.1,0.1-0.1,0.2-0.2,0.2C21.7,29,21.4,29.5,21.1,30.1 M69.1,38.8
	c0.1-0.2,0.2-0.4,0.4-0.6c0.2-0.2,0.3-0.5,0.5-0.7c0.1-0.1,0-0.2-0.1-0.2c-0.2,0-0.4-0.1-0.7-0.1c-0.3-0.1-0.5-0.2-0.8-0.2
	c-0.1,0-0.1-0.1-0.1,0.2c0.2,0.6,0.3,1.2,0.4,1.8c0,0.1,0.1,0.3,0.2,0.3C68.9,39.1,69,39,69.1,38.8 M53.1,36.9
	c-0.3-0.2-0.6-0.2-0.9,0.2c-0.1,0.2-0.3,0.4-0.4,0.6c-0.1,0.1-0.1,0.2-0.2,0.3c0.1,0,0.1-0.1,0.2-0.1c0.1,0,0.1,0,0.2,0
	c0.2,0,0.3,0.1,0.5,0.1c0.4,0,0.8,0.1,1.2,0.2c0,0,0.1,0,0.1-0.1c0-0.1,0-0.1-0.1-0.2C53.6,37.7,53.4,37.3,53.1,36.9 M76.1,40.2
	c0.3-0.3,0.5-0.6,0.8-0.7c0,0,0.1-0.1,0.1-0.1c0,0-0.1-0.1-0.1-0.1c-0.2,0-0.3,0-0.5-0.1c-0.4-0.1-0.8-0.3-1.2-0.4
	c-0.1,0-0.3,0-0.4-0.1c0.1,0.2,0.2,0.4,0.2,0.6c0.1,0.4,0.2,0.9,0.6,0.8c0,0,0.1,0,0.2,0.1C75.8,40.4,75.9,40.3,76.1,40.2
	 M78.9,42.5c-0.2,0.1-0.4,0.2-0.6,0.4c-0.1,0-0.1,0-0.2,0.1c0.1,0.1,0.1,0.1,0.2,0.2c0.1,0,0.2,0,0.3,0c0.2,0,0.4-0.1,0.5,0
	c0.6,0.3,1.2,0.4,1.8,0.6c0,0,0.1,0,0.1-0.1c0-0.1,0-0.1-0.1-0.2c-0.2-0.2-0.5-0.5-0.7-0.7c-0.3-0.2-0.4-0.6-0.6-0.7
	C79.5,42,79.2,42.2,78.9,42.5C79,42.4,79,42.4,78.9,42.5 M36.1,34.8c0.2,0,0.3,0,0.4-0.3c0.1-0.2,0.2-0.3,0.3-0.4
	c0.1-0.1,0.1-0.2,0.2-0.3c-0.1,0-0.2,0-0.2-0.1c-0.1,0-0.2-0.1-0.3-0.1c-0.6-0.1-1.1-0.2-1.7-0.4c0,0-0.1,0-0.1,0.1c0,0,0,0.1,0,0.1
	c0.3,0.2,0.5,0.6,0.8,0.9C35.7,34.5,35.8,34.9,36.1,34.8 M33.3,33.7c-0.1,0.2-0.3,0.3-0.4,0.5c0,0-0.1,0.1-0.1,0.1
	c0,0,0.1,0.1,0.1,0.1c0.5,0,0.9,0.1,1.4,0.1c0.1,0,0.1,0.1,0.2,0.1c0.3,0.1,0.6,0.1,0.9,0.2c0,0,0.1,0,0.1-0.1c0,0,0-0.1-0.1-0.1
	c-0.1-0.1-0.3-0.2-0.4-0.3c-0.2-0.2-0.4-0.5-0.6-0.8c-0.2-0.3-0.3-0.3-0.5,0.1c0,0.1-0.1,0.2-0.2,0.2c0,0-0.1,0.1-0.2,0.1
	c0-0.1,0-0.2,0-0.2c0-0.1,0-0.1,0-0.2c0,0-0.1,0-0.1,0.1C33.5,33.6,33.4,33.7,33.3,33.7 M22.4,29.5c0,0.4,0,0.7,0,1.1
	c0,0.3,0.1,0.4,0.3,0.4c0.1,0,0.3-0.1,0.4,0c0.2,0.2,0.3,0.1,0.4-0.1c0.1-0.2-0.1-0.4-0.1-0.5c-0.2-0.7-0.6-1.3-0.7-2.1
	c0,0-0.1-0.1-0.1-0.1c0,0-0.1,0.1-0.1,0.1C22.5,28.6,22.4,29,22.4,29.5 M14.7,103.3c0.2,0.2,0.4,0.4,0.6,0.6c0,0,0.1,0.1,0.1,0.1
	c0-0.1,0-0.1,0-0.2c0-0.4,0-0.9,0-1.3c0-0.1,0-0.2,0.1-0.1c0,0,0.1,0,0.1,0c0-0.1-0.1-0.1-0.1-0.2c-0.1,0-0.1,0-0.2,0
	c-0.5-0.1-1.1,0.2-1.6-0.2c0,0-0.1,0-0.1,0c0,0,0,0-0.1,0c0,0,0,0.1,0,0.1C14,102.6,14.4,102.9,14.7,103.3 M30.4,32.8
	c-0.1,0.1-0.2,0.2-0.2,0.2c-0.4-0.1-0.4,0.5-0.5,0.8c-0.1,0.1-0.1,0.2,0.1,0.2c0.4-0.1,0.8,0,1.1,0.1c0.4,0.1,0.7,0.2,1.1,0.3
	c0.1,0,0.1,0,0.2-0.1c0-0.1-0.1-0.1-0.1-0.2c-0.4-0.2-0.7-0.5-1-0.8C30.8,33.2,30.6,33,30.4,32.8 M32,33c-0.1-0.2-0.3-0.1-0.4-0.1
	c-0.1,0-0.3-0.1-0.4-0.1c0,0-0.1,0-0.1,0c0,0,0,0.1,0.1,0.1c0.1,0.1,0.2,0.1,0.3,0.2c0.2,0.5,0.6,0.6,0.8,0.9c0.1,0.2,0.3,0.1,0.4,0
	c0.3-0.3,0.6-0.5,0.9-0.8c0,0,0-0.1,0.1-0.1c0,0,0,0-0.1,0C33.1,33.1,32.6,33,32,33 M25.5,29.4C25.5,29.4,25.5,29.5,25.5,29.4
	c0,0.6,0,1.1,0,1.5c0,0.3,0.1,0.5,0.3,0.5c0.1,0,0.3,0,0.4,0.1c0.2,0.2,0.3-0.1,0.4-0.1c0,0,0-0.1,0-0.2c-0.3-0.4-0.4-0.9-0.6-1.4
	c-0.1-0.3-0.2-0.6-0.3-0.8c0-0.1-0.1-0.1-0.1-0.1c0,0.1,0,0.2-0.1,0.2C25.5,29.2,25.5,29.2,25.5,29.4 M40.1,35
	c0.2-0.1,0.3-0.3,0.5-0.4c0,0,0-0.1,0.1-0.1c0,0-0.1,0-0.1,0c-0.2,0-0.3-0.1-0.5-0.1c-0.5-0.1-1-0.1-1.5-0.4c0,0-0.1,0-0.1,0.1
	c0,0.1,0.1,0.1,0.1,0.2c0.2,0.3,0.4,0.5,0.6,0.8c0.1,0.1,0.2,0.2,0.2,0.3C39.6,35.5,39.8,35.3,40.1,35 M60.4,36
	c-0.1-0.2-0.1-0.4-0.2-0.6c-0.1-0.2-0.1-0.2-0.1,0c-0.1,0.3-0.1,0.7-0.2,1c0,0.1,0,0.2-0.1,0.3c0-0.1-0.1-0.2-0.1-0.3
	c0-0.1,0-0.2,0-0.2c0-0.1,0-0.3,0-0.4c0,0.1-0.1,0.2-0.1,0.3c-0.2,0.3-0.3,0.5-0.5,0.8c0,0.1-0.1,0.2-0.1,0.2c0.1,0,0.1,0.1,0.2,0.1
	c0.4,0.1,0.9-0.1,1.3,0.1c0.1,0,0.1,0,0.1-0.2C60.6,36.7,60.5,36.4,60.4,36 M48.9,36.3C48.9,36.3,48.9,36.3,48.9,36.3
	c0-0.1,0-0.1,0-0.1c-0.1,0.1-0.3,0.1-0.4,0.2c-0.3,0.2-0.5,0.3-0.8,0.5c0,0-0.1,0.1-0.1,0.1c0,0,0.1,0.1,0.1,0.1
	c0.2,0,0.4,0.1,0.6,0.1c0.6,0.1,1.1,0.1,1.7,0.3c0,0,0.1,0,0.1-0.1c0-0.1,0-0.1-0.1-0.2c-0.2-0.3-0.4-0.4-0.6-0.8
	c-0.1-0.2-0.2-0.2-0.3-0.1c-0.1,0.1-0.1,0.2-0.2,0.2c0,0-0.1,0-0.1,0c0-0.1,0-0.1,0-0.2C48.8,36.5,48.8,36.4,48.9,36.3 M47.9,35.9
	c-0.5-0.1-1-0.2-1.4-0.3c0,0-0.1,0-0.1,0.1c0,0.1,0,0.1,0.1,0.2c0.2,0.3,0.3,0.5,0.5,0.8c0.2,0.3,0.3,0.3,0.5,0.2
	c0.4-0.2,0.7-0.6,1.1-0.6c0,0,0.1-0.1,0.1-0.1c0,0-0.1-0.1-0.1-0.1C48.3,36,48.1,36,47.9,35.9 M56.3,11.5c-0.3-0.3-0.5,0-0.8,0
	c0,0,0,0-0.1,0.1c0,0,0.1,0.1,0.1,0.1c0.3,0,0.5,0.1,0.8,0.1c0.2,0,0.3,0.2,0.5,0.2c0.3,0.1,0.7,0.1,1,0.3c0.5,0.3,1,0.3,1.6,0.4
	c0.5,0.1,1.1,0.2,1.6,0.5c0.1,0,0.2,0,0.3,0c0,0,0.1,0,0.1-0.1c0,0,0,0-0.1,0c-0.3-0.1-0.6-0.3-0.9-0.4c-0.5-0.1-1-0.3-1.5-0.3
	c-0.2,0-0.4-0.2-0.6-0.2c-0.3-0.1-0.5-0.2-0.8-0.2C57.1,11.8,56.7,11.7,56.3,11.5 M55.2,37.3c-0.1,0-0.2-0.1-0.3-0.1
	c-0.4,0-0.7-0.1-1.1-0.1c-0.1,0-0.1-0.1-0.2-0.1c-0.1,0-0.2,0-0.2,0c0,0.2,0.1,0.2,0.1,0.2c0.1,0,0.1,0.1,0.2,0.2
	c0.1,0.3,0.3,0.5,0.4,0.8c0.2,0.4,0.3,0.4,0.5,0.1c0.2-0.2,0.3-0.4,0.5-0.6C55.4,37.6,55.3,37.4,55.2,37.3 M72.6,38.9
	c-0.2,0.2-0.4,0.4-0.5,0.5c0,0.1-0.1,0.1-0.1,0.2c0.1,0,0.1,0.1,0.2,0.1c0.3,0,0.6,0.1,1,0.1c0.3,0.1,0.3,0.1,0.5-0.4
	c0.1-0.2,0.1-0.4,0.2-0.6c0-0.1,0-0.2,0-0.3c0-0.1-0.1-0.1-0.1-0.1C73.2,38.7,72.9,38.5,72.6,38.9 M93.3,44.1c0-0.2,0.1-0.4,0.1-0.5
	c0,0-0.1-0.1-0.1-0.1c-0.3,0.2-0.7,0.4-1,0.7c0,0-0.1,0.2-0.1,0.2c0.1,0.3,0.3,0.6,0.4,0.9c0.2,0.3,0.5,0.1,0.5-0.2
	C93.2,44.7,93.2,44.4,93.3,44.1 M94.1,45.5c0.1,0,0.3,0,0.4-0.1c0.3-0.2,0.6-0.4,0.8-0.6c0.2-0.1,0.3-0.1,0.2-0.4
	c0-0.2-0.2-0.3-0.4-0.3c-0.2,0.1-0.3,0.2-0.5,0.3c-0.4,0.2-0.8,0.5-1.3,0.7c0,0,0,0.1,0,0.1c0,0,0,0.1,0.1,0.1
	C93.7,45.5,93.8,45.5,94.1,45.5 M89.5,43.5c-0.2-0.2-0.3-0.4-0.5-0.6c-0.2-0.2-0.3-0.1-0.4,0.3c-0.1,0.4-0.2,0.8-0.2,1.2
	c0,0.1,0,0.2,0,0.3c0,0,0,0.1,0.1,0.1c0-0.1,0-0.1,0-0.2c0.1-0.1,0.1-0.4,0.2-0.4c0.2-0.1,0.5-0.2,0.7-0.2c0.2,0,0.3,0,0.5-0.1
	C89.9,43.6,89.7,43.7,89.5,43.5 M70.5,40.2c0.1,0,0.1-0.1,0.2-0.1c0.1,0,0.1-0.1,0.2-0.1c-0.1-0.1-0.1-0.2-0.2-0.2c0,0-0.1,0-0.1,0
	c-0.2,0-0.3-0.1-0.5-0.1c-0.4-0.1-0.5,0-0.7,0.7c0,0.2-0.1,0.4-0.1,0.6c0,0.1,0,0.3,0,0.3c0.1,0,0.1,0,0.2,0
	C69.8,40.8,70.2,40.6,70.5,40.2 M67.8,37.3c0,0.1,0,0.2-0.1,0.3c-0.1,0.4-0.2,0.8-0.3,1.3c0,0.1,0,0.2,0.1,0.2
	c0.3-0.1,0.6-0.1,0.9,0.1c0,0,0.1,0,0.1,0c0-0.1,0-0.1,0-0.2c-0.1-0.6-0.3-1.2-0.4-1.7c0-0.1-0.1-0.2-0.1-0.3
	C67.9,37,67.9,37.1,67.8,37.3 M96.8,44.6C96.8,44.6,96.8,44.6,96.8,44.6c-0.3-0.4-0.5-0.1-0.6,0.1c-0.1,0.1,0,0.3,0.1,0.5
	c0,0,0,0.1,0,0.1c0,0.3,0.1,0.3,0.2,0.3c0.3,0,0.6,0,0.9,0c0.2,0,0.1-0.1,0-0.2c0-0.1-0.1-0.1,0-0.2c0.1-0.1,0.1,0,0.1,0
	c0.1,0.1,0.2,0.1,0.3-0.1c0.1-0.1,0.1-0.3,0.2-0.4c0-0.1,0-0.1,0-0.2c0,0-0.1-0.1-0.1,0c-0.2,0.1-0.4,0.2-0.6,0.3
	C97.1,45.1,97.1,45.1,96.8,44.6 M13.5,109.7c-0.2-0.1-0.3-0.2-0.5-0.4c-0.2-0.2-0.2-0.1-0.2,0.2c0,0.2-0.1,0.4-0.1,0.5
	c0,0.5,0,1.1,0,1.6c0,0.1,0,0.1,0,0.2c0,0,0.1-0.1,0.1-0.1c0.2-0.5,0.4-0.9,0.7-1.4C13.7,110,13.7,110,13.5,109.7 M90.6,44.6
	c-0.1,0-0.3,0.1-0.4,0.1c0,0,0,0.1,0,0.1c0.1,0.2,0.4,0.1,0.6-0.1c0.1-0.1,0.1-0.3,0.3-0.3c0.2-0.1,0.4-0.2,0.6-0.4
	c0.1-0.1,0.2-0.1,0.2-0.3c-0.1-0.2-0.1-0.5-0.2-0.6c-0.2-0.2-0.6,0.1-0.7,0.4c0,0,0,0.2,0,0.2c0.2,0,0.1,0.1,0,0.2
	c-0.1,0.1-0.2,0.1-0.3,0.2c-0.1,0.1-0.1,0.1,0,0.2C90.6,44.4,90.6,44.5,90.6,44.6 M74.5,38.9c-0.1-0.3-0.3-0.4-0.5-0.3
	c-0.1,0.1-0.2,0.3-0.2,0.5c-0.1,0.2-0.1,0.4-0.1,0.6c0,0.1,0,0.2,0,0.2c0.2,0.1,0.3,0.1,0.5,0.1c0.2,0,0.3-0.1,0.5,0.1
	c0,0,0.1-0.1,0.1-0.1c0-0.1,0-0.2,0-0.2C74.7,39.5,74.6,39.2,74.5,38.9 M70.4,40.7c-0.1,0.2-0.4,0-0.3,0.5c0,0-0.1,0-0.1,0
	c-0.1,0-0.2,0-0.2,0c0.1,0.1,0.2,0.2,0.3,0.2c0.1,0.1,0.2,0.1,0.3,0.1c0.4,0.1,0.7-0.1,1.1,0.1c0,0,0.1,0,0.1,0c0-0.1,0-0.1-0.1-0.2
	c-0.1-0.2-0.1-0.3-0.2-0.5c-0.1-0.2-0.2-0.6-0.3-0.6C70.8,40.4,70.6,40.6,70.4,40.7 M81.7,43.6c0.1,0,0.2,0,0.3,0.1
	c0.1,0,0.1,0,0.1-0.1c0-0.2,0-0.3,0.1-0.5c0.1-0.4,0.2-0.8,0.3-1.1c0-0.2-0.1-0.4-0.1-0.3c-0.1,0.2-0.2,0-0.3,0
	c-0.1,0-0.2,0.1-0.2,0.2C81.8,42.4,81.7,43,81.7,43.6 M86.8,42c0.4,0,0.7,0.1,1.1,0.2c0.1,0,0.2,0,0.3,0c0.1,0,0.1-0.2,0.1-0.3
	c-0.2,0,0-0.4-0.2-0.4c-0.3,0-0.6-0.2-0.9-0.2c-0.2,0-0.4-0.1-0.6-0.1c0,0-0.1,0.1-0.1,0.1c0,0,0.1,0.1,0.1,0.1
	c0.1,0,0.1,0.1,0.2,0.1c0,0.1-0.1,0.2-0.1,0.2c-0.1,0.1-0.2,0.2-0.3,0.3c0,0,0,0.1,0,0.1c0,0,0,0,0,0.1C86.4,41.9,86.6,42.2,86.8,42
	 M67.5,40.6c0.3-0.3,0.5-0.6,0.8-0.9c0.1-0.1,0.1-0.1,0.2-0.2c-0.1,0-0.1,0-0.2,0c-0.2,0-0.3,0-0.5-0.1c-0.1-0.1-0.3-0.1-0.5,0
	c-0.1,0-0.1,0.4-0.1,0.5c-0.1,0.2-0.1,0.4-0.1,0.6c0,0.2,0,0.3,0,0.5c0.1,0,0.2-0.1,0.3-0.1C67.4,40.9,67.4,40.8,67.5,40.6
	 M67.9,41.1c0.4,0.1,0.7,0.1,1.1,0.2c0.1,0,0.2-0.1,0.1-0.2c-0.1-0.4-0.2-0.7-0.3-1.1c0-0.1-0.1-0.1-0.2,0c-0.1,0.1-0.2,0.3-0.3,0.4
	c-0.2,0.2-0.4,0.4-0.6,0.5c0,0,0,0.1-0.1,0.1c0,0,0.1,0,0.1,0C67.8,41,67.8,41,67.9,41.1 M12.4,3.6c0.7,0.4,1.3,0.9,2,1.3
	c0.1,0.1,0.3,0.2,0.4,0.2c0,0,0.1,0,0.1,0c0,0,0-0.1-0.1-0.1c-0.2-0.2-0.4-0.3-0.5-0.5c-0.7-0.7-1.6-1-2.3-1.7
	c-0.2-0.1-0.4-0.2-0.5-0.4c0,0-0.1,0-0.1,0c0,0,0,0.1,0,0.1C11.7,2.9,12,3.2,12.4,3.6 M78.3,39.5c-0.1-0.2-0.2-0.1-0.4-0.1
	c-0.1,0-0.3,0-0.4,0c0,0.2,0,0.3,0.1,0.5c0,0,0,0.1,0,0.1c0,0.4,0,0.4,0.3,0.4c0,0,0.1,0,0.1,0.1c0.2,0.1,0.5,0.1,0.7,0.2
	c0.1,0,0.1-0.1,0.1-0.2C78.6,40.2,78.5,39.9,78.3,39.5 M14.6,116.4c0.2,0.2,0.5,0.5,0.7,0.7c0,0,0.1,0.1,0.1,0.1
	c0.1,0,0.1-0.1,0.1-0.1c0-0.1,0-0.1-0.1-0.2c-0.2-0.2-0.4-0.4-0.5-0.5c-0.3-0.3-0.6-0.5-0.9-0.8c-0.3-0.3-0.6-0.6-0.9-0.7
	c0,0-0.1,0-0.1,0c0,0.1,0,0.1,0.1,0.2C13.6,115.6,14.1,116,14.6,116.4 M93.7,44.7c0.3-0.2,0.6-0.3,0.9-0.5c0.1-0.1,0.3-0.2,0.4-0.3
	c0,0,0-0.1,0-0.1c0,0,0,0-0.1,0c-0.4-0.1-0.8-0.2-1.2-0.2c-0.1,0-0.2,0.1-0.2,0.1c-0.1,0.3-0.1,0.6-0.2,1c0,0.1,0,0.1,0.1,0.2
	C93.5,44.8,93.6,44.7,93.7,44.7 M84.3,43.3c0.3-0.2,0.5-0.4,0.8-0.5c0.1-0.1,0-0.1,0-0.2c-0.2-0.5-0.6-0.4-0.9-0.5
	c-0.1-0.1-0.2,0-0.2,0.3c0,0.3,0,0.6-0.1,0.9c0,0.1,0,0.2,0,0.3c0.1,0,0.2-0.1,0.3-0.1C84.2,43.5,84.2,43.4,84.3,43.3 M75.4,41.9
	c-0.2,0-0.5,0-0.7,0.1c-0.1,0.1-0.3,0.1-0.4,0.1c-0.1,0-0.2,0-0.3,0c0,0-0.1,0.1-0.1,0.1c0,0,0,0.1,0,0.1c0.1,0,0.1,0,0.2,0
	c0.7,0,1.3,0,2,0.3c0,0,0.1,0,0.1,0c0,0,0-0.1,0-0.1c-0.1-0.1-0.2-0.2-0.2-0.3c-0.1-0.2-0.3-0.5-0.4-0.7c-0.1-0.1-0.3-0.2-0.3-0.1
	c-0.1,0.2,0.1,0.1,0.1,0.2C75.4,41.7,75.4,41.8,75.4,41.9 M29.4,30.6c-0.1-0.2-0.2-0.5-0.3-0.7c0-0.1-0.1-0.1-0.1-0.2
	c0,0.1,0,0.2,0,0.2c0.1,0.6,0.1,1.1,0.2,1.7c0,0.2,0.1,0.5,0.2,0.5c0.2,0.1,0.4,0.1,0.6,0.1c0.1,0,0.1,0,0.2-0.1
	c0-0.1-0.1-0.2-0.1-0.2C29.8,31.6,29.5,31.2,29.4,30.6 M29.8,32.9c0-0.1,0.1-0.2,0.1-0.2c-0.1,0-0.1,0-0.2,0c-0.1,0-0.2,0-0.3,0
	c-0.1-0.1-0.1-0.2-0.1,0.1c0,0.2,0,0.4,0,0.6c0,0-0.1,0.1-0.1,0.1c0,0-0.1-0.1-0.1-0.1c0-0.1,0-0.2,0-0.3c0-0.2,0-0.4-0.1-0.4
	c-0.3-0.2-0.6-0.3-0.9-0.4c0,0-0.1,0-0.1,0.1c0,0,0,0.1,0,0.1c0.4,0.2,0.6,0.8,0.9,1.2c0.2,0.2,0.3,0.2,0.5-0.1
	C29.6,33.3,29.6,33.2,29.8,32.9 M14.7,109.2c0.1,0.3,0.3,0.4,0.5,0.5c0.2,0.1,0.3,0.1,0.3-0.2c0-0.5,0-1.1,0-1.6
	c0-0.2,0-0.1-0.1-0.1C15,108.2,14.9,108.7,14.7,109.2 M98.7,45.5c0.1-0.1,0.1-0.2,0.2-0.3c0.1-0.1,0.2-0.2,0.1-0.5
	c-0.1-0.2-0.1-0.4-0.3-0.4c-0.1,0-0.2,0-0.3,0c0,0-0.1,0-0.1,0c0,0.1,0.1,0.1,0.1,0.2c0,0.1,0.1,0.2,0.1,0.3c0,0.1-0.1,0.2-0.2,0.2
	c-0.1,0.2-0.2,0.3-0.3,0.5c0,0.1-0.1,0.1-0.1,0.2c0,0.1,0.1,0.3,0.1,0.3c0.1,0,0.3,0.1,0.4-0.1C98.5,45.8,98.6,45.7,98.7,45.5
	 M81.8,41.3c0.1-0.3,0.2-0.5,0.3-0.8c0.1-0.4,0.1-0.4-0.2-0.4c-0.1,0-0.3,0-0.4,0.1c-0.2,0.1-0.3,0.3-0.5,0.5
	c-0.1,0.1-0.1,0.2-0.2,0.3c0,0,0,0.1,0,0.2c0,0,0.1,0.1,0.1,0.1c0.2-0.1,0.4,0.1,0.6,0C81.6,41.2,81.7,41.2,81.8,41.3 M67.5,38
	c0.1-0.3,0.2-0.6,0.3-1c0-0.1,0-0.1,0-0.2c0,0-0.1,0.1-0.1,0.1c-0.2,0.5-0.4,0.9-0.7,1.1c-0.2,0.1-0.3,0.3-0.5,0.5
	c0,0,0,0.1-0.1,0.2c0,0,0.1,0.1,0.1,0.1c0.1,0,0.3,0,0.4,0c0.1,0,0.3,0.2,0.3,0.1c0.1-0.1,0.1-0.4,0.1-0.5
	C67.4,38.2,67.4,38.1,67.5,38 M43.2,35.6c0.1,0.1,0.1,0.2,0.2,0.3c0.1,0.3,0.2,0.2,0.4,0.1c0.2-0.2,0.3-0.4,0.5-0.6
	c0,0,0.1-0.1,0.1-0.1c0,0-0.1-0.1-0.1-0.1c-0.2,0-0.4,0-0.6,0c-0.2,0-0.5,0.1-0.7-0.2c0,0,0,0-0.1,0c0,0.1,0,0.1,0,0.2
	C43,35.2,43.1,35.4,43.2,35.6 M83.7,40.9c-0.1-0.2-0.1-0.4-0.2-0.5c-0.1-0.1-0.2-0.1-0.3-0.1c-0.1,0-0.1,0.3-0.1,0.4
	c0,0.1,0,0.3,0,0.4c0,0.2,0.1,0.4,0.2,0.3c0.1,0,0.2,0,0.3,0c0.1,0,0.2,0.1,0.3,0c0.1,0,0.2-0.1,0.1-0.3
	C83.8,41.2,83.8,41.1,83.7,40.9 M70,38c-0.3,0.3-0.2,0.9-0.4,1.3c0,0,0,0.1,0,0.1c0,0,0.1,0,0.1,0c0.2-0.2,0.5-0.1,0.7,0
	c0,0,0.1,0.1,0.1,0.1c0-0.1,0-0.2,0-0.3c-0.1-0.2-0.2-0.4-0.2-0.7C70.3,38.2,70.2,38.1,70,38 M24.6,32.4c0.1,0.2,0.2,0.3,0.3,0.5
	c0.2,0.3,0.3,0.3,0.3-0.2c0-0.2,0-0.5,0-0.7c0-0.2-0.2-0.1-0.3-0.2c-0.1,0-0.1-0.1-0.2-0.1c-0.1,0-0.2,0-0.3,0.1
	c0,0.1,0.1,0.2,0.1,0.4C24.5,32.2,24.5,32.2,24.6,32.4 M14.9,107.7c0.2-0.3,0.4-0.5,0.5-0.8c0-0.1,0-0.3,0-0.4
	c-0.1,0.1-0.1,0.1-0.2,0.2c-0.1,0.1-0.1,0.3-0.2,0.4c-0.4,0.5-0.7,1-1,1.6c0,0.1,0,0.2,0,0.3c0.1,0,0.1,0,0.2,0
	c0.1-0.1,0.1-0.2,0.2-0.3C14.6,108.3,14.7,108,14.9,107.7 M82.2,41.3c0.2,0,0.4,0.1,0.5-0.1c0.1-0.1,0-0.5,0.1-0.7
	c0.1-0.3,0-0.3-0.1-0.3c-0.1,0-0.2,0-0.3,0c0,0-0.1,0.1-0.1,0.1C82.3,40.6,82.1,40.9,82.2,41.3 M17.6,102.6
	c-0.1,0.1-0.1,0.2-0.2,0.3c-0.1,0.2-0.1,0.3-0.2,0.5c0,0.1,0,0.3,0.1,0.5c0,0.1,0,0.1,0,0.2c0,0,0.1-0.1,0.1-0.1
	c0.1-0.2,0.2-0.4,0.3-0.7c0.1-0.2,0.2-0.3,0.3-0.5c0-0.1,0-0.3,0-0.4c-0.1,0-0.1,0-0.2,0.1C17.8,102.5,17.7,102.5,17.6,102.6
	 M90.3,43.1c-0.1,0-0.3-0.1-0.4-0.1c-0.1,0-0.2,0.1-0.3,0.1c0.1,0.1,0.2,0.2,0.2,0.4c0.1,0.2,0.3,0.5,0.5,0.5c0.2,0,0.3-0.3,0.4-0.5
	c0,0,0.1-0.1,0.1-0.1c0-0.1-0.1-0.1-0.1-0.2C90.6,43,90.5,43.1,90.3,43.1 M76.9,39.9c-0.1,0.1-0.3,0.2-0.4,0.4c0,0,0,0.1-0.1,0.2
	c0,0,0.1,0.1,0.1,0.1c0.2-0.2,0.4,0,0.6,0c0.3,0,0.3,0,0.3-0.5c0-0.1,0-0.3,0-0.4c-0.1,0.1-0.2,0.1-0.3,0.2
	C77,39.7,77,39.8,76.9,39.9 M92.1,45.2c0,0,0.1,0,0.1,0c0-0.1,0-0.1-0.1-0.2c0-0.1-0.1-0.1-0.1-0.2c-0.1-0.4-0.2-0.4-0.4-0.3
	c-0.1,0-0.1,0-0.2,0.1c-0.1,0.2-0.3,0.2-0.5,0.3c0,0-0.1,0.1-0.1,0.1c0,0,0,0.1,0.1,0.1C91.4,45.1,91.7,45.1,92.1,45.2 M16.6,104.4
	c-0.1,0.1-0.2,0.3-0.3,0.4c0,0.1,0,0.3,0,0.3c0.1,0,0.2,0.1,0.3,0c0.2-0.2,0.3-0.4,0.3-0.9c0-0.2,0.1-0.4,0.1-0.6
	c0,0,0.1-0.1,0.1-0.1c0,0-0.1-0.1-0.1,0c-0.1,0.1-0.1,0.2-0.2,0.3C16.8,103.9,16.7,104.1,16.6,104.4 M95.6,45.1
	c-0.2,0.1-0.4,0.2-0.7,0.3c0,0-0.1,0.1-0.1,0.1c0,0,0.1,0.1,0.1,0.1c0.4,0.1,0.7-0.1,1.1,0.1c0,0,0.1-0.2,0.1-0.2
	C96,45.3,95.9,45,95.6,45.1 M22.5,31.5C22.5,31.5,22.4,31.5,22.5,31.5c-0.1,0.4-0.1,0.8,0,1.1c0,0,0.1,0,0.1,0
	c0.1-0.2,0.2-0.5,0.4-0.7c0.1-0.1,0.1-0.2,0.2-0.3c0,0,0-0.1,0-0.2c0,0-0.1-0.1-0.1,0C22.9,31.6,22.8,31.4,22.5,31.5 M8.7,1.7
	c0-0.3-0.1-0.3-0.3-0.2c-0.1,0-0.1,0.2-0.2,0.3c0,0.1-0.1,0.3-0.1,0.4c0,0.2,0,0.4,0.1,0.5c0.1,0.1,0.2,0,0.3,0.1c0,0,0-0.1,0-0.1
	c0,0,0-0.1,0-0.1c-0.1,0-0.1,0-0.2,0c-0.1,0-0.1-0.1-0.2-0.1c0.1,0,0.1-0.1,0.2-0.1c0,0,0.1,0,0.1,0C8.7,2.3,8.7,2.2,8.7,2
	C8.7,1.9,8.7,1.8,8.7,1.7 M87.9,42.7c-0.2-0.2-0.4-0.1-0.6-0.1c-0.1,0-0.3-0.2-0.4,0c0.1,0.2,0.2,0.4,0.3,0.6c0,0,0,0,0,0
	c0.1,0,0.2,0,0.2,0C87.7,43.1,87.8,42.9,87.9,42.7 M15,110c-0.1-0.1-0.3-0.2-0.4-0.3c0,0-0.1,0-0.2,0.1c0,0.1,0,0.2,0,0.3
	c0,0.1,0.1,0.1,0.1,0.1c0.3,0.2,0.5,0.4,0.8,0.6c0,0,0.1,0,0.1,0c0,0,0-0.1,0-0.1C15.3,110.3,15.1,110.2,15,110 M57.7,38.3
	c0.1-0.3,0.3-0.5,0.4-0.8c-0.2,0-0.4,0-0.6,0c-0.1,0-0.1,0.1-0.1,0.2C57.5,37.9,57.5,38.1,57.7,38.3 M53.4,10.9
	c0,0.1-0.1,0.2-0.1,0.3c-0.1,0.2-0.1,0.3,0.1,0.4c0.1,0.1,0.2,0.1,0.3,0.2c0.1,0,0.1,0,0.2-0.1c0,0,0-0.1,0-0.1
	c-0.1,0-0.1-0.1-0.2-0.1c-0.1,0-0.2-0.1-0.3-0.1c0,0-0.1-0.1-0.1-0.1c0,0,0.1-0.1,0.1-0.1c0.1,0,0.2,0.1,0.4,0.2c0,0,0.1,0,0.2-0.1
	c0-0.1-0.1-0.1-0.1-0.2C53.8,11,53.6,11,53.4,10.9 M25.6,31.8c-0.1,0-0.2-0.1-0.2,0.2c0,0.1,0,0.3,0,0.4c0,0.2,0,0.3,0,0.5
	c0.1-0.1,0.1-0.3,0.2-0.4c0-0.1,0.1-0.1,0.1-0.1c0.1-0.1,0.2-0.2,0.3-0.4c0,0,0-0.1,0-0.2c0,0-0.1,0-0.1,0
	C25.9,32,25.8,32,25.6,31.8 M89.2,44.6c-0.1,0-0.2,0-0.3,0.2c0.1,0,0.2,0.1,0.3,0.1c0.3,0,0.7,0.2,0.9-0.3c0,0,0.1,0,0.1-0.1
	c0,0-0.1-0.1-0.1,0C89.8,44.4,89.5,44.5,89.2,44.6 M16.6,116.9c-0.1,0.2-0.1,0.3,0,0.4c0.1,0.1,0.2,0.2,0.3,0.3c0-0.2,0-0.4,0-0.6
	c0-0.1,0-0.2,0-0.2c0-0.1,0-0.2,0-0.3c-0.1,0-0.1,0.1-0.2,0.1C16.7,116.7,16.6,116.8,16.6,116.9 M16.2,111.4
	c0.2,0.1,0.3,0.3,0.5,0.4c0,0,0.1,0,0.1,0.1c0-0.1,0-0.1,0-0.2c0-0.1-0.1-0.1-0.1-0.1c-0.3-0.4-0.6-0.7-0.9-1.1c0,0,0-0.1,0-0.1
	c0,0,0,0.1,0,0.1c0,0.1,0,0.2,0.1,0.3C15.8,111,16,111.2,16.2,111.4 M62.2,13.2l0.2-0.3c0-0.1,0-0.1,0-0.2c0,0,0,0-0.1,0
	c-0.2,0-0.5,0.1-0.7,0.2c0,0-0.1,0.1-0.1,0.2c0,0,0.1,0.1,0.1,0.1C61.8,13.1,62,13.1,62.2,13.2 M13.4,132.1c-0.1,0-0.2,0.1-0.3,0.1
	c0,0-0.1,0.1-0.1,0.2c0.1,0,0.1,0.1,0.2,0.1c0.2-0.2,0.3-0.1,0.5-0.1c0.2-0.1,0.4-0.1,0.6-0.2c0,0,0.1-0.1,0.1-0.1c0,0-0.1,0-0.1,0
	C14,132,13.7,132,13.4,132.1 M92.7,42.9c0.2,0,0.3,0.1,0.5,0.1c0,0,0.1,0,0.1,0c0-0.1-0.1-0.1-0.1-0.2c-0.1,0-0.2-0.1-0.3-0.1
	c-0.3-0.1-0.6-0.1-0.9-0.2c0,0-0.1,0.1-0.1,0.1c0,0,0,0.1,0.1,0.1C92.2,42.9,92.4,42.9,92.7,42.9 M88.2,42.9c-0.1,0.5-0.1,1-0.2,1.5
	c0,0.1,0,0.2,0,0.3c0.1-0.1,0.1-0.1,0.1-0.2c0.1-0.5,0.2-1.1,0.3-1.6C88.5,42.8,88.4,42.6,88.2,42.9 M3.2,37.2c0-0.2,0-0.4-0.1-0.5
	c0-0.1-0.1-0.2-0.2-0.4c0,0.1,0,0.2,0,0.3c0,0,0,0.1,0,0.1c0,0.4-0.1,0.7-0.1,1.1c0,0.1,0,0.1,0,0.2c0-0.1,0-0.2,0-0.2
	C3,37.7,3,37.6,3.1,37.5c0,0,0.1,0,0.1,0C3.2,37.5,3.2,37.4,3.2,37.2 M13.3,109.1c0.2,0.3,0.4,0.2,0.6,0.2c0,0,0.1,0,0.1,0
	c0,0-0.1-0.1-0.1-0.1c-0.3-0.1-0.5-0.2-0.7-0.5c0,0,0-0.1-0.1-0.1c-0.1,0-0.2,0.1-0.3,0.1c0.1,0.1,0.1,0.2,0.2,0.2
	C13.1,109,13.2,109.1,13.3,109.1 M87.6,43.5c0,0.1-0.1,0.1-0.1,0.2c0.1,0.1,0.2,0.3,0.3,0.4c0-0.1,0.1-0.2,0.1-0.3
	c0-0.1,0-0.2,0.1-0.3c0-0.1,0-0.2,0.1-0.3c-0.1,0-0.2,0.1-0.2,0.1C87.8,43.3,87.7,43.4,87.6,43.5 M14.6,31.6
	c0.1,0.5,0.4,0.7,0.6,1.1c0,0,0.1,0,0.1,0c0,0,0-0.1,0-0.1C15.1,32.2,14.9,31.9,14.6,31.6 M68.9,39.6C68.9,39.7,68.8,39.7,68.9,39.6
	c0,0.2,0.1,0.4,0.1,0.5c0,0.1,0,0.3,0.1,0.4c0-0.1,0.1-0.2,0.1-0.4C69.3,39.6,69.3,39.6,68.9,39.6 M24.6,29.6c0-0.1,0-0.2,0.1-0.2
	c0,0-0.1,0-0.1,0.1c-0.2,0.4-0.5,0.7-0.7,1.1c0,0.1,0,0.2-0.1,0.3c0.1,0,0.1,0,0.1-0.1C24.2,30.4,24.4,30.1,24.6,29.6 M85.9,42.5
	c-0.1,0.1-0.2,0.1-0.2,0.2c0,0-0.1,0.2,0,0.2c0.1,0.1,0.2,0.2,0.3,0.3c0-0.1,0.1-0.2,0.1-0.3c0-0.1,0.1-0.2,0.1-0.2
	c0-0.1,0-0.2,0-0.3C86,42.4,85.9,42.4,85.9,42.5 M17.7,114c-0.2,0.3-0.3,0.5-0.5,0.8c0,0,0,0.1,0,0.2c0,0,0.1,0,0.1,0
	c0.2-0.3,0.4-0.6,0.6-1c0-0.1,0.1-0.1,0.1-0.2c-0.1,0-0.1,0-0.2,0C17.7,113.8,17.7,113.9,17.7,114 M54.2,11.2
	c-0.1,0.1-0.2,0.3,0,0.3c0.2,0,0.3-0.1,0.5-0.1c0,0,0.1,0,0.1-0.1c0,0-0.1,0-0.1,0C54.6,11,54.5,11.2,54.2,11.2 M91.9,43.3
	c0,0.3,0.1,0.3,0.3,0.3c0.1,0,0.2-0.1,0.2-0.1c0.1,0,0.1-0.1,0.2-0.1c-0.1-0.1-0.2-0.2-0.2-0.2C92.3,43.4,92.1,43.2,91.9,43.3
	 M69.5,39c0-0.2,0-0.3,0-0.5c-0.1,0.1-0.2,0.3-0.3,0.4c-0.1,0.1-0.1,0.2-0.2,0.3c0,0,0,0.1,0,0.2c0,0,0.1-0.1,0.1,0
	C69.3,39.3,69.4,39.2,69.5,39 M17.7,128.2c0.1,0.1,0.1,0.3,0.2,0.4c0-0.2,0-0.3,0-0.5c0-0.1,0-0.2-0.1-0.4c0,0,0-0.1-0.1-0.1
	C17.8,127.9,17.6,127.9,17.7,128.2 M15.1,118.5c0,0.1,0,0.2,0,0.2c0,0,0.1-0.1,0.1-0.1c0.1-0.2,0.3-0.4,0.4-0.6c0,0,0.2,0.1,0.1-0.2
	c0-0.1-0.1-0.1-0.2,0C15.4,118,15.3,118.2,15.1,118.5 M96.7,43.9c-0.2,0-0.4,0-0.6,0.1c0,0-0.1,0.2,0,0.2c0,0.1,0.1,0.1,0.1,0.1
	C96.3,44.2,96.5,44.1,96.7,43.9 M15.7,106.2c0,0.1,0,0.1,0.1,0.2c0.1-0.1,0.1-0.2,0.2-0.3c0-0.1,0.1-0.2,0.1-0.2
	c-0.1,0-0.1-0.1-0.2-0.1C15.6,105.7,15.8,106,15.7,106.2 M93.6,43.2c0.2,0.1,0.3,0.1,0.5,0.2c0.1,0,0.2,0.1,0.2-0.1
	c0,0-0.1-0.1-0.2-0.1c-0.1,0-0.1-0.1-0.2-0.1C93.9,43,93.7,43.1,93.6,43.2 M16.6,105.8c0.1,0.2,0.1,0.3,0.2,0.4
	c0,0.1,0.1,0.1,0.2,0.1c0-0.1,0-0.3,0-0.4C16.9,105.9,16.8,105.8,16.6,105.8 M22.9,12.1c0-0.1,0.1-0.1,0.1-0.2c0,0-0.1-0.1-0.1-0.1
	c-0.1,0-0.3,0-0.4,0.1C22.6,12.2,22.8,12,22.9,12.1 M45.2,35c0,0,0.1,0,0.1,0c0.2,0,0.2-0.2,0.3-0.3c0,0,0-0.1,0-0.1
	c-0.1,0.1-0.2,0.1-0.3,0.2C45.2,34.8,45.1,34.9,45.2,35 M14.7,55.2c0-0.1,0-0.2,0-0.3c0,0,0-0.1,0-0.1c0,0-0.1,0.1-0.1,0.1
	c0,0.3,0.1,0.6,0,1c0,0,0,0.1,0.1,0.1c0-0.1,0-0.1,0-0.2C14.7,55.6,14.7,55.4,14.7,55.2 M16.3,30.3c-0.1,0.2,0,0.3,0.1,0.4
	c0-0.1,0.1-0.2,0.1-0.3c0,0,0.1-0.1,0.1-0.1c0,0,0.1-0.1,0.1-0.1c0,0-0.1-0.1-0.1-0.1C16.4,30.2,16.4,30.2,16.3,30.3 M14.5,50.2
	c0,0.2,0,0.4,0,0.6c0,0,0,0.1,0,0.1c0,0,0,0,0-0.1c0-0.1,0.1-0.2,0-0.2c-0.1-0.2-0.1-0.4,0-0.6c0,0,0-0.1-0.1-0.1
	C14.6,50,14.6,50,14.5,50.2 M16.6,24.9c0,0.1,0.1,0.3,0.1,0.4c0,0,0,0.1,0.1,0.1c0,0,0-0.1,0-0.1c0-0.1,0-0.2,0-0.3
	C16.8,24.6,16.7,24.7,16.6,24.9 M27.2,31.6c0.1,0,0.1,0,0.2,0c0-0.1-0.1-0.2-0.1-0.2c0-0.1-0.1-0.1-0.2-0.2c0,0-0.1,0-0.1,0.1
	c0,0,0,0.1,0,0.2C27,31.5,27.1,31.6,27.2,31.6 M85.2,42.5c0.1,0,0.2,0,0.4,0c0,0,0-0.1,0-0.2c-0.1,0-0.2,0-0.3,0
	C85.2,42.2,85.1,42.2,85.2,42.5 M12,133.7C12,133.7,12,133.6,12,133.7c0.1-0.1,0.3-0.2,0.4-0.2c-0.1-0.1-0.2,0-0.4,0.1
	c0,0-0.1,0-0.1,0C11.8,133.7,11.8,133.7,12,133.7 M16.4,116.3c-0.1,0.1-0.2,0.1-0.2,0.2c0,0.1,0,0.2,0,0.3c0,0,0.1-0.1,0.1-0.1
	c0.1-0.1,0.1-0.3,0.2-0.4C16.5,116.3,16.5,116.3,16.4,116.3 M34.3,32.8c-0.1,0.2-0.1,0.3,0.1,0.2c0.1,0,0.2,0,0.3-0.1
	C34.6,32.7,34.5,32.8,34.3,32.8 M50.8,38.2c0.1,0,0.2,0.1,0.3,0.1c0,0,0-0.1,0-0.1c-0.1-0.2-0.2-0.2-0.3-0.2c0,0-0.1,0-0.1-0.1
	C50.7,38.1,50.7,38.1,50.8,38.2 M16.9,115.8c0-0.1,0-0.2,0-0.3c-0.1,0.1-0.1,0.1-0.2,0.2c0,0.1-0.1,0.2-0.1,0.2c0,0,0,0.1,0,0.1
	c0,0,0.1,0,0.1,0C16.8,115.9,16.8,115.9,16.9,115.8 M42,34.3c0,0.1-0.1,0.1-0.1,0.2c0,0,0.1,0.1,0.1,0.1c0.1,0,0.1,0,0.2,0
	c0,0,0,0,0.1-0.1c0,0,0-0.1-0.1-0.1C42.2,34.4,42.2,34.3,42,34.3 M17.4,54.5C17.4,54.4,17.4,54.4,17.4,54.5c-0.1,0-0.1,0-0.1,0.1
	c0,0.1,0,0.3,0,0.4c0,0,0-0.1,0.1-0.1C17.4,54.8,17.4,54.7,17.4,54.5 M69,20.1c0.1,0,0.1,0.1,0.2,0.1c0-0.1,0-0.3,0-0.3
	C69.1,19.9,68.9,19.8,69,20.1 M14.6,34.7c0-0.1,0.1-0.2,0.1-0.4c0,0,0-0.1,0-0.2c0,0-0.1,0.1-0.1,0.1C14.6,34.5,14.6,34.6,14.6,34.7
	 M79.7,41.5c0.1-0.1,0.1-0.1,0.2-0.2c-0.1,0-0.1-0.1-0.2-0.1c0,0,0,0-0.1,0c0,0-0.1,0-0.1,0.1C79.5,41.4,79.6,41.5,79.7,41.5
	 M17.3,31.9c0,0.1,0,0.2,0,0.3c0,0.1,0,0.2,0.1,0.3c0,0,0.1,0,0.1,0c0-0.1,0-0.2,0-0.4C17.4,32.1,17.4,32.1,17.3,31.9 M15.8,36.5
	c0-0.1-0.1-0.2-0.1-0.3c0,0.1,0,0.2,0,0.3c0,0.1,0,0.2,0,0.2c0,0,0.1,0.1,0.1,0.1C15.8,36.7,15.8,36.7,15.8,36.5 M22.9,11.4
	c0-0.1,0-0.1,0-0.2c0-0.1,0-0.2,0-0.3c0,0.1-0.1,0.2-0.1,0.3C22.8,11.2,22.8,11.3,22.9,11.4 M75.5,40.8c0.1-0.1,0.1-0.1,0.2-0.2
	c-0.1,0-0.1-0.1-0.2-0.1C75.4,40.6,75.4,40.7,75.5,40.8 M15.7,86.9c0,0.1,0,0.2,0,0.3c0,0,0.1,0.1,0.1,0.1
	C15.9,87.1,15.9,87,15.7,86.9 M14.7,51.4c0-0.1,0-0.1-0.1-0.2c0,0-0.1,0-0.1,0.1c0,0.2,0,0.3,0.1,0.4C14.7,51.6,14.7,51.6,14.7,51.4
	 M23.2,11.5c0-0.1,0.1-0.1,0.1-0.2c0,0-0.1-0.1-0.1-0.1c-0.1,0-0.1,0.2-0.1,0.2c0,0,0,0.1,0,0.1C23.1,11.6,23.1,11.6,23.2,11.5
	 M84.1,41.5c0,0.1,0,0.2,0.1,0.2c0,0,0.1,0,0.1,0.1c0-0.1,0-0.2,0-0.2C84.2,41.4,84.2,41.4,84.1,41.5 M54,10.8c0.1,0,0.1,0,0.2,0
	c0-0.1-0.1-0.1-0.1-0.2C54,10.6,54,10.7,54,10.8 M3.2,37.7c0,0-0.1,0.1-0.1,0.1c0,0,0.1,0.1,0.1,0.1C3.3,37.9,3.3,37.8,3.2,37.7
	 M17.4,55.3C17.4,55.3,17.4,55.2,17.4,55.3c0-0.1,0-0.1-0.1-0.2c0,0.2,0,0.4,0,0.6c0,0,0,0,0,0c0,0,0-0.1,0-0.1
	C17.4,55.6,17.4,55.5,17.4,55.3 M88.6,41.8c0,0,0.1-0.1,0.1-0.1c0,0-0.1-0.1-0.1-0.1C88.4,41.5,88.4,41.6,88.6,41.8 M17.6,82.2
	c0,0,0-0.1,0-0.1c0-0.1,0-0.1,0-0.2c0,0,0,0,0,0c0,0.2,0,0.3,0,0.5c0,0,0-0.1,0-0.1C17.6,82.4,17.6,82.4,17.6,82.2 M52.9,36.3
	C52.9,36.3,52.9,36.3,52.9,36.3C52.8,36.4,52.8,36.4,52.9,36.3c0,0.1,0.1,0.1,0.2,0.1c0,0,0-0.1,0-0.1C53,36.3,53,36.3,52.9,36.3
	 M14.6,57.2c0-0.1,0-0.3,0-0.4c0,0,0-0.1,0-0.2c0,0.1,0,0.1,0,0.2C14.5,57,14.5,57.1,14.6,57.2 M17.3,98.5c-0.1,0-0.1-0.1-0.2-0.1
	C17.1,98.5,17.1,98.5,17.3,98.5c-0.1,0.1,0,0.2,0,0.2C17.3,98.7,17.3,98.6,17.3,98.5 M13.8,104.4c-0.1,0-0.1,0.1-0.1,0.2
	c0,0,0,0.1,0,0.1c0-0.1,0.1-0.1,0.1-0.2C13.8,104.6,13.8,104.5,13.8,104.4 M17.2,115.6c0,0-0.1,0.1-0.1,0.1c0,0.1,0.1,0.1,0.1,0.2
	C17.2,115.9,17.2,115.8,17.2,115.6 M14.6,52.3c0,0,0.1,0.2,0.1,0c0-0.1,0-0.1-0.1-0.2C14.6,52.1,14.6,52.2,14.6,52.3 M58.4,37.7
	C58.4,37.6,58.4,37.6,58.4,37.7c0-0.1,0-0.1,0-0.2c0,0.1-0.1,0.2-0.1,0.3c0,0,0,0.1,0.1,0.1C58.3,37.8,58.3,37.8,58.4,37.7
	 M17.4,52.2c0,0-0.1,0.1-0.1,0.1c0,0,0,0.1,0.1,0.1C17.4,52.3,17.4,52.3,17.4,52.2 M95.8,44.2C95.8,44.2,95.8,44.2,95.8,44.2
	C95.8,44.2,95.8,44.2,95.8,44.2c0-0.1,0-0.2,0-0.2c0,0,0,0-0.1,0C95.7,44,95.8,44,95.8,44.2 M96.8,44.4c0,0,0.1,0,0.1,0
	c0,0,0,0,0.1-0.1C96.9,44.3,96.8,44.1,96.8,44.4 M67,41.4c0-0.1,0-0.1,0-0.2c0,0-0.1,0.1-0.1,0.1C66.9,41.4,66.9,41.4,67,41.4
	 M14.4,70.4C14.4,70.4,14.4,70.5,14.4,70.4C14.4,70.5,14.5,70.5,14.4,70.4c0.1-0.1,0.1-0.1,0.1-0.2c0,0,0,0,0,0
	C14.4,70.2,14.4,70.3,14.4,70.4 M17.4,69.1c0,0.1,0,0.2,0,0.3c0,0,0,0.1,0,0.1c0,0,0-0.1,0-0.1C17.4,69.2,17.4,69.2,17.4,69.1
	 M14.6,57.9c0,0.1,0,0.2,0,0.3c0,0,0,0.1,0,0.1c0,0,0-0.1,0-0.1C14.6,58.1,14.6,58.1,14.6,57.9 M60.5,35.1c0,0,0.1-0.1,0.1-0.1
	c0,0,0-0.1,0-0.1C60.6,35,60.5,35,60.5,35.1 M61.9,35.2C61.9,35.2,61.9,35.2,61.9,35.2c-0.1,0-0.1,0-0.2,0.1c0,0,0.1,0,0.1,0
	C61.9,35.4,61.9,35.3,61.9,35.2 M15.8,104.8c0,0.1,0,0.2,0,0.2c0,0,0.1,0,0.1-0.1C15.9,104.9,15.8,104.9,15.8,104.8 M15.7,117.2
	c0,0,0,0.1,0,0.1c0,0.1,0,0.1,0,0.2c0,0,0-0.1,0-0.1C15.8,117.3,15.8,117.2,15.7,117.2 M14.7,40.6c0,0,0,0.1,0,0.1
	c0,0.1,0,0.1,0,0.2c0,0,0-0.1,0-0.1C14.8,40.7,14.7,40.6,14.7,40.6 M58.6,37.1c0,0,0.1-0.1,0.1-0.1C58.6,37,58.6,37,58.6,37.1
	 M82.2,39.9C82.2,39.8,82.2,39.8,82.2,39.9C82.2,39.8,82.2,39.8,82.2,39.9c0-0.1-0.1-0.1-0.1-0.1c0,0,0,0,0,0.1
	C82,39.8,82.1,39.8,82.2,39.9 M16.4,131.6C16.4,131.6,16.4,131.6,16.4,131.6c0.1,0,0.1,0,0.2-0.1c0,0-0.1,0-0.1,0
	C16.4,131.5,16.4,131.5,16.4,131.6 M62.6,13.3c0,0.1,0.1,0.1,0.1,0.2c0,0,0-0.1,0-0.1C62.7,13.3,62.7,13.3,62.6,13.3 M97.8,44.5
	c0-0.1,0-0.1,0-0.2c0,0,0,0,0,0C97.8,44.3,97.8,44.4,97.8,44.5 M15.8,87.8C15.8,87.8,15.8,87.8,15.8,87.8
	C15.8,87.9,15.8,87.9,15.8,87.8 M15.8,86.1c0,0.1,0,0.1,0,0.2c0,0,0,0,0,0C15.9,86.2,15.9,86.2,15.8,86.1 M17.5,84.7
	c0,0,0,0.1,0,0.1c0,0,0,0,0,0C17.6,84.8,17.6,84.7,17.5,84.7 M69.5,20C69.5,20,69.6,20,69.5,20c0.1-0.1,0.1-0.1,0.1-0.1
	C69.5,19.9,69.5,19.9,69.5,20 M8.9,1C8.8,1,8.8,1,8.9,1C8.8,1,8.8,1.1,8.8,1.1C8.8,1.1,8.9,1,8.9,1 M17.5,73c0-0.1,0-0.1,0-0.2
	c0,0,0,0,0,0C17.5,72.8,17.4,72.9,17.5,73 M14.6,57.5C14.6,57.6,14.6,57.6,14.6,57.5C14.6,57.6,14.6,57.6,14.6,57.5 M17.1,118.4
	C17.2,118.4,17.2,118.4,17.1,118.4C17.2,118.3,17.2,118.3,17.1,118.4 M14.5,56.2C14.6,56.2,14.6,56.2,14.5,56.2
	C14.6,56.2,14.6,56.1,14.5,56.2 M14.7,53.3c0,0-0.1,0-0.1,0c0,0,0,0,0,0.1C14.6,53.3,14.6,53.3,14.7,53.3 M17.4,52.8
	C17.4,52.8,17.4,52.8,17.4,52.8C17.4,52.8,17.4,52.8,17.4,52.8 M16,117.2C16,117.2,16,117.2,16,117.2C16,117.2,16,117.3,16,117.2
	 M17.3,112.6C17.3,112.5,17.3,112.5,17.3,112.6C17.3,112.5,17.2,112.5,17.3,112.6 M11.5,1.6C11.5,1.6,11.5,1.6,11.5,1.6
	C11.5,1.6,11.5,1.6,11.5,1.6 M17.4,68.2C17.4,68.2,17.4,68.1,17.4,68.2C17.4,68.2,17.4,68.2,17.4,68.2 M17.5,70.8
	C17.5,70.8,17.5,70.7,17.5,70.8C17.5,70.8,17.5,70.8,17.5,70.8 M17.6,75.4C17.5,75.5,17.5,75.5,17.6,75.4
	C17.5,75.5,17.6,75.5,17.6,75.4 M17.3,99.8C17.3,99.8,17.3,99.8,17.3,99.8C17.3,99.7,17.2,99.7,17.3,99.8 M8.5,0.6
	C8.5,0.6,8.5,0.7,8.5,0.6C8.5,0.7,8.5,0.7,8.5,0.6 M69.1,19.5C69.1,19.5,69.1,19.5,69.1,19.5C69.1,19.5,69.1,19.5,69.1,19.5
	 M70.2,20.9C70.2,21,70.1,21,70.2,20.9C70.2,21,70.2,21,70.2,20.9 M17.3,33.5C17.3,33.5,17.3,33.5,17.3,33.5
	C17.3,33.5,17.3,33.5,17.3,33.5 M28.7,28.3C28.7,28.3,28.7,28.3,28.7,28.3C28.7,28.3,28.7,28.3,28.7,28.3 M27.9,29.6
	C27.9,29.6,27.9,29.7,27.9,29.6C27.9,29.6,27.9,29.6,27.9,29.6 M17.6,85.9C17.6,85.9,17.6,85.9,17.6,85.9
	C17.5,85.9,17.6,85.9,17.6,85.9 M23.7,31.1C23.7,31.1,23.7,31.1,23.7,31.1C23.7,31,23.7,31,23.7,31.1 M17,105.2
	C17,105.2,17,105.1,17,105.2C17,105.2,17,105.2,17,105.2 M15.8,88.3C15.8,88.3,15.8,88.2,15.8,88.3C15.8,88.3,15.8,88.3,15.8,88.3z"
	/>
</svg>
