<svg enable-background="new 0 0 174.6 108.9" viewBox="0 0 174.6 108.9" xmlns="http://www.w3.org/2000/svg"><path d="m8.1 34.8c0-6.4 0-12.7 0-19 0-.2.1-.5-.1-.7-.1-.1.1-.3.1-.5 0-.5 0-1 0-1.5 0-.2-.1-.4-.2-.6-.2-.2-.1-.4.1-.5.1-.1.3-.2.4-.2.5-.1 1-.1 1.5-.1.6-.1 1.1-.2 1.7-.3.4-.1.8-.1 1.1-.2.2 0 .5-.1.7-.1.6 0 1.3.1 1.9.3.4.1.6.4.6.9 0 .7 0 1.5.1 2.2.1.6.1 1.2.1 1.7s.1 1.1.1 1.6c0 .3 0 .7-.1 1-.1.2 0 .6.1.8v.4 4.9c0 .7-.1 1.3-.1 2 .1 2.2.1 4.4.1 6.5 0 .2.2.3 0 .5-.1.1 0 .3 0 .5 0 1.7.1 3.4.1 5v1.6c0 .6-.1 1.1-.1 1.7.1.4.1.8 0 1.3 0 .4 0 .8.1 1.2.1.5.2 1 0 1.4.3 1-.1 2 .2 2.9.1.2-.1.4-.1.6 0 1.1-.1 2.1 0 3.2.1.6 0 1.2.2 1.9.1.3 0 .7 0 1.1 0 1.3 0 2.6.1 3.8.1.6 0 1.2.1 1.8.1.8.1 1.5.1 2.3.1 1 .2 1.9.2 2.9 0 .3.1.6.1.9 0 1.3.1 2.5.1 3.8v.8c0 .5-.1 1 .2 1.5v.2c0 1.1 0 2.2.1 3.3s.1 2.2.1 3.3c0 .7-.1 1.3-.1 2s0 1.4.1 2c.1.4.2.9.3 1.3.1.3 0 .3-.2.4-.1 0-.1.1-.1.1.3.2.3.3.2.4.1 0 .2.1.3 0 .4-.1.9-.2 1.3-.2 1 0 1-.1.8-1 0-.1 0-.3 0-.4.2-.7.1-1.3 0-2-.1-.4 0-.9 0-1.4 0-1.3 0-2.5-.1-3.8-.1-.8-.1-1.5-.1-2.3 0-.7 0-1.5-.1-2.2-.1-.6 0-1.1-.1-1.7-.1-.8 0-1.6-.1-2.3-.2-1 0-2-.1-3 0-.4-.1-.7-.1-1.1 0-.2.1-.4.1-.7 0-.6 0-1.3 0-1.9 0-2 .1-4 .1-6 0-.5-.2-1.1.1-1.6-.3-.6-.1-1.3-.1-1.9 0-.5 0-.9 0-1.4 0-.2-.1-.4 0-.6.1-.5-.2-.9.1-1.4 0-.1 0-.2 0-.2-.1-.4 0-.8 0-1.3s0-.9 0-1.4c0-.4 0-.9 0-1.3 0-.5.1-.9 0-1.4-.2-1-.1-2.1-.1-3.1 0-.5 0-1 0-1.5s-.1-1 0-1.5c0-.5.1-1 0-1.5-.2-1.2 0-2.3-.1-3.5-.2-2.7 0-5.4-.1-8.1 0-.3-.1-.4-.3-.5-.1 0-.2 0-.2-.1-.5-.4-.5-.5-.2-1.1.1-.2.3-.5.4-.7s.2-.5.2-.7c.1-2 .1-4 .1-6 0-.3 0-.7 0-1 0-.9 0-1.8-.1-2.6-.1-.6-.1-1.2-.1-1.8 0-2 0-4.1 0-6.1 0-.3-.1-.7.1-1-.3-.5.1-1.2-.4-1.7-.1-.1 0-.3.2-.3.3 0 .9.3.9.6.1.3.2.7.2 1 .1 1.4.1 2.9.1 4.3v1.5c0 1 0 2 .1 3 .1.8 0 1.7.1 2.5 0 .3.1.7.1 1 0 .2-.1.4-.1.6s.1.4.1.6c0 1-.1 2.1-.1 3.1v.2c-.1.1-.2.3 0 .4 0 0 .2-.2.3-.3.7-1.3 1.5-2.6 2.4-3.9.5-.7.9-1.4 1.3-2 .5-.7 1-1.3 1.5-2 .6-.8 1.2-1.6 1.8-2.4.8-1 1.6-2.1 2.3-3.1.3-.5.7-.9 1-1.4.3-.6.2-1.3.1-1.9-.1-.3 0-.5.2-.5.4-.2.4-.3.2-.7s0-.7.5-.8c.3 0 .3-.2.4-.4 0-.2.1-.5.1-.7.1-.4.6-.6 1-.5.6.1 1.2.3 1.7.3.7.1 1.4.1 2 .1s1.2.1 1.9.2c.5.1 1.1.1 1.7.1.5 0 1 .1 1.6.2.3.2.8.1 1.3.1.3 0 .6-.1.9 0 1.1.2 2.2.3 3.3.4.9 0 1.8.1 2.8.2.4 0 .7.1 1.1.1 1 0 1.9.1 2.9.2.2 0 .4-.1.6-.1.6-.1 1.1.1 1.7-.1.2-.1.5.1.7.1 1.3 0 2.5-.1 3.8-.1.7 0 1.3.2 1.9.3.4.1.8.1 1.2.2.2 0 .4 0 .4-.2.1-.3.3-.2.4-.1.4.5.9.5 1.4.5s1.1.1 1.6.1h1.3 1.3 1.4c.4 0 .8.2 1.2.2.4.1.9.1 1.3.1.8 0 1.7.1 2.5.2.4.1.8.1 1.2.1s.8.1 1.2.2c.1.1.3 0 .5 0 1 0 1.9 0 2.9.1.9.1 1.9.2 2.8.2.7.1 1.4.1 2.1.3h.2c.7 0 1.4 0 2 .1.9.1 1.9.1 2.8.4.2.1.4 0 .7 0 1.2 0 2.4.3 3.5.5.4.1.8 0 1.2.1.1 0 .2-.1.2 0 .3.2.7.1 1 .2.7.1 1.4 0 2 .2.4.1.8.1 1.2.1 1.4.2 2.9.3 4.3.2.2 0 .4.1.6.1 1 .2 1.9.1 2.9.1.9 0 1.8 0 2.8.1.8.1 1.7.4 2.5.4.5 0 .9.2 1.4.4.2.1.5.1.8.1.4 0 .8.1 1.2 0 .4 0 .8 0 1.2.1.6.2 1.2 0 1.8.1.9.1 1.8.1 2.7.2s1.9.4 2.8.3c.6 0 1.1.2 1.7.3.1 0 .2.1.3.1 1 .1 1.9.1 2.8.3.5.1.9.1 1.4.1.7.1 1.5.2 2.2.3.4.1.9.1 1.3.1 1.1 0 2.1 0 3.2.2h.5c1.1 0 2.2.2 3.2.5.6.1 1.2.2 1.8.3.8.1 1.6.2 2.5.4.4.1.7.2 1.1.2.6.1 1.2 0 1.8.1.3.1.6.2.9 0h.2c.3.3.7.2 1.1.2.8 0 1.7 0 2.5.1.7.1 1.5.2 2.2.2.6.1 1.2 0 1.8.1.7.1 1.5.2 2.2.3.6.1 1.2.2 1.9.2 1 .1 2 .2 3 .4.8.1 1.5.2 2.3.4.3.1.6.2.7.5s.3.6.7.5c.1 0 .3.2.3.3.2.4.4.8.2 1.2 0 .1-.1.2-.2.2s-.1 0-.2 0c0-.1 0-.1 0-.2.1-.1.1-.3.2-.4 0 0 0 0-.1-.1-.1.2-.2.3-.3.5 0 .1 0 .3.1.4.4.6.5 1.3.7 2v.2c0 .6 0 1.1.1 1.7.1.5 0 1 0 1.5 0 .8.1 1.6.1 2.4 0 1-.2 1.9-.7 2.7 0 .1-.1.1-.1.2s0 .3-.1.4c.1-.1.2-.1.3-.2s.3-.3.4-.4.3-.1.4 0c.2.1.4.3.5.5.1.4.2.8.3 1.1v2.2c0 .3.1.7.1 1 0 .4.1.8 0 1.1-.1.5-.1 1.1-.2 1.6-.1.4-.1.8-.1 1.2-.1 1.5-.1 3-.1 4.6 0 .3.2.5.1.8-.2.7-.1 1.5-.2 2.2-.2 1.1-.1 2.3-.2 3.4 0 .1 0 .2.1.2.1.2.2.4-.1.5-.1 0-.1.2-.1.2 0 .6-.1 1.1-.1 1.7-.1.9 0 1.8-.4 2.6v.2c0 .6-.1 1.3-.2 1.9-.1.4-.1.9-.1 1.3-.1.8-.1 1.6-.3 2.4-.1.6-.1 1.1-.1 1.7v.3c-.3.5-.4 1-.1 1.5-.2.6 0 1.2-.1 1.8v.4c0 .2.1.3.2.5.2.3.1.5-.3.5-.1 0-.1 0-.2 0-.5 0-.5 0-.4.4v.3c0-.1 0-.2.1-.2.1-.2.2-.2.4-.2.3 0 .2.2.3.3 0 0 .1.1 0 .1-.2.5 0 1-.1 1.5 0 .4-.1.9 0 1.3.2 1 .1 2 .1 3 0 .6-.1 1.3.2 1.9v.2c-.3.3-.1.7-.1 1.1s-.1.7-.1 1.1c0 .9-.1 1.8.1 2.7.1.6.1 1.2 0 1.8 0 .3.1.6 0 .8-.1.3-.1.6-.1.8v.3c0 .2-.1.5-.4.5s-.6.1-.8-.1c-.1-.1-.1-.2-.1-.2-.2-.3-.3-.2-.6 0s-.4.6-.5.9c-.1.2-.1.3-.3.2-.4 0-.7.1-1.1.4-.5.4-.6.9-.8 1.4-.1.1-.1.3-.1.4 0 .2-.2.4-.3.3s-.3-.3-.3-.4c0-.3.1-.6.1-.8 0-.1.1-.2 0-.3s-.3-.2-.4-.1c-.4.1-.8.1-1 .6-.1.1-.3.2-.5.1-.3-.2-.6-.2-.9 0-.3.1-.5.3-.8.3-.2 0-.4.2-.6 0-.1-.1-.2 0-.4 0-1 0-2.1 0-3.1 0-.9 0-1.7.1-2.5.2-.4.1-.9 0-1.4.1-.7.1-1.5.1-2.2.3-.3.1-.7.1-1 .1-.7 0-1.3 0-2 .1s-1.5 0-2.1.1-1.3.1-1.9.3c-.4.1-.9 0-1.3 0-.3 0-.5 0-.6.3 0 .1-.1.1-.2.1-.9.2-1.9.1-2.8.1-.5 0-1 .1-1.4.2-.1 0-.2.2-.3.3-.3.3-.6.4-1 .2-.1-.1-.3-.1-.4-.2-.6-.1-.6-.1-.7-.7 0-.1-.1-.1-.1-.2v.2c0 .3 0 .6.3.9s.1.7-.3.7c-.3 0-.3.2-.3.3-.2.3-.3.4-.6.2-.2-.1-.4-.1-.6 0s-.4.2-.6.3c-.7.3-1.6.3-2.3.6-.6.2-1.3.3-2 .5-.4.1-.8 0-1.2.1-.7.2-1.4.1-2.1.3-.1 0-.2 0-.2 0-.4-.3-1-.5-1.1-1.2 0-.4-.4-.5-.7-.3-.4.3-.9.3-1.4.2-.4-.1-.9-.1-1.4.1-.2.1-.5 0-.7 0-1.3 0-2.7 0-4 .1-.9.1-1.8 0-2.7.1-.8.1-1.5.1-2.3.3-.3.1-.7.1-1 .1-.8.1-1.5.2-2.3.3-.7.1-1.4.1-2 .2-.8.1-1.6.3-2.4.5-.5.1-1.1.3-1.6.4-.3.1-.5.2-.4.4.1.3-.2.3-.3.4-.4.1-.7.2-1.1.2s-.7.2-1.1.2c-.6.1-1.1.2-1.7.2-.5 0-1 .2-1.5.3-.2 0-.4.1-.6 0-.7-.2-1.4-.2-2.1-.2-.2 0-.2.1-.2.2s-.1.3-.2.4c-.2.2-.5.4-.5.7-.1.2-.2.3-.4.2-.5-.2-1 .1-1.5.2-.1 0-.1 0-.2.1-.9 0-1.7.1-2.6.1-1 0-2 0-2.9.1-.7.1-1.4.2-2.2.3h-.1c-.8 0-1.6 0-2.3.1-1.1.1-2.2 0-3.3.1-.6.1-1.1.1-1.7.1-.9.1-1.9.1-2.8.3-1 .2-2 .2-3 .4-.5.1-1 0-1.4.1-.7.1-1.4 0-2.1.1-.5.1-1.1 0-1.6.1-1 .1-2 .2-3 .3s-2 .2-3 .2c-.3 0-.5.1-.8.1-.2 0-.5 0-.7 0-.4 0-.9 0-1.3 0-1 0-2-.1-3-.1-.8 0-1.7 0-2.5.1-1 .1-1.9.1-2.9.3-.6.1-1.3.1-1.9.3-.3.1-.7.1-1 .1s-.7.1-1 .1c-.6.1-1.2.2-1.7.2-.7.1-1.5.3-2.2.3-.7.1-1.4.1-2 .1-.7.1-1.4 0-2.1-.2-.1 0-.4 0-.5.1-.5.4-1.1.5-1.6.7-.6.2-1.2.3-1.9.4-.3 0-.6 0-.8.1-.4.2-.7 0-.9-.2-.4-.4-.8-.8-1.2-1.2.7 1.5.4 1.4.1 1.4-.6 0-.8-.2-.9-.7-.1-.8-.4-1.5-.9-2.1-.1-.1-.2-.2-.2-.3 0-.6-.5-.9-.9-1.3-.7-.6-1.4-1.1-2-1.8-1-1.1-2.1-2-3.1-3.1 0 0 0-.1-.1-.1-.2-.3-.6-.4-.9-.3-.7.3-1.4.3-2.1.3-.3 0-.7 0-1 0-.4 0-.7-.1-1-.3-.1-.1-.1-.1-.2-.1-.5 0-1.1 0-1.6 0-.2 0-.3.1-.5.1-.4.1-.8.1-1.3.2-.1 0-.1 0-.2 0-.6 0-1.2.1-1.8.1-.2 0-.4 0-.6.1-1 .4-1.9.4-2.8-.1-.1-.1-.3-.1-.3-.2-.3-.3-.6-.4-1-.4-.5 0-1 .1-1.5-.1-.2-.1-.5-.1-.6.3 0 .3-.3.3-.5.4-.1 0-.4-.1-.4-.3-.1-.3-.3-.5-.3-.9 0-1.1 0-2.1-.1-3.2 0-.8-.2-1.6-.2-2.4-.1-.7-.2-1.4-.2-2.1-.2-.8-.2-1.6-.3-2.4-.1-.9-.1-1.9-.3-2.8-.2-1.3-.1-2.6-.1-3.9 0-1 0-2 0-3.1 0-1 0-1.9-.1-2.9-.2-1.4 0-2.8-.1-4.1 0-.9 0-1.7-.1-2.5-.1-.5 0-1-.1-1.5-.1-.8 0-1.7-.1-2.5s0-1.6-.1-2.4c0-.3-.1-.5 0-.7.1-.3 0-.5-.1-.8s0-.6 0-1c-.1-1-.1-2-.1-3 0-.4-.1-.7-.1-1.1s.1-.7-.1-1.1c0-.1 0-.2 0-.3 0-.3.1-.7.1-1s-.1-.7-.1-1c0-.4 0-.7 0-1.1.1-.4 0-.7 0-1.1s0-.8 0-1.2c-.5-3.3-.3-6.7-.4-10.2 0-.4 0-.9-.1-1.3-.1-.3.1-.6 0-.9-.1-.2.1-.3 0-.6-.1-.1 0-.4 0-.6s-.1-.5 0-.6c.2-.3-.1-.7 0-1 .2-.4.1-.7.1-1.1s.1-.7 0-1.1c-.2-1.2-.1-2.3-.1-3.5 0-.3.1-.6.1-.8 0-.3 0-.6 0-.9.1-1.1.1-2.1.1-3.2 0-.4.1-.7.2-1.1 0-.1.1-.3.1-.4-.1-.9.3-1.5.9-2.2.7-.9 1.4-1.8 2.1-2.7l.3-.3c.5-.4.8-1 1.4-1.3 0 0 .1-.1.1-.2 0-.6-.1-1.2-.1-1.7 0-.2.2-.5.4-.5.2.1.5.2.6.4.1.3.2.2.4.1 1.2-.5 2.3-.8 3.5-1.2.3-.1.6-.1.9-.1.9 0 1.8-.1 2.7-.1 1 0 1.9 0 2.8.5.4.2.9.2 1.3.1.2 0 .5-.1.5.3 0 .2-.1.5-.4.5s-.6 0-.9 0c-.6-.2-1.2-.3-1.9-.3-1.2 0-2.3.1-3.5.1-.4 0-.7.2-1.1.3-.8.1-1.6.6-2.5.7-.4.1-.8.2-1.2.3-.2 0-.2.1-.2.2 0 .4-.1.9-.1 1.3s.1.8.1 1.1v4.8c0 .4 0 .7-.1 1.1-.1.2 0 .6 0 .8-.1 1.1 0 2.1-.2 3.2-.1.8 0 1.6-.1 2.4-.1.9-.1 1.8-.3 2.7-.1.9 0 1.9-.1 2.8 0 .4.1.9 0 1.3 0 .4.2.8.3 1.2v.4c-.1.4-.1.8.1 1.2v.2c0 1 0 2.1.1 3.1.1.7 0 1.4.1 2.1.1.8.3 1.5.3 2.3.1.4 0 .9 0 1.3 0 .7.1 1.4.2 2.1.1.4 0 .9.1 1.3.2.9.3 1.8.4 2.6v.1c0 .7.1 1.5.1 2.2 0 .4.1.7.1 1.1 0 .3-.1.7.1 1 .1.1 0 .2 0 .4v2.2c0 2.1 0 4.3.1 6.4.1 1 0 2.1-.1 3.1-.1 1.1-.1 2.2-.3 3.2-.2 1.4-.2 2.7-.1 4.1 0 .6.2 1.2.1 1.8-.2 1.1-.1 2.3-.1 3.4 0 .2-.1.5.1.7.1.1-.1.3-.1.5.1 1.1-.1 2.3.1 3.4-.2.5.2.9-.1 1.4v.2c0 .2.1.4.1.7 0 .8.1 1.7.1 2.5 0 .7.1 1.4 0 2.1 0 .1 0 .2.1.3.1-.1.1-.1.2-.2.2-.1.3-.3.5-.3.6-.1 1 .2 1 .9v1.1c0 .1.1.1.1.2 0-.1.1-.1.1-.2 0-.6.1-1.2-.1-1.7 0-.1 0-.1 0-.2 0-1.1 0-2.2-.1-3.3-.1-1.4-.2-2.9-.3-4.3 0-.7 0-1.3-.1-2-.3-2.1 0-4.1-.1-6.2-.1-1.6 0-3.2-.1-4.8-.1-.8 0-1.5-.1-2.3-.3-2.4 0-4.9-.1-7.3 0-.6-.1-1.1-.1-1.7 0-.2.1-.4.1-.5 0-.2-.1-.4-.1-.7 0-.5 0-1 0-1.5 0-.7.1-1.3 0-1.9-.2-1.7 0-3.4-.1-5-.1-.7 0-1.4-.1-2.1-.1-.6 0-1.3-.1-1.9-.1-.7-.1-1.5-.1-2.2.2-.4.1-.7.1-1m163.2 18.6v.1s0-.1.1-.1v-.1c.1.1 0 .1-.1.1m.7 18.8h.1s-.1 0-.1-.1 0-.1 0-.2h-.1c0 .1.1.1.1.3m-162.1-30.5h.1s-.1 0-.1-.1c-.1 0-.1 0-.2 0v.1c.1-.1.2-.1.2 0m150.2-27.7c.1 0 .1-.1.2-.1v-.1c-.1 0-.2 0-.2.2 0-.1 0 0-.1 0s-.1 0-.2 0v.1c.1-.1.2-.1.3-.1m-28.4-3.7c-.1 0-.1.1-.2.1v.1c.1 0 .2-.1.2-.2 0 .1 0 0 .1 0v-.1s0 .1-.1.1m-97.1 83.5h.1s-.1 0-.1-.1 0-.2 0-.2c0-.1 0-.1-.1-.2 0 0-.1.1 0 .1.1.1.1.2.1.4m69.9-86.2s-.1-.1-.1-.1c-.1-.1-.1-.1-.2-.1 0 .1 0 .2.1.2.1.1.2.1.3.1.2.2.4.2.6.1 0 0 .1 0 .1-.1-.1 0-.1-.1-.2 0-.2.1-.4 0-.6-.1m7.2.7c-.2-.1-.3-.1-.5-.2-.1 0-.1 0-.2 0 0 .1 0 .1.1.2.2.3.4.2.7 0v-.1s-.1.1-.1.1m-69.7 75.3c-.4.2-.7.4-1.1.5-.7.4-.7.4-.7 1.1v1.9.4c-.2.3-.1.7-.1 1 0 .4-.1.7-.1 1.1 0 .6 0 1.1-.1 1.7s-.1 1.3-.1 1.9c0 1.2.1 2.5.1 3.7 0 .2.1.2.2.2.2 0 .5-.1.7-.1.7-.1 1.4-.1 2.1-.3.9-.2 1.9-.2 2.8-.3.5-.1 1.1-.1 1.6-.1.7-.1 1.5-.2 2.2-.2h.2c.8-.2 1.6-.1 2.3-.2.5-.1 1 0 1.5 0h1.4c.6 0 1.3 0 1.9-.1.6 0 1.1-.1 1.7 0h1.1c.7-.1 1.4 0 2.2-.1.6-.1 1.1 0 1.7-.1.7-.1 1.5-.1 2.2-.1h.2c.7-.1 1.3-.2 2-.2 1 0 1.9-.1 2.9-.2.7-.1 1.5-.1 2.2-.2.8-.1 1.6-.2 2.3-.2 1 0 2.1-.1 3.1-.2 1.1-.1 2.2 0 3.4-.1.8-.1 1.7-.1 2.5-.2 1-.1 2-.2 3-.2.2 0 .5-.1.7-.1s.2-.1.2-.2c-.1-.5-.1-.9-.1-1.4 0-.1.1-.3.1-.4-.1-.7-.2-1.5-.2-2.2-.1-1.3.3-2.5.3-3.7 0-.1 0-.1 0-.2.2-.8.1-1.5-.3-2.2-.2-.4-.6-.8-.9-1.1-.1-.1-.2-.1-.3-.2-.3-.2-.6 0-.9 0-1.6 0-3.3.1-4.9.1-.9 0-1.8 0-2.6.1-1 .1-2 .1-3 .1-1.9 0-3.8.1-5.7-.1-.4 0-.7-.1-1.1-.1-.7-.1-1.4-.3-2.1-.3-.5-.1-1 0-1.5 0s-.9-.1-1.4 0c-1 .1-2 .1-3.1.1-2.1.1-4.3.1-6.4.1-2.5 0-5 0-7.5.1h-.1c-.1.1-.3.2-.3.3 0 .4-.3.5-.5.6-1 .3-1.8.9-2.5 1.5-.3.2-.5.5-.8.7-.3-.5-.5-.5-.6-.5s-.1-.2-.2-.3c-.1-.3 0-.5.3-.7.1-.1.2-.3.3-.4v-.1s-.1 0-.2.1m122.5-35c-.6 0-1.2 0-1.8 0-.1 0-.3 0-.4 0-.7-.2-1.4-.2-2.2-.2-.6 0-1.2 0-1.8 0-.5 0-1 0-1.5.1-.6.2-1.3.1-1.9.3-.7.2-1.4.1-2.1.1-1.3 0-2.7 0-4 0-2.3 0-4.6.1-6.9.1-.1 0-.2 0-.2 0-.6.2-1.2.2-1.9.2s-1.4-.1-2.1 0c-.6.1-1.1.1-1.6 0-.4-.1-.8-.4-.8-1 0-.3.2-.5.6-.7.1-.1.3-.2.3-.3.1-.6.1-1.3.1-1.9.1-1.1-.1-2.2.1-3.3 0-.2 0-.3-.3-.3-.5.1-1.1.1-1.6.1-.1 0-.3.1-.3.2-.2.4-.3.4-.6.1 0 0-.1-.1-.1-.1-.2-.1-.5 0-.5.3v3.9c0 .1.1.3 0 .4-.1.2-.1.3.1.4.5.3.8.6.7 1.2 0 .1 0 .2-.2.2-.4 0-.8-.1-1.1.3 0 0-.2 0-.3 0-.2 0-.3-.1-.5-.1-.4 0-.7 0-1.1.1s-.9 0-1.4-.1c-.3 0-.4.1-.4.4 0 .1 0 .2-.2.3-.6.1-1.2.2-1.8.1-.4-.1-.8.1-1.2.1-1.3 0-2.6.1-3.9.1-.1 0-.3 0-.4 0-.3-.2-.7-.1-1-.1-.5.1-1 .2-1.5 0-.1 0-.2 0-.3 0-.2.2-.5.1-.7.1-1.2.1-2.5-.1-3.7.1-1 .2-2.1.2-3.1.3-.1 0-.2 0-.2 0-.7.3-1.4.2-2.1.3-.5.1-1 0-1.5.1-.9.1-1.8.3-2.8.2-.5-.1-1.1.1-1.6.1-.2 0-.2.1-.2.2-.1.4-.1.4-.5.4-.3 0-.4-.2-.5-.5-.1-.5-.1-.5-.5-.5-.8 0-1.6.1-2.4.1-1.3.1-2.7 0-4 .3-.5.1-.9.1-1.4.3s-1 .4-1.6.4c-.1 0-.1.1-.2.1-.1.1-.3.1-.4.1-3.6 0-7.3-.1-10.9.1-1.7.1-3.5-.1-5.2.1-1.2.1-2.3.1-3.5.1-3.4.1-6.8-.1-10.2.1-1.6.1-3.2-.1-4.8.1-.1 0-.2 0-.4 0s-.5-.1-.7-.1c-1.3 0-2.6 0-3.9 0-.3 0-.6-.2-.8-.1s-.5.1-.7.1c-.7 0-1.3 0-2-.1-1.5-.1-3 0-4.5-.1-.8-.1-1.7 0-2.5 0-.1 0-.3 0-.4 0-.7-.2-1.4-.1-2.1-.1-.1 0-.2.1-.3.2.3.4-.5.5-.3.9 0 0-.1.1-.1.1-.2-.1-.4-.1-.5-.2-.2-.2-.3-.5-.5-.8-.1-.1-.2-.2-.3-.2-.5-.1-1-.1-1.5-.1-.2 0-.5 0-.7-.1s-.4-.2-.3-.5c0-.2-.2-.5.1-.7.2-.1.6-.3.9-.2.4.1.9.1 1.3.1s.5 0 .5-.5c0-.8-.1-1.6-.1-2.3 0-1.3 0-2.6 0-3.9 0-.4-.1-.8-.1-1.2 0 0 0-.1-.1-.1-.3 0-.7-.2-1-.1-.4.2-.5-.1-.5-.2 0-.2-.3-.4 0-.7.5-.4 1.2-.6 1.8-.7.9-.2 1.9-.2 2.8-.4 1-.1 1.9-.3 2.9-.2.9.1 1.9 0 2.8.1h.2c.7.2 1.5.2 2.2.2 4 .1 8-.1 12 .1 3.3.2 6.6-.1 9.9.1.6 0 1.3 0 1.9.1.9.1 1.8.1 2.8.1 2.2 0 4.5.1 6.7-.1 2.3-.1 4.7 0 7.1-.1 1.5-.1 3.1 0 4.6 0 .2 0 .4 0 .5-.3.1-.2.3-.1.4 0 .3.4.7.3 1 .1.2-.1.2 0 .4 0 .3.1.5.4.5.7 0 .2 0 .3.3.3h3.2c.5 0 1-.1 1.4-.3.3-.2.6-.3 1-.2h.3c.7-.1 1.5-.3 2.2-.3 1.2-.1 2.4-.1 3.6-.1h.1c.7-.3 1.5 0 2.3-.2.7-.1 1.3 0 2-.1.9-.1 1.8-.1 2.7-.1h1.2c1.7-.1 3.4.1 5.1-.1.7-.1 1.4 0 2 .1 1.3.1 2.7 0 4 0 .3 0 .5 0 .8.1s.7.3 1 .3c.9.1 1.7.1 2.6.1.3 0 .6 0 .9.2.2.1.5.2.7.1.6-.2 1.3-.1 1.9-.2.4-.1.8-.1 1.2-.1.1 0 .2-.1.2-.2.2-.3.2-.3.5-.2.2.1.4.2.6.3 1.8.1 3.6.1 5.5.1 1 0 2-.1 2.9.1.9.1 1.9.1 2.8.1.5 0 1-.2 1.5 0 .2.1.4-.1.7-.1h2.1 2.2 2c1.5 0 2.9.1 4.4-.1.8-.1 1.6 0 2.5-.1s1.8 0 2.6.1c1 .1 2.1 0 3.1 0 .1 0 .2-.1.2-.1.1-.4.1-.8.1-1.2 0-.6 0-1.2.1-1.8.1-.8 0-1.6.1-2.4.1-.3-.1-.6.1-.8 0 0 0-.1 0-.2s0-.1 0-.2c0 .1-.1.1-.1.2-.1.1-.1.2-.2.3 0-.1-.1-.2-.1-.4 0-.4.1-.8.2-1.2.1-.6.3-1.3.4-1.9 0 0-.1-.1-.1-.1-.4-.1-.8-.1-1.2-.1-.2 0-.4.1-.5.1-.3-.2-.4 0-.4.2 0 .3-.2.4-.6.4-.2 0-.4 0-.6.1s-.5 0-.8 0-.5-.1-.8 0-.5.1-.8.1c-.4 0-.7-.1-1.1-.1-1.1 0-2.2-.1-3.3-.1-3.3-.1-6.5 0-9.8 0-.2 0-.5.1-.7-.1h-.2c-.2.2-.4.1-.6.1-.6 0-1.1 0-1.7-.1-.5-.1-1.1.1-1.7.1-.8 0-1.5 0-2.3.1-1.1.1-2.1 0-3.2-.2-.7-.1-1.4-.1-2.1-.1-.3 0-.6 0-.9 0-.2 0-.3 0-.4-.2-.2-.4-.2-.6.3-.8s.5-.2.3-.7c0-.1 0-.2 0-.3 0-.4.1-.8.1-1.1 0-.7.2-1.3.5-1.9.1-.3.1-.3-.2-.3-.7 0-1.5 0-2.2-.1-1.5-.1-2.9-.1-4.4-.1-.2 0-.4.1-.5 0-.3-.2-.5-.1-.8-.1s-.5.2-.5.5v.7c0 .3-.5.7-.8.6-.4-.2-.3.1-.3.2s0 .2.1.3c.1.6.3 1.2.4 1.8 0 .3.1.3.4.3 1 0 2-.1 3-.1.3 0 .6 0 .9.3 0 0 .1 0 .1.1 0-.1 0-.1 0-.2 0-.4-.1-.8 0-1.1.2-.8.2-1.7.3-2.5 0-.3.2-.4.5-.3.3.2.6.7.5 1-.2.8-.2 1.6-.2 2.3-.1.6-.1 1.1-.1 1.7 0 .4-.3.6-.5.5-.3-.1-.6-.2-.8-.4-.1-.2-.3-.3-.5-.3-1 0-2 .1-2.9.1-.5 0-.6.1-.7.5-.1.3-.4.4-.7.2-.1-.1-.1-.2-.2-.3s-.3-.3-.4-.4c-.4-.1-.9-.1-1.3-.1-1 0-1.9-.1-2.9-.2-.9-.1-1.8-.1-2.7-.1-.8 0-1.7 0-2.5.1s-1.7.1-2.5.1c-.4 0-.8-.1-1.2-.1-1.3 0-2.6 0-3.9 0-1.4 0-2.8 0-4.2-.3-.6-.1-1.2-.2-1.8-.1-1 .2-1.9 0-2.9.1-.1 0-.1 0-.2 0s-.2 0-.2 0c-.7 0-1.5.1-2.2.1-.5-.1-1-.2-1.6-.2-.3 0-.7.1-1 0s-.4 0-.5.2-.2.3 0 .6-.2.6-.6.5c-.4 0-.5-.3-.6-.5-.1-.6-.6-.6-1-.7-.5 0-.9 0-1.4 0-.2 0-.3.1-.4.2-.3.5-.5.5-.8 0-.1-.2-.3-.3-.5-.2-.6.1-1.1-.1-1.7 0-.4 0-.8-.1-1.2-.1-.9-.1-1.8 0-2.8-.1-.8-.1-1.7-.1-2.5-.3-.4-.8-.8-.8-1.2-.9-.6-.1-1.2-.2-1.8-.3s-1.2-.1-1.8-.1c-.1 0-.1 0-.2-.1-.6-.1-1.3-.2-1.9-.1-.4.1-.9.1-1.3.1-.2 0-.5-.1-.7-.1-.5 0-1 0-1.5 0s-.9-.1-1.4 0-1-.1-1.5-.1c-.6 0-1.3 0-1.9-.1-.8-.1-1.7-.1-2.6-.1-1.5 0-2.9-.1-4.4.1-1 .1-2 0-2.9.1-2.1.1-4.3-.1-6.4.1-.9.1-1.8 0-2.7 0-.1 0-.3 0-.4 0-.6-.2-1.3-.1-1.9-.1-.5 0-1 .2-1.5.2-.5.1-1 0-1.5.1-.4.1-.7.1-1.1.1-.8.1-1.7.3-2.5.2-.4 0-.9 0-1.3 0-.1 0-.2.1-.2.1.2.4-.3.3-.4.5-.2.2-.3.1-.4-.1s-.2-.4-.4-.6c-.1-.1-.4-.3-.5-.2-.2 0-.1.3-.2.5v.1c0 .2 0 .4-.3.4-.2 0-.4 0-.5-.2-.1-.4-.3-.7-.2-1.1.2-.9.2-1.8.3-2.7.1-.5 0-1 .1-1.5.1-.2 0-.5 0-.7-.1.2-.3.3-.4.5-.2.2-.4.4-.5.7s-.3.3-.5.3c-.1 0-.2.1-.4.2.3.3-.1.6 0 .9.1 1.1.1 2.2.1 3.3 0 .5 0 1 .5 1.3 0 0 .1.1.1.1v.3c-.3 0-.2.2-.2.3 0 .2.1.4.1.6v.3c0 2 .1 4 .1 6 0 .6 0 .6.7.7.4.1.6.3.8.6.1.3 0 .6-.2.8s-.5.5-.7.7c-.1.1-.2.2-.2.3 0 .6-.4.9-.7 1.4-.1.1-.1.2-.1.2.1.4-.1.7-.3 1-.1.1-.1.2-.1.4v5.5c0 .3.1.5.1.8 0 .5 0 .5.5.9.1.1.2.3.2.4.1.8.2 1.6.2 2.4 0 .5 0 1.1-.1 1.6-.1.8 0 1.6-.1 2.4-.1.5.1 1.1.1 1.7 0 .2 0 .1.2.1.9-.3 1.7-.6 2.6-.8.8-.2 1.7-.3 2.5-.4s1.6-.2 2.3-.2c.9-.1 1.8-.1 2.8-.1 1.7-.1 3.4.1 5.2-.1.9-.1 1.8-.2 2.6-.2 1.4-.1 2.8-.1 4.2-.1h1c1.1 0 2.1-.1 3.2.1h.3c.3-.2.6-.1.9-.1 1.3-.1 2.5.1 3.8-.1 1.1-.1 2.2-.2 3.3-.1 1 .1 2 0 3 .1h.9.3c.4-.2.8-.1 1.2-.1s.8-.1 1.2-.1c.6 0 1.1-.1 1.7-.1.8-.1 1.6-.3 2.5-.3 1-.1 2-.1 2.9-.1.4 0 .8 0 1.2-.1 1.3-.3 2.5-.6 3.9-.6.4 0 .8 0 1.2.3.1.1.5.2.5.1.3-.4.6-.3.9-.1.1.1.2 0 .4 0h1.7c.5 0 1 .1 1.3.6.1.2.3.3.6.2 1-.3 2-.3 3-.4.2 0 .3 0 .5-.1-.1-.1-.3-.1-.4-.2 0-.1-.2-.2-.1-.3s.1-.2.3-.1c.4.1.9.1 1.3.3s.8-.1 1.2.2c0 0 .2-.2.3-.3.1-.2 0-.4 0-.5 0-.4.3-.6.7-.5.2.1.4.3.5.5.1.1.1.3.2.4 0 0 .1.3.2 0s.4-.3.7-.3c.9-.2 1.9-.3 2.8-.4.8-.1 1.6-.2 2.4-.2.3 0 .7 0 1-.1.4-.1.8-.1 1.2-.1s.8-.1 1.2-.1c2.1-.1 4.1.1 6.2-.1.8-.1 1.6 0 2.3-.1.8-.1 1.6-.1 2.5-.1.4 0 .8 0 1.2-.1.5-.1 1-.2 1.5-.2h.6c.8-.2 1.5-.1 2.3-.1.2 0 .4.1.5-.2.1-.2.3-.3.5-.1s.4.4.6.7c.2.2.4.4.7.3h.2c2 0 3.9-.1 5.9-.1.5 0 .5 0 .6-.5 0-.2 0-.4.3-.4.4-.1.2.3.3.4.3.6.3.6.9.5.4-.1.7 0 1.1 0 .2 0 .5.1.7.1.7 0 1.4 0 2.1-.1 1-.1 2 0 2.9-.1 1.9-.1 3.8 0 5.7-.1.8-.1 1.6-.1 2.5-.1.4 0 .8-.1 1.2-.1.5-.1 1-.2 1.5-.2.5-.1 1 0 1.4-.1.3-.1.7 0 1-.1.7-.1 1.3-.2 2-.2 1.3 0 2.6 0 3.9-.1.4 0 1 .1 1.2-.5 0-.1.2-.1.2 0 .1.2.2.3.4.1.1-.1.3 0 .4 0 .9 0 1.9-.1 2.8-.1.3 0 .5 0 .8-.1.1-.1.3-.1.3-.4 0-1.5 0-2.9 0-4.4 0-.2-.1-.4.1-.5s.1-.2-.1-.2c-.6 0-1.1 0-1.7 0-.2 0-.4 0-.5 0 .1.1.2.3.3.4.2.3 0 .6-.3.6-.7 0-1.4.1-2 0-.9-.7-1.3-.6-1.9-.6m-42.9-25.4c.7 0 1.5.1 2.2.1h.1c.4.1.9.2 1.3.2.3 0 .5 0 .8.1.2.1.4.1.5-.2s.3-.4.6-.3c.5.1 1 .3 1.5.5.4.2.9.3 1.4.3.9.1 1.9 0 2.8.1.8.1 1.6 0 2.3.1s1.4 0 2.2.1c.9.1 1.8 0 2.7.1.8.1 1.6 0 2.5.1s1.9.1 2.9.1c1.9.1 3.8 0 5.6.2 1.1.1 2.2.1 3.2.1h1.2c.4 0 .8.1 1.1.1.8 0 1.6 0 2.3.1.9.1 1.8.1 2.7.1h.1c.3.2.7.1 1.1.1s.7.1 1.1.1c.7 0 1.4.1 2.2.1h.2c.7.1 1.4.1 2.1.2.2 0 .2-.1.2-.2-.2-.3 0-.4.2-.4s.4-.1.5 0c.6.2 1.2.1 1.7.1.1 0 .2-.1.3-.1.2 0 .1-.2.1-.3-.1 0-.2 0-.2 0-.4.2-.4.2-.6-.2s0-1.1.5-1.3c.3-.2.5-.4.6-.7 0-.2 0-.3 0-.5 0-.3-.1-.7 0-1 0-.1.2-.2.3-.2s.3.1.4.1.1.1.2.2c0-.1.1-.2.1-.3 0-.3.1-.5-.1-.8v-.2c.2-.3.1-.7 0-1 0-.1 0-.1-.1-.2 0 .1-.1.1-.1.2.1.3-.2.3-.3.4-.1 0-.4 0-.5-.1s-.1-.3.1-.5.3-.4.5-.6.2-.4.1-.7c-.1-.6-.6-1-.9-1.5-.1-.1-.3-.2-.4.1-.1.4-.3.7-.5 1 0 0-.1.1-.1.1s-.1-.1-.1-.1c0-.4 0-.7.1-1.1 0-.2.1-.2-.1-.2s-.3-.1-.4-.1c-.6 0-1.1 0-1.7-.1-1-.2-1.9-.3-2.9-.3-.1 0-.1 0-.2 0-.5-.1-1-.2-1.6-.2-.7-.1-1.3 0-2-.1-.8-.1-1.7-.1-2.5-.1-.6 0-1.2 0-1.8-.1-.4-.1-.7-.1-1.1-.1-.8-.1-1.5-.2-2.3-.4-.5-.1-1.1-.1-1.6-.3-.9-.2-1.8-.3-2.7-.4-.5-.1-1.1-.1-1.7-.1-.1 0-.2 0-.2 0-.4-.1-.7-.1-1.1-.2s-.9-.1-1.4-.1c-.3 0-.6-.1-.9-.1-.6-.1-1.2-.2-1.8-.3s-1.2-.1-1.8-.1c-.1 0-.1 0-.2 0-.5-.2-.9-.2-1.4-.2-.2 0-.3 0-.5 0-.8-.2-1.6-.2-2.4-.3-.4-.1-.9-.1-1.3-.1-.3 0-.6-.1-.9-.1-.8-.2-1.6-.3-2.5-.4-.4 0-.9 0-1.3-.1-.6-.2-1.2-.1-1.9-.2s-1.4-.1-2.1-.1h-.1c-.5-.2-1.1-.2-1.6-.2-.6 0-1.2 0-1.8-.1-.4-.1-.7 0-1.1-.1-.6-.1-1.2-.2-1.8-.2-.4 0-.9.1-1.3 0-.6-.1-1.2-.1-1.8-.2s-1.2 0-1.7-.1c-.8-.2-1.6 0-2.4-.2-.6-.1-1.3-.1-2-.1h-.1c-.3-.1-.5-.2-.8-.2s-.5-.2-.8 0c-.2.1-.5-.1-.8-.1-.5 0-1 0-1.4-.1-.8-.2-1.6-.2-2.4-.3-1-.1-1.9-.2-2.9-.2-1.4-.1-2.7-.1-4.1-.1-.1 0-.3 0-.4 0-.7-.2-1.3-.2-2-.2-.1 0-.2 0-.3 0-.6-.2-1.2-.2-1.9-.2-.1 0-.2 0-.4 0-.8-.1-1.5-.3-2.3-.3s-1.6-.2-2.3-.2c-.9-.1-1.7-.3-2.6-.4-.8-.1-1.6-.2-2.4-.2-.9 0-1.7-.1-2.5-.2-.7-.1-1.4-.2-2-.2-.7-.1-1.4-.1-2.1-.1-.4 0-.7 0-1.1 0s-.7-.1-1.1 0-.8-.1-1.2-.1c-1 0-2.1-.1-3.1-.2-.3 0-.7-.1-1-.1s-.7.1-1 0-.7.1-1 0c-.7-.2-1.5.1-2.2-.2-1.9 0-3.8 0-5.7-.2-1.3-.1-2.6-.1-3.9-.1-.8 0-1.7 0-2.5 0-.5 0-1 0-1.5-.1s-1.1-.2-1.6-.2c-1-.1-2.1 0-3.1 0-.1 0-.2 0-.4 0-.3 0-.6.2-.8.1-.8-.2-1.6-.1-2.4-.1-.1 0-.3 0-.4 0-.5-.1-1-.2-1.5-.2-.7-.1-1.3-.1-2-.3-.7-.1-1.4-.4-2.1-.4-.9-.1-1.9 0-2.8 0-.3 0-.2.2-.2.3s.1.1.1.2c.2.2.2.3.1.6-.3.4-.5.9-.5 1.4.1.8 0 1.7.1 2.6.1 1 0 2 .1 3 .1.5.1.9.1 1.4.2.9.2 1.7.2 2.6v.4c0 .1 0 .2.1.3.2.2.5.4.8.6h.3c.4-.1.7-.1 1.1.1.2.1.4.2.6.2 1.8.1 3.6.1 5.4.1h.3c.8.1 1.7.2 2.5.2h.1c.8.2 1.7.2 2.5.2 1 0 1.9 0 2.9.1l2.7.3c.3 0 .7.1 1 .1.6.1 1.3.3 1.9.3.8.1 1.6.1 2.3.1h.2c.8.1 1.6.3 2.5.3 1.1.1 2.1.1 3.1.2.7.1 1.3 0 2 .1 1.2.1 2.4 0 3.6.1 1 .1 2 .1 3 .2.9.1 1.7.2 2.6.4.8.1 1.6.2 2.3.2.6 0 1.3 0 1.9.1 1.3.1 2.7-.1 4 .1.8.1 1.7 0 2.5.1.8.2 1.6.2 2.4.2.9 0 1.8.1 2.7.2.7.1 1.5.1 2.2.1 1.3 0 2.6.2 3.8.4.9.1 1.8.2 2.6.2h.3c.5.2 1.1.1 1.6.2.8.1 1.5.1 2.3.1.4 0 .8 0 1.2.1.5.2 1.1.1 1.6.2s1 0 1.5.1c.7.1 1.5.1 2.2.1.9 0 1.8.1 2.8.1h.1c.9.2 1.8.2 2.7.2h4.5c.9-.7 1-.7 1.4-.6m-21.1 54.9c.2.2.3.5.7.5 1.2 0 2.5.1 3.7.1.6 0 1.2.1 1.9-.1.2-.1.5.1.8.1.2 0 .3.1.5.1 1.2.1 2.4-.3 3.6-.2.3 0 .7-.1 1-.1.7-.1 1.4-.2 2.2-.3.4-.1.9 0 1.3-.1.7-.1 1.3-.2 2-.2h.2c.9-.3 1.9-.3 2.9-.5.8-.1 1.7 0 2.5-.2.5-.1 1.1 0 1.5-.3h.2c.1 0 .3.1.4 0 .5-.2 1.1-.2 1.6-.2.4 0 .9.1 1.3.1.6 0 1.2.2 1.7.5.3.2.6.4.6.8 0 .1-.1.3-.1.3-.1.1-.3 0-.4 0-.1-.1-.2-.2-.4-.2-.1 0-.3 0-.3 0-.1.4-.4.2-.6.2-.1 0-.3 0-.4 0-.2 0-.3.1-.2.3.1.5.3 1.1.5 1.6v.3c-.3.2-.3.5-.3.7s.1.5 0 .7c-.2.5-.2 1-.2 1.5-.1 1 0 2 0 3 0 .4-.2.9.2 1.2.1 0 0 .2 0 .3-.2.2-.1.3.2.2.2 0 .3 0 .5-.1s.5 0 .4-.4c0-.1.2-.2.3-.3h.5c.9-.3 1.9-.3 2.8-.3.3 0 .3-.1.3-.3.1-2.2-.1-4.3.1-6.5.1-.6 0-1.3 0-1.9s.2-1.3 0-1.9c0-.1.1-.3.2-.4.1 0 .3 0 .4.1.3.4.7.3 1 .3s.6 0 .9-.1c.8-.3 1.7-.2 2.5-.3.7-.1 1.4-.1 2.1-.1.6 0 1.2 0 1.8-.1.8-.1 1.6-.2 2.5-.2.6 0 1.3 0 1.9-.1.8-.1 1.6-.2 2.4-.3.7-.1 1.3-.1 2-.2s1.5-.2 2.2-.3 1.5-.1 2.2-.3c.9-.5 1.9-.5 2.9-.7.6-.1 1.2-.2 1.8-.2.9-.1 1.9-.3 2.8-.5.5-.1 1 0 1.4-.4.1-.1.2 0 .3 0 .7 0 1.4-.1 2.1-.1.4 0 .8-.1 1.2-.2.1 0 .2-.1.2-.1.1-.4.1-.8.1-1.3s0-1 .1-1.5c.1-.3 0-.7.1-1 .2-.6.2-1.3.3-1.9.1-.5.2-1.1.3-1.6 0-.1.2-.2 0-.3-.1-.1-.3-.1-.4-.1-.4.2-.8.1-1.2.1s-.7.1-1.1.1c0 0-.1 0-.1.1-.1.2-.1.3-.1.5 0 .8 0 1.6-.1 2.4-.1.3-.1.6-.1.8 0 .1-.2.2-.3.2-.4.1-.6 0-.6-.4 0-1 .1-2.1.1-3.1 0-.3-.1-.4-.4-.4-.1 0-.2 0-.2 0-.3.2-.6 0-.9.1s-.6 0-.9 0c-.2 0-.4-.1-.4-.3 0-.3.2-.3.4-.4.4-.1.9-.1 1.4-.1.3 0 .6-.1.9-.1.1 0 .2-.2.3-.3.1-.5.1-1 .1-1.5 0-.4 0-.9.1-1.3.2-.6.2-1.3.3-1.9.1-.4 0-.8.1-1.1.1-.5.2-1 .2-1.6 0-.1 0-.2 0-.3.2-.3 0-.4-.2-.6-.1-.1-.3-.2-.5-.3v-.1c.1 0 .1-.1.2-.1s.1-.1.2-.1c-.1 0-.2-.1-.2-.1-.6.3-1.2.1-1.9.2-1.2.2-2.5 0-3.7.1-1 .1-2 .1-3 .2-.8.2-1.6.2-2.4.2-.6 0-1.1 0-1.7.1-1.1.1-2.1 0-3.2.1-1.4.1-2.9 0-4.4.1-2.4.1-4.9.1-7.3.1-.4 0-.9 0-1.3 0-.5 0-.5 0-.5.5 0 1.6 0 3.1-.2 4.7-.1.8-.1 1.5-.1 2.3 0 .5-.1 1-.2 1.5 0 .2.1.4.3.3.8-.3 1.6-.4 2.5-.5.8-.1 1.6-.3 2.4-.5.1 0 .3 0 .3.1.2.2.4.2.6.2.7 0 1.5-.1 2.2-.1h2.3.4c.3-.2.7-.1 1-.1.4 0 .7-.1 1.1-.1.7 0 1.3 0 2-.1 1-.1 2.1-.2 3.1-.2 1.7-.1 3.3-.1 5-.1h.9c.4 0 .8-.1 1.2.1.1 0 .3 0 .4-.1.2-.3.4-.1.5.1.1.1.2.3.2.5.1.6 0 .7-.7.7-.2 0-.5-.1-.7-.1-1.8.1-3.6-.1-5.5.1-.8.1-1.7 0-2.5.1s-1.6.1-2.4.1h-.1c-.8.2-1.7.2-2.5.3-1.3.1-2.7.1-4 .1-.2 0-.4 0-.7 0-.1 0-.3.1-.4.1-.6.1-1.3.2-1.9.3-.1 0-.3 0-.4 0-.9.2-1.8.4-2.6.6-1.3.3-2.5.6-3.8.9-.2.1-.5.1-.7.1-.7 0-.9.2-.9.8 0 .3-.2.4-.5.4-.2-.1-.4-.2-.5-.3-.1-.3-.3-.3-.5-.3-.6 0-1.2.1-1.8.1h-.1c-.7.2-1.3.2-1.9-.3-.1-.1-.2-.1-.3-.1-.4.1-.9.2-1.3.4-.2.1-.5.2-.7 0-.3-.2-.6-.2-1-.2-.6.1-1.3.1-1.9.1-.4 0-.9 0-1.3.1-.3.1-.6.1-.9.1s-.7.1-1 .1c-1.7.1-3.4-.1-5 .1-.7.1-1.5 0-2.3.1-1.4.1-2.8.1-4.2.1-.7 0-1.3 0-2 0-.1 0-.3 0-.4 0-.4.2-.8.1-1.2.1s-.8.1-1.2.1c-.8 0-1.5-.1-2.3-.2-.8 0-1.7-.1-2.5 0-.6.1-1.1 0-1.7.2s-1.3.1-2 .1c-.2 0-.4 0-.2.3.1.2 0 .3-.2.4-.3.1-.6.3-.9.2-.2 0-.4 0-.5 0-.6.2-1.2.2-1.8.2-.4 0-.9 0-1.3.1-1 .2-1.9.2-2.9.4-.8.2-1.6.2-2.5.3-1 .1-1.9.1-2.9.1-.1 0-.2 0-.2 0-.7.2-1.5.1-2.2.2-.5.1-1.1.1-1.7.1-.7.1-1.4.2-2 .2-.8.1-1.7-.1-2.5.1-.6.1-1.1 0-1.7.1-.7.1-1.5 0-2.3.1-1.1.1-2.3 0-3.4.1-2.5.2-5-.1-7.5.1-.9.1-1.9 0-2.8-.1-.7-.1-1.4-.2-2.2-.3-1-.1-1.9-.2-2.9-.2-.8 0-1.5 0-2.3 0-2.3 0-4.6-.1-6.9-.1-.3 0-.6-.1-.9-.1-.2 0-.5.1-.7.1-.3 0-.5 0-.4.4 0 .1-.1.1-.1.2-.3-.2-.8.1-.9-.4 0 0-.1-.1-.1-.1v.1c0 .5-.1 1.1-.1 1.6v1.5c0 .2-.1.4-.3.5-.1 0-.3-.2-.4-.3s-.1-.2-.1-.4-.1-.4-.1-.5c0-.2 0-.4.1-.6.1-.5.3-1 .3-1.5 0-.3-.1-.4-.5-.3-.5.1-1 .1-1.6.1-.4 0-.4-.1-.4.3s.1.7.1 1.1v2.6c0 .6.1 1.2 0 1.9-.1.5 0 1.1 0 1.7 0 .3.1.3.4.3h1.4 1.3c.7 0 1.4.1 2.1.1.3 0 .3.3.4.4-.1.1-.1.2-.2.2s-.3-.1-.3.2c0 .1.2.1.4.1.1 0 .2-.1.3-.1.9-.1 1.9-.3 2.8-.5 1-.2 1.9-.3 2.9-.4.9 0 1.7 0 2.6.1.3 0 .6.2.9.2.5.1 1.1.2 1.6.1.8-.1 1.6-.2 2.3-.2h.2c.4-.2.8-.1 1.2-.1s.8-.1 1.2-.1h2.3 4 .4c.8-.1 1.7-.2 2.5-.3s1.5-.2 2.3-.2c.8-.1 1.5-.1 2.3-.1.6 0 1.2 0 1.8.1.7.1 1.4 0 2.1.1.3.1.7-.1 1-.1.7 0 1.4-.1 2-.1 1.1 0 2.1-.1 3.2.1.7.1 1.5.1 2.3.1h2.4c.3 0 .5 0 .8.1.1.1.4.1.4-.2.1-.2.2-.3.5-.4s.6-.2.9-.2.7 0 1-.1c.2-.1.5 0 .6-.3 0-.2.3-.2.4-.1.3.3.8.2 1.1.2.6-.1 1.2-.2 1.7-.2h1.2c.2 0 .2 0 .3-.2.1-.3.2-.3.4-.1.4.2.7.5.7.9 0 .1 0 .2.3.2.5-.1 1.1-.1 1.6-.2h1.9c.3 0 .5 0 .6-.4s.5-.6.8-.6c.1.3.3.4.6.4m-49-16.6c-1.4 0-2.9.1-4.3.1-1 0-2.1 0-3.1.1-1.4.1-2.8.1-4.2.1-.6 0-.6 0-.6.5v.3c-.2.7-.3 1.4-.2 2.1v.4c-.2.8-.2 1.5-.2 2.3v.2c-.3.8-.1 1.6-.1 2.4 0 .1.1.2.1.2.5.1 1 .1 1.5.1 2.8.1 5.5-.1 8.3.1.9.1 1.8-.1 2.6.1.5.1 1 0 1.5.1.7.1 1.4.2 2.1.2h.4c.3 0 .6.2.9.1.8-.2 1.6-.1 2.4-.2 2.5-.2 5 .1 7.5-.1 1-.1 2 .1 3-.1.7-.1 1.4 0 2.2-.1.7-.1 1.3-.1 2-.1 1.1-.1 2.3-.1 3.4-.2.7-.1 1.4-.1 2.2-.2.7-.1 1.4-.1 2.1-.1.9 0 1.8-.1 2.7-.1h.1c.7-.2 1.5-.2 2.2-.2.5 0 1 0 1.5-.1s1.1-.1 1.6-.2c.4-.1.6-.1.6-.5 0-.8 0-1.5.1-2.3.1-.9 0-1.8 0-2.7 0-.5 0-1-.6-1.3-.2-.1-.3-.4-.5-.5-.2-.2-.4-.4-.6-.5s-.4 0-.7 0c-.6 0-1.3.1-1.9.1-.4 0-.9 0-1.2.1-.9.3-1.8.2-2.7.3-1 .1-2.1.1-3.1-.1-1-.1-2-.1-3-.1-.4 0-.9 0-1.3 0s-.8 0-1.2 0c-3.3-.1-6.5.1-9.8-.1-.6-.1-1.3 0-1.9-.1-.8-.1-1.7-.1-2.6-.1-2.1 0-4.2 0-6.2 0-.5 0-.7 0-1 .1m32.9-18.6c-.8 0-1.6.1-2.4.2-.9.1-1.8.1-2.6.1-2.2 0-4.4.1-6.6-.1-.5-.1-1.1 0-1.7 0-.5 0-1-.1-1.6 0-.4 0-.9-.1-1.3-.1-.3 0-.7 0-1 0s-.7 0-1 0-.6 0-.9 0c-.6 0-1.1-.1-1.7-.1-1.2 0-2.4 0-3.5 0-.3 0-.6 0-.9-.1s-.6-.2-.9 0c-.3.1-.5.2-.8.2-.9.3-1.9.2-2.8.3-.8.1-1.6 0-2.4.1-1 .1-1.9 0-2.9.1-1.2.1-2.3.1-3.5.1-.2 0-.3 0-.5 0s-.4.1-.6.1-.4-.1-.5-.1c-.7.3-1.5 0-2.2.2-.4.1-.8.2-1.2.2s-.8.2-1 .5c-.1.1-.2.1-.3.1-.2 0-.5.1-.7.1-.5.1-.6.3-.6.8v4.1c0 .5 0 .5.5.5 1.3.1 2.5-.1 3.8.1 1.1.1 2.1.1 3.2.1 2.6.1 5.3 0 7.9.1 2.1.1 4.2.2 6.2-.1.9-.1 1.7 0 2.6-.1 1.1-.1 2.1 0 3.2 0 .3 0 .7.1 1 0 .2-.1.5.1.8.1.7 0 1.4 0 2-.1 1.3-.1 2.5 0 3.8-.1 1.5-.1 2.9 0 4.4-.1 1.9-.2 3.8-.1 5.7-.1h5.4c.3 0 .6 0 .8-.1 0-.2-.1-.4-.1-.7 0-.2-.1-.4-.1-.5 0-.3-.1-.7-.1-1 0-.4.2-.8.2-1.1 0-.7 0-1.4-.1-2 0-.2-.1-.5-.4-.6-.2-.1-.3-.3-.4-.5-.2-.2-.5-.5-.7-.7-.1-.1-.2 0-.3 0 0 .1 0 .2.1.2.1.3.2.5.4.8s.4.6.9.5c.2 0 .4.3.4.5s-.3.4-.5.4-.5-.1-.7-.2c-.8-.4-1.2-1.1-1.6-1.9-.1-.2-.3-.4-.6-.4-.6.2-1 .3-1.6.3m-20.2-21.8c-1 0-2-.1-2.9-.1-1 0-2.1.1-3.1-.1-.9-.1-1.8-.1-2.6-.1-3.1-.1-6.2 0-9.4 0-.6 0-1.2.1-1.8 0-.9-.1-1.7 0-2.6 0-.1 0-.1.1-.2.1 0 0 .1.1.1.1 0 .1.1.1.1.2 0 0-.1.1-.1.1-.1 0-.2 0-.3 0-.4-.1-.7-.2-1.1-.1-.5.1-1.1 0-1.7 0h-.1c-.2-.3-.5-.6-.7-1 0-.1.1-.3.2-.3.5-.1.9-.2 1.4-.1.4.1.8.1 1.2.1 1.3 0 2.6.1 3.9.1h.2c.2 0 .5.1.7.1.3 0 .5-.1.8-.1.3.1.6 0 .8 0h4.1c1.4 0 2.8-.1 4.2.1 1.4.1 2.7.1 4.1.1h.4c.5.3 1.1 0 1.7.1 0 0 .1-.1.1-.1s-.1-.1-.1-.1c-.4 0-.8-.1-1.2-.1-1 0-2-.2-3-.2-.8-.1-1.7-.1-2.5-.3-.4-.1-.9-.1-1.3-.1-.7-.1-1.5-.3-2.2-.3-1.3-.1-2.6 0-3.9-.1-.6-.1-1.1 0-1.7-.1-.9-.2-1.8-.2-2.6-.3-1.3-.1-2.7-.1-4-.1-.4 0-.8 0-1.2 0-.1 0-.2 0-.4 0-.1 0-.1.1-.1.2 0 .5 0 .5-.5.5-.1 0-.2 0-.2 0-.1 0-.2 0-.3 0 0 .1.1.2.1.3s.1.2.1.4c0 .5-.1 1-.1 1.4v.1s.1-.1.1-.1c0-.4.1-.8.1-1.2 0-.2.1-.3.2-.2.3.2.7.3.8.6.2.4.5.8.4 1.5-.2 1-.1 2.1-.2 3.1v2.2c0 .2-.1.4-.1.6 0 .1.1.3.2.3.1.1.2 0 .4 0 1 0 2-.1 3-.2.8-.1 1.6-.1 2.3-.3.8-.1 1.6-.2 2.3-.2 1.6 0 3.2.1 4.8-.1.6-.1 1.3-.1 2-.1 2-.1 4 .1 6-.1.8-.1 1.6-.1 2.5-.1 1.1 0 2.3-.1 3.4.1.7.1 1.3 0 2 .1 1.1.1 2.2.1 3.2.1h3.8c.3 0 .6.2.9.1.4-.1.7 0 1.1 0 .7.1 1.5.1 2.3.1.4 0 .9.1 1.3.1.6.1 1.3.3 1.9.3.8.1 1.6.1 2.3.3 1.2.2 2.4 0 3.5.2.7.1 1.5 0 2.3 0 .3 0 .5-.1.8 0s.4 0 .3-.2c-.2-.4-.2-.8-.2-1.3 0-.2 0-.5 0-.7s-.1-.4-.3-.5c-.4-.1-.7-.4-1-.7s-.5-.5-.8-.8c-.1-.1-.2-.2-.3-.2-.3 0-.4-.3-.6-.5-.1-.1-.3-.3-.4-.3-.8-.1-1.6-.2-2.4-.2-.6 0-1.1-.1-1.7-.1-.4 0-.7-.1-1.1-.1-.6-.1-1.2-.2-1.8-.3-.3-.1-.7-.1-1-.1-.6-.1-1.2-.3-1.8-.3-.8-.1-1.6 0-2.4-.1s-1.7-.1-2.5-.1c-.1 0-.1 0-.2 0-.2 0-.5-.1-.7-.1s-.5-.1-.7-.1c-.9 0-1.7-.1-2.5-.2-.7-.1-1.4-.1-2.1-.1-.6-.5-1.1-.4-1.7-.4m-57.6 33c.1-.4.1-.8.1-1.2 0-.2-.2-.5-.1-.7.1-.4-.2-.9.1-1.3v-.1c0-.2-.1-.5-.1-.7-.1-1.4.1-2.8-.1-4.1-.1-1-.1-2-.1-3 0-.4 0-.9-.1-1.3-.2-.8-.2-1.6-.3-2.4-.1-.5-.1-1-.1-1.5-.1-1.2-.1-2.3-.3-3.5-.1-.7 0-1.4-.1-2.1-.1-1.2-.1-2.3-.2-3.5 0-.4-.1-.8-.1-1.3-.1-.7-.2-1.6-.3-2.4-.1-.6 0-1.3 0-1.9 0-.7.1-1.3 0-2-.1-.6.3-1.2.1-1.8.3-.6.1-1.2.2-1.8.2-.9 0-1.9.1-2.8.1-1.4-.1-2.8.2-4.2 0-.3 0-.6 0-.9s0-.6 0-1c0-.6-.1-1.3-.1-1.9 0-.1 0-.1 0-.2-.1 0-.2 0-.2.1-.6.4-1 .8-1.5 1.3-.1 0-.1.1-.1.2-.2.2-.4.5-.6.7-.1.1-.3 0-.3.1 0 .5-.5.8-.9 1.1-.2.2-.2.3-.1.5.4.6.2 1.2.2 1.8 0 .5-.2 1.1-.2 1.7s.1 1.1 0 1.7c-.1.5.2 1-.1 1.5 0 1.5-.1 2.9.1 4.4 0 .2-.1.5-.1.8 0 .4.1.7.1 1.1 0 .2-.1.5-.1.7 0 .3-.1.6 0 .9s-.2.6 0 .8c.3.3-.1.5 0 .8.1.2.1.5.1.8 0 .6 0 1.1-.1 1.7v.2c0 .2.1.4.1.6v4.5c0 1.3.1 2.5.1 3.8v.2c.2.5.1.9 0 1.4-.1.3-.1.6 0 1s.2.8.1 1.1c-.3.6.2 1.3-.1 1.9.2.4 0 .8.1 1.2.1.6 0 1.5.1 2.4v.3c.3.6.2 1.2.2 1.8.1 1.2-.1 2.4.1 3.6.1.7 0 1.5.1 2.2.1.6 0 1.2.1 1.8s0 1.3.1 1.9c.1.3 0 .7 0 1v.9c0 .3.1.6 0 .9-.1.4 0 .8.1 1.2 0 .9 0 1.8.1 2.7.1 1.1.1 2.2.1 3.3 0 .9 0 1.7-.1 2.6-.1 1 .1 2.1.2 3.1 0 .4 0 .8.1 1.3.2.9.2 1.7.3 2.6 0 .6 0 1.2.1 1.7.1.4.1.8.1 1.3.1.9.3 1.8.4 2.7.1.8.1 1.6.1 2.4 0 .2.1.3.3.4.4.1.8.1 1.2.1.5 0 .5 0 .5-.5 0-1 0-2.1-.1-3.1-.1-.6 0-1.2-.1-1.8.1-1 .1-1.8.1-2.6.1-3.6-.1-7.1.1-10.7.1-.9 0-1.9-.1-2.8-.1-1.1 0-2.1.1-3.2.1-.7.2-1.4.2-2.1 0-.1 0-.2 0-.4.1-.5.2-1 .2-1.5s0-1 0-1.5.1-1 0-1.4c.1-.5.1-1 .1-1.6m95.3 7c-.1.3-.2 1.2-.1 1.4.2.8.3 1.6.5 2.5.1.4.2.9.2 1.3.1.4-.2.7-.8.7h-.1c0 .2-.1.4-.1.5s.2.2.3.2c.7.1 1.4.1 2 .1.3 0 .7-.1 1-.1 1.6-.1 3.2.1 4.8-.1.7-.1 1.5 0 2.2-.1.8-.1 1.6-.1 2.5-.1 1.7-.1 3.5 0 5.2-.1.9-.1 1.9-.1 2.8-.2s1.8-.2 2.7-.4c.6-.1 1.2-.2 1.9-.4.7-.1.7-.1.5-.7-.1-.2-.1-.5 0-.7 0-.1.3-.1.4-.2s.2-.2.2-.3c.1-.6.1-1.2.1-1.8 0-.7.1-1.5-.1-2.2-.1-.4.1-.8-.1-1.2s-.6-.6-.9-.9c-.1-.1-.2-.2-.3-.3-.3-.4-.7-.7-1.2-.7s-1-.2-1.5-.1c-.7.1-1.3.1-2 .2-.5.1-.9.2-1.4.2-.7.1-1.4.2-2 .3-.3 0-.6 0-.9 0-.3.1-.6-.1-.8 0-.3.2-.6.1-.9.1s-.7.1-1 .1c-.7 0-1.4.1-2.1.1h-.1c-.5.2-1.1.1-1.6.2-.6.1-1.2 0-1.7.2-.4.1-.8 0-1.2.1-.9.3-1.8.2-2.7.5-.8.2-1.5.3-2.3.5-.6.2-.7.1-.9-.4 0 0-.1-.1-.1-.1s-.1.1-.1.1c0 .3-.1.5-.1.8-.1.2-.1.5-.2 1m3.6 27.8c.5 0 1.1-.1 1.6-.1h.1c.8-.3 1.6-.3 2.4-.3 1.2-.1 2.3-.1 3.5-.1h.1c.8-.3 1.7-.2 2.6-.3s1.8-.2 2.8-.3c.9-.1 1.8-.1 2.8-.1h.4c.8-.2 1.5-.2 2.3-.2h1.8c.3 0 .3-.2.2-.3-.2-.2-.1-.4-.1-.6 0-.1.1-.2.1-.3.1 0 .2.1.3.1.4.2.5.6.8.9 0 0 0 .1.1.2 0 0 .1-.1.1-.1 0-.4.1-.8.1-1.3 0-.8 0-1.6 0-2.4 0-.1 0-.3 0-.4.2-.7.2-1.4-.2-2-.4-.7-.9-1.4-1.3-2.1-.1-.2-.1-.4-.3-.5-.2-.2-.4 0-.6.1-.1 0-.2 0-.2 0-.6-.1-1.1.2-1.7 0-.2-.1-.5.1-.8.1-.5 0-1 0-1.5.1-.9.1-1.7.3-2.6.4-.4 0-.8.1-1.2.1-.4.1-.8.2-1.3.2-.4.1-.8 0-1.2.1-1.3.4-2.6.4-3.8.6-.7.1-1.4 0-2.2.1-.9.1-1.9.1-2.8.3-.9.1-1.9.2-2.8.3-.3 0-.6.1-.8.2-.2.2 0 .4 0 .6v.1c0 .5 0 .9.1 1.4.1.7.1 1.4.1 2.1 0 .6.1 1.1.1 1.7v.1c.2.6.2 1.2.2 1.8.1.6.1.7.8.7.2 0 .2-.1.3-.2s.1-.3.4-.3c.5-.2.8-.3 1.3-.4m55-13.9c-.2 0-.5 0-.7.1-.9.3-2 .2-2.9.5-.3.1-.6.1-.9.1-.7.1-1.3.3-2 .3-.7.1-1.4.1-2 .2s-1.3.2-1.9.3c-.7.1-1.4.2-2 .2-1 .1-2 .2-3 .2-.6 0-1.2.1-1.8.1 0 0-.1 0-.1.1 0 0 .1.1.1.1h.2c.5 0 1 .2 1.5.2.1 0 .2.1.2.1-.1 0-.1.1-.2.1-.2.1-.4.1-.6.1s-.5-.1-.7-.1c-.4 0-.8 0-1.2-.1-.5-.2-1-.2-1.6-.2-.8-.1-1.6 0-2.4.1-.5.1-.5 0-.5.6s.1 1.1.1 1.7c0 .7-.1 1.4-.1 2.1s-.1 1.4-.1 2.1v.1c-.3.5 0 1.1-.2 1.7 0 0 .1.1.1.2.1 0 .1-.1.2-.1.1-.1.3-.2.4-.2.4-.1.8-.1 1.2-.1.4-.1.9-.2 1.3-.4s.7-.3 1.1-.3c.8-.2 1.6-.2 2.4-.4.9-.2 1.8-.3 2.8-.3 1.2 0 2.4-.1 3.6-.1h.2c.2 0 .5-.1.7-.1s.5-.1.7-.1c.5 0 .9-.1 1.4-.1.4 0 .7-.1 1.1-.2.7-.1 1.3-.2 2-.3.6-.1 1.1 0 1.7-.1.8-.1 1.6-.2 2.3-.2.8 0 1.7.1 2.5.1.3 0 .4 0 .3-.3-.1-.2.1-.6.2-.8.1-.1.2-.3.2-.5.1-.5.2-1 .4-1.4.2-.3 0-.5-.2-.6s-.2-.2-.2-.4c0-.9 0-1.7 0-2.6 0-.2 0-.3-.1-.5-.4-.3-.8-.6-1.2-.9-.2-.1-.3-.2-.5-.2-.8.1-1.2.1-1.8.2m-23-32c0 1.3 0 2.6-.1 3.9 0 .1 0 .2-.1.3-.2.2 0 .3.2.2.8 0 1.6 0 2.3-.1 1.1-.1 2.2-.1 3.2-.1h1.8c1.1 0 2.3 0 3.4-.1.4 0 .7.1 1.1.1.6 0 1.1-.1 1.7-.1 1-.1 1.9.1 2.9-.1.6-.1 1.3 0 1.9-.1 1-.1 2 0 3.1-.1.3 0 .5.1.8.1 1.7 0 3.4.1 5.1.1.6 0 1.2-.1 1.8.1.1.1.2 0 .2-.2 0-.1 0-.2 0-.3 0-.3.2-.3.3-.2.9.4 1.8.1 2.7.2.3 0 .4-.1.4-.3s0-.4 0-.5c0-.6-.1-1.3-.1-1.9 0-.2.2-.4.1-.6-.1-.3-.1-.5 0-.8.1-.1 0-.3-.1-.4 0-.1-.2-.1-.3-.1-.7 0-1.4-.1-2-.1-1.5-.1-2.9 0-4.4 0-.1 0-.3 0-.4 0-.5.2-1.1.2-1.6.2-1.3 0-2.7.1-4-.1-.4 0-.9.1-1.3.1-1.1 0-2.1 0-3.2-.1-.3 0-.7.1-1 .1s-.7 0-1 0c-1.2 0-2.4.1-3.6-.1-.9-.1-1.8 0-2.6-.1-.4-.1-.8 0-1.2 0-.8 0-1.6.1-2.4-.1-.2 0-.3 0-.5.1-.1 0-.3.1-.4 0-.6-.2-1.2-.1-1.8-.1-.2 0-.5-.1-.6 0s0 .4-.1.6c-.1.1-.1.3-.2.6m-12.6 5.4c.5 0 1.1-.1 1.6-.1.1 0 .4 0 .2-.3-.1-.1-.1-.4 0-.5.2-.6.1-1.2.1-1.7 0-.1 0-.2 0-.2.3-.3-.1-.7.1-1 0-.1-.1-.2-.2-.3-.4-.5-.7-1.1-.9-1.7s-.2-.7-.9-.7c-.4 0-.8.1-1.2 0-.6-.1-1.2-.2-1.9-.2-2.4 0-4.8-.2-7.2.1-.8.1-1.6 0-2.4.1-1.2.1-2.5.1-3.7.1-.7 0-1.4.1-2.1.1 0 0 0 0-.1 0-.9.3-1.8.2-2.7.3-.4.1-.8.1-1.2.2-.3.1-.3.2-.3.3 0 .5.1 1 .2 1.5.2.6.1 1.2.2 1.9.1.9.1 1.8.1 2.7 0 .3.1.2.3.2.5-.1.9-.1 1.4-.3.4-.2.7 0 .9.2s.4.2.6.2c.8-.1 1.5-.2 2.3-.2.9 0 1.8-.1 2.8-.2.9-.1 1.7-.2 2.6-.2.9-.1 1.7-.1 2.6-.1 2.8-.2 5.7 0 8.8-.2m38.4-22c-1 0-2-.1-3-.2-.5-.1-1.1 0-1.6-.1-.7-.1-1.5-.1-2.2-.1-1.7 0-3.4 0-5.2-.2-1-.1-2.1-.2-3.1-.2-1.9-.1-3.9 0-5.8-.1-.4 0-.9.1-1.3 0-.7-.2-1.4-.1-2.1-.1-.1 0-.1 0-.2 0 0 0 .1.1.1.1.2.3.5.6.5 1 0 .1 0 .2-.1.3-.1-.1-.1-.1-.2-.2s-.1-.1-.2-.1c-.1.1-.1.1-.2.2-.1.2-.1.4-.1.7-.1.5-.2 1.1-.2 1.6v.2c.1.1.1.3.4.2.2-.1.5-.1.8-.1.2 0 .3.1.1.3-.1.1-.2.3.1.3.6 0 1.2.1 1.8.1 1.2 0 2.4 0 3.6-.1.3 0 .7 0 1.1-.1.2-.1.5 0 .7.1h.6c.2 0 .5-.1.7-.1.8 0 1.6.1 2.5.1.8 0 1.6-.1 2.3-.1 1.7 0 3.4.1 5.1.1h5.4c.2 0 .3.1.5.1.5.1 1.1.2 1.5-.3.1-.1.2-.1.4-.1.1 0 .3-.1.5-.1.6-.1 1.1-.2 1.7-.3.4-.1.8-.2 1.1-.2.5 0 .9-.5 1.4 0 .2.2.4-.1.3-.4 0-.1-.1-.2 0-.3.4-.2.2-.6.2-.9.1-.3-.2-.5-.4-.5-.4 0-.9-.4-1.3 0 0 .3-.3.3-.5.3-.5 0-.9-.1-1.4-.1-.1 0-.2 0-.2 0-.6-.2-1.3-.2-1.9-.2s-1.3-.1-1.9-.1c-.1-.3-.2-.4-.3-.4m-146.8 55c0-1.3-.1-2.6-.1-3.8 0-.6 0-1.1-.1-1.7s0-1.3-.1-1.9c-.1-.7 0-1.4-.1-2.1s-.1-1.3-.1-2c-.1-1.2 0-2.4-.1-3.7-.1-.8.1-1.6-.1-2.4-.1-.3-.1-.3-.4-.3-.6 0-1.1.1-1.7.1-.8 0-1.5 0-2.3 0-.6 0-.6 0-.6.6v.1c.1 1.2-.1 2.4.1 3.6.1.4-.1.8-.1 1.2 0 1.8.1 3.6.1 5.4 0 .3 0 .3.3.1.8-.3 1.7-.6 2.7-.6.4 0 .8 0 1.1.1s.6.2.8.4c.1 0 .3.3-.1.4-.2 0-.4.1-.6.1-.7 0-1.3-.1-2 .1-.3.1-.5.2-.8.2-.3.1-.6.1-.9.1s-.4.2-.4.4c.1.8 0 1.5.1 2.3.1 1 .2 2 .3 3 .1.9.1 1.8.1 2.7 0 .3.1.2.2.1.6-.4 1.2-.5 1.9-.5s1.5.2 2.2-.2c.1 0 .3 0 .3.1.1.1.1.3.1.3-.2.4-.4.6-.8.7-.5.1-1 .2-1.5.2-.7.1-1.4.2-2.1.2-.3 0-.3.2-.3.4.1.3.1.6.1.9 0 .2 0 .5.1.7.2.3.5 0 .7 0h.1c.6 0 1.1-.1 1.7-.1h.2c.6-.2 1.8-.1 2.5 0h.2c0-.1-.1-.1-.1-.2-.1-.1-.2-.2-.2-.3-.1-.9-.2-1.7-.2-2.6-.1-.4-.1-1.2-.1-2.1m108.9-56.5c-.1-.1-.3-.3-.4-.3-.5-.1-1.1-.2-1.6-.2-.7-.1-1.4-.1-2-.1-1.8 0-3.6-.2-5.5.1-.8.1-1.6.1-2.5.1-.4 0-.8-.2-1.2 0 0 0-.1 0-.2 0-.3-.2-.6-.2-.9-.1-.7.2-1.5 0-2.2.2-.5.1-1 0-1.5-.1-.7-.1-1.5 0-2.2-.1-.8-.1-1.5 0-2.3 0-.2 0-.5.1-.7.1-.1 0-.2.1-.1.3.2.6 0 1.1-.3 1.6s-.3 1.1.1 1.5c.2.2.2.4 0 .5-.1 0-.1.1-.1.2.1 0 .2.1.3.1.6-.3 1.1-.2 1.7-.2 1.2 0 2.3 0 3.4.2.8.1 1.7.1 2.6.1.5 0 1-.1 1.5-.1 1.1 0 2.1 0 3.2.1.8.1 1.7 0 2.5 0 1.1 0 2.3-.2 3.4-.1 1 .1 2 .1 2.9.1.8 0 1.6.1 2.3.1h.1c.6.2 1.3.1 1.9.1.1 0 .2 0 .2-.1 0-.2.1-.4.1-.5-.1-.7-.3-1.3-.4-2-.1-.4-.4-.6-.7-.6-.4 0-.6-.2-.9-.5-.2 0-.3-.1-.5-.4m-93.9-17.1c-.7.8-1.3 1.6-1.9 2.5-.5.7-1 1.3-1.5 2s-1 1.4-1.5 2c-.7.9-1.3 1.8-1.9 2.8-.3.4-.5.8-.7 1.3-.2.4-.5.7-.7 1-.3.5-.5 1-.8 1.5-.1.1-.1.2-.2.3-.7.6-1.1 1.3-1.5 2-.2.2-.2.4-.2.7v1.2 1.2c0 .4-.1.8 0 1.2s-.1.8 0 1.1c0 .2.1.4.1.6s-.2.5-.1.7c.1.3.1.6.1.9 0 .1 0 .1.1.2 0 0 .1-.1.1-.1 0-.3.3-.5.4-.7.5-.7 1-1.4 1.5-2.1s1.1-1.4 1.7-2c.8-1 1.7-2 2.5-2.9.5-.6 1-1.1 1.5-1.7.7-.8 1.3-1.6 1.9-2.4.5-.6 1-1.3 1.5-1.9 0 0 0-.1 0-.2 0-.5.1-1 .1-1.5 0-.8.1-1.6-.1-2.4-.1-.6-.1-1.2-.1-1.8 0-.1 0-.1 0-.2-.2-.6-.3-1.2-.2-1.9 0-.4 0-.8 0-1.2.2-.1.3-.3-.1-.2m.6 24.8c-1.2 1.2-2.5 2.3-3.7 3.5-.3.3-.6.6-1 .8-.9.7-1.8 1.5-2.7 2.2-.4.3-.9.7-1.3 1s-.8.6-.8 1.1c-.2 1-.3 1.9-.5 2.9-.1.7-.2 1.5-.3 2.2 0 .3-.1.6-.2.9-.2.7-.4 1.4-.3 2.2 0 .2 0 .4.1.6.2-.1.4-.1.6-.2s.4-.3.5-.5c.2-.2.3-.4.5-.6.9-.9 1.7-1.8 2.8-2.5.6-.4 1.1-.9 1.6-1.3.3-.2.5-.5.8-.7.6-.4 1.2-.9 1.7-1.3.3-.2.6-.4.9-.7.6-.5 1.2-1 1.7-1.5.1-.1.1-.2.1-.3 0-.5-.1-.9-.1-1.4-.1-1.1-.1-2.3-.1-3.4 0-1 .1-2 .1-3 0-.1 0-.2-.1-.3 0 .2-.1.2-.3.3m.3 25.7c0-.6 0-1.2 0-1.8 0-1.2.1-2.4.1-3.7 0-.3-.1-.4-.4-.3h-.1c-.7.3-1.5.5-2.2.8-1.7.8-3.3 1.7-4.7 2.9-.1.1-.3.3-.5.1-.1.2-.2.4-.4.5-.5.5-1.1.9-1.7 1.4-.1.1-.2.3-.3.4-.2-.2-.3-.3-.5-.5-.1-.1-.2-.2-.3-.3h-.2c-.1.2-.3.4-.2.7.1.1.1.3.1.5s-.1.5-.1.7v1.9 2c0 .3.2.5.4.4.8-.3 1.7-.6 2.5-.9.7-.3 1.5-.5 2.2-.8 1-.3 2-.6 3-.8.9-.2 1.8-.5 2.6-.7.1 0 .3-.1.3-.2.1-.2.2-.5.1-.7-.1-.3.1-.5 0-.7.3-.1.3-.4.3-.9m59 1.7c.1.4.1.8.1 1.3s.1 1.1.1 1.6c0 .3.1.6.1 1v.1s-.1-.1-.1-.1c0-.1-.1-.2-.1-.3-.1-.8-.2-1.6-.3-2.4 0-.1-.1-.2-.1-.4-.1.1-.3.2-.3.3v.4c0 .1.1.2.1.3 0 1.2 0 2.4.1 3.6.1.9-.1 1.9-.1 2.8v.7c.2 0 .4-.1.7-.1h.3c.4 0 .8-.1 1.2-.1.7-.2 1.4-.3 2.2-.3h.7c.7-.2 1.5-.1 2.2-.2.4-.1.7-.1 1.1-.1.3 0 .3-.1.3-.4 0-.9.1-1.7.2-2.6s.1-1.9.1-2.8c0-.2.1-.4.1-.6 0-.1 0-.2 0-.3-.2-.3-.1-.6-.1-1 0-.3-.1-.5 0-.8 0-.1 0-.2 0-.2-.2-.4-.1-.8.1-1.2s0-.6-.5-.6c-.2 0-.3.1-.5.1-.6 0-1.2 0-1.8.1-.5.2-1.1.2-1.6.2-.1 0-.1 0-.2 0-.4.2-.8.2-1.2.2-.1 0-.3.1-.4.1-.2.1-.1.2-.1.3.2.9.3 1.8.4 2.7s-.1 1.9.1 2.8c0 .2-.1.5-.1.7.1.7-.1 1.3-.3 1.9-.1.4-.2.9-.5 1.2 0 0-.2.1-.2.1-.2-.1-.5-.2-.4-.5.1-.6.1-1.2.1-1.7 0-.8.2-1.6.1-2.5-.2-.9 0-1.8-.1-2.7-.1-.6-.1-1.3-.1-1.9 0-.2-.1-.3-.3-.3-.4 0-.7 0-1.1 0-.1 0-.1.1-.2.2-.2.6 0 1 .3 1.4m-58.5 17c.1-.5.3-1 0-1.5-.1-.1 0-.3 0-.4 0-.8.1-1.6.1-2.4 0 0-.2-.1-.2-.1-.7.3-1.4.5-2.1.7s-1.4.5-2.1.6c-.6.1-1.1.2-1.7.3-.4.1-.7.2-1.1.2 0 0-.1.2-.1.2.2.2.4.4.6.6v.2c-.1 0-.2 0-.2 0-.2-.1-.3-.3-.5-.5-.3-.3-.6-.4-1-.5-.6 0-1.2.3-1.8-.1h-.1c-.3.1-.6.3-.9.4-.2.1-.3.1-.2.3v1.2c0 1 .1 2.1.1 3.1 0 .1.1.3.2.4.5.1.9.4 1.4.5.9.2 1.8.3 2.8.4 1.1 0 2.1 0 3.2-.1 1-.1 2-.1 3-.3.4-.1.6-.2.6-.6 0-.7 0-1.6 0-2.6m61.7 9.2c.2-.4.3-.7.3-1.1 0-.1.1-.2.2-.3.1.1.1.2.2.3v.2c0 .7-.2 1.3-.5 1.9-.1.2-.2.4-.4.6-.1.2-.2.3-.2.5v2.8c0 .3.1.3.3.3 1.2-.1 2.4.1 3.6-.1.5-.1 1-.1 1.5-.1.1 0 .3-.2.3-.2-.1-.4 0-.8.1-1.2 0-.6.1-1.3.6-1.8.2-.3.3-.6.3-.9-.1-.7.1-1.4-.1-2 .2-.2-.1-.4 0-.6s0-.4 0-.6 0-.5 0-.7 0-.5 0-.7 0-.3 0-.5v-.1s-.1 0-.1.1-.1.1-.1.2-.1.1-.1.2c0-.1-.1-.1-.1-.2 0-.2 0-.3 0-.5 0 0-.1-.1-.1-.1-.3 0-.6-.1-.9 0-.4.1-.7.2-1.1.1-.2 0-.4-.1-.5 0-.8.3-1.7.4-2.6.6-.1 0-.2.1-.3.2-.1.3-.1.6-.1 1s.1.9 0 1.3c-.2.6 0 1.3-.2 1.9 0 0 0 .1.1.2l.2-.2c-.4-.3-.4-.4-.3-.5m-79.2-29.2c0-.2-.1-.4-.1-.5 0-.7 0-1.4-.1-2.1-.1-1-.1-2.1-.1-3.1 0-.4-.2-.5-.5-.5-.6-.1-1.2-.1-1.8 0-.3.1-.6 0-.9.1-.3 0-.6.1-.9.1-.1 0-.2-.1-.3-.1s-.2 0-.3.1v.2c.3 0 .2.2.2.3 0 1.7.1 3.3.1 5v2.2.3c-.2.3 0 .6 0 .9v1.5 1s.1.1.1.1c.1.1.2.1.4 0 .5 0 1 .1 1.5.1.9.1 1.9-.1 2.8.2.1 0 .3 0 .2-.2 0-.3-.1-.5-.1-.8 0-1.1 0-2.3-.1-3.4-.1-.4-.1-.8-.1-1.4m-.3-11.8c0-.4 0-.8 0-1.2s-.1-.8-.1-1.1c.1-.4 0-.7-.1-1.1 0-.8 0-1.7 0-2.5 0-.1.1-.3.1-.3.1-.1.1-.2-.1-.2-.4 0-.8.1-1.2.1-1.1-.1-2.2.2-3.3.3-.3 0-.3.2-.3.5v.5c0 1.3.1 2.5.1 3.8v.7c0 .2.1.5.1.7v.7.9c0 .9.1 1.7.1 2.5 0 .3.1.4.4.3.2 0 .5-.1.7-.1 1.1 0 2.2-.2 3.3.3.1 0 .2.1.2-.1 0-.4 0-.7 0-1.1 0-.3.1-.7.1-1s.1-.7 0-1c-.1-.5 0-1 0-1.6m17.8 36.8c-.1 0-.2-.1-.3-.1-.4 0-.8.1-1.2.1-.5 0-1.1.1-1.6.1-.5.1-.6.2-.5.7.1.4.2.8.2 1.2v1.8c0 .6.2 1.1 0 1.7-.1.4 0 .9 0 1.4 0 .3.1.6.3.9.2.2.2.4 0 .5-.1.1-.2.2-.1.2.1.7.1 1.4.2 2 .1.9.1 1.9.1 2.8 0 .2.1.4.2.6.5.8 1.2 1.5 1.9 2.1.2.2.5.3.8.2.1 0 .2-.1.3-.2 0-.1 0-.2 0-.3s0-.2 0-.3c0-.9-.1-1.9-.1-2.8v-.1c-.3-.7 0-1.4-.2-2.1 0-2.4 0-4.8 0-7.2 0-.2.1-.3.1-.5 0-.4.2-.9-.4-1.2-.3-.1-.2-.7.2-.8.3-.1.3-.2.3-.4-.2.2-.2 0-.2-.3m-23.1-60.2v3.2c0 .2 0 .5.1.7 0 .2-.1.4 0 .7-.3.3.1.6 0 .8s-.1.4-.1.6c0 1-.1.9.9.9 1.2 0 2.5-.1 3.7-.1.2 0 .3-.1.3-.3 0-2 0-4 .1-6.1 0-.4-.1-.9-.1-1.3 0-.8 0-1.7 0-2.5 0-.3-.1-.3-.3-.2-.3.1-.7.2-1 .2-1.1.2-2.2.7-3.4.5 0 0-.2.1-.2.2-.1.5.1 1-.1 1.4.2.4.1.8.1 1.3m90.7 27.4c0-.1-.1-.3-.1-.4 0-.5 0-1 .1-1.5.1-1-.1-2.1-.1-3.1 0-.6-.2-1.1 0-1.7.1-.4 0-.5-.5-.5s-1.1.1-1.6.1c-1.1 0-2.1.1-3.2.1-.5 0-.6.2-.6.6s.1.8 0 1.2c-.1.5-.2 1-.2 1.6v.4c-.3.8-.2 1.6-.3 2.4-.1.5 0 .9 0 1.4 0 .3-.1.5.4.3.3-.1.6-.1 1-.1 1.2 0 2.3 0 3.5-.1.6-.1 1.2 0 1.6-.5-.1-.1-.1-.1 0-.2m-85.8-17.6c0-.3 0-.6 0-1 0-.3-.1-.7.1-1 0 0-.1-.1-.2-.1-.5.2-1.1.3-1.7.4-.8.1-1.6.1-2.4-.1-.6-.2-.7-.1-.7.5 0 .3.2.6.1.9s-.1.6-.1.8c0 .6 0 1.2.1 1.8.1.5-.1 1-.1 1.5.1.7.1 1.4.1 2.1 0 .3.1.3.3.3.9 0 1.8-.1 2.8-.1h1.6c.2 0 .2 0 .2-.2 0-1.1 0-2.2 0-3.3 0-.2-.1-.3 0-.5 0-.6.1-1.2-.1-2m81.6-9.3c-1.1-.1-2.1-.2-3.2-.3 0 0-.1.1-.1.1 0 .1.1.1.1.1.2.1.5.1.7.3.3.3.8.4.9.9s0 1 0 1.5c-.1.9 0 1.8.1 2.7 0 .2.1.4.2.6.1.3.3.4.7.4.5 0 1 0 1.5.1.6.1 1.2.2 1.8.2h.4c.5.3 1.1-.1 1.6 0 0 0 .1-.1.1-.2-.1-.3-.3-.6-.5-.8-.2-.3-.3-.5-.3-.8 0-.5 0-1-.1-1.5-.2-.8-.1-1.5.3-2.2.3-.5.2-.5-.3-.5-.4 0-.8 0-1.2-.1s-.7 0-1.1-.1c-.5-.3-1-.4-1.6-.4m-4.2 59.1h.2c1.2.1 1-.2 1-1.1 0 0 0 0 0-.1 0-.2-.1-.2-.2-.2-.7 0-1.4-.1-2.1.1-.1 0-.2.1-.3.1.1 0 .2.1.2.1.3.1.5.3.7.6.2.5.1.6-.4.6-.1 0-.3 0-.4 0-.3-.2-.6-.1-.9.1-.1 0-.2.7-.1.9 0 .3.1.6 0 .8-.1.3 0 .5.1.7 0 .2.2.3.2.5s.1.5 0 .7c0 .1-.3.1-.4.2-.1 0-.1.1-.1.2-.1.3-.1.6-.1.9 0 .7-.1 1.3-.2 2v.4c-.3.5 0 1.1-.1 1.6v.1s.1 0 .1-.1c0 0 .1-.1.1-.1 0-.1.1-.2.1-.3.1.1.2.1.3.2s.1.3.2.4c.1.4.2.8.2 1.1 0 .2.1.4.4.3.6-.2 1.2-.1 1.7-.5.2-.2.3-.2.3-.5 0-1.3 0-2.6 0-3.8 0-.3.1-.6 0-.8s-.2-.4-.4-.6c-.2-.3-.4-.6-.6-.9 0-.1 0-.2 0-.2.1-.1.1-.1.2 0 .2.3.5.5.7.8 0 0 0 .1.1.2 0 0 .1-.1.1-.1 0-.3 0-.6 0-.8.1-.6.2-1.2.2-1.9 0-.5-.1-.6-.6-.4-.2.1-.3 0-.5-.1 0-.4.2-.7.3-1.1m-56.1 13.2c0 .4.1.8.1 1.3 0 .3.1.3.4.3.5 0 .6 0 .7.5 0 .1.1.3.1.4.1.1.2.2.3.2.2 0 .4-.1.6-.1s.3 0 .2-.3c-.2-.4-.4-.9-.3-1.4.1-.3.1-.7.1-1 0-.5.1-1-.1-1.4-.1-.2.1-.5.1-.8 0-.4-.1-.8-.1-1.3 0-.3.1-.5 0-.8s.2-.5 0-.8c-.1-.2 0-.6 0-.9 0-.6 0-1.2 0-1.8 0-.4.1-.9 0-1.3 0 0 .1-.1.1-.1s.1 0 .1.1c0 .2 0 .3.1.5 0 .1.1.2.1.2 0-.1 0-.1 0-.2 0-1 0-2.1 0-3.1 0-.4 0-.4-.5-.4-.6 0-1.1.1-1.7.1-.1 0-.1 0-.2.1s-.1.1-.1.3.1.4.1.7c0 1.6-.1 3.2-.1 4.8v.1c-.2.7-.2 1.5-.2 2.3.2 1.1.2 2.4.2 3.8m47.4-34.8s-.1.1-.1.1c-.7.1-1.3.2-2 .2-.7.1-1.4.1-2.1.1-.1 0-.2 0-.4 0-.3 0-.5.1-.7.1-.3-.1-.6-.1-.9-.1-.4.1-.7-.2-.8-.5 0-.1-.1-.2-.2-.3 0-.2-.2-.3-.4-.3-.3 0-.6.1-.9.1s-.7 0-1 0c-.4 0-.7 0-1.1 0-.3 0-.6 0-.9 0-1.7.1-3.3-.1-5 .1-.7.1-1.5.1-2.2.1-1.9.1-3.8 0-5.8.1-.4 0-.8-.1-1.2-.1-2 0-4-.1-6 .2-1 .2-2.1.1-3.2.1-1.2.1-2.4 0-3.7.1s-2.6.1-3.9.1c-.2 0-.4.1-.6.1-.1 0-.2.1-.2.1h.2c1.4 0 2.8-.1 4.2-.1 1.9-.1 3.8 0 5.8-.1 3-.1 6-.2 9 .1.6.1 1.2 0 1.8.1.4.1.8 0 1.2 0s.8.1 1.2.1h1.1c2.1-.1 4.2.1 6.2-.1 1.2-.1 2.4-.1 3.6.1.6.1 1.2 0 1.8.1.8.1 1.7.1 2.5.1 1 .1 2 .1 3.1-.1.7-.1 1.4-.1 2.2-.2l2.7-.3c.1 0 .3.1.3-.2 0-.2 0-.4-.3-.4-.4 0-.8-.1-1.2 0-.5.5-1.3.6-2.1.6m47.5-3.6c-.3 0-.7 0-1 0-.5 0-.5 0-.5.5 0 .1.1.2.1.3 0 .3.1.7 0 1-.1.4-.2.8-.2 1.3v4.8c0 .5 0 .9.7.9.1 0 .1.1.2.1.3.2.6.4 1 .6.2.1.5.1.8.1 0 0 .1-.4.1-.6s-.1-.3-.1-.5c-.1-.4-.1-.8-.1-1.2 0-.2 0-.3.3-.3.3.1.2-.1.2-.3 0-.6 0-1.1.1-1.7.1-.8.1-1.7.1-2.5 0-.2.1-.4.1-.6.1-.6 0-1.1.1-1.7 0-.1 0-.2 0-.2s-.1-.1-.2-.1c-.7 0-1.1 0-1.7.1m-93.9 7.3c0-.1.1-.2.1-.3.1-.4-.6-.1-.5-.5 0 0-.1 0-.2 0-.3.4-.9.4-1.3.4-.5 0-1 .1-1.5-.1-.2-.1-.3 0-.3.2.1 1.1.1 2.2.1 3.3 0 .1.1.2.1.3.1.4 0 .7-.3.9-.1 0-.2.1-.2.2v2.4c0 .1 0 .1.1.2.3.2.7.2 1-.1.3-.2.3-.2.6.1.1.2.3.2.5.2.3 0 .7-.1 1-.1.4 0 .5-.1.5-.5 0-.5-.1-1.1 0-1.6.1-.9.2-1.8.2-2.7 0-.4 0-.8 0-1.1-.1-.4 0-.7.1-1.2m98.5 1.9c0-.3 0-.7.1-1 .1-.6.2-1.1.2-1.7.1-.7.1-1.5.1-2.3v-.1c.2-.8.2-1.7.2-2.5 0-.3 0-.6 0-.9 0-.2.1-.4.1-.7 0-.2-.1-.3-.3-.3-.4 0-.9 0-1.3 0-.5 0-.5.1-.5.6 0 .2-.1.3-.1.5-.1.5-.2 1-.3 1.5-.1.9-.1 1.9-.1 2.8v.1c-.2.7-.3 1.4-.2 2.1v.2c-.3.6 0 1.2-.2 1.8-.1.3.1.4.4.3.6 0 1.2-.2 1.9-.4m-123.2-48.1c.7 0 1.4-.1 2.1-.1.2 0 .3 0 .3-.3-.1-1.4-.1-2.8-.1-4.2v-.1c0-.2-.2-.3-.3-.2-.5.1-1 .1-1.4.2-.9.2-1.8.4-2.7.5-.2 0-.4.1-.4.3v2.7c0 .2.2.4.1.6-.1.3 0 .5 0 .7 0 .4.2.3.4.3.6-.2 1.1-.3 1.7-.2 0-.1.1-.2.3-.2m14.4 53.3c0 .6-.1 1.2-.1 1.8 0 .2.1.1.2.1.7-.2 1.5-.3 2.2-.5.4-.1.5-.2.5-.6 0-.3 0-.5 0-.8-.1-1 .1-1.9-.1-2.9.3-.7 0-1.4.1-2.1 0-.3 0-.3-.3-.2-.3.2-.7.3-1 .4-.1 0-.2-.1-.3-.1 0-.1.1-.2.1-.3.1-.1.2-.1.3-.2.3-.2.8-.3 1-.6s.1-.8.1-1.2c0-.3-.1-.3-.3-.2-.6.2-1.3.4-1.9.6-.3.1-.4.2-.4.4 0 .5-.1 1 .1 1.6.1.1.1.3 0 .5-.2.4-.1.8-.1 1.2v.6c0 .8-.1 1.6-.1 2.5m23.3-28.2c1.2-.1 2.4.1 3.6-.1.7-.1 1.3 0 2-.1 1.4-.1 2.7 0 4.1-.1.9-.1 1.9 0 2.8 0 1.3 0 2.6-.1 3.9-.1.1 0 .2 0 .3-.1 0 0 .1-.1.1-.1h-.1c-.5-.1-1 .1-1.5 0-.1 0-.2 0-.2 0-.2 0-.4.1-.6.1-2.6 0-5.1-.1-7.7-.1-2.4 0-4.7 0-7.1 0-.4 0-.8-.3-1.3 0-.8-.2-1.7-.1-2.6-.2-.7-.1-1.3 0-2 0-.1 0-.3 0-.4 0-.8-.2-1.7-.1-2.5-.1s-1.6.3-2.4.3c-.2 0-.3.1-.3.3v1.4c0 .3.1.3.3.3.4 0 .8.1 1.2.1.1 0 .3.1.4.2-.1-.1-.2-.2-.3-.4-.1-.1-.1-.3-.1-.5 0-.1.2-.1.3-.1h.5c.6-.2 1.2-.4 2-.2.3.1.7 0 1 0s.6-.1.9-.1h.2c.3.2.7.2 1 .1.6-.1 1.2-.1 1.8-.1h2c.3-.2.4-.3.7-.4m119.1 11.5c0 .1-.1.1-.1.2-.1.5-.1.5-.6.4-.2 0-.4.1-.4.3s.2.5.1.7c-.2.4.1.9-.1 1.3-.1.4-.1.9-.1 1.4 0 .3-.1.6-.1.8-.1.6-.2 1.2-.3 1.9-.1.3 0 .6-.1 1-.1.5-.2 1-.2 1.6 0 .3.1.3.3.3.7 0 1.4-.1 2.1-.1.5 0 .5 0 .5-.5 0-2.8 0-5.6 0-8.4 0-.1 0-.3 0-.4.1-.5.1-.5-.5-.5-.1-.1-.3-.1-.5 0m-3.2 23.6v.4c-.1.5-.2 1.1-.4 1.6-.1.6-.2 1.3-.4 1.9-.1.4-.1.4.3.4.5.1.9.1 1.4 0 .7-.1 1-.5 1.3-1 .2-.3-.2-.4-.2-.6s-.1-.3-.1-.5c0-.1.1-.1.1-.2 0 .1.1.1.1.2.1 0 .1.1.2.1 0-.1 0-.1 0-.2 0-.8.1-1.6.2-2.4s.1-1.6.1-2.4c0-.2 0-.3 0-.5.1-.4 0-.6-.4-.4-.3.1-.5.1-.8.1s-.6-.1-.8 0-.1.4-.2.6c-.3.5-.3 1-.3 1.5.2.2-.1 1.2-.1 1.4m-142.8 9.7c-.2 0-.5-.1-.7-.1-.1 0-.2-.2-.3.1-.1.2.2.5-.1.7s-.1.3.1.4c.1.1.2.2.3.3 1 1.1 2 2.1 3 3.2.8.8 1.7 1.5 2.5 2.3 0 0 .1.1.1.1 0-.1 0-.1 0-.2 0-.5 0-1-.1-1.5-.1-.8-.1-1.7-.1-2.5 0-.3-.1-.5-.4-.6-.8-.4-1.6-.9-2.4-1.3-.5-.3-1.2-.6-1.9-.9m106-43.7c-.1.3-.2.5-.5.4-.1 0-.2 0-.2 0-.2 0-.2 0-.2.2 0 .8-.1 1.6-.1 2.4 0 .5 0 .5.5.6.1 0 .2.1.3.1h2.6c.2 0 .3 0 .3-.3 0-1.7 0-3.3 0-5 0-.3-.2-.3-.3-.4s-.2 0-.4 0c-.5 0-1.1.1-1.6-.1-.2-.1-.4 0-.6 0-.1 0-.3.1-.4.2-.1.2 0 .4.2.5.1 0 .2.1.3.1.5.1.6.4.3.8-.2.1-.2.2-.2.5m-104.9 22.3c-.2.3-.1.6-.1.9 0 .2 0 .2-.2.2s-.5-.2-.7 0c-.5.3-1 .5-1.4.9-.4.3-.8.7-.7 1.3.1.3.1.7.1 1.1v1.1c0 .7.1 1.3.1 2 0 .2.1.2.2.1.3-.2.6-.2 1-.2h1c.2 0 .5 0 .5-.3 0-1.2.1-2.4.1-3.6 0-1 .1-2.1.1-3.1 0-.3.1-.6.2-.9 0-.1 0-.1.1-.2-.1 0-.2-.1-.3 0-.4.3-.9.3-1.3.4-.5.2-1 .2-1.5.2-.1 0-.3.1-.4 0v.1c.1.1.3.2.4.1.4-.1.8-.2 1.3-.3.3-.1.6-.1.8-.2.5-.2.7 0 .7.4m6.8-19.5c-.7.6-1.2 1.4-1.8 2.1-.7.8-1.2 1.7-1.9 2.5 0 .1-.1.1-.1.2v1.8c0 .2.1.1.2 0 .7-.5 1.6-.7 2.5-1.1.5-.2 1-.3 1.6-.5.1 0 .4-.1.3-.4-.1-1.3.1-2.7-.1-4 .2-.3-.2-.6.1-.9.1-.1 0-.3-.1-.4s-.3 0-.4.1c0 .3-.1.5-.3.6m-4.2-11.1c.2-.2.4-.3.6-.5.9-.8 1.8-1.6 2.7-2.5.1-.1.3-.2 0-.3-.1 0-.2-.3-.2-.4-.2-.4-.1-.8 0-1.1.1-1 .1-2 .1-3 0-.2 0-.3 0-.5 0-.1 0-.2 0-.2-.1 0-.2 0-.2.1-.7.7-1.3 1.3-1.9 2-.1.1-.1.2-.2.3-.1.2-.2.5-.5.6-.1 0-.2.3-.2.4-.1.4-.1.8-.1 1.2 0 .8-.1 1.7-.1 2.5v.2c-.3.4-.1.8-.1 1.3 0 0 0 .1.1.1-.2 0-.2 0 0-.2m-5.6 4.1v.4s.1.1.1 0c.4-.4.9-.7 1-1.3.1-.3.2-.6.2-.9.1-.3.3-.3.5-.2.3 0 .1.2.1.3v.4c0 .1 0 .1.1.2 0 0 .1-.1.1-.1.3-.2.5-.5.8-.7s.3-.5.2-.7-.1-.5-.1-.7c0-.3-.1-.7-.1-1 0-1-.2-2.1.1-3.1 0-.1 0-.1-.1-.2-.1.1-.1.1-.2.2-.1.2-.3.5-.4.6-.2.2-.4.3-.5.4-.5.5-1 1.1-1.6 1.6-.4.4-.8.7-.5 1.3v.1c0 .8.1 1.6.1 2.4v.2c.3.3.1.5.2.8m71.9 3.9c-.1 0-.1 0-.2 0-.5.3-.9.6-1.4 1-.2.1-.3.3-.5.1 0 0-.1 0-.2 0v.2c.1.2.3.3.3.5.1.2.1.4 0 .6 0 .1-.3.2-.3.1-.2-.2-.2-.1-.2.1v.6 1.1c-.1.5-.2 1-.2 1.4 0 .3.1.6.1 1 0 .1.1.2.1.2.1-.1.1-.1.2-.2.1 0 .1-.1.2-.1.3 0 .6-.1.9-.1.8-.1.9-.2.7-1v-.1c0-1 0-2.1.1-3.1.1-.5.2-1.1.2-1.6.1-.2.2-.5.2-.7m-67.3 39.8c-.2 0-.5 0-.7 0s-.4.1-.4.4c0 .6-.1 1.2-.1 1.8 0 .3 0 .6.2.9.2.2.2.5.1.7s0 .3.1.3c.9.5 1.7.9 2.6 1.3.1.1.2.1.2-.1 0-.5 0-1 0-1.5 0-.7-.1-1.4 0-2.1 0-.4-.1-.9-.1-1.4 0-.3 0-.6 0-.8s-.1-.3-.3-.3c-.3 0-.6-.1-.8.2v.2 1.2c0 .3-.1.6 0 .8.2.7.1 1.5.1 2.3 0 .1-.2.3-.3.4-.1-.1-.4-.1-.4-.3-.1-.2-.1-.4-.1-.7 0-.4.1-.9 0-1.2-.2-.6 0-1.3-.1-1.9-.1 0 0-.1 0-.2m110.7 1.5c0-.7.1-1.4.1-2.1 0 0 0 0 0-.1.2-.3.1-.7.1-1.1s.1-.7.1-1.1 0-.9 0-1.3c0-.3.1-.7 0-.9-.2-.2-.5.1-.8.1-.1 0-.2 0-.2 0-.3 0-.4.1-.4.3 0 .5 0 1-.1 1.5-.1 1-.1 1.9-.1 2.9v1.2c0 .9-.1 1.7-.1 2.6v.2c0-.1.1-.1.1-.2s.1-.3.1-.4c0-.6 0-.6.6-.6h.2c.3 0 .4-.1.5-.4 0 0-.1-.3-.1-.6m-105.6-53c.3-.3.6-.6 1-.9s.4-.3.2-.7-.4-.9.1-1.2c.1 0 .1-.2.1-.2 0-.2-.1-.4-.1-.6.1-1.5-.1-2.9.1-4.4.1-.9 0-1.7 0-2.6 0-.1-.1-.2-.1-.3-.1 0-.2 0-.3.1-.3.3-.5.6-.8.9v.3c0 .2.1.4.1.5v2c0 .3 0 .6.3.8.1 0 .1.3 0 .3-.5.1-.3.4-.3.7 0 .2.1.4 0 .5-.2.5-.1 1.1-.2 1.6-.1.6 0 1.3-.1 2-.1.4-.2.8-.2 1.2 0 0 0 .1.1.2-.2-.1-.1-.1.1-.2m141.2-.8c-.2.5-.1 1-.1 1.5 0 .9-.1 1.9-.1 2.8v.1c-.2 1-.2 1.9-.2 2.9 0 .3-.1.7-.1 1v1.2c0 .1.2.2.3.3.2.1.4 0 .5-.2s.1-.4.1-.6 0-.5 0-.7c0-.3 0-.6 0-.9s.1-.5.1-.8c.1-.8.1-1.7.1-2.5s.1-1.6-.1-2.4c-.1-.6 0-.7.6-.5.3.1.2-.1.2-.2 0-.2-.1-.5-.1-.7 0-.9 0-1.9 0-2.8 0-.1 0-.3-.1-.4-.1.1-.3.1-.4.2-.3.2-.3.5-.2.8 0 .2.1.4 0 .6s.1.4.1.6c0 .4-.1.6-.6.7m-80.8-3.7c0 .4.1.8.1 1.2 0 .2.1.3.4.3h1.5.6c.1-.2 0-.5 0-.7-.1-.4-.2-.8-.2-1.2 0-.5.1-1.1.1-1.6 0-.2 0-.3-.2-.4s-.3-.3-.3-.5.2-.2.4-.3c.1 0 .3 0 .1-.2-.1-.1-.1-.3-.3-.1-.4.2-.8.4-1.1.7s-.6.6-.9 1c-.1.2-.2.4-.2.6zm28.2 29.3c-.3 0-.5.1-.8.1-1.3 0-2.5.1-3.8.1-1.5 0-3 .1-4.5.1h-.1c-.8.1-1.6.3-2.5.3-.5.1-1.1.1-1.6.4-.1.1-.3.1-.4.1-1.1 0-2.2.1-3.3.1-.2 0-.3.1-.2.3 0 .1.1.3.1.4s.2.2.2.1c1.1-.4 2.2-.5 3.3-.7 1-.2 2-.3 3-.4.9-.1 1.7-.1 2.6-.2.6-.1 1.1 0 1.7-.1s1.2 0 1.8-.1c.8-.1 1.7-.1 2.6-.1h.2c.4-.2.8-.1 1.2-.1s.8-.1 1.2-.1c.5 0 .9 0 1.4-.1.9-.2 1.8-.1 2.6-.3.1 0 .2.1.3-.1-.1-.1-.2-.1-.3-.2 0 0-.1 0-.2 0-.6.2-1.2.2-1.9.2-.1 0-.2 0-.3 0-.6.2-1.4.3-2.3.3m-89.1 12v1.9 1.1c0 .2.1.3.4.2s.6-.2.9-.3c.2-.1.2-.1.1-.3-.2-.2-.3-.5-.4-.8.3-.4.2-1 .3-1.5 0 0 .1-.1.2-.1 0 0 .1.1.1.1 0 .1.1.1.1.2 0-.1.1-.2.1-.3 0-.3-.1-.6-.1-.8 0-.9 0-1.9 0-2.8 0-.3 0-.5-.1-.8-.3.1-.5.3-.8.4-.1.1-.2.1-.3.2-.2.1-.3.3-.3.5v.8c0 .3-.3.5 0 .7-.4.5-.2 1-.2 1.6m-6.6 17.2c0-.7 0-1.3.1-2s0-.7-.7-.5c-.4.1-.6 0-.9-.4-.2-.2-.1-.3.1-.4.5-.2.9-.2 1.4 0 .1 0 .2 0 .3-.1 0-.1 0-.2-.1-.3s-.2-.1-.2-.1c-.3-.1-.7-.2-1-.3-.2-.1-.3-.1-.5-.2s-.3-.3-.4-.5c0 .2.1.4.1.6 0 1.3.1 2.6.1 3.8v.2c.1.2.1.6.2.7.1.2.4.2.7.2.1 0 .2.1.3.1.2 0 .4.1.6.1 0-.2-.1-.3-.1-.5-.1.1 0-.1 0-.4m30.6-82.5h2.3.5.3c0-.1 0-.3-.1-.4-.1-.2-.3-.3-.5-.1-.1.1-.3.1-.5.1-1 0-1.9 0-2.9-.1s-2-.1-3-.1h-.1c-.7-.2-1.5-.1-2.3-.2-.6-.1-1.2-.1-1.8-.1h-.1c-.5-.2-1-.3-1.5-.2-.2 0-.3.1-.5.1.1.2.2.3.3.4.1.2.3.4.5.1.1-.1.3 0 .4.1.2 0 .4.1.6 0 .4-.2.7-.1 1.1-.1s.9-.1 1.3.1c.5-.2 1 0 1.5 0 .7.1 1.3.1 2 .2.5.1 1-.1 1.5.1 0 .1.3.1.4.1.2-.3.3 0 .6 0m-29.1 63.5c0 .6-.1 1.1-.1 1.7-.1 1-.1 2-.3 3 0 .3-.1.6 0 .8s.1.4 0 .6c0 .1 0 .2.1.2.2.1.6-.2.6-.4 0-.6.1-1.2.1-1.8 0-.7 0-1.3.1-2 .1-1 .1-2 .1-3.1 0-.1 0-.3 0-.4.2-.2 0-.3-.1-.3-.2-.1-.5.1-.5.3.1.4.1.9 0 1.4m72.2 14.1c.3-.2.8-.1 1-.4h.1c.6.2 1.1-.1 1.7-.2.2 0 .3-.2.2-.3 0-.2-.2-.1-.3-.1-.8 0-1.6.1-2.4.1-.9 0-1.8-.1-2.7.1-.6.1-.6.1-.6.6v.4c0 .3.1.4.4.3.9-.2 1.7-.3 2.6-.5m31.2-71.1c.6 0 1.2 0 1.8.1.4.1.7.1 1.1.1.8.1 1.6.2 2.4.3.4.1.9.1 1.3.2h.4c0-.1 0-.3-.1-.3-.1-.1-.3-.2-.4-.2-.4-.1-.8 0-1.2-.1-.9-.2-1.8-.2-2.7-.3-.2 0-.5-.1-.7-.1-.7-.1-1.3-.3-2-.2s-1.3-.2-2-.3c-.1 0-.2 0-.3 0v.3c.1.2.1.5.2.7 0 .2 0 .3-.2.4-.1 0-.2-.1-.3-.2-.1 0-.1-.1-.2-.1 0 .1-.1.2 0 .3 0 .1.1.1.1.2.4.2.7.1.7-.4 0-.3.1-.4.4-.3.4-.2 1-.2 1.7-.1m-44.9 12.4c.2 0 .4.1.5.1.4 0 .8 0 1.1.1.6.1 1.1.2 1.7.2.2 0 .3.1.5.1.6.1 1.2.1 1.8.2.2 0 .3-.1.3-.3s-.1-.3-.3-.3c-.3 0-.7-.1-1-.1-.5 0-.9-.1-1.4-.1-.7-.1-1.4-.2-2-.2-1.8-.1-3.5-.1-5.3-.1-.1 0-.2-.1-.3-.1-.2 0-.4 0-.6 0 .2.1.3.1.5.2s.4.1.6.1c.5 0 1 0 1.4.1.8 0 1.6.1 2.5.1m8.6-16c.3 0 .7 0 1 .1.5.1 1.1 0 1.6.1s1 0 1.4.2c.3.1.7 0 1 .1.4.2.9.1 1.3.1.1 0 .1-.1.2-.1 0 0-.1-.1-.2-.1-.4-.1-.7-.1-1.1-.2-.9-.2-1.8-.5-2.7-.4-.3 0-.7.1-1 0-.8-.3-1.7-.3-2.6-.4-.6-.1-1.2-.1-1.8-.1-.3 0-.6-.1-.8-.2-.1 0 .1-.4-.2-.3 0 0 0 .3.1.4v.1c0 .3.1.4.4.4s.6-.1.9 0c.8.1 1.6.2 2.5.3m-56.3-4.6c.1.4.2.5.7.5h.9c.9.3 1.7.3 2.6.4.4 0 .8 0 1.2.1.6.1 1.3.2 1.9.2.3 0 .3-.2.2-.3-.1-.2-.3-.3-.4-.4s-.3 0-.5 0c-.5-.2-1-.2-1.6-.2s-1.2 0-1.8-.1c-.3-.1-.6-.1-.9-.1-.7 0-1.5-.1-2.2-.1.1 0 0-.1-.1 0m40 2.7c.5.1 1-.1 1.5.1h.2s0-.1 0-.2c-.1-.1-.2-.1-.2-.1-.5-.1-1.1-.1-1.6-.1-.7 0-1.4 0-2-.1-.5-.1-1-.2-1.5-.2-1.3 0-2.6 0-3.9 0-.7 0-1.3-.1-1.9-.3 0 0-.1 0-.1-.1v.2c.1.3.4.4.7.4.8 0 1.6 0 2.5.1h.8c.4 0 .8.2 1.2.2 1.2.1 2.7.1 4.3.1m-15.6-.8c.4 0 .8.2 1.2.1s.8 0 1.3 0c.9.1 1.7 0 2.6.1.3 0 .1-.1.1-.2-.2-.2-.3-.2-.5-.2-.5-.1-1-.2-1.5-.2-.6-.1-1.2-.2-1.7-.2-.4 0-.9 0-1.3 0-.2 0-.5-.1-.7.1-.5-.1-1.1.2-1.6-.2h-.1c0 .3.2.6.5.6.4 0 1 .1 1.7.1m81.2 7.6h.5c.4.1.8.1 1.1.2.4.1.8.2 1.2.2h.4c.1 0 .2-.1.2-.1 0-.1-.1-.3-.2-.3-.1-.1-.3-.1-.4-.1-.9-.1-1.9-.2-2.8-.2-.1 0-.2 0-.3 0-.8-.2-1.7-.2-2.5-.2-.5 0-1.1-.1-1.6-.1-.3 0-.6-.1-.9-.1-.1 0-.2-.1-.3-.2 0 0-.1-.1-.1-.2v.2c0 .2 0 .4.1.6.1.1 0 .5-.2.6-.1.1-.3 0-.4-.2-.1-.1-.1-.1-.2-.1v.3c.2.1.4.3.6.2.2 0 .3-.2.4-.5.1-.4.1-.4.4-.3.2 0 .4.1.6 0s.4-.1.6.1c.1.1.4.1.4 0 .2-.3.4-.1.6-.1.4 0 .8-.1 1.1 0 .6.2 1.1.1 1.7.3m-27.2-2.7c.2 0 .5 0 .7.1.6.2 1.2 0 1.8.1.3 0 .3-.1.3-.3s-.1-.3-.4-.3-.7 0-1-.1c-.8-.2-1.6-.3-2.5-.4-.5 0-1 .1-1.5-.1-.3-.1-.5.1-.3.4.1.2.1.4.4.4.8.1 1.6.1 2.5.2m-89.3 22.9c0 .5-.1 1.1-.1 1.6v3.5c0 .1.1.2.1.4.1-.1.3-.2.4-.3s0-.2 0-.3c0-1.1 0-2.2 0-3.3 0-.1 0-.3 0-.4.2-.6.1-1.2.2-1.9.1-.9.1-1.8.1-2.7 0-.1 0-.1 0-.2.2-.1 0-.1 0-.2 0 0-.1.1-.1.1 0 .1-.1.2-.1.3 0 .4-.1.7-.1 1.1-.1.8-.3 1.5-.4 2.3m99.7-21.9c.2 0 .4.1.6.1.1 0 .2 0 .2-.1.1-.2-.2-.6-.4-.6-.5 0-.9-.1-1.4-.1-1.5 0-3.1-.1-4.6-.1-.4 0-.7-.2-1.1-.2-.2-.1-.2-.1-.3-.1v.2c0 .4.3.7-.1 1.1 0 0-.3.1-.1.2.1 0 .3 0 .3-.1.1-.2.2-.5.1-.7-.1-.3 0-.4.3-.3.7.2 1.4 0 2 .2.4.1.9.1 1.3.1.3 0 .7.1 1 .1.8.2 1.4.3 2.2.3m-101.5 45.7c.1-.5.2-1.1.2-1.6 0-.1 0-.2-.1-.2s-.2 0-.3 0c-.3.3-.6.6-.9.9-.3.4-.7.7-1 1.1-.1.2-.4.3-.3.6.1.2.1.3.1.5 0 .3.1.1.2 0 .8-.3 1.4-.7 2.1-1.3m146.7 25.5c.3-.4.4-.9.9-1.2.2-.1.1-.7-.1-.8-.5-.3-.6-.8-.6-1.3 0-.2 0-.4.1-.5.2-.2.2-.5.2-.7-.1-.7-.1-1.4-.1-2 0-.2-.1-.3-.1-.5-.3.1-.1.3-.1.5-.1.3-.2.5-.1.8.2.5.1 1.1.1 1.6-.1.5-.1 1.1-.2 1.6-.1.7-.1 1.4-.1 2.1 0 .1-.1.2-.1.2-.3.2-.2.3.2.2m-146.5-29.5c.1-.2.1-.4.2-.6v-.1h-.1c-.1.1-.2.1-.2.2.1.3-.1.4-.4.5-.1 0-.3.1-.3.3-.1.3-.4.3-.6.3s-.4 0-.5.1c-.2.1-.4.1-.5.3-.1.1 0 .4.1.6v1.6.2c.1 0 .1-.1.2-.1.4-.5.9-1 1.3-1.5.1-.2.2-.5.1-.6-.3-.4-.1-.6.2-.8.1-.1.3-.2.5-.4m54.8-46.9c0 .3.2.5.5.5.4.1.7.1 1.1.1.5 0 1 0 1.5.1.7.2 1.5 0 2.2.2.5.1 1 .1 1.5.1.3 0 .6 0 .9.1.5.1 1 .2 1.5.2.1 0 .2-.1.3-.1-.2 0 .1-.4-.2-.4-.2 0-.5-.1-.7-.1-.5 0-.9 0-1.4-.1-.9-.2-1.8-.2-2.7-.3-.7 0-1.4 0-2-.1-.7-.1-1.4-.2-2-.3-.2.2-.3.1-.5.1m78.1 8.3c-.1 0-.2-.1-.3-.1-.7 0-1.4 0-2.1 0-.1 0-.3-.1-.2.1 0 .1 0 .2.2.2.4.1.7.2 1.1.2.4.1.9.1 1.3.1h.2c.7.2 1.5.2 2.2.2.1 0 .3.1.3-.2 0-.2 0-.4-.3-.4-.7 0-1.5 0-2.4-.1m9.3.9c-.5-.1-1-.1-1.5-.2-.7-.1-1.3-.3-2-.3-.2 0-.4 0-.5 0-.5-.2-1.1 0-1.6-.1-.1 0-.3.2-.3.3s.2.3.3.3c.6.1 1.3.1 1.9.1h1.4c.4 0 .8.1 1.2.1.2 0 .5.1.7.1.4 0 .8.1 1.2.1.1 0 .1 0 .2-.1 0-.1-.1-.2-.1-.2-.1 0-.2 0-.3-.1-.2.1-.3.1-.6 0m5.6 29.2c0 1.4-.1 2.7.1 4.1 0 .1 0 .2.2.2s.2-.1.2-.2c0-.3.1-.6.1-1 0-.2-.1-.5 0-.7.3-.8 0-1.6.2-2.3.1-.4 0-.4-.4-.4-.1 0-.4-.2-.4.3m-20.2-30.2c.6.1 1.2.2 1.8.2.1 0 .2 0 .2.1 0-.1 0-.3-.1-.3-.1-.1-.3-.2-.5-.2-.4-.1-.8-.1-1.2-.1-.9 0-1.7-.3-2.6-.4-.8-.1-1.5-.2-2.3-.3-.1 0-.2-.1-.4-.1 0 .2-.1.3 0 .5 0 .1.1.3.4.2.2-.1.4-.1.6-.1s.5.1.7.1c.4 0 .9.1 1.3.1.3 0 .6 0 .8.2.3.1.7.1 1.3.1m-125 38.7v-.1c0-.1-.1-.2-.1-.3-.1.1-.2.2-.3.3 0 0 .1.1.1.2.1.2 0 .2-.2.2-.4-.1-.4-.1-.4.3 0 .8.1 1.5.1 2.3 0 .1.1.2.1.3 0 0 .1.1.2.1.3-.1.6-.4.6-.8 0-.8-.1-1.6-.1-2.5m83.1-43.2c.5 0 1 .1 1.5.1.1 0 .2-.1.2-.1 0-.1 0-.3-.1-.4 0-.1-.2-.1-.3-.1-.6 0-1.2 0-1.8-.1-.2-.1-.5-.1-.7-.1-.9 0-1.8 0-2.6 0-.1 0-.2 0-.3 0 0 0-.1.1-.1.1s0 .1.1.1c.4 0 .9.2 1.3.1s.8-.1 1.2 0c.4.2 1 .3 1.6.4m-78.8 37.6c.2-.1.5-.1.6-.3.2-.2.4-.5.6-.7s-.3-.4 0-.5c0 0 0-.2 0-.3-.1 0-.2 0-.2.1-.4.3-.7.7-1.1 1-.5.5-1.1.9-1.7 1.3-.1 0-.3-.1-.2.2.1.2.2 0 .3 0 .1-.1.3-.2.5-.2.4-.2.8-.4 1.2-.6m-1.2 1.7c-.2.1-.4.1-.4.4s-.2.6-.6.4c-.1 0-.1 0-.2 0-.3.2-.7 0-.8.5v.4c0 .3-.1.6-.1.9 0 .1.1.1.1.2 0 0 .1 0 .1-.1.6-1 1.4-1.9 2.2-2.8v-.1c-.1.1-.2.2-.3.2m-4.9-17.2c0-.1 0-.2 0-.3s0-.1 0-.2c-.1 0-.1.1-.2.1-.1.2-.3.4-.4.6-.4.5-.7 1-1.1 1.5-.5.7-1.1 1.3-1.7 2-.1.1-.1.3-.2.4 0 .1 0 .1.1.2 0 0 .1-.1.1-.1.1-.2.2-.4.4-.6.8-.8 1.4-1.6 2.1-2.5.1-.1.3-.3.5-.3.3 0 .3-.1.3-.3-.1-.1 0-.3.1-.5m10.6 31.9c-.3 0-.6 0-.8 0-.1 0-.2.1-.3.2.1.1 0 .3.3.3h1c.3 0 .6-.1.9.1.1.1.5.3.4-.2 0-.1.1-.2.2-.3l.5-.5s.1-.1 0-.1c-.2-.1-.3-.1-.3-.1-.6.2-1.2.4-1.9.6m69.2-54.8c-.3-.3-.7-.2-1-.3-.5-.1-1 0-1.5-.1s-1.1-.1-1.7-.1c-.4 0-.4 0-.4.3v.2c0 .2-.1.4.2.6 0-.2.1-.3.1-.5 0-.3.1-.4.3-.3.4.2.8.1 1.2.1s.9.1 1.3.1c.3 0 .6-.1.9.1.2.1.4 0 .6-.1m-74.2 17.3c0-.3 0-.6 0-.9 0-.1-.1-.2-.1-.2-.1 0-.1.1-.2.1-.3.3-.6.7-.9 1-.1.1-.2.3-.2.4.1 0 .3.1.4.1.2.1.3.2.5.4.1.1.2.1.3.2.1-.1.2-.3.2-.4 0-.3 0-.4 0-.7m-2.9 3c-.3.2-.1.5-.1.8 0 0 .1.1.1.1s.1 0 .1-.1c.5-.6 1-1.1 1.5-1.7l.3-.3s0-.1.1-.1c-.1 0-.1 0-.2 0s-.1.1-.1.1c-.4.3-.9.5-1.5.2 0 0-.2.1-.3.2 0 .3.1.5.1.8m43.7 54h3.6.4s.1 0 .1-.1c0 0-.1-.1-.1-.1-.1 0-.2-.1-.3-.1-.5 0-1.1 0-1.6 0s-1-.1-1.5-.1c-.8 0-1.6 0-2.4 0-.1 0-.2 0-.3.1.1.1.2.2.3.2.5 0 1.1.1 1.8.1m-40.2-17.1c.3-.4.8-.5 1.2-.8.2-.1.3-.2.2-.4 0-.2-.2-.4-.4-.4s-.4.1-.6.2-.5.1-.6.4c.1.4.1.7.2 1m-4.4-15.2c0-.2-.1-.4-.1-.5 0 0-.2-.1-.2-.1-.3.2-.6.4-.8.7-.1.1.1.3.2.5.2.4.3.5.7.2.3-.2.2-.4.2-.8m145.6.1c.1-.4-.1-.8.1-1.2 0 0-.1-.2-.1-.2-.1 0-.2.1-.3.1-.1.3-.1.7-.1 1v3.5s0 .1.1.1c0 0 .1-.1.1-.1 0-.1 0-.1.1-.2 0-.9 0-1.9.1-3m-101.4-28.3c.2 0 .5.1.7.1.4 0 .8-.1 1.1 0 .5.2 1 0 1.5.1h.2c-.1 0-.1-.1-.2-.1-.5-.1-1-.2-1.5-.2-1-.1-2-.1-3.1-.1-.1 0-.2 0-.2.1.1.1.2.2.2.2.4-.1.8-.1 1.3-.1m-34 6.7c0-.5 0-1-.1-1.5 0-.2-.1-.4 0-.6 0-.1-.1-.2-.2-.3 0 .1-.1.2-.1.3 0 .8-.1 1.6-.1 2.4v.1c0 .2.1.4.3.4.3 0 .1-.2.1-.4.1-.1.1-.2.1-.4m134.7-13.2c.1-.3 0-.3-.3-.4-.4 0-.8-.1-1.2-.1-.7 0-1.4-.1-2.1-.2-.1 0-.2.1-.2.1 0 .1 0 .2.2.2h.7c.7.1 1.5.2 2.2.2.2.1.4.1.7.2m-136-13c-.2 0-.5 0-.7-.1s-.6-.1-.9.1c-.2.1-.1.3-.3.3.1 0 .2.1.4.1s.4-.1.7-.1.6.1.9.1c.1 0 .2 0 .3-.1 0-.2-.2-.2-.4-.3m-.3 94.6c0 .7.1 1.3.1 1.9 0 .1.1.2.1.2.1-.1.2-.1.3-.2 0-.1 0-.2 0-.3-.3-.6-.2-1.3-.3-1.9-.1-.4-.1-.9-.1-1.3 0-.1-.1-.1-.1-.1 0 .1-.1.1-.1.2.1.5.1.9.2 1.4-.2-.1-.1 0-.1.1m45.9-36.8c-.2 0-.4.1-.6.1-.1 0-.1.1-.1.2h.2c.4 0 .9-.1 1.3-.1s.8-.1 1.2-.1c.3-.1.7-.2 1-.2.1 0 .1-.1.2-.1-.1 0-.1 0-.2 0-.4 0-.9.1-1.3.1-.6-.2-1.1-.2-1.7.1m-72.1 27.1c0-.2 0-.4 0-.5 0-.2-.2-.3-.3-.2-.3 0-.1.2-.1.3 0 .3.1.5.1.8v.9c0 .1.1.1.1.2 0-.1.1-.1.1-.2.2-.5.2-.5.1-1.3m16-33c0-.1-.1-.3-.1-.4s-.1-.1-.1-.2c0 .1-.1.1-.1.2-.1.7.2 1.3 0 2 0 .1 0 .1.1.2 0 0 .1.1.1.1.1-.1.3-.2.4-.4 0-.1-.1-.2-.1-.3-.1-.4-.2-.7-.2-1.2m55 27.9c.1 0 .1-.1.2-.1h-.1c-1 0-2-.1-3 .1-.1 0-.1 0-.2.1 0 0 .1.1.1.1 1-.1 2-.2 3-.2m-44.9 7.8c0-.5 0-1.1.1-1.6 0-.2 0-.4-.1-.6 0 .2 0 .4-.1.6-.3.9 0 1.8-.1 2.7 0 0 0 .1.1.1v-.1c.1-.4.1-.7.1-1.1m-1.3-65.5c0 .1.1.1.1.2.2-.3.4-.6.6-.9.1-.1.1-.2.2-.3s.4 0 .2-.2c0-.1-.3-.1-.4 0s-.3.3-.3.4c0 .3 0 .5-.3.6-.1 0-.1.1-.1.2m68.2-.1c.3 0 .7 0 1-.1 0 0 .1 0 .1-.1 0 0-.1 0-.1-.1-.4-.2-.8-.1-1.2-.1 0 .2 0 .3.2.4m-80.4 18.7v1.2c0 .1 0 .1.1.2 0-.1 0-.1 0-.2 0-.3 0-.5.1-.8.1-.1 0-.3 0-.5 0 0-.1 0-.2.1m4 40.6h.3c.1 0 .2-.1.3-.1-.1-.1-.1-.1-.2-.2-.1 0-.2-.1-.3-.1s-.2 0-.3.1 0 .2.2.3m66.4-60.4v.2h.9s.1-.1.1-.1c-.1 0-.1-.1-.2-.1-.2 0-.4 0-.8 0m48.1-11.2c.4.1.7.1 1.1.2.1 0 .2 0 .2-.1-.1-.1-.2-.2-.2-.2-.3.1-.7.1-1.1.1m-138.5 7.2s-.1-.1-.1-.1c-.1.2-.4.4-.1.6l.2.2c0-.1.1-.3.1-.3-.2-.1 0-.2-.1-.4m144.7-5.5c.1-.1.2-.2.3-.3 0 0 0-.1 0-.2 0 0-.1 0-.1.1-.2.2-.3.4-.6.1h-.1v.1c0 .2.2.3.5.2m21.6 1.9c0-.1-.1-.1-.1-.2-.2.2-.4.1-.5-.1 0-.1-.1-.1-.2-.2 0 0-.1 0-.1-.1v.2c.3.3.4.6.9.4m-3.5 60.5c.2 0 .2-.1.2-.2s-.1-.1-.1-.1c-.1 0-.2 0-.3 0s-.1 0-.2-.1c0 .1.1.1.1.2.1.1.2.1.3.2m-64.5 3.9c.2 0 .3 0 .5-.1 0 0 .1 0 .1-.1 0 0-.1-.1-.1-.1-.2-.1-.4 0-.5.3m-98.1-39.3c.1-.2.1-.3.2-.5 0-.1 0-.1-.1-.2 0 0-.1 0-.2 0 0 0-.1.1-.1.2.1.1.1.3.2.5m32.6-20.4c0-.3-.3-.2-.3-.1-.1.1 0 .3 0 .4.1-.1.2-.2.3-.3m83.3-10c-.1-.1-.1-.1-.2-.2 0 .1-.1.1-.1.2s.1.2.1.3c0 0 .1.1.2.1h.2c0-.1-.1-.1-.1-.2s0-.1-.1-.2m-17.9-1.4c-.1-.1-.2-.1-.3-.2-.1 0-.2-.1-.3-.1.1.1.2.2.2.3.1.1.3.1.5.1 0 0 0-.1-.1-.1m14.2 32.7c.1-.1.2-.1.3-.2-.1 0-.2-.1-.3-.1s-.2 0-.4 0c0 0-.1 0-.1.1 0 0 .1 0 .1.1.2 0 .3.1.4.1m23.7-15.8c-.2 0-.4-.1-.6-.1-.1 0-.1 0-.2 0 0 0 .1 0 .1.1.3.2.5.2.7 0m-116 29.9c-.1 0-.2.1-.4.1v.1c.2 0 .5.2.4-.2m125.2-43.9v-.1c-.2 0-.3 0-.5 0v.1zm-137.3 31.6h.5v-.1c-.2-.1-.3-.1-.5.1m82.1 0c.1 0 .2 0 .3-.1v-.2c-.2-.1-.4-.1-.3.3m-70.8 8c.1-.1.1-.2.1-.4 0-.1 0-.1-.1-.2h-.1v.2c0 .2 0 .2.1.4m89.1-9.6c.1 0 .3.1.3-.1 0 0-.1-.1-.1-.1-.1.1-.4 0-.4.2zm18.5-15.9c-.1.2-.2.3-.2.4.1-.1.2-.2.3-.3 0 0 0-.1-.1-.1m5.1-13.9c.1 0 .1.1 0 0h.1c0-.1-.4-.3-.5-.3v.1c.1.1.3.1.4.2m-64.5 31.1c-.1 0-.3 0-.4 0 .1 0 .3.1.4.1h.2c.1 0 .2-.1.2-.1-.1 0-.2 0-.4 0m57.3 14.2c0 .3.4.1.5.3 0-.1 0-.1-.1-.1-.1-.2-.2-.2-.4-.2m2 .5s.1 0 0 0c.1-.1.1-.2.1-.3 0 0-.1-.1-.2-.1v.2s0 .1.1.2m25.5-43.5h.2s-.1-.1-.1-.1-.1-.1-.1-.1-.1 0-.2-.1c0 .1.1.2.2.3m-152.1 31.8c.2 0 .2-.1.2-.3 0 0-.1-.1-.2-.1zm170.5 18.4c-.1 0-.2.1-.2.1.1 0 .2.1.3.1 0 0 0-.1-.1-.2m-170.3-21.4c0-.1 0-.1 0-.2-.1.1-.2.2-.2.3 0 0 .1.1.1.1 0-.1 0-.1.1-.2m-.2-1v.3c.1 0 .2-.1.2-.1.1-.3 0-.3-.2-.2m109.5-.6c-.2 0-.4 0-.5.1.2 0 .3 0 .5-.1 0 .1.1.1 0 0m61.1 33.8c.1 0 .1 0 0 0 .1-.1.1-.2.1-.3 0 0-.1 0-.2 0 .1 0 .1.1.1.3m-170.7-28.9c-.1 0-.1.1-.2.1 0 0 .1.1.1.1.1-.1.1-.1.1-.2m86.6-39.5v.2c0 .1.1.1.2.1 0-.1 0-.1 0-.2-.1 0-.1-.1-.2-.1m58.3 42.8c-.1 0-.2 0-.2 0 0 .1 0 .2.1.2 0 0 0 0 .1-.2m-125.1 18.3h.2s.1-.1.1-.2c-.1 0-.1 0-.2 0s-.1.1-.1.2m94-26.6c-.1 0-.1 0-.2 0 0 0-.1 0-.1.1.1 0 .3.2.3-.1m17.2-29.4c0-.1 0-.2 0-.2h-.1s0 .1.1.2m8.8 14h.2c-.1 0-.3 0-.4 0zm-2.8-.3c-.1 0-.2 0-.3 0 .1.1.2.1.3.2 0-.1.1-.1 0-.2m-48.9-1c-.1.1-.2.1 0 .2 0 0 .1.1.1.1 0-.1.1-.1.1-.2s-.1-.1-.2-.1m-55-5.8c0-.1-.1-.2-.1-.3 0 .1-.1.1-.1.2 0 0 .1.1.2.1m139 29.8s-.1.1-.1.1c.1 0 .1 0 .2.1-.1-.1-.1-.2-.1-.2m-105.6-5.7c-.1 0-.2 0-.2 0s.1.1.2 0m68-32.5c0 .1.1.1.1.2h.1c0-.1-.1-.2-.2-.2m-10.2 30.9c-.1 0-.1 0-.2 0 0 0 .1.1.1.1.1 0 .3.1.1-.1m-85.9 20.2c-.1 0-.2.1-.2.1s.1 0 .2-.1m38.2-55.8c-.1-.1-.1-.1-.2-.2v.1c.1 0 .1.1.2.1m-43.4 88.3v.1c0 .1 0 .1.1.2 0 0 .1-.1 0-.1 0-.2 0-.2-.1-.2m-25.5-61.4c0 .1 0 .2-.1.3v.1s.1-.1.1-.1c.1-.2.1-.2 0-.3m135.1-21.4c-.1 0-.2 0-.3-.1h-.1s.1.1.1.1c.1.1.2.1.3 0m-111.8-6.8s.1.1.1.1c0-.1 0-.1.1-.2-.1.1-.2.1-.2.1m57.1 89.1c.1 0 .1 0 0 0 .1-.1.1-.1.1-.2h-.1c.1 0 .1 0 0 .2m-54.8-.8c0-.1 0-.1 0 0-.1.1-.1.1-.1.2h.1s0-.1 0-.2m-25.8-65.1v-.1c0-.1 0-.1-.1-.2 0 0-.1.1 0 .1 0 .2.1.2.1.2m158.6-13.6c-.1 0-.1.1-.2.1v.1c.2 0 .2-.1.2-.2m-29 11.9s0 .1.1.1c0 0 0 0-.1-.1m-48-17.9h.2v-.1c-.2 0-.2 0-.2.1m40 3.2h.2v-.1c-.2 0-.2 0-.2.1m.5.2c-.1 0-.1 0-.2 0v.1c.1 0 .2 0 .2-.1m11.8.9c-.1 0-.1 0-.2 0v.1c0-.1 0-.1.2-.1m.6.2h.2s0 0 0-.1c-.1.1-.1.1-.2.1m3.8 37.1c-.1 0-.1 0-.2 0v.1s.1 0 .2-.1m.1-36.5h.2v-.1c-.1 0-.1 0-.2.1m23.8 34.4c-.1 0-.1 0-.2 0v.1c.1-.1.1 0 .2-.1m-169.4-3.4c0-.1 0-.1 0-.2 0 0 0 0-.1 0 0 .1 0 .1.1.2m170.3 20v.1h.1c0-.1 0-.1-.1-.1m-137.2 20.3v.2h.1c-.1 0 0-.1-.1-.2m117.1-70.9s0 .1.1.1c0 0 0 0-.1-.1m-36.8 28.9s0-.1-.1-.1c0 0 0 0 .1.1m-80.2 41.6s-.1 0-.1.1c0 0 0 0 .1-.1m119.1-69.8h.2s0 0 0-.1c0 0-.1 0-.2.1m-65.3 68.5v.1h.1s0-.1-.1-.1m28.2-41.3h.2v-.1c-.1 0-.2 0-.2.1m-5.7-17.2c-.1 0-.1 0-.2 0v.1s.1 0 .2-.1m59.1 48.9c0-.1 0-.1 0-.2 0 0 0 0-.1 0 .1 0 .1.1.1.2m-36.7-47.3s.1 0 .1-.1c0 0-.1 0-.1.1m5.9-.1c-.1 0-.1 0-.2 0v.1c.2 0 .2 0 .2-.1m32.6 48.6h.2s0 0 0-.1c0 .1-.1.1-.2.1m-27.9-48.3h.2s0 0 0-.1c0 .1-.1 0-.2.1m2.7.1c-.1 0-.1 0-.2 0v.1c.1 0 .1 0 .2-.1m-137.8 3.3c-.1 0-.1 0-.2 0v.1c.2 0 .2-.1.2-.1m157.3-2s0-.1-.1-.1c0 0 0 0 .1.1m-160.3 1.9s.1 0 0 0c.1 0 .1 0 0 0m137.4-3.3c.1 0 .1 0 0 0m-133.9 11.4c0 .1 0 .1 0 0m-8.7 3.1s0 .1 0 0zm144.6 1.3c-.1 0-.1 0 0 0-.1 0-.1.1 0 0m-144.1-24c0 .1 0 .1 0 0zm169.7-2.3c.1 0 .1 0 0 0m-51.3 26.5c-.1-.1-.1-.1 0 0-.1-.1-.1 0 0 0m40.5-27.5s0 .1 0 0zm5.6-.7s0 .1 0 0zm-51.6 28.6c0-.1.1-.1 0 0 0-.1 0-.1 0 0m34.5-29.2s0 .1 0 0zm-4.4-.6c-.1 0-.1 0 0 0-.1 0-.1.1 0 0m-14.9-2.9c.1 0 .1 0 0 0m-19-.1s0 .1 0 0c0 .1.1.1 0 0m-86.2 48c0-.1 0-.1 0 0 0-.1 0 0 0 0m54.1-51.4c-.1 0-.1 0 0 0-.1.1 0 .1 0 0"/><path d="m148.6 95.1c-.5.1-1 .2-1.5.2-.7 0-1.3.1-2 .2-.5.1-1.1-.1-1.6-.3-.1 0-.1 0-.2-.1-.5-.5-1.1-.2-1.7 0-.8.3-1.5.6-2.3.9-.6.2-1.2.3-1.8.4-.5.1-1 .2-1.5.3-.7.1-1.3.3-2 .1-.4-.1-.8-.3-1.1-.6-.2-.2-.5-.3-.8-.3-.4 0-.8 0-1.3-.2-.6-.3-1.1-.7-1.5-1.2s0-1.1.7-1.2c.7 0 1.4-.1 2.2.1.3.1.7.1 1.1.1.8.1 1.6.3 2.4.4.6.2 1.3.1 2 .1h.5s.1.1.1.1 0 .1-.1.1c-.3.1-.6.3-.9.3-.3.1-.7.1-1 .1-.5 0-1.1-.1-1.6-.2-.4 0-.8-.1-1.2-.1-.8-.1-1.6-.1-2.3-.1-.1 0-.2 0-.3 0 0 0-.1.1-.1.1s0 .1.1.1h.1c.5 0 1 0 1.5.1.3.1.6.2.7.4.3.3.6.4 1.1.4.8 0 1.6-.2 2.4-.3 1.2-.2 2.4-.6 3.5-1 .4-.1.7-.2 1.1-.4.6-.3 1.2-.4 1.9 0 .2.1.4.1.6.1.9 0 1.8 0 2.7-.1s1.8-.2 2.7-.5c.3-.1.8-.1 1-.6.2-.6 0-1-.6-1.1s-1.2-.3-1.9-.3c-.3 0-.5-.1-.8-.1-.9.1-1.7.1-2.5.3-.3.1-.7-.2-.7-.6 0-.6-.3-.9-.9-1.1-.7.1-1.3-.3-2-.1-.1.1-.3 0-.5 0-.7 0-1.4.1-2.2.2-.7.1-1.4.2-2 .4-.8.3-1.5.6-2.3.8-.2.1-.2.2 0 .3.1.1.3.2.5.3s.3.3.2.5-.5.4-.7.3c-.6-.3-1.2-.7-1.5-1.4-.1-.4 0-.9.5-1.1.6-.3 1.2-.5 1.8-.6l1.2-.3c.6-.1 1.2-.2 1.8-.3.7-.2 1.4.1 2-.2.9.1 1.8-.1 2.7.1.5.1 1 .2 1.3.6.2.2.4.4.5.6.1.4.4.3.6.3.6-.1 1.2-.2 1.8 0 .4-.3.8 0 1.2 0 1.2-.1 2.3.4 3.1 1.3.5.5.8 1.2.8 1.9 0 .2 0 .4-.2.5-.4.3-.9.6-1.5.7-.4.5-.8.7-1.3.7z"/><path d="m93.6 100.8c0-.1-.1-.2-.2-.2-.4-.4-.8-.8-.9-1.4 0-.1 0-.3.1-.5.4-.4.9-.6 1.4-.8.6-.2 1.1-.4 1.7-.4.7-.1 1.4-.3 2.2-.1.7.2 1.6.1 2.3-.3.3-.2.7-.2 1-.2 1.1-.2 2.2-.3 3.3-.2.8.1 1.5.3 2 .8.7.6 1.3 1.2 1.9 1.9.7.7.5 1.9-.4 2.4-.4.3-.8.6-1.3.8-.6.3-1.3.5-2 .5-.7-.1-1.2.2-1.7.5-.5.4-1 .5-1.5.7-.3.1-.7.2-1.1.3-.4 0-.8.1-1.2 0-.8-.1-1.6-.1-2.3-.7-.3-.2-.5-.5-.8-.8 0 0-.1-.1-.1-.1v.2c-.1.1-.1.1-.2.2-.7.2-1.4.2-2 0-.3-.1-.7-.4-.8-.6-.1-.3 0-.7 0-1 .2-.4.4-.7.6-1m4 2.9c.5.1.9.2 1.4.2.6 0 1.1 0 1.7-.1.5-.1 1-.3 1.5-.6.4-.2.9-.4 1.2-.9.1-.1.2-.1.3-.1.5 0 .9 0 1.4-.1.4-.1.9-.2 1.3-.4s.8-.5 1.2-.8c.2-.2.4-.5.5-.8.2-.4-.1-.7-.6-.7s-.7-.3-.8-.7c0-.2-.1-.3-.2-.5-.4-.4-1-.5-1.5-.6-1.4-.1-2.8-.1-4.1.5-.4.1-.8.1-1.1.5-.1.2-.3.2-.5.1-.4-.1-.9-.1-1.3-.1-.8-.1-1.7.1-2.5.3-.5.1-1 .4-1.5.6 0 0-.1.1 0 .1 0 0 .1.1.1.1.5 0 1 .3 1.6 0 .3-.1.4 0 .6.3l.3.3c.1.1.3.1.4.2s.1.3.1.5c-.1 0-.2 0-.4-.1-.6-.3-1.2-.1-1.8.1-.1 0-.2.2-.2.3.1.3-.2.3-.4.4-.3.1-.6.4-.5.7s.4.2.6.3c.5.1 1-.1 1.5-.3.3-.1.5-.1.7.1.1.1.3.3.3.5 0 .3.3.4.7.7m9.5-2c-.1-.1-.1-.1-.2-.2v.1c0 .1 0 .1.2.1z"/><path d="m161.4 92.2c-.6-.1-.9-.5-1.3-.8-.3-.3-.3-.7-.2-1s.4-.7.6-.9c.3-.2.7-.2 1-.1.2.1.5.3.8.1 0 0 .2.1.2.2 0 .4-.5.9-.9 1-.1 0-.2 0-.2 0-.1.1-.3.2-.4.2.2.1.4.3.5.2.8-.1 1.5-.4 2.2-.8.1 0 .2-.1.2-.2.2-.2.3-.2.5 0 .2.3.2.5-.1.8-.7.7-1.5 1-2.4 1.3-.1-.1-.3 0-.5 0z"/><path d="m30.4 2.4c-.3-.2-.6-.3-.5-.6s.2-.5.5-.6c.2-.1.7.2.7.4 0 0 0 .1-.1.1-.2.2-.4.4-.6.7z"/><path d="m24.4 93.6c0-.4.1-.6.3-.8h.1v.1c-.2.2 0 .3.1.5.1.1.1.3-.1.4-.1.1-.3.2-.4-.2z"/><path d="m42.5 108.9v-.1z"/><path d="m17.1 23.3c0-.1 0-.1 0 0z"/><path d="m135.2 27.9c-.1-.1-.2-.1-.3-.2.1 0 .2-.1.3-.1.5.1 1 .3 1.5.2.1 0 .2.1.3.1 0 0 .1.1.1.1s-.1.1-.1.1c-.7.2-1.3.1-1.8-.2z"/><path d="m74.1 38.8c-.1.1-.1.1-.2.1 0-.1 0-.1-.1-.2.2 0 .3 0 .3.1z"/><path d="m92.1 51.9c.1.1.1.1.2.1-.1 0-.1 0-.2.1 0 0 0-.1 0-.2z"/><path d="m67.8 30.8c-.1 0-.1 0 0 0-.1 0 0 0 0 0z"/><path d="m109.1 34.2c0 .1-.1 0 0 0z"/><path d="m119.4 20.5c0 .1 0 .2-.1.3-.1 0-.2-.1-.2-.1.1-.1 0-.3.3-.2z"/><path d="m156.5 56.6c-.5 0-.9 0-1.3 0-.9 0-1.9 0-2.8.1-.6.1-1.3 0-1.8.1-.6.1-1.1 0-1.7.2h-.1c-.8 0-1.5 0-2.3.1-.8.2-1.6 0-2.4.2-.5.1-1 .1-1.5.1-.6.1-1.2.1-1.9.2-.4.1-.7-.1-1.1-.2-.2-.1-.3-.7-.1-.9 0-.1.1-.1.2-.1.3.1.6.1.9-.1h.2c.6 0 1.3 0 1.9-.1 1-.1 1.9-.2 2.9-.3.5 0 1 0 1.5-.1.8-.2 1.5 0 2.3-.1.9-.1 1.8 0 2.7-.1.7-.1 1.4 0 2-.1.7-.1 1.5 0 2.2-.1.7-.2 1.5.1 2.2-.2h.3c1.1 0 2.1 0 3.2-.1.7-.1 1.5 0 2.2-.1.2 0 .5-.1.7-.2.5-.2 1.1.2 1.1.7 0 .3-.1.4-.4.4-.9 0-1.8 0-2.6.1s-1.6 0-2.4.2c-.5.1-1.1 0-1.6 0-.8 0-1.6.1-2.4.1.1.2 0 .3-.1.3z"/><path d="m164.2 65h1c.1 0 .3 0 .3.1s0 .3-.1.4-.2.2-.4.2c-1.1.3-2.3.7-3.4.9-.3.1-.6.2-1 .1-.3-.1-.3-.2-.4-.4 0-.2 0-.4.1-.5.1-.2.4-.3.6-.3.6-.1 1.1-.3 1.7-.4.3-.1.7 0 1 0 .2 0 .4 0 .6-.1z"/><path d="m131 80.4c0-.2.1-.3.1-.5 0-.6 0-1.2.2-1.7 0 0 0-.1 0-.2-.3-.8.2-1.6 0-2.4v-.1c.1-.1.1-.2.2-.2.1.1.2.2.2.2-.1.8.1 1.6-.1 2.4-.1.2 0 .4 0 .6 0 .7-.1 1.4-.4 2.1 0 .1-.1.2-.2.2 0-.1 0-.2 0-.3 0 0 0 0 0-.1z"/><path d="m132.5 69.5c.3.5.2 1.1.2 1.6 0 .1-.1.3-.2.3s-.3-.1-.4-.2c-.1-.3-.2-.6-.2-.9s0-.7 0-1.1c0-.1 0-.1.1-.2.1 0 .2 0 .2.1.1.1.2.2.3.4z"/><path d="m131 74.1c0-.1.1-.2.1-.3h.2c0 .3 0 .7-.2.9 0 0-.1 0-.2.1 0-.1-.1-.1 0-.2s.1-.3.1-.5z"/><path d="m109.6 75.5c0-.1 0 0 0 0z"/><path d="m6.4 46.7c0 .1-.1.2-.1.2.2.2.1.5.1.8.2 1.3.1 2.6.1 4 0 1.1 0 2.3-.1 3.4 0 .4-.1.8-.1 1.3 0 .1-.1.3-.2.4-.1-.1-.3-.3-.4-.4s0-.2 0-.3c0-.5 0-.9 0-1.4 0-.4.1-.8 0-1.3 0-.2-.1-.4-.1-.6s.1-.3 0-.4c0 0 0-.1 0-.2 0-.2.2-.4 0-.7-.1-.2 0-.5 0-.7s.2-.5.1-.7c-.3-.9 0-1.9-.2-2.8 0-.2 0-.4.1-.6 0-.7 0-1.5 0-2.2 0-.5 0-1.1-.1-1.6-.1-.2 0-.3.1-.3.2 0 .4 0 .5.2.1.3.1.5.1.8.1.7.1 1.3.1 2 0 .3 0 .7.1 1.1z"/><path d="m30.1 54c0-.1 0 0 0 0z"/><path d="m99.5 43.8c.5-.1.5.3.7.5 0 0-.1.2-.1.2-.4.1-.5 0-.6-.4 0-.1 0-.2 0-.3z"/><path d="m12.8 31c-.1 0-.1-.1-.1-.1 0-.1.1-.1.1-.2 0 0 .1 0 .1.1.1 0 0 0-.1.2z"/><path d="m22.1 51.7h.2v.1c-.1 0-.2-.1-.2-.1z"/><path d="m25.9 52.7c0-.1 0 0 0 0z"/></svg>