<svg enable-background="new 0 0 162.6 255.3" viewBox="0 0 162.6 255.3" xmlns="http://www.w3.org/2000/svg"><path d="m84 167.9c.3-.4.6-.7.9-1.1.6-1 1.2-2 1.8-3v-.1c.1-.1.3-.2.4-.3 0 .1-.1.3-.1.4-.3.5-.5 1-.8 1.5 0 .1 0 .1-.1.2h.2c.8-.2 1.5-.4 2.4-.3.1 0 .2.1.2.1 0 .1-.1.2-.1.2s-.1.1-.2.1c-.7-.1-1.3.4-2 .5-.1 0-.3.1-.4.1-.5-.3-.6.1-.8.4-1.1 1.7-2.2 3.3-3.3 5-.4.6-.6 1.2-1 1.8-.3.6-.6 1.2-.9 1.8-.8 1.7-1.6 3.3-2.5 5-.6 1.2-1.3 2.3-1.9 3.4-.2.3-.3.7-.4 1-.2.4-.4.9-.6 1.3-.9 2.1-2.1 4.1-3.5 5.9-1.1 1.5-2.2 3-3.3 4.5-1 1.3-1.9 2.6-2.9 4 0 .1-.1.1-.2.2-1.2 1.1-2 2.5-2.9 3.8-.7 1-1.4 1.9-2.1 2.9s-1.3 2-2 3c-.9 1.2-1.8 2.4-2.6 3.7-.7.9-1.3 1.9-1.9 2.9-1.2 1.8-2.2 3.7-3.3 5.5-1.3 2.2-2.7 4.3-4.1 6.5-1 1.6-1.8 3.4-2.7 5.1-.7 1.3-1.4 2.6-2.2 3.9-.7 1-1.2 2.2-1.8 3.2-.3.5-.5 1-.8 1.5-.1.2-.6.4 0 .6 0 0 0 .3-.1.4-.6.6-1.3 1.1-1.9 1.7-.2.2-.3.5-.4.7-.3.4-.4.8-1 .9-.2.1-.4.3-.4.6 0 .4-.2.7-.4 1.1-.7 1.2-1.3 2.4-2 3.5-.2.4-.4.7-.6 1.1-.5.6-.8 1.4-.9 2.1 0 .1-.1.3-.2.4-.1-.1-.2-.3-.3-.4 0-.1 0-.2 0-.2.4-.9.4-1.9.9-2.7.2-.4.4-.9.6-1.3 0-.1 0-.3-.1-.4-.2-.4-.2-.7.1-1 1.2-1.3 2.3-2.5 3.5-3.8.7-.8 1.2-1.8 1.8-2.7 1-1.5 1.5-3.2 2.3-4.7l.9-1.5s.1-.1.2-.1c.6.2.7-.3 1-.6.3-.4.5-.8.7-1.2 0-.1 0-.2 0-.3-.1.1-.3.1-.3.2 0 .3-.3.3-.4.2-.2-.1-.4-.3-.3-.6s.3-.6.5-.8c.9-1.2 1.8-2.4 2.6-3.6.9-1.3 1.7-2.7 2.6-4 .6-1 1.2-1.9 1.8-2.9.5-.8 1-1.7 1.6-2.6.6-1 1.2-2.1 1.9-3.1.9-1.4 1.7-2.8 2.7-4.1 1-1.4 2-2.7 3-4.1 1.4-2 2.8-4.1 4.1-6.2.1-.1.1-.2.1-.4-.1 0-.3 0-.4.1-.4.7-1.2.7-1.8.9-.2.1-.5.2-.6.3-.6.5-1.2 1-1.8 1.5-.3.2-.5.4-.8.6-.9.8-1.9 1.5-2.8 2.3-.6.5-1.1 1.1-1.7 1.6-.7.7-1.5 1.4-2.3 2s-1.6 1.1-2.4 1.8c-1 .9-2.1 1.5-3.2 2.1-.8.5-1.4 1.1-2.1 1.6-.1.1-.3.2-.4.3-.2.2-.5.4-.6.8s-.2 1-.9.9c0 0-.1.1-.2.2-.4.5-.5.5-.8 0-.1-.2-.1-.2-.3 0-.1.1-.1.2-.1.3-.1.2-.3.3-.5.1-.1-.1-.3-.2-.5-.3-.2-.2-.2-.4-.1-.7.1-.2.2-.5.1-.7-.2-.7-.1-1.5 0-2.2s.1-1.5-.1-2.3c-.2-.6-.2-1.2-.2-1.8 0-1 0-2.1 0-3.1 0-.9.1-1.8.2-2.7 0-.1 0-.2 0-.2.1-.1.2-.2.2-.3.1.1.3.2.3.3.1.5.2.9.1 1.4-.2.5-.2 1.1-.2 1.6 0 1.4-.1 2.8.2 4.2.3 1.7.3 3.3.3 4.9v.2c.1 0 .2-.1.2-.1.1-.1.2-.3.2-.4-.1-.6.2-1.2-.1-1.7-.1-.1 0-.4 0-.5-.1-3.3-.1-6.6-.1-9.8 0-.4-.2-.5-.4-.6-1-.4-1.3-.9-1-2 .1-.3 0-.6.4-.8.2-.1.2-.4.3-.6.1-.3-.1-.4-.2-.6-.3-.5.1-.8.3-1.1.4-.6.8-1.1 1.3-1.6.2-.2.4-.3.6-.4.1 0 .3 0 .5.1v.4c-.1.2-.3.4-.4.6-.5.6-1 1.1-1.5 1.7v.3c.1 0 .1-.1.2-.1.5-.4.9-.9 1.4-1.3.1-.1.3-.1.5-.2v.6c0 .1-.2.2-.3.3-.4.4-.9.9-1.3 1.3 0 0-.1.1-.1.2h.2c.3-.2.5-.3.8-.5.2-.2.5-.2.6.1.3.6.8.4 1.3.4.1 0 .2-.1.3-.1.6-.1 1.2-.1 1.7-.2.1 0 .2 0 .4-.1-.1-.1-.2-.2-.4-.2s-.5 0-.7 0c-.4 0-.7-.2-.8-.6-.1-.6-.4-1.1-.8-1.5-.1-.2-.3-.4-.3-.6-.1-.8-.1-1.5-.2-2.3s-.2-1.5-.3-2.3c0-.1-.1-.1-.1-.2-.1 0-.2 0-.2.1-.4.7-.8 1.4-1.2 2.1-.3.5-.6 1-.9 1.5-.1.1-.2.1-.3.2 0-.1-.1-.2-.1-.3 0-.2 0-.3.1-.5.2-.6.5-1.2.8-1.9 0-.1.1-.3 0-.4-.2-.4-.1-.9 0-1.3.4-1 .7-2.1 1.6-2.9.2-.2.2-.5.2-.7 0-.4 0-.7 0-1.1-.2.3-.4.6-.6.9-.3.5-.6 1-1 1.5-.1.1-.2.1-.3.2 0-.1-.1-.3-.1-.4 0-.2.1-.3.2-.5.5-1.1 1.1-2.2 1.7-3.2.4-.8.4-1.7.4-2.5 0 0 0-.1-.1-.1 0 0-.1.1-.1.1-.4.7-.8 1.4-1.2 2.1s-.7 1.3-1 2c-.1.2-.2.1-.3 0-.1-.2-.1-.4-.1-.5.4-1.1.8-2.1 1.3-3.1.1-.2.2-.4.4-.5.2-.2.3-.6.5-.6.8 0 .6-.5.6-.9 0-.8 0-1.5 0-2.3 0-.7-.1-1.4 0-2.1.1-.8-.1-1.6-.1-2.4 0-.1-.1-.1-.1-.2 0 .1 0 .1-.1.2-.5 1-1 2-1.6 3-.1.1-.2.2-.3.3 0-.2-.1-.4-.1-.5.1-.2.2-.5.4-.7 0-.1 0-.1 0-.2-.1 0-.2.1-.2.1-.1.1-.1.2-.1.3-.1.1-.1.2-.2.3-.1-.2-.1-.4-.2-.5 0 0 .1-.1.1-.1.3-.5.6-1 .9-1.4.4-.5.8-.9 1.2-1.3.2-.2.2-.5.1-.8-.3-.7-.2-1.5 0-2.2.2-.4.7-.3 1-.4.6-.2 1.3-.1 1.9-.2.8-.2 1.6 0 2.3-.3.2-.1.5 0 .5-.1.2-.2.2-.5.3-.8 0-.1 0-.3 0-.4 0-.9 0-1.8 0-2.6 0-1.6 0-3.2-.2-4.8s-.1-3.1-.1-4.7c0-.4.1-.8.2-1.3 0-.2.2-.4.4-.3.4.3.7.3 1.1.3.1 0 .1.1.2.1 0 .1 0 .2-.1.2-.3.1-.5.2-.8.3-.1 0-.2.2-.2.2 0 .1.1.2.2.2.5 0 1.1-.1 1.6-.2.2 0 .3-.6.2-.8-.3-.5-.1-.8.2-1.1.2-.2.4-.5.5-.7s.4-.5-.2-.5c-.1 0-.3-.2-.4-.3.1-.1.2-.2.2-.4.1-.1.2-.3.4-.4.1-.1.1-.2.2-.2.1.1.3.2.3.3-.2.5.4 1 0 1.6-.2.4 0 .7.5.8.3.1.4.2.4.5v.8c0 .6 0 .6.6.6h.3c-.1.1-.1.2-.2.3s-.1.1-.2.1c.1.1.2.1.3.2s.2.1.2.2c.1.1.1.3.2.4.1 1.5.1 3 .2 4.5 0 1.2.3 2.4.6 3.6.1.4.1.8 0 1.2s-.1.7.1 1 .3.6.3 1c0 .3.2.6.6.6.7 0 1.5-.1 2.2-.2h1c.4-.1.8-.2 1.2-.3s.8-.3 1.2-.4c.3-.1 1.3.5 1.2.6-.3.3.1.6 0 .8 0 .3.1.4.4.5.3.2.6.4.9.7s.2.4-.2.5-.8.4-.8.9c0 1.1-.1 2.3 0 3.4.2 1.9 0 3.7.2 5.5.2 1.9.1 3.9.1 5.8 0 1.2-.1 2.4-.1 3.6 0 .2-.1.4 0 .5.7.6 0 .9-.2 1.3-.1.3-.4.5-.6.7.3 0 .6 0 .9.1.6.2 1.2.1 1.7 0 .6-.1.8.1 1 .7 0 .2.1.4.2.5.2.3.3.5.1.8-.3.7-.6 1.4-.8 2.1-.2.5-.4 1-.6 1.5 0 .1 0 .2.1.3.1-.1.1-.1.2-.2s.1-.2.2-.3c.3-.9 1-1.6 1.7-2.1s1.2-1.2 1.7-1.9c.9-1.3 1.8-2.7 2.9-4 .9-1.1 1.8-2.3 2.6-3.5.6-.9 1-1.9 1.5-2.9.4-.7.7-1.4 1.1-2.1.8-1.5 1.7-2.9 2.5-4.4.3-.6.5-1.2.8-1.8.4-.9.9-1.8 1.4-2.7s1-1.8 1.4-2.8c.5-1.4 1.2-2.6 2.1-3.8.7-1 1.2-2 1.7-3.1.5-1.2 1.3-2.2 2-3.2.6-.9 1.2-1.7 1.8-2.6.1-.1.1-.3 0-.5 0-.2-.2-.3-.2-.4-.1-.4 0-.5.4-.5.3 0 .7-.1 1-.2.1 0 .1-.1.1-.2-.6-.3-.3-.9-.4-1.4-.1-.4-.4-.9-.1-1.4.1-.2-.1-.3-.3-.2-.2 0-.4.1-.6.2-.5.3-1.1.6-1.5 1-.9.6-1.7 1.3-2.6 1.9-.1.1-.2 0-.3.1-.4.1-.8.4-1.1.7-.5.6-1.2 1.1-1.9 1.4-.2.1-.3.3-.4.4-.6.6-1.3 1.1-2 1.5-1.3.6-2.5 1.5-3.6 2.3-.2.2-.5.3-.7.3-.5 0-.9.1-1.2.5-.2.2-.4.2-.6.3-.3.2-.6.2-.7.7-.1.4-.6.8-1 1-1.8 1.3-3.8 2.1-5.8 3.1-.9.5-1.8 1.1-2.8 1.3-.2 0-.4.1-.6.1-.2-.1-.4-.2-.5-.4 0-.1.1-.3.3-.4.5-.3.9-.5 1.4-.8 2.1-1 4.2-2 6.4-3.1.7-.3 1.2-.8 1.8-1.2h.1c0-.9.8-.7 1.3-1 .3-.1.5-.3.8-.4.3-.2.5-.4.9-.5s.7-.4 1-.7c1-.9 2.2-1.7 3.4-2.4.4-.2.8-.5 1.2-.7.3-.2.7-.2 1-.3.6-.2 1.2-.5 1.6-1 .8-.8 1.8-1.3 2.7-2 .3-.2.5-.4.8-.7.9-.8 1.8-1.6 3-1.9.1 0 .3-.1.4-.1.5 0 .6 0 .5-.6 0-.6.1-1.2-.1-1.8-.1-.3.1-.6.1-.9.1-1 0-2 0-3-.4-.3.1-.5 0-.8-.1-.6-.1-1.2 0-1.9 0-.6.2-1.2.3-1.8 0-.2 0-.4 0-.6 0-1.8 0-3.5 0-5.3 0-.6 0-1.3.1-1.9.1-.4.2-1-.1-1.4-.1-.1 0-.4 0-.5 0-.4 0-.8 0-1.2s.1-.8 0-1.2 0-.7 0-1.1c0-.3-.1-.7.1-1 .1-.1.1-.4 0-.5-.3-.8-.1-1.7-.1-2.5 0-1 .1-2 0-3-.1-1.4 0-2.8-.2-4.2-.1-.7-.1-1.4-.4-2.1-.2-.5-.2-1.2 0-1.8.1-.6.1-1.1.1-1.7 0-1.2 0-2.4-.2-3.6-.1-.8-.1-1.6-.1-2.4 0-.1.1-.2.2-.2 0 .1.1.2.1.2 0 .2 0 .5.1.7 0-.2.1-.5.1-.7-.2-1.2-.1-2.5-.2-3.7 0-.4-.2-.9-.3-1.3 0-.1 0-.3 0-.4 0-.3.2-.6.3-.9 0-.1-.4-.4-.6-.6-.1-.1-.2-.3-.1-.3.4-.7 0-1.3-.3-2-.3-1-.8-1.9-1.3-2.8-.1-.2-.4-.4-.5-.6s.2-.6.1-.8c-.2-.7-.5-1.4-.8-2.1-.6-1.6-1.4-3.2-2.1-4.7-.5-1-.9-2.1-1.3-3.1 0-.1-.1-.1-.1-.2-.3-.4-.7-.7-.8-1.1s-.4-.8-.6-1.2c-.5-.9-.9-1.9-1.3-2.8-.2-.4-.3-.8-.5-1.2-.8-1.4-1.3-3-1.8-4.5-.4-1.2-.8-2.4-1.4-3.5-.4-.8-.6-1.6-1-2.4-.2-.6-.5-1.1-.7-1.7-.5-1.4-1.1-2.8-1.6-4.2-.4-.9-.7-1.8-1.1-2.7-.4-1.2-.9-2.3-1.3-3.5-.2-.7-.4-1.5-.6-2.2-.5-1.5-1-2.9-1.5-4.4-.6-1.8-1.3-3.7-1.8-5.6-.6-2.1-1.4-4.1-2.2-6.2-.5-1.3-1-2.7-1.4-4-.4-1.1-.8-2.1-1.2-3.2-.5-1.4-1.1-2.7-1.6-4.1-.1-.3-.3-.5-.5-.8-.6-1.2-1.1-2.4-1.5-3.6-.7-2.1-1.4-4.1-2.1-6.2-.4-1.1-.6-2.1-.9-3.2-.1-.2-.2-.4-.2-.6 0 .2-.1.5-.1.7.2.9.5 1.7.8 2.6 0 .1.1.1.1.2s-.1.2-.2.3c0-.1-.1-.1-.1-.2-.2-.5-.5-.9-.7-1.4-.3-.8-.8-1.6-1-2.5-.2-1.4-.9-2.6-1-4 0-.4-.2-.7-.3-1-.2-.3 0-.4.3-.4h.6c.6 0 .8.2.8.7s.2.9.5 1.3c.2.3.3.7.4 1 .2.8.5 1.5.7 2.3.3.9.5 1.9.8 2.8.4 1.4.8 2.7 1.2 4.1.4 1.1.7 2.2 1.1 3.4.3 1 .7 2 1.1 2.9.7 1.5 1.3 2.9 1.9 4.4.8 2.1 1.5 4.2 2.3 6.2.1.3.2.7.3.9.8 1.5 1.2 3.1 1.7 4.7.6 1.9 1.2 3.8 1.9 5.8.7 2.1 1.3 4.2 2 6.3.3.9.7 1.9 1 2.8.5 1.8 1.3 3.4 2 5.2.5 1.1.9 2.3 1.2 3.5.2.7.6 1.4.9 2.1.4.8.7 1.7 1 2.5.2.5.4 1.1.7 1.6.5 1.2 1 2.5 1.4 3.7.3.8.6 1.5.9 2.3.6 1.4 1.2 2.7 1.9 4.1.2.4.4.9.6 1.3.1.3.3.5.7.5 1.2 0 2.4.2 3.6.4.6.1 1.2 0 1.8 0 .1 0 .2-.1.2-.2 0-.6.2-1.3-.2-1.9-.2-.2 0-.5.2-.6.7-.2 1.4-.6 2.2-.7 1.1-.1 2.2 0 3.2.2.4.1.8.1 1.2-.2-.5-.7-.2-.7.1-.7.1 0 .3.1.3.2 0 .7.6.5 1 .7.2.1.4.1.5.1.2 0 .3.1.3.3v1.4c0 .4-.1.8.1 1.3.1.3-.1.6-.1 1 0 .3-.1.5 0 .8.3 1 .1 2 .1 3.1 0 .4.1.8.2 1.3 0 .4-.1.8.1 1.3.1.3 0 .7 0 1 0 .1.1.2.1.2 0-.1.1-.2.1-.3 0-.2 0-.4 0-.5 0-.2.1-.4.1-.5 0-.7.1-1.4 0-2.1-.2-1-.1-2-.1-3 0-.4-.3-.1-.3-.2 0-.2-.1-.4 0-.6.2-.5.1-1.1.1-1.6 0-.4.1-.9-.1-1.3 0-.1 0-.2 0-.3.3-1.6-.1-3.1 0-4.7.1-1.1.2-2.2.1-3.3-.1-1-.1-1.9-.3-2.9-.2-1.1-.1-2.3-.2-3.4 0-.3.2-.3.4-.3s.3 0 .3.4c-.1.6 0 1.3 0 1.9 0 .2.1.3.2.5.4.4.4.8.4 1.3-.1 1.3 0 2.5-.2 3.8-.3 1.9 0 3.8-.1 5.6 0 .1.1.2.2.3 0-.1.1-.1.1-.2.3-1.5.6-3.1 1.1-4.5.3-.8.6-1.6.8-2.4.2-.6.4-1.2.6-1.8.2-.9.6-1.7 1-2.5.5-.9 1-1.7 1.5-2.6.2-.4.6-.8.7-1.3.4-.9.7-1.8 1.1-2.7.3-.6.4-1.3.8-1.8.1-.1.1-.4.1-.6s-.1-.4.2-.4c.2 0 .4-.1.4.3v.1c.1.1.1.1.2.2 0-.1.1-.1 0-.2-.1-.4.1-.5.5-.6.7-.1 1.4-.3 2.1 0 .4-.3.9.1 1.4-.1.3-.1.8 0 1.2.1.3 0 .6 0 .8-.4 1.3-2.8 2.7-5.5 4-8.3.2-.5.5-1 .6-1.5.3-1.1.8-1.9 1.3-2.9.6-1.3 1.2-2.6 1.9-3.9 1-1.9 1.9-3.8 3-5.6 1-1.8 2-3.5 3-5.2.4-.7.7-1.5 1.1-2.2.7-1.3 1.4-2.5 2.1-3.8.5-1 1.1-1.9 1.6-2.9.1-.1 0-.2.1-.3-.1 0-.2 0-.3.1-.2.1-.4.1-.5.3-.2.3-.4.4-.7.2-.3-.3-.4-.6-.1-.9.5-.6 1-1.2 1.7-1.6.8-.5 1.1-1.2 1.4-1.9.4-1.1 1-2 1.6-2.9.8-1.3 1.6-2.5 2.4-3.8s1.6-2.6 2.6-3.7 2-2.2 2.8-3.5c.4-.7.9-1.4 1.4-2.1.1-.2.2-.4.2-.6s.1-.5-.3-.3c-.1.1-.3 0-.4-.1.1-.1.2-.3.4-.3.3 0 .6-.1.7.2.1.2.1.4 0 .7-.2.6-.5 1-.8 1.5-.3.4-.3.6-.1 1 .1.3.2.8.1 1-.6.9-.7 2.1-1.3 3-.5.8-1.1 1.5-1.6 2.2 0 .1 0 .2-.1.3.1 0 .2-.1.2-.1.5-.6 1.1-1.3 1.6-1.9.1-.1.1-.3.2-.5.2-.6.5-1.2 1-1.6.6-.6 1.2-1.1 1.6-1.8.1-.1.4-.2.4-.2.2.1.5.4.4.5 0 .5.1.9.4 1.3.1.2.1.4-.1.5-.5.6-1.2 1-1.9 1.3 0 0-.1-.1-.1-.2 0-.2.1-.5.1-.5-.3-.2-.3.2-.5.4 0 0 0 0-.1.1-1 1-1.9 2-2.9 3-.4.4-.9.8-1.2 1.3-.3.4-.6.8-.8 1.1v.3c.1 0 .2-.1.3-.1.7-.5 1.3-1 1.9-1.5.5-.4.9-.8 1.3-1.3.1-.1 0-.3 0-.5 0-.1 0-.3 0-.4.1.1.3.1.4.2.4.3.6.6.4 1.1-.1.2-.3.4-.5.7-.6.7-1.4 1.3-2.2 1.9-.7.5-1.3 1-2 1.5-.3.2-.6.5-.9.7-1.5 1.4-2.5 3.1-3.4 4.9-.1.2-.2.4-.4.6-.3.6-.6 1.1-.6 1.9.1.8.1 1.7 0 2.5-.2 1-.1 2-.1 3 0 .4.1.9.1 1.3 0 1.1 0 2.3-.2 3.4-.3 2 0 4-.1 6 0 .8-.2 1.5-.1 2.3.3 5.4.1 10.7.1 16.1 0 1.1 0 2.1-.2 3.2-.1 1.2-.2 2.3-.3 3.5-.2 1.3 0 2.6-.1 3.8-.1 1.5-.2 2.9-.3 4.4-.1 1.3-.3 2.5-.3 3.8 0 .9-.2 1.9-.3 2.8 0 .1-.1.1-.1.2-.1-.1-.2-.1-.2-.2 0-.4.1-.7.1-1.1 0-.2 0-.4 0-.5 0-.8 0-1.6 0-2.3 0-.5.1-.9.1-1.4.1-.5-.1-1 .2-1.4 0 0 0-.1 0-.2.1-1.5.1-2.9.2-4.4 0-1.1 0-2.2.2-3.3.1-1.2.2-2.5.3-3.7.1-1.1 0-2.2.1-3.3.3-4.7.2-9.3.1-14 0-2.5-.1-4.9-.1-7.4 0-1.1.1-2.2.3-3.3 0-.2 0-.3 0-.5 0-1.5 0-3.1 0-4.6 0-1 0-2.1 0-3.1 0-.2 0-.4 0-.5s.4-.3 0-.4c-.1 0-.3.2-.3.3-.1.6-.5 1-.8 1.5-.4.5-.5 1.2-.9 1.6-1.3 1.6-2 3.5-3.1 5.2-.4.6-.8 1.2-1.1 1.8-.2.4-.4.8-.6 1.2-.1.2-.2.5-.4.7-.7 1-1.3 2.1-1.7 3.4-.2.6-.6 1.2-1 1.8-.1.2-.2.5-.3.7-.9 1.5-1.5 3.2-2.2 4.8-.6 1.2-1 2.5-1.5 3.7-.4.9-.9 1.7-1.4 2.6-.5 1-1 2.1-1.6 3.1-.5 1-1 1.9-1.4 2.9-.4.9-.8 1.9-1.2 2.9-.3.7-.7 1.5-1.1 2.2-.1.3-.3.5-.4.8-.6 1.2-1.4 2.4-2.1 3.5-.1.1-.2.2-.2.4 0 .1-.1.2-.1.3.1-.1.2-.1.3-.2.2-.2.3-.4.5-.6 0 0 .2-.1.2 0 0 0 .1.1.1.2s-.1.2-.2.2c-.5.6-1 1.2-1.5 1.8-.1.1-.3 0-.4 0-.4-.4-.4-.2-.4.2 0 .1-.1.2-.1.3-.9 1.9-1.6 4-2.4 5.9-.8 2-1.4 4.1-2.2 6.1-.4 1-.8 1.9-1.2 2.9-.5 1.2-.9 2.4-1.4 3.5-.4.9-.8 1.8-1.2 2.8 0 .1-.1.1-.1.2-.1-.1-.2-.1-.2-.2 0-.2.1-.4.1-.6 0-.1 0-.2-.1-.3-.1.1-.2.1-.2.2-.3.7-.2 1.4-.2 2.1.1.6.3 1.1.3 1.7 0 3.7-.1 7.4 0 11.1.2 4.9 0 9.8.2 14.7 0 1.1 0 2.3.4 3.4.1.2 0 .4 0 .5v8.2c0 .5-.1 1-.1 1.6-.1.5-.1 1.1-.1 1.6-.1.9-.2 1.8.1 2.7.1.1 0 .3 0 .5.1 1.6.1 3.2.2 4.8 0 .4.1.7 0 1s.1.7 0 1c0 .2.1.5.1.7v1c0 1.2.1 2.4.1 3.6 0 .5.1 1.1-.1 1.6-.1.2.1.6.1.9.1.4.1.7.2 1.1.1.8.6 1.4 1 2.1.1.2.2.3.3.5.5.7.5.7 1.2.4 1-.4 1-.4 1-1.5 0-1.2 0-2.3 0-3.5 0-.3 0-.7-.2-.9-.3-.5.1-.8.2-1.2.1-.3.2-.5 0-.7-.1-.2-.3-.4.1-.6.2-.1.3-.4.5-.5.1 0 .3.3.5.4.1.1.3 0 .5-.1.4-.2.6-.1.6.3s.2.9-.1 1.4c-.1.1 0 .3 0 .5v1c.1 1 .1 2 .1 3 0 1.2 0 2.4-.2 3.5-.1.3 0 .6 0 .9 0 .4.1.8-.1 1.1-.1.1.1.3.1.5v1.7c0 .4-.1.7.2 1 .4.4.6.8.9 1.2.1.1.2.2.2.3.4 1.3 1.1 2.5 1.8 3.6.2.2.2.5.4.8s.3.8.9.7c.1 0 .2.2.2.3s-.1.3-.2.3c-.3.1-.2.1-.1.4.9 1.7 1.8 3.4 2.7 5.1.2.4.6.7.9 1.1.2.3.5.5.2.9-.1.1.1.5.2.7.6 1.1 1.3 2.2 1.9 3.3.4.8.8 1.5 1.3 2.3 0 0 .1.1.1.1v-.1c0-.2 0-.4-.1-.6.3.1.3.4.4.6.3.6.7 1.2 1.2 1.7.7.7 1.2 1.7 1.7 2.6.1.2.3.4.4.6 0-.3.1-.5.1-.7 0-.4-.1-.7-.2-1.1 0-.2-.1-.3-.1-.5 0-.1 0-.3.1-.4.1.1.2.2.3.3 0 0 .1.1.1.1s.1-.1.1-.1c-.2-.7.1-1.4 0-2 0-.2-.1-.4-.1-.6 0-.9 0-1.8 0-2.7 0-1.8 0-3.6-.2-5.4-.1-.8.1-1.7-.3-2.5-.1-.1.1-.4.1-.6.1-1.7.1-3.5.1-5.2 0-.7 0-1.4 0-2.1s0-1.4 0-2.1c0-2.7.1-5.4.1-8 0-.7 0-1.4-.2-2-.1-.3 0-.5.2-.6.3-.2.4-.5.4-.9 0-.1.2-.2.2-.2.5.3 1 .1 1.4-.1.9-.2 1.8-.3 2.6-.5s1.6-.6 2.4-.8c.3-.1.6-.2.9-.2.2 0 .4.1.2.4-.3.5-.4 1.1-.3 1.7 0 .6-.1 1.3 0 1.9.2 1.7.1 3.5.1 5.2 0 .4.2.8.1 1.2-.3 2.5 0 4.9-.1 7.4 0 1.1-.1 2.1-.2 3.2-.1.8-.2 1.7-.3 2.5 0 .4-.1.8.1 1.3.1.3-.1.7-.1 1v6.2c0 .4.1.9-.1 1.3-.1.1 0 .3 0 .4 0 .2.2.5.1.7-.2.6-.2 1.3 0 1.9v.5c-.1 2.7-.1 5.5-.2 8.2 0 1.2-.2 2.5-.3 3.7 0 .6 0 1.2.2 1.7s.5 1 .8 1.5c.1.2.2.4.3.6 0 .1.1.1.2.2 0-.1.1-.1.1-.2.1-.6.1-1.3.2-1.9 0-.1.1-.3.2-.4.1.1.2.3.2.4 0 .3-.1.7-.1 1 0 .8-.2 1.6.1 2.3 0 .1.2.2.3.2 0-.1 0-.2.1-.3 0-1.3 0-2.7 0-4 0-.7-.1-1.5.1-2.2.1-.4.1-.8-.1-1.3-.1-.2-.1-.5 0-.8.2-.5.1-1.1.1-1.7 0-2 0-4.1 0-6.1 0-1.8 0-3.5.2-5.3.1-1.3-.1-2.5 0-3.8.1-1.2 0-2.5 0-3.7 0-1-.1-2-.1-3 0-1.5.1-3 .1-4.5 0-.9-.1-1.7-.3-2.5 0-.1 0-.2 0-.2 0-1.2-.1-2.4 0-3.5.2-1.7.2-3.4.1-5.1-.2-2.1-.1-4.1-.1-6.2 0-.7.1-1.4.1-2.1 0-.1.1-.2.1-.3s.1-.2.1-.3c.1.1.2.2.2.3 0 .4.1.9 0 1.3-.1.3-.1.6-.1.9 0 1.3-.1 2.6 0 3.8.2 3.8.1 7.5.2 11.3 0 .6.3 1.2.3 1.8 0 1 .2 2.1-.1 3.1v.5c0 .6.1 1.3-.1 1.9-.1.1.1.4.1.6.1.8.1 1.6.2 2.4 0 .3-.1.6-.1.9 0 .2-.1.4 0 .6.2.5.1 1.1.1 1.7v2.7c-.2 3.6 0 7.2-.2 10.8-.1 2 0 4.1-.1 6.1 0 .7-.2 1.3-.1 2 .2 1.3.1 2.5.1 3.8 0 .2-.1.5-.1.7 0 .4.1.8.3 1.1.8 1.1 1.6 2.1 2.4 3.2.1.1.1.2.2.2 0 0 .1-.1.1-.1 0-.4-.1-.7-.1-1.1 0-.2 0-.3 0-.5-.2-4.8-.2-9.7-.1-14.5 0-1.5 0-3.1.2-4.6.3-2.9.1-5.8.1-8.7 0-1.1-.1-2.2-.1-3.4 0-.4-.2-.8.1-1.2 0-.1 0-.2 0-.3 0-.3-.2-.7-.1-.9.2-.5.1-1 .1-1.4 0-.5-.1-1.1 0-1.6.2-1.5.1-3 .2-4.5 0-.4.1-.8.1-1.3 0-.3-.2-.6-.1-.9.2-1.6 0-3.2.2-4.8.2-1.9.3-3.8.3-5.7 0-.9-.1-1.9-.8-2.6-.1-.1-.1-.3-.1-.4 0-.2.1-.5.1-.7s.1-.3.3-.3c.3-.1.4-.4.3-.7 0-.3.1-.6.5-.7h.4c.3.3-.1.1-.2.2-.3.3-.5 1.5-.2 1.9 0 .1.2.1.2.1.3-.1.6-.2.7-.5.2-.2.2-.5.3-.8.1-.4.1-.7.2-1.1 0 0 .1-.1.2-.1 0 0 .1.1.1.1 0 .4-.1.7-.1 1.1v.4c.1 0 .2-.1.3-.1.5 0 .6-.2.6-.6 0-.5.1-.9.2-1.4 0-.1.1-.2.2-.3.1.1.2.2.2.3v.5c0 .2-.1.4-.1.6 0 .6 0 .6.6.4.3-.1.6.1.8-.2.1-.2 0-.6.1-.8.1-.4.2-.8.3-1.2 0-.1.1-.1.1-.1l.2.2v.7c0 .4-.1.7-.1 1.1 0 0 .2.2.2.2.5-.1 1-.3 1.5-.4.2 0 .3-.1.3-.3 0-.4 0-.7 0-1.1 0-.2 0-.4.1-.5.2-.1-.1-.6.3-.5.3.1.3.5.2.7-.3.4-.1.9-.1 1.3 0 .2.1.3.3.2.4-.2.8-.3 1.3-.3.2 0 .3 0 .3-.3 0-.7.1-1.3.2-2 0-.1.1-.2.1-.3.1.1.3.1.3.2.1.2.1.4 0 .5-.3.5-.1 1-.1 1.4 0 .1.1.1.1.2l.2-.2s0-.1 0-.2c0-.3 0-.5.4-.5.1 0 .3-.2.4-.4.1-.5.2-1 .2-1.5 0-.3.1-.3.4-.3s.5.1.4.4c-.1.2-.1.3 0 .5s.1.4 0 .6c-.2.5-.3 1-.3 1.6 0 .1-.1.2-.1.2-.5-.3-.3.1-.3.3-.1 1.2 0 2.5-.2 3.7-.1.7 0 1.5-.2 2.2-.2.9 0 1.8.2 2.7v.2c-.2.5 0 1 0 1.4v1.6s-.1 1.1 0 1.6c.2.8 0 1.6.3 2.4.1.2-.1.4-.1.6 0 .8-.1 1.7 0 2.5.1.6.2 1.2.1 1.7-.2.8-.1 1.6-.1 2.4 0 .5-.1 1.1.1 1.6.1.2 0 .6 0 .8s-.1.4-.1.6v.6c-.1 1.4-.1 2.9-.1 4.3 0 .9.1 1.7.1 2.6 0 .4.1.9-.1 1.3-.1.1 0 .4.1.6 0 .1.1.1.1.2-.3.7.1 1.4 0 2.1s0 1.5 0 2.3c0 1.8.1 3.7 0 5.5-.1 1.5-.1 3.1-.1 4.6 0 .3-.1.5.1.8.1.1 0 .4 0 .7 0 .2-.1.4-.1.5.3 1.1.1 2.3.1 3.4 0 1.2.1 2.4 0 3.7-.1 1.6-.2 3.2-.1 4.9 0 .9 0 1.7.2 2.6.1.5.3.9.5 1.3s.4.7.6 1.1c.1.1.1.3.1.4s-.1.3-.2.3-.2-.1-.3-.2c-.2-.2-.3-.4-.4-.6 0 .3 0 .6-.1.9-.2 1.4-.2 2.7-.1 4.1 0 .7.1 1.3.3 2 .1.6 0 1.3 0 1.9 0 .3.1.6.3.8 1.1 1.2 1.9 2.5 2.9 3.8 1.4 1.8 2.6 3.7 4 5.6.9 1.3 1.9 2.5 2.7 3.9.8 1.2 1.4 2.4 2.2 3.5.1.2.4.4.6.6s.4.4.6.7c.2.4.4.8.6 1.2 0 .1.1.2 0 .2s-.2.1-.3.1-.2-.1-.3-.2c-.3-.3-.7-.6-1-1-.5-.6-1.1-1.2-1.5-1.9-.8-1.1-1.5-2.2-2.3-3.3-.8-.4-1.1-1.3-1.6-2-.5-.6-.9-1.3-1.4-1.9-.6-.9-1.2-1.7-1.9-2.6-.1-.1-.2-.1-.3-.2 0 .1 0 .2.1.3.4.7.8 1.5 1.3 2.2.2.3.3.6.5.9 0 .1.3.2 0 .3-.1.1-.4.1-.5 0-.2-.2-.5-.5-.6-.8-1.3-2.4-2.6-4.9-4.2-7.1-.2-.3-.4-.5-.5-.8-.1-.5-.4-.7-.9-.7-.1 0-.2-.2-.4-.3-.1-.1-.1-.6-.5-.3 0-.1-.2-.4-.1-.4.3-.5 0-.7-.3-1-.8-.9-1.6-2-2.2-3.1-.9-1.5-1.8-2.9-2.7-4.4-.6-.9-1.2-1.8-1.8-2.7-.5-.8-1.1-1.6-1.6-2.4-.3-.4-.6-.8-.9-1.2-.1-.1-.2-.3-.3-.2-.7.1-.9-.5-1.1-.9-.5-.8-1-1.7-1.5-2.6-.2-.4-.3-.9-.9-1.1-.1 0-.2-.2-.2-.4 0-.7-.4-1.3-.6-2 0 0-.1-.1-.1-.1.3-.8-.3-1.2-.6-1.7s-.5-1.1-.9-1.6c-.2-.3-.2-.7-.7-.9-.1 0-.1-.1-.2-.2-.4-.7-.9-1.3-1.3-2-.2-.4-.4-.7-.8-.9s-.7-.7-.9-1.1c-.9-1.4-1.8-2.8-2.7-4.2-1-1.6-2.1-3.1-3.1-4.7-.4-.6-.8-1.1-1.1-1.7-.2-.4-.4-.8-.6-1.2-.5-.9-1.1-1.9-1.7-2.8-.8-1.4-1.6-2.9-2.3-4.3-.5-1-1.1-1.9-1.8-2.8-.7-.7-1.1-1.7-1.5-2.6 0-.1 0-.2 0-.3.1.1.2.1.3.2.3.6.7 1.3 1 1.9 0 .1.1.1.2.1 0-.1 0-.2 0-.2-.3-.6-.7-1.2-1-1.8-.2-.4-.5-.9-.7-1.3s-.4-.6-.9-.5c-.2 0-.5-.1-.7-.1-.1 0-.2-.1-.3-.2.1-.1.2-.1.3-.1h.5c.5 0 .5 0 .3-.5-.6-1.2-1.4-2.3-1.9-3.6-.4-.8-1-1.5-1.4-2.3-.7-.3-.7-1-1-1.5-.1-.2-.1-.4-.4-.2 0 0-.2-.2-.2-.3.1-.5-.3-.8-.5-1.1-.3-.6-.7-1.1-1.1-1.7-.1-.1-.2-.2-.2-.4-.2-.4-.6-.3-.8-.1-.7.7-1.7.8-2.5 1.2-.1.1-.4-.1-.5-.1.1-.1.3-.3.4-.3.4-.2.8-.3 1.2-.5.6-.3.6-.3.4-.9-.2-.5-.4-1-.5-1.5-.2-.6-.7-.9-1.2-.9-.4 0-.8.3-1.1.5-.2.2-.3.2-.5 0s-.5-.5-.8-.6-.7-.1-1-.1c-.2 0-.4.1-.6.1-.7 0-1.3.2-1.9.3-.5.1-1.1 0-1.6 0-.2 0-.5 0-.6.1-.2.2-.2.5-.3.7v.3.9c.3 0 .5-.1.8-.1h3.6c.3 0 .6 0 .7-.4 0-.1.3-.2.4-.3.1 0 .2-.1.2-.2 0-.2.1-.5.3-.4.3.1.7 0 .8.4.1.2.2.5.4.6.3.2.7.2 1.1.1s.7-.1 1.1-.1c.1 0 .1.1.2.1 0 .1 0 .1-.1.2 0 .1-.1.1-.2.1-.7.2-1.4.3-2.1.5-.7.1-.7.2-.7.8 0 1 .1 1.9.1 2.9 0 .4.1.8-.1 1.1v.3h.2c.5-.5 1.1-.4 1.6-.4 1.2 0 2.3-.3 3.4-.6.3-.1.3.1.4.1-.1.1-.2.2-.3.3-.7.2-1.3.4-2 .6-.6.2-1.1.1-1.7.2-.1 0-.2.1-.3.1.1.1.2.1.3.2.2.1.4 0 .5.1s.1.3.1.4c-.1 0-.2.1-.4.1s-.5-.1-.7-.1c-.9 0-1.2.3-.9 1.2.1.2.1.4.1.6 0 .7.1 1.3.3 1.9.1.4.1.9.2 1.3s.3.6.7.6c.3 0 .6-.1.9-.1.1 0 .2-.1.2 0 .4.4.8.3 1.3.3.1 0 .1.1.2.1-.1.1-.1.1-.2.2-.1 0-.1.1-.2.1-.7 0-1.3 0-2 .3-.2.1-.5.1-.7.1 0 .2.1.5.1.7.1.8.3 1.6.4 2.4 0 .1-.1.2-.1.3s-.1.2-.1.2c-.1-.1-.2-.1-.2-.2-.1-.3 0-.6-.1-1-.2-.6-.3-1.3-.3-2 0-.2 0-.5-.3-.6s-.6-.1-.8.2c-.1.1-.1.2-.2.2 0-.1-.1-.2-.1-.2-.1-.1-.2-.2-.3-.2-.5 0-1.1 0-1.6 0-.2 0-.5.1-.7.1-1.1 0-2.2.1-3.3.3-.5.1-1.1.1-1.6.2-.7.2-1.5 0-2.2.3-.1 0-.3-.2-.4-.3 0-.1.1-.3.2-.4 0-.1.2 0 .3 0 1.3-.1 2.5-.1 3.8-.3.7-.1 1.4-.1 2.1-.1 1.3-.1 2.6-.1 3.9-.2.8 0 1-.2.9-1 0-.6-.2-1.3-.3-1.9s-.1-1.2-.2-1.7c0-.2-.1-.4-.1-.6 0-.4-.1-.5-.5-.3-.1.1-.3.1-.4 0-.3 0-.6-.2-.8-.1-1.3.3-2.7.1-4 .1-.3 0-.5-.1-.8.1-.1.1-.4.1-.5 0-.2-.1-.3-.3-.5-.5.1-.1.3-.1.4-.1.4-.1.7-.1 1.1-.2h4.5.5c.6-.1.6-.3.6-.9 0-1.1-.5-2.1-.5-3.2 0-.4-.1-.7-.2-1.1s-.2-.5-.6-.3c-.2.1-.3.1-.5.2-.3.2-.6.1-.6-.3 0-.3-.1-.3-.3-.3-1.2 0-2.3 0-3.5 0-.4 0-.6.2-.7.5-.4.8-.8 1.6-1.3 2.4-.1.2-.3.4-.4.6 0 .1-.2 0-.3.1 0-.1 0-.2 0-.3s0-.2 0-.3c-.1.1-.2.1-.2.2-1.1 1.9-2.3 3.7-3.3 5.6-.2 0-.2.1-.2.2-.2.2-.2.3-.4.5-.1.2-.2.3-.3.5-.1.1-.1.2-.1.2h.1c0-.1 0-.2.1-.3.1-.2.2-.3.3-.5.1-.1.2-.2.3-.4m54.8-154v.1s.1-.1.2-.1v-.1c-.1 0-.1 0-.2.1m2-1.4c.1-.1.2-.1.2-.2 0 0 0-.1-.1-.1-.1.1-.1.1-.2.2 0 0 0 .1-.1.1v.1c.1 0 .1-.1.2-.1m1-.8c-.1.1-.2.1-.2.2 0 0 0 .1.1.1.1-.1.1-.1.2-.2 0 0 0-.1.1-.1v-.1c-.1 0-.1.1-.2.1m-50.9 86.2h1c.1 0 .1-.1.2-.2 0 0-.1-.1-.1-.1-.4 0-.8-.1-1.2.3v.1s0 0 .1-.1m44.3-80.4c-.2.2-.3.5-.6.7-.5.3-.5 1.1-1.1 1.3 0 0-.1.1-.1.2.1.2.6.2.7-.1.3-.6.7-1.1 1-1.7.1-.1 0-.3.1-.4 0-.1.1-.2.1-.3s0-.1.1-.2c-.1.1-.2.1-.2.2.1.1.1.2 0 .3m-11.4 169.1c.1-.1.1-.1.2-.2.4-.8.8-1.7 1.2-2.6.2-.4.4-.7.3-1.2 0-.1 0-.2-.1-.3 0 .1-.1.2-.1.2-.5 1-.9 2.1-1.4 3.1-.1.3-.1.6-.3.9 0 .1 0 .2-.1.2h.1c.1.1.1 0 .2-.1m.3-149.6c.4-.5.9-.8 1.2-1.5s.6-1.4 1.1-2c1.1-1.5 1.9-3.1 2.7-4.8.4-.9 1.1-1.6 1.5-2.4.7-1.3 1.7-2.5 2.1-3.9 0-.1 0-.2 0-.3-.1.1-.3.1-.3.2-.6 1.1-1.3 2.1-1.9 3.2-.8 1.5-1.7 2.9-2.5 4.4-.9 1.6-1.7 3.2-2.6 4.7-.3.5-.6 1-.9 1.6-.2.3-.3.6-.6.9v.1c.1-.1.1-.2.2-.2m-35.9 48.7c0-.2-.1-.5 0-.7.3-.9.1-1.7.1-2.6 0-.2-.1-.3-.3-.2-.5.1-1 .2-1.3.5-.2.2-.1.8-.1 1.3 0 .1.1.3.1.4 0 .2 0 .3.3.4.1 0 .2.2.4.4-.2 0-.4.1-.6 0-.4-.1-.6-.4-.7-.8 0-.5-.1-.9-.1-1.4 0-.4-.3-.2-.4-.2-.3 0-.2.1-.1.3.1.3.2.7.2 1.1.2.9.9 1.4 1.6 1.2.4-.1.5 0 .6.3 0 0 .2 0 .3.1-.1.8-.2 1.6-.3 2.4 0 .1-.2.3-.3.4-.1-.1-.2-.2-.3-.4v-.1c-.1-.6-.1-1.2-.1-1.8 0-.2 0-.3-.3-.3-1-.1-1.5-.8-1.7-1.7-.2-.5-.2-.9-.3-1.3 0-.1-.2-.2-.2-.2-.6.2-1.2.1-1.7.1-.1 0-.1 0-.2.1 0 0 0 .1.1.1.5.4.7 1 .9 1.6.8 1.7 1.5 3.4 2.2 5.1.4.9.7 1.9 1.1 2.9.3.9.6 1.8.9 2.6.2.5.3 1 .5 1.5 0 .1.1.1.1.1v-.1c0-.1 0-.2 0-.3-.1-1.6-.1-3.2-.2-4.8 0-.9 0-1.9 0-2.8s-.2-1.8 0-2.7c0-.1 0-.2 0-.3.1-.1-.1-.1-.2-.2m57.1 123.9c0-1 .1-2.1.1-3.1.1-1.4.1-2.8-.1-4.1-.2-1.4-.1-2.9-.2-4.3-.1-1 .1-2.1.1-3.1 0-5.2 0-10.4 0-15.6 0-.9.1-1.9.1-2.8.1-1.7.2-3.5-.1-5.2 0-.2-.1-.4 0-.5.2-.3.1-.5.1-.8 0-2.8.1-5.7-.1-8.5 0-.3-.1-.6 0-.9s0-.7 0-1.1c0-1.7-.1-3.3-.1-5 0-.3 0-.4-.3-.4-.7 0-1.3.1-1.9.3-.7.2-1.5.2-2.2.3-.2 0-.6-.1-.7.2-.1.2-.2.5-.2.8 0 .7.1 1.5.1 2.2.1 1.8.2 3.7.2 5.5 0 1-.1 2-.1 3.1 0 1.3.1 2.7.1 4 .1 1.5-.1 2.9.1 4.4.1.6.1 1.3.2 2 0 .5 0 1 .2 1.5.2.7.1 1.3.3 2 0 .1 0 .3-.1.4 0 .3-.2.7-.1 1 .1.4.1.7.1 1v9c0 .2-.1.5 0 .6.2.4.1.8.1 1.2s.1.7 0 1.1c-.1.9-.2 1.7-.2 2.6v5.8c0 .2.1.4 0 .5-.3.8-.3 1.7-.3 2.5 0 .5.1.8.5 1.1.6.5 1.1 1 1.6 1.5.7.6 1.4 1.3 2 1.9.1.1.2.1.3.2.2.2.2.1.2-.1.3-.4.3-.7.3-1.2m-103.5-23.9c-.1 1-.1 1.9-.1 2.9 0 2.1-.1 4.2.2 6.3.1.5 0 1.1.6 1.5.2.1.3.5.3.7 0 .3-.1.6-.1.9-.1.6.2 1.1.7.9s1-.1 1.5-.1c.2 0 .5.1.7 0 .5-.3 1.1-.2 1.7-.4.9-.2 1.8-.3 2.7-.5s1.8-.3 2.7-.4c1.3-.1 2.5 0 3.8 0 .1 0 .4.1.4-.2 0-1.1.1-2.1 0-3.2-.1-1-.3-2.1-.3-3.1 0-.4 0-.9 0-1.3 0-1 0-2-.1-3.1-.1-.4.1-.8.1-1.3 0-.6-.1-1.1-.1-1.6-.1-1.9.1-3.8-.1-5.7-.1-1.1.1-2.1.1-3.2 0-.8-.5-1.1-1.2-.9-.1 0-.3.1-.4.1-.5.1-1 0-1.5.1-.5.2-1-.1-1.5 0-.4.1-.9-.1-1.3-.1-1.1 0-2.1 0-3.2 0-.2 0-.4.1-.6.1-.5.1-1 .5-1.6.2-.1-.1-.4 0-.6 0-.6.1-1.2.5-1.9.4-.5 0-.7.2-.7.8v1.8 1.2 1.1c0 .4.1.8.1 1.3-.3 1.5-.3 3.1-.3 4.8m10.9 22.6c1.2-1.1 2.4-2.2 3.7-3.4.1-.1.1-.1.2-.2.5-.4 1-.8 1.5-1.2.2-.2.4-.3.2-.6-.1-.3-.5-.3-.7-.2-1.1.5-2.2.4-3.4.6-.3.1-.6 0-.9.1-.2.1-.6-.1-.9-.1-1.6 0-3.2 0-4.7 0-.9 0-1.7.3-2.5.4-.6.1-1.2.3-1.7.2s-.9-.1-1.4-.1c-.2 0-.5 0-.6.1-.2.2-.3.5-.3.8-.1 1-.1 2-.2 3 0 .6 0 1.1.1 1.7.2 1 .3 2 .3 3.1 0 .6.1 1.2-.1 1.8-.1.2-.1.4 0 .5.3.6.1 1.2-.1 1.8-.1.2-.1.5 0 .5.2.1.3-.1.4-.3 0-.1.1-.2.2-.2.6-.4 1.3-.9 1.9-1.3 1.3-.9 2.7-1.6 3.9-2.7.6-.5 1.2-1.1 1.9-1.5 1-.7 2.1-1.7 3.2-2.8m43.5-111.6c0-.2.1-.4 0-.5-.3-.7-.2-1.4-.3-2.1-.2-1.4-.1-2.8-.2-4.1 0-.2-.1-.4-.2-.4-.5-.1-.4-.5-.4-.8 0-.4 0-.9 0-1.3s.2-.8-.1-1.2c0 0 0-.1 0-.2 0-.2.1-.4.1-.6 0-.8-.1-1.6-.1-2.4 0-.7 0-1.4 0-2.1 0-.3-.1-.6.1-.9 0 0-.1-.2-.2-.2-.5 0-.9.1-1.4.1-.6 0-1.3 0-1.9 0-.4 0-.4.3-.5.6s.1.5.5.5c.2 0 .5.1.7.2.1 0 .2.2.1.3s-.2.2-.3 0c-.1-.1-.4 0-.6 0-.1 0-.2.1-.2.1-.2.5.1 1.2.5 1.6.2.1.2.3 0 .3-.4 0-.4.2-.3.4 0 .5.1 1 .1 1.6 0 .4 0 .7.6.7.1 0 .1.1.2.2-.1 0-.2.1-.3.1-.5.1-.6.4-.5.9v.9c0 .2-.1.4-.2.6-.1.1-.2.2-.3.3-.1-.1-.3-.3-.3-.4 0-.3-.1-.7 0-1 .1-.7 0-1.4 0-2.1.1-.7-.3-1.3 0-2v-.1c-.3-.5-.2-1.1-.1-1.6 0-.6-.4-1.2 0-1.7 0 0-.1-.2-.1-.2-.4 0-.8 0-1.2.2-.4-.3-.4.1-.4.5v.3c.3.6.1 1.2.2 1.8 0 1.2.1 2.3.1 3.5.1 3.4 0 6.7.2 10.1.1 1 .1 2.1.2 3.1 0 .2.1.4.2.6 0 0 .1.1.2.1s.1-.1.1-.1c0-.3.1-.7 0-1-.2-.7-.3-1.5-.3-2.2 0-4.5 0-9 0-13.5 0-.9-.1-1.7-.4-2.5-.1-.4.1-.6.2-.9 0 0 .1 0 .1-.1 0 0 .1.1.1.1 0 .3-.1.7 0 1 .3 1.1.5 2.1.5 3.2v12.2.5c0 .1 0 .1.1.2 0-.1 0-.1.1-.2s.2-.4.3-.4c.4 0 .8-.3 1.2.1-.1.2.1.2.2.2.9.1 1.8.1 2.7.2.2 0 .4.1.6.2.4.1.4.1.6-.7m42.6 119.4c.5.7.9 1.5 1.4 2.2.7 1 1.2 2.2 2 3.1.4.4.9.8 1.1 1.3.6 1.1 1.4 1.9 2 2.9 0 .1.1.1.2.1 0-.1.1-.1.1-.2 0-.7-.2-1.5-.1-2.2 0-1.3-.1-2.7.1-4 .1-.7 0-1.5 0-2.3 0-.5-.1-.9-.4-1.3-.6-.8-1.2-1.6-1.9-2.3-.6-.7-1.2-1.3-1.8-2-.4-.5-.6-.5-1.2-.2-.1.1-.3.1-.4.2-.8.2-1.6.4-2.5.6-.5.1-.9.2-1.3-.2 0-.1-.2-.1-.3-.1 0 .1 0 .3.1.3.6.5 1 1.3 1.5 2 .6.6.9 1.3 1.4 2.1m-45.7-85.5c-.3-.1-.6.3-.9 0-.1-.1-.3 0-.3.2.1.8 0 1.6.2 2.3.1.7.2 1.4.3 2.1 0 .7-.1 1.4 0 2.1.2.7-.1 1.4.3 2.1v.3c-.3.7-.3 1.5-.3 2.3 0 .3 0 .5.4.5 1.5-.1 3.1-.1 4.6-.2.2 0 .3 0 .3-.3 0-.2-.1-.5-.1-.7 0-.3-.1-.7 0-1 .2-.4.2-.9.1-1.3-.1-.5-.1-1.1-.1-1.6 0-1.8 0-3.6 0-5.4 0-.2 0-.4 0-.5-.1-.5-.2-.6-.7-.6-1.3.1-2.5 0-3.8-.3m11-53.7c.3-.5.6-1 .8-1.6.6-1.8 1.4-3.6 2.3-5.3.2-.4.2-.8.2-1.2 0-.3-.1-.6-.1-.9 0-1.9 0-3.8 0-5.8 0-.2-.1-.4-.1-.6 0 0-.1-.1-.1-.1s-.1.1-.1.1c0 .8-.4 1.5-.6 2.2-.5 1.7-1.1 3.3-1.8 4.9-.3.6-.5 1.3-.7 1.9-.3 1-.7 2-1 2.9-.5 1.3-1 2.5-1.5 3.8-.2.5-.3 1.1-.5 1.7-.1.4-.3.9-.5 1.3-.4.7-.8 1.4-.9 2.3 0 .1-.1.2-.2.4-.1-.1-.2-.2-.2-.3s.1-.4-.2-.3c-.1 0-.1.2-.1.4 0 1.9.1 3.7.2 5.6 0 .1 0 .1.1.2 0-.1.1-.1.1-.2.7-1.7 1.4-3.3 2.1-5 .4-1 1-1.9 1.5-2.9.3-1 .8-2.2 1.3-3.5m-4.8 48.4c0-.6.1-1.3 0-1.9-.3-1.2-.3-2.5-.4-3.7-.2-3.8.1-7.6-.2-11.5 0-.4.1-.8-.4-.9-.1 0-.2-.3-.2-.5-.1-.3-.2-.7-.3-1 0 0-.3-.1-.3 0-.1.1-.2.3-.2.5s.1.5.1.7c-.1 2.6.1 5.2-.1 7.7-.1 1.5-.2 3 .1 4.5.2 1.1.1 2.3.2 3.4 0 .3-.1.6.2.8.1.1.1.3.1.4-.2.6-.2 1.2 0 1.8.1.2 0 .4-.1.7 0 .1-.1.3-.1.4.2.5.1 1.1.1 1.6 0 .4 0 .7.1 1.1s0 .9 0 1.4c0 .4-.2.8-.1 1.1.1.4.1.8.1 1.3v1.5c0 .5.1 1 0 1.6-.1.5 0 .9 0 1.4 0 .7-.1 1.4.1 2.1.1.2.1.4 0 .5-.2.3-.1.7-.1 1 0 .4.1.8.1 1.3 0 .4.2.5.8.6.4 0 .3-.3.3-.5 0-.1 0-.2 0-.3 0-.9-.1-1.7-.1-2.6-.1-.9-.1-1.9 0-2.8.1-1.6.1-3.1.2-4.7 0-.1.1-.2.1-.4 0-.9 0-1.8 0-2.7 0-.3 0-.7 0-1 0-.4.2-.9.1-1.3-.1-.7-.1-1.1-.1-1.6m-38.5 58.9c-.1-.2-.1-.5-.1-.7 0-1.2 0-2.4-.1-3.7-.1-1.1 0-2.3 0-3.4 0-.2.1-.4.1-.6 0-.1 0-.2 0-.3-.1 0-.2 0-.2.1-.4.3-.8.7-1.2 1-.3.2-.6.5-.9.7-.7.4-1.1.2-1.1-.6 0-.7 0-1.4 0-2.1 0-.2 0-.4-.1-.6 0-.1-.1-.2-.2-.3 0 .1-.1.2 0 .3.3.7.1 1.5.1 2.2 0 .3-.2.6-.1.8.2.4.1.7.1 1.1v4.7 1.8c0 .1.1.1.1.2 0-.1.1-.1.1-.2.2-.7-.2-1.4.1-2.2.1-.3-.1-.8.1-1s.6-.2.9-.4c.2-.1.4-.2.5-.2.6-.2.6-.2.6.5.1 1.5-.2 2.9.1 4.4 0 .2-.1.5-.3.6-.5.3-.7.8-1.1 1.2-.1.2-.4.4-.6.4-.3 0-.4-.1-.4.3 0 2.9-.1 5.7.3 8.6 0 .1 0 .1.1.2l.2-.2c.6-.7 1.3-1.4 1.9-2.1.5-.5 1.1-1 .6-1.8 0-.1 0-.2 0-.3.1-.9 0-1.9.1-2.8.2-1.2.1-2.4.2-3.7.2-.6.2-1.2.2-1.9m34-59.3c.1 0 .3.1.4.1.8.2 1.4-.2 1.4-1 0-.7-.1-1.3-.1-2-.1-1-.1-2.1-.2-3.1 0-.1-.1-.2-.1-.3 0-.3-.1-.7-.1-1-.3.1-.7.1-1 .2-.9.1-1.9.1-2.8.2-.3 0-.7.1-.9.3-.1.1.1.5.1.8v.2c.1 1.5.1 3 .2 4.5v.7c0 .4.2.5.6.5.7-.1 1.5-.1 2.5-.1m-1.2-7.8h1.1c.3-.1.6-.2.9 0 .3.1.4-.1.4-.4 0-1.6 0-3.2 0-4.8 0-.2 0-.3-.3-.3-1.3 0-2.6 0-4 0-.1 0-.2.1-.3.2-.1.3-.2.6-.2.9v4.5c0 .3.2.3.4.3.7-.2 1.3-.3 2-.4m.2-17.4c-.8-.3-1.6.1-2.5.1-.1 0-.2.1-.2.2-.1.5-.2 1-.2 1.6 0 1.1.1 2.3.1 3.4 0 .3.1.3.3.3.4-.1.8-.2 1.3-.1.9 0 1.8-.1 2.7.1.1 0 .5 0 .5-.1.1-.3.2-.6.2-.9 0-1.1 0-2.3 0-3.4 0-.2-.1-.4-.1-.6 0-.1-.1-.1-.1-.2v.2 2.8c0 .2 0 .4-.1.5 0 .1-.1.1-.2.2 0-.1-.1-.1-.1-.2-.1-.1-.1-.2-.2-.3-.1-.7-.1-1.4-.2-2.1 0-.4 0-.8 0-1.2-.2-.2-.7-.2-1.2-.3m-1.9 6.2c-.4.1-.6.2-.6.7v3c0 .3.1.7.2 1 .1.2.3.3.6.2.2-.1.5-.2.7-.1.6.2 1.2.1 1.8.1h1.4c0-.5 0-.9 0-1.4 0-1.1 0-2.2 0-3.3 0-.2 0-.3-.2-.3-.5 0-1-.1-1.5-.1-.8 0-1.5.1-2.4.2m3.8 48.2c-.3.3-.7.4-1.1.4-.3 0-.7 0-1 0-.4 0-.6.4-.6.8.1.3.3.1.5.2 0-.1.1-.2.1-.3-.3-.4 0-.4.3-.3s.6.4.9.3c.6-.2 1.2-.1 1.8-.1.2 0 .2-.1.2-.3-.1-.8-.1-1.6-.2-2.3 0-.1-.1-.1-.2-.2-.5-.2-.6-.8-.1-1.1.3-.2.3-.3.3-.6-.1-.8-.2-1.7-.3-2.5 0-.3-.1-.3-.4-.3-.9.1-1.7.1-2.6.2-.3 0-.4.2-.4.5.1.8-.1 1.6.1 2.4.1.4.3.9.1 1.2-.2.6-.1 1.3-.1 1.9 0 .5 0 .5.4.4.3-.1.7-.1 1-.1.6-.3 1-.3 1.3-.2m-47.1 7c0-.4.1-.7 0-1.1s-.2-.8 0-1.2c.1-.1 0-.3-.2-.3-.3.1-.7.2-1 .1-.3 0-.3.1-.3.4.1 1.5 0 2.9.1 4.4.2 2.1.1 4.3.2 6.4v.6c0 .6 0 .6.6.8.3.1.5.3.7 0 .2-.2.4-.4.4-.8-.1-.9.1-1.9 0-2.8-.2-1.6-.1-3.2-.2-4.8 0-.6-.2-1.1-.3-1.7m91.5 15.9c-.1-.1-.1-.1-.2-.2-.1-1-.3-1.9-.3-2.9-.1-1.9 0-3.8-.1-5.7-.1-1.5 0-3 .1-4.6.1-.7 0-1.5-.1-2.3s-.2-1.7.1-2.6c.1-.2 0-.4-.1-.6-.2.1-.2.4-.2.6 0 .6-.2 1.2-.3 1.8s-.2 1.3-.2 1.9c.1 1.2.3 2.4.3 3.6 0 1.4-.1 2.8.1 4.1.2 1.1-.1 2.1.2 3.2.1.5.1 1.1.1 1.6.1 1.3.2 2.5.3 3.8.1 1.7-.1 3.5.1 5.2.1 1.2-.1 2.3-.1 3.5 0 3-.2 5.9.1 8.9 0 .4-.1.9-.1 1.3v4.5.5 1.2 1.2s0 .1.1.1c0 0 .1-.1.1-.1.1-.7.3-1.4.3-2.1.1-.8 0-1.7 0-2.5s-.1-1.6 0-2.4c.1-1.1 0-2.2.1-3.4.1-1-.1-2-.1-3-.1-3.7.1-7.3-.2-11 0-.3.2-.7.1-1 .1-.5-.1-1.4-.1-2.6m-96.2 25.1c-.5.1-1 .2-1.5.2-.6.1-.7.2-.8.7v.2c.3-.2.6.3.9 0 .1-.1.4 0 .6 0 .3 0 1.1 0 1.4-.1 1.1-.3 2.3-.6 3.4-.5h3.4c1.5 0 3-.1 4.5-.2h.2c.7-.2 1.4-.3 2.1-.3.5 0 1-.1 1.5-.2.3-.1.6-.2.9-.3.1-.1.2-.3.2-.5 0 0-.2-.1-.3-.1-1.8 0-3.6-.1-5.4.2-.1 0-.1 0-.2.1-.9.3-1.7.5-2.6.4-.2 0-.4 0-.5 0-1.6.3-3.2.3-4.8.3-.2 0-.3 0-.5 0-.4 0-.8.2-1.1.1-.5-.1-.9 0-1.4 0m52.3-76.6c-.5 0-.9 0-1.4 0-.8 0-1.6.1-2.3-.1-.2-.1-.5 0-.5.2-.1.4-.2.9-.1 1.2s-.2.5.1.9c.2.2 0 .6 0 1v.4c0 .1.2.2.2.2.4-.3.9 0 1.3 0 .5 0 1.1-.2 1.6-.3h.7c.7.1 1.1-.1 1-.8 0-.8.1-1.6-.1-2.4-.1-.3.1-.6-.5-.3m12-58.2v.2c0 .1 0 .2.1.3.1-.1.2-.1.2-.2 1.1-1.9 2.1-3.8 3.2-5.7.2-.4.4-.9.7-1.3.1-.2.1-.3-.1-.3-.1 0-.3 0-.4 0-1.1.2-2.3.6-3.5.5-.3 0-.3.1-.3.3.1.7.1 1.5.2 2.2-.1 1.3-.1 2.6-.1 4m28.6 116.6c.1-.3.1-.5.2-.8 0-.1 0-.1-.1-.2 0 .1-.1.2-.1.2-.2.6-.3 1.3-.4 1.9-.1.5 0 1.1-.2 1.6-.2.8-.1 1.7-.3 2.5-.2.9 0 2-.4 2.8-.4 1-.2 1.9-.4 2.9-.2.8 0 1.6 0 2.4-.1.8.4 1.6 0 2.4v.2c.3.3.1.7.1 1v4.2c0 .1.1.2.2.3.2-.1.5-.1.5-.5 0-1.2.3-2.4.6-3.6 0-.2.1-.3-.2-.4-.4 0-.5-.4-.5-.8 0-1.3.3-2.5.6-3.7.1-.4.2-.9 0-1.2s-.2-.7-.2-1c0-.6.1-1.2.1-1.8 0-.8.2-1.5.4-2.2.1-.4.1-.7-.2-1-.2-.2-.2-.4-.2-.6.1-1 .2-2.1.3-3.1 0-.4.1-.9.2-1.5m-8.5-26.8c-.1.2-.1.4-.1.6v1.2c0 .3-.2.7-.1 1 .2.4-.1.7-.1 1.1.1.9.1 1.9.1 2.8.1 1.1.1 2.2-.1 3.4-.2 1.3 0 2.7-.2 4-.1.4.1.9.1 1.3v8.6c0 .2.1.4 0 .5-.3.5-.2 1-.1 1.4.2.9.1 1.7.1 2.6v2.4c0 .2 0 .4.1.6 0 .1.1.2.2.3 0-.1.1-.2.1-.3 0-.9 0-1.8 0-2.7 0-.4.1-.9 0-1.3-.2-.6-.2-1.2-.1-1.7.2-1.1.1-2.1.1-3.1 0-.9 0-1.7 0-2.6 0-.8.2-1.6 0-2.4 0-.2.1-.4.1-.6 0-.3.1-.6 0-.9-.2-.7-.3-1.4-.3-2.1s.1-1.4.1-2c0-1.6-.1-3.2.5-4.8 0-.1 0-.3 0-.5-.1-1.5.1-3-.1-4.5-.1-.5-.3-1.1.3-1.5 0-.6.1-1.3 0-1.9-.1-.7-.2-1.3-.3-2-.1-.6.1-1.2.1-1.8 0-.1-.1-.1-.1-.2 0 .1-.1.1-.1.2-.1.5-.3 1.1-.3 1.6 0 .9.1 2 .1 3.3m-6.4 31.8v1.6c0 .2.1.3.2.5 0-.1.1-.3.1-.4-.1-1.3.1-2.7-.1-4-.2-1.2 0-2.3.1-3.5.1-1.1 0-2.3 0-3.4.1-1.1-.3-2.2 0-3.3 0-.1 0-.2 0-.3-.5-1.2-.2-2.5-.1-3.7 0-.6.3-1.2.3-1.7 0-.9 0-1.9-.1-2.8-.2-1.1-.2-2.2-.2-3.4 0-1.4 0-2.7.1-4.1.1-1.7.1-3.5-.3-5.2 0-.1 0-.1-.1-.2 0 .1-.1.1-.1.2 0 .6.1 1.2.1 1.7 0 1.5 0 2.9-.1 4.4-.1 1 0 2 0 3s0 2.1-.1 3.1c-.1.4.1.9.1 1.3 0 1.2-.1 2.3-.1 3.5 0 .1-.1.2-.1.3 0 .8-.1 1.6-.1 2.4 0 .7.2 1.4.3 2.1 0 .1-.1.2-.1.4 0 .8-.1 1.6 0 2.4.1.5.2 1.1.2 1.6.1 2.5.1 4.9.1 7.5m-29.2-37.4c-.1-.8-.1-1.5-.2-2.3 0-.4.1-1-.1-1.2s-.8-.1-1.2-.1c-.1 0-.1 0-.2 0-.3 0-.4.1-.4.4 0 .8-.1 1.6-.2 2.4v.5c-.3.8-.1 1.6-.1 2.3 0 .5.2.7.8.7h1c.4 0 .5-.2.5-.6.1-.5.1-1.3.1-2.1m.2-4.7c0 .2-.1.4.3.4.9-.1 1.9-.2 2.8-.3.3 0 .3-.1.3-.4-.1-1-.1-2-.2-3 0-.3-.1-.4-.4-.4-.8 0-1.7 0-2.5 0-.1 0-.2.1-.2.2-.1.8-.1 1.6-.2 2.4.1.3.1.6.1 1.1m-35.1 52.7c0 .2 0 .4-.2.5-.1 0-.2.1-.2.1.1 0 .2.1.3.1 1-.3 1.9-.1 2.9-.1h.3c.1-.1.3-.3.2-.3-.3-.3 0-.5.1-.6.6-.8 1.2-1.5 1.8-2.3.2-.2.3-.4.4-.6.1-.1.1-.3-.2-.4-.8 0-1.5.1-2.3-.1-.1 0-.3.1-.3.1.1.8-.7 1.2-1 1.8s-1 .9-1.5 1.4c0 0-.1.1-.3.4m41.3-47.6c-.2-1.1-.1-2.3-.2-3.4 0-.1 0-.1 0-.2 0-.3 0-.6-.1-.8-.2 0-.5.1-.7.1-.3 0-.7 0-1 0-.1 0-.4.3-.4.3.4.8 0 1.7.3 2.6.2.6-.1 1.4.1 2 .1.6.2 1.3.1 1.9 0 .1 0 .2.1.3.1-.1.2-.1.2-.2 0-.5.2-.7.7-.7 0-.1 0-.1-.1-.2s-.2-.2-.3-.3h.4.5c.1 0 .2-.1.2-.1.1-.3.2-.7.2-1.3m-48.5 11.1c.1 1.4.1 2.7.2 4.1v3.7c0 .1.1.4.1.4.3 0 .6 0 .9-.1.4-.2.3-.5.2-.8 0-.3-.2-.6-.1-.9 0-.5-.5-.4-.6-.7 0-.1 0-.1 0-.2-.1-.5-.3-1.1-.3-1.6 0-.4.2-1 .5-1.2.5-.3.5-.7.4-1.1 0-.5.1-1.1-.1-1.6 0-.1.1-.2.1-.3s0-.2-.1-.3c-.1.1-.2.2-.3.3 0 0-.1-.1-.2-.1-.1-.1-.3-.2-.4-.4-.1-.1-.2-.2-.2-.3.1-.1.2-.2.3-.3.2-.1.5 0 .6-.1s0-.4 0-.6c0-.5 0-.9 0-1.4 0-.6-.1-.7-.6-.8-.2-.1-.4-.1-.5-.4 0-.1-.1-.2-.2-.3 0 .1-.1.2-.1.3 0 1.4.1 2.7.2 4.1.1.2.2.3.2.6m73.5 31.1c.2.3.4.6.6.9.7.9 1.4 1.8 1.8 2.9 0 .1.1.1.2.2 0-.1.1-.2.1-.3 0-1.5 0-2.9 0-4.4 0-.2 0-.5.1-.7.1-.3.1-.3-.2-.3-.2 0-.3 0-.5 0-.8-.3-1.6-.1-2.4 0-.5.1-.7.4-.3.9.3.3.4.5.6.8m-25.1-48.7c0-.5 0-1.1 0-1.6 0-.2-.1-.4-.3-.5-.5-.1-1-.4-1.6-.3-.3 0-.5 0-.5.5.1 1.1.1 2.1.2 3.2 0 .2.1.3.3.3h1.5c.3 0 .5-.2.4-.5 0-.4 0-.7 0-1.1m42.8-139.8c-.4.8-.9 1.5-1.3 2.3-1.1 1.7-2.2 3.3-3.2 5-.1.1-.1.3-.1.4.1-.1.2-.1.3-.2s.2-.2.3-.3c.6-1 1.4-1.8 2.2-2.7.2-.2.4-.5.6-.8.5-.6 1-1.3 1.4-1.9.3-.4.5-.8.6-1.2.1-.6.4-1 .6-1.5.1-.2.2-.4.3-.6 0-.1 0-.2 0-.3-.1 0-.2.1-.3.1-.4.5-.8 1.1-1.4 1.7m-5.9 165.2c0-.2 0-.4 0-.5 0 0 0-.1-.1-.1 0 0-.1.1-.1.1-.5.6-.3 1.4-.4 2.1s0 1.4 0 2.1c0 .3.2.6.1.8-.2.4-.1.7-.1 1 0 .7.1 1.5.1 2.2v2.3 2.2.2c0-.1.1-.1.1-.2.1-.1.2-.2.1-.3-.1-.9.5-1.7.6-2.6 0-.3.1-.8 0-1-.3-.6-.3-1.3-.4-1.9-.2-1 .2-2.1.4-3.1 0-.2.1-.4.1-.6 0-.1-.1-.1-.1-.2 0 0 0 .1-.1.1 0 .1-.1.2-.2.2-.1.1-.1.2-.2.2s-.2-.1-.2-.2 0-.3 0-.4c.1-.8.1-1.6.4-2.4m-35.1-96.3c.3-.7.7-1.4 1-2.1.7-1.9 1.3-3.8 2-5.7.1-.2 0-.4 0-.6-.1.1-.2.3-.3.4 0 .1-.1.1-.1.2-.5 1.1-1.2 2.1-1.5 3.3-.2.6-.3 1.3-.5 1.9-.3.9-.7 1.8-.9 2.7-.3 1.1-.5 2.3-.8 3.4-.2.8-.3 1.7-1 2.4-.2.2-.2.5-.2.7 0 0 0 .2.1.2s.2 0 .2-.1c.2-.4.5-.8.6-1.3.3-.9.7-1.8.9-2.7.2-.7.4-1.3.7-2 .1-.1 0-.2 0-.4-.1.1-.2.1-.3.2 0 0-.1.1-.1.1 0-.1-.1-.1-.1-.2.1 0 .1-.1.3-.4m-4.2 15.4c0-1.2 0-2.3 0-3.5 0-.2.1-.3 0-.5-.3-.6-.2-1.3-.1-1.9 0-.6-.4-1.3 0-1.9 0 0-.1-.2-.2-.3-.1 0-.3-.1-.3.2.1.5-.2 1.1.2 1.5 0 0 0 .1-.1.2-.3.2-.2.4-.2.6v.3c.1.4-.1.8.2 1.2.2.3-.3.7-.2 1.1.1 1.1 0 2.2.1 3.4.2 1.3.1 2.7.2 4.1.1 1 .1 1.9.1 2.9v.1s.1.1.1.1.1-.1.1-.1c.1-.6.2-1.2.1-1.8.1-1.8.1-3.7 0-5.7m25.6-49.1c0 .1 0 .1-.1.2-.4.7-.8 1.4-1.1 2.1s-.6 1.5-1 2.2c-.7 1.5-1.3 3-1.9 4.5-.3.7-.6 1.4-.9 2s-.6 1.1-.9 1.7c-.1.2-.1.4-.2.6 0 .1.1.2.1.3 0-.1 0-.1.1-.2.8-1.5 1.6-3 2.4-4.5.1-.1.2-.3.2-.4.3-1.3 1-2.5 1.5-3.8.4-1.1.9-2.1 1.3-3.2.3-.7.8-1.4 1.1-2.1.4-.7.7-1.4.8-2.2 0-.1 0-.1 0-.2 0 .1-.1.1-.1.2-.4.9-.8 1.8-1.3 2.8m-22.7 47.3c-.2.5-.5 1-.7 1.6 0 .1 0 .2.1.3.1 0 .1-.1.2-.1.3-.5.6-1.1.8-1.6.4-.9.8-1.8 1.2-2.7.5-1 1-2 1.5-3 .9-1.9 1.9-3.8 2.6-5.9.3-.8.7-1.6 1-2.4.1-.2 0-.4 0-.6-.1.1-.2.3-.3.4-.8 1.9-1.5 3.7-2.4 5.6-.8 1.7-1.6 3.4-2.4 5.1-.5 1-1 2.1-1.6 3.3m-8.6 56.5v1.5c0 .3.1.7-.1 1 0 0 .1.2.2.2h1.2c.3 0 .3-.1.3-.3 0-1.1-.2-2.3.1-3.4.1-.2-.1-.3-.3-.3-.3 0-.6 0-.9 0s-.3.1-.3.4c-.1.2-.1.5-.2.9m-47.9 29.5c.6-.2 1.3-.3 1.9-.2.3 0 .7 0 .9-.2.5-.4 1.1-.4 1.7-.3.6.2 1.1-.1 1.7 0 .1 0 .2-.1.2-.2 0-.2-.4-.5-.6-.4-.5.3-1 .2-1.6.2 0 0-.1 0-.1-.1s.1-.1.1-.2c.2 0 .3-.1.5-.1h.5c.1 0 .1-.1.2-.2-.1 0-.1-.1-.2-.1-.4 0-.9 0-1.2.2-.4.2-.8.2-1.1.1-.7-.3-1.2 0-1.8.2-.1 0-.1.1-.2.1.1.1.1.2.2.2.2 0 .5 0 .7-.1l.6-.3s.1.1 0 .1c-.2.2-.4.5-.7.6-.2.1-.5 0-.7 0s-.4 0-.5 0-.3.1-.4.1c0-.1-.1-.4.2-.4 0 0 .1-.1.1-.2-.1 0-.1-.1-.2-.1-.4.1-.9.2-1.3.3s-.5.3-.4.7c0 .4.3.2.5.2.4.2.6.1 1 .1m71.2-114.8c.1-.3.2-.5.3-.8.3-.8.9-1.5 1.1-2.3 0-.1 0-.2 0-.3-.1 0-.1.1-.2.1-.4.8-.9 1.6-1.3 2.5s-.7 1.9-1.2 2.8c-.6 1-1.2 2.1-1.8 3.2-.6 1.2-1.3 2.4-1.9 3.7-.2.3-.3.7-.4 1v.3c.1 0 .2-.1.3-.1s.1-.1.1-.2c0-.9.6-1.5 1-2.1.9-1.5 1.7-3.1 2.6-4.6.5-1.1.9-2.2 1.4-3.2m-57.8 113c0-.7-.2-.8-.8-.7 0 0 0 0-.1 0-.7.1-1.5.2-2.2.3-.3 0-.6 0-1 0-.8 0-1.7 0-2.4.3-.1.1-.4 0-.3.3 0 .2.2.3.4.4.3.1.6-.1.8 0 .5.2.9 0 1.2-.4.3-.3.6-.3 1-.2.2.1.5.1.7 0 .5-.3.8 0 1.2.3.2.2.5.5.9.2.1-.1.3.1.4.2.2.2.3 0 .3-.1s0-.3-.1-.6m88.9 41.2c.1-.3-.1-.5-.3-.6-.6-.6-1.4-1.1-1.9-1.8-.7-.9-1.5-1.8-2.3-2.6-.1-.1-.1-.1-.2-.2-.1.1-.2.2-.2.3v.5c0 .3 0 .5.4.6.3 0 .6.3.9.6s.5.6.8.9c1 1 2.1 2 2.8 3.3 0 .1.1.1.2.1 0-.1.1-.1.1-.2-.2-.2-.3-.5-.3-.9m-54.6-86.4c.1 2.1.1 4.1.2 6.2 0 .4 0 .8.1 1.2 0-.4.1-.8.1-1.3 0-2.4.1-4.8-.2-7.2 0-.1 0-.2 0-.3-.3-.8-.1-1.7-.3-2.5-.2-1.5 0-3-.2-4.5-.1-1.4-.1-2.7-.4-4.1 0-.1 0-.1-.1-.2 0 .1-.1.1-.1.2 0 .2-.1.5 0 .7.4.8.1 1.8.3 2.6.2 1.5 0 3 .2 4.5s.1 3 .2 4.5c.1.1.1.1.2.2m21.3-67.2c.3 0 .6 0 .7-.3.1-.1.1-.3.1-.4-.1 0-.2-.1-.3-.1-.6.1-1.2.2-1.7-.3-.1-.1-.3 0-.4 0-.6.1-1.1.2-1.6.3-.1 0-.4.1-.5.4-.2.9-.2 1 .7.9h.2c.9-.4 1.7-.5 2.8-.5m-20.4 80.5c0 .2-.1.5-.1.7v1.3c0 .1.1.2.2.2s.2-.1.2-.2 0-.2 0-.4c0-.4 0-.9.1-1.3.2-.6.2-1.2.2-1.8-.1-1-.3-2-.3-3.1 0-.3 0-.5 0-.8 0-.2-.1-.3-.3-.2-.1 0-.2.1-.2.2v1.2c.1 1.4-.1 2.7.2 4.2m-33.5 45.5v.5s.1.1.2.1c.2-.5.8-.7.6-1.4-.1-.2 0-.5 0-.7 0-.4.2-.8.1-1.1-.2-.5-.1-.9-.1-1.4 0-.2 0-.3 0-.5 0-.1-.1-.2-.1-.2-.2.1-.5.2-.7.3-.1.1-.1.3-.1.4 0 1.4.1 2.6.1 4m81.4-177.9c-.7 1-1.4 2.1-2 3.1s-1.2 1.9-1.8 2.9c-.6 1.1-1.3 2.2-1.9 3.3v.3c.1 0 .2-.1.3-.1.7-1.1 1.3-2.3 2-3.4 1-1.6 2-3.2 3-4.8.4-.6.8-1.3 1.3-1.9 0-.1.1-.1.1-.2-.1 0-.2 0-.2 0-.3.3-.5.5-.8.8m-99.6 206c0 .3 0 .7.1 1 0 .1.1.1.2.2 0-.1.1-.1.1-.2.1-.8.1-1.7.2-2.5 0-.6 0-1.2 0-1.9 0-.2 0-.4 0-.5-.2-.8-.5-1.7-.1-2.5.1-.2-.1-.5-.1-.7 0-.1-.1-.2-.2-.2 0 .1-.1.2-.1.3-.2.4.2.7 0 1.1-.2.6-.1 1.3 0 1.9 0 .2.2.4.1.5-.3.3-.1.7-.1 1-.2.7-.2 1.5-.1 2.5m18.3-39.7c.3.6.3.6.8.2.1-.1.2-.1.2-.2.5-.4 1-.8 1.4-1.2.1-.1.1-.3.1-.5 0-.1-.2-.2-.4-.2s-.4 0-.5.1c-.7.3-1.3.7-2 1-.4.2-.2.3-.1.5.1.1.3.1.5.3m69.6 18.6c-.2 1.1-.1 2.3-.2 3.4v2.9c0 .3.1.6.2.9 0 .1.1.1.2.1 0-.1.1-.1.1-.2 0-.3-.1-.6-.1-.9 0-.6.1-1.2.1-1.8 0-2 0-4 0-6.1 0-.1-.1-.2-.1-.3-.1.1-.2.2-.2.4zm15.7 17.2c-.2-.1-.4-.2-.5-.4-.5-.9-1.4-1.3-2.1-1.9 0 0-.1 0-.2-.1 0 .1-.1.2 0 .2.1.2.2.3.3.5l.9.9c.9.9 1.8 1.9 2.7 2.8l.5.5c0-.2 0-.5.1-.7.1-.4-.2-.5-.4-.7-.4-.4-.8-.7-1.3-1.1m-5.9-42.7c-.1.1-.1.3-.2.4-.2.8-.3 1.6-.4 2.4 0 .1-.2.4.1.4 0 0 .1-.2.1-.3s.1-.2.1-.3c.1-.5.3-1.1.3-1.7.1-.9 0-1.9 0-2.8 0-.2-.1-.4-.1-.6 0-.1 0-.1-.1-.2 0 .1-.1.1-.1.2-.5 1.2-1.1 2.4-1.4 3.6 0 .2-.1.4-.1.6 0 .1.1.2.1.2 0-.1 0-.1.1-.2.2-.6.5-1.2.7-1.8.1-.2.1-.5.5-.5.2.1.3.3.4.6m-77.8 4c0-.1.1-.2.1-.3-.1 0-.2-.1-.2-.1-.6.4-1.3.3-2 .3-.4 0-.6.2-.6.5-.1.4-.1.8-.2 1.3 0 .1 0 .1.1.2 0 0 .1-.1.1-.1.6-.3 1.2-.6 1.8-1 .4-.1.9-.2.9-.8m76.1-6.4v.3c.1 0 .2-.1.3-.1.2-.4.4-.7.5-1.1.2-.4.3-.7.4-1.1.1-.2.1-.6.5-.3 0 0 .1 0 .1-.1.1-.3.1-.5.2-.8.1-.7-.1-1.3.2-2 0-.1 0-.2 0-.4s0-.4 0-.5 0-.3 0-.4c0 0-.1-.1-.1-.1-.1 0-.1 0-.2.1-.1.2-.2.5-.2.5-.5-.1-.4.5-.7.6v.1h.2c.1 0 .1-.1.2-.2s.2-.1.4-.2c.1.1.2.3.2.4 0 .2-.1.3-.1.5 0 .6-.4 1-.5 1.5-.6 1.1-.8 2.2-1.4 3.3m-33.3-80.9c.2-.5.4-1.1.6-1.6 0-.1 0-.2 0-.3-.1.1-.1.1-.2.2-.8 1.6-1.5 3.3-2.3 4.9-.4.8-.8 1.7-1.2 2.5v.4c.1-.1.2-.1.3-.2.3-.4.6-.7.8-1.2.5-1.5 1.2-3 2-4.7m23.5 84.2c.2-.4.5-.8.7-1.2.2-.5.2-1 .2-1.5 0 0-.2-.1-.2 0-.1.1-.1.2-.2.3-.6 1.3-1.2 2.7-1.7 4-.2.6-.4 1.2-.5 1.8 0 .2 0 .3.1.5.1-.1.2-.3.2-.4.3-1.2 1-2.2 1.4-3.5m-32-69.1c.3.1.5.1.9 0 .2-.1.3-.2.2-.4 0-.2-.1-.4-.2-.4-.8-.2-1.6-.2-2.4-.2h-.1c-.1.6-.7.4-.9.7-.1.1-.2.2-.3.2.1 0 .3.1.4.1.2 0 .4-.2.6-.2.3-.1.7-.2 1-.1.2.3.5.2.8.3m-3.7 9.9c-.1-1.1.1-2.2-.1-3.4-.1-.6 0-1.3 0-2 0-.5 0-1.1 0-1.6 0-.1 0-.1-.1-.2 0 .1-.1.1-.1.2 0 .2-.1.3-.1.5s.1.5.1.7c0 .6-.1 1.3-.1 1.9s.1 1.1.1 1.7v1.3c0 1.6.1 3.2.2 4.8 0 .1.1.1.1.2 0-.1 0-.1 0-.2 0-1.3 0-2.5 0-3.9m33.6 53.8c0 .2-.1.4-.1.6 0 .1.1.1.1.2 0-.1 0-.1.1-.2.8-1.8 1.5-3.6 2.7-5.2.1-.1.1-.2.1-.3 0-.5 0-.9 0-1.4 0-.1 0-.1-.1-.2 0 .1-.1.1-.1.2 0 .5 0 .9-.3 1.3-.1.2-.3.3-.4.5-.4.9-.8 1.7-1.2 2.6-.3.6-.6 1.2-.8 1.9m3.1-10.6c.7 0 .9-.1 1-.5 0-.1 0-.2 0-.2h-.2c-.2.1-.3.3-.6.3-.9.2-1.7.4-2.5.6-.6.1-1.2.2-1.8.3-.3.1-.6.3-.8.5-.1 0 0 .2-.1.3h.3c.7-.2 1.3-.5 2-.5.8-.3 1.7-.6 2.7-.8m-4.3 36.6c0-.3 0-.6 0-.9 0 0 0-.1-.1-.1 0 0-.1.1-.1.1v1.2 2.2c0 .4.2.7.5.6.6-.1 1.3-.3 1.9-.5.3-.1.5-.6.4-.8h-.1c-.1.1-.1.2-.2.2-.2.5-.4.6-.9.5-.3-.1-.5-.1-.8-.2-.2-.1-.5-.3-.5-.5-.1-.3-.1-.7 0-1 .4-.3.1-.5-.1-.8m3-24c-.8 1.3-1.3 2.6-1.9 4-.2.6-.4 1.2-.3 1.8 0 .1 0 .1.1.2 0-.1.1-.1.1-.2s.1-.2.1-.2c0-.8.4-1.5.6-2.2.5-1.4 1.1-2.8 2-4 .3-.4.4-.6.3-1.1 0-.1-.1-.1-.1-.2 0 .1 0 .1-.1.2-.2.5-.5 1-.8 1.7m-40-82.6c.3-.4-.3-.4-.3-.4-1-.1-2.1-.2-3.1-.3-.1 0-.2 0-.4.1.1.1.3.1.3.2.2.6.7.8 1.1.8.5 0 1-.1 1.4-.4.2-.1.4-.1.6 0 0-.1.1 0 .4 0m51.7 118.7c-.2.9-.4 1.7-.5 2.6 0 .2-.1.5-.1.7 0 .1.1.1.1.2 0-.1.1-.1.1-.2.2-.7.3-1.5.7-2.2.5-1 .5-2 .6-3 0-.1-.1-.2-.1-.3-.1.1-.2.2-.2.3-.1.7-.4 1.2-.6 1.9m.9-19c-.3.4-.1.9-.2 1.4 0 .1 0 .1.1.2.1-.1.2-.1.2-.2.2-.5.3-1.1.5-1.7.1-.4 0-.8.1-1.2 0-.4 0-.8.1-1.3 0-.1 0-.1-.1-.2-.1.1-.2.1-.2.2-.1.2-.1.5-.1.7-.1.8-.3 1.4-.4 2.1m5.8-28.3c.3-.1.6.1.8-.2.1-.1.2-.2.2-.4-.1 0-.3-.1-.4-.1-1.1.2-2.3.5-3.4.8-.1 0-.3.2-.4.4.2 0 .3.1.5.1h.1c.8-.2 1.7-.4 2.6-.6m-19.5 3.1c.6-1 1.3-2 1.9-3 .1-.1 0-.2 0-.3-.1 0-.3.1-.3.1-.3.3-.5.7-.7 1-.7 1.1-1.5 2.1-1.7 3.4 0 .1-.1.1-.1.2.1-.1.2-.1.2-.2.3-.3.5-.7.7-1.2m-33.1-78.1c-.1.2-.2.3-.2.5.2 0 .3.1.5.1h2.8c.2 0 .5-.1.5-.1 0-.4-.3-.1-.4-.2s-.3-.1-.4-.2c-1 0-1.9 0-2.8-.1m11.3 79.9c.3.5.5 1 .8 1.5.1.3.3.5.4.8 0-.3 0-.6 0-.9s.1-.7-.4-.8c-.2 0-.3-.4-.3-.6 0-.3.3-.3.5-.3.1 0 .2 0 .2-.1s0-.2 0-.3c0 0-.1-.1-.2-.1-.3 0-.9.4-1 .8m2.9-94.9c.1-.2.1-.5.2-.7 0-.1 0-.2-.1-.3-.1.1-.2.1-.2.2-.2.6-.4 1.1-.6 1.7-.4 1.1-.8 2.1-1.1 3.2-.1.2 0 .3 0 .5.1-.2.2-.3.3-.5.1-.3.2-.6.3-.9.4-1 .8-2.1 1.2-3.2m36.1 88c.3-.2.5-.4.8-.6.1-.1.1-.2.1-.3-.1 0-.2-.1-.3-.1s-.3 0-.4 0c-.6.4-1.1.9-1.7 1.4-.1 0 0 .2-.1.3h.3c.4-.2.8-.4 1.3-.7m-23 35.1c-.1-.1-.1-.2-.2-.2-.1-.1-.1-.1-.2-.1v.2c.1.1.1.3.2.4.8 1.1 1.5 2.3 2.3 3.4 0 .1.1.1.2.1 0-.1.1-.2 0-.3-.2-.3-.4-.6-.6-.9-.5-.8-1.1-1.7-1.7-2.6m7.7 4.9c.1.1.2.2.4.2 0-.1.1-.2.1-.3 0-1.5.1-3-.3-4.5 0-.1-.1-.2-.1-.3 0 .1-.1.2-.1.3 0 .4.1.7.1 1.1 0 1.1.1 2.2-.1 3.5m-34.3-36.9c-.5 0-1 0-1.5 0-.4 0-.3.3-.2.4.1.2.3.4.6.4h.8c.6 0 .6-.1.3-.8m33 25.2c0-.2 0-.4 0-.5v-.1s-.1.1-.1.1c-.3.6-.6 1.3-.9 1.9-.1.2-.1.3-.2.5v.8c.1-.2.3-.4.4-.6.2-.3.3-.6.5-1 .1-.3.2-.7.3-1.1m10.9 27.3c-.3.7-.4 1.4-.5 2.1-.1.5 0 .5.5.6.2 0 .3.2.2-.1 0-.2-.2-.4-.1-.5.3-.4-.2-.3-.2-.5s-.2-.3-.1-.6c.2-.3.2-.8.2-1.2 0-.2-.1-.5-.1-.7.2.2.1.5.1.9m1.7-17.5c.1-.2.1-.3.2-.5 0-.1 0-.1-.1-.2-.1 0-.1.1-.2.1 0 .1-.1.1-.1.2-.2.8-.3 1.5-.5 2.3-.1.6-.3 1.1-.4 1.7 0 .1 0 .2.1.4.1-.1.2-.2.2-.3.2-.6.4-1.2.5-1.8s.2-1.2.3-1.9m-12.3-27.4c-.3.5-.5 1-.8 1.6-.1.2-.1.5-.1.7.1-.2.3-.4.4-.6 0 0 0-.1 0-.2.5-.9.9-1.8 1.4-2.6.2-.3.3-.6.3-1 0-.1 0-.1-.1-.2 0 .1-.1.1-.1.2-.2.7-.6 1.3-1 2.1m9.8 24.6v2c0 .5-.1.9-.1 1.4 0 .1 0 .1.1.2 0-.1.1-.1.1-.2.1-.3.1-.7.2-1 .1-1.4.1-2.8.2-4.1 0-.1 0-.3 0-.4s-.1-.1-.2-.2c0 .1-.1.1-.1.2-.2.7-.2 1.3-.2 2.1m-95.7 6.3c-.1.1-.1.2-.2.3v.3c.1 0 .2-.1.2-.1.2-.5.5-.8 1.1-.8 0 0 .2-.1.2-.2 0-.4 0-.8 0-1.2 0 0-.1-.1-.1-.1-.1 0-.1 0-.2.1-.3.5-.7 1.1-1 1.7m.6 10.3c.2-.2.7.1.7-.5 0-.2.1-.5.1-.7-.2 0-.5.1-.7.1-.6-.1-.6.2-.5.6 0 .2-.2.5.4.5m98.6-10c.1 0 .3.3.2 0-.1-.4 0-.7 0-1 0-.2-.1-.4-.1-.5 0-.5.1-.9.1-1.4 0-.1-.1-.1-.1-.2-.1.1-.2.1-.2.2-.1.9-.1 1.7-.2 2.6.1 0 .2.1.3.3m-85.5 4.5c-1.1.1-2.1.1-3.2.2-.1 0-.2 0-.2 0-.1 0-.2.1-.2.2.1 0 .2.1.3.1.3 0 .8-.2 1-.1.4.2.7 0 1 0h1.5c.1-.1 0-.2-.2-.4m84.6-19.4c-.1.1-.3.1-.4.2-.3.9-.5 1.8-.8 2.7 0 .1 0 .2.1.4.1-.1.2-.2.2-.3.3-1 .7-2 .9-3m-15.5-5.3c-.1.5-.1 1-.2 1.5 0 0 0 .1.1.1 0 0 .1 0 .1-.1.1-.3.3-.7.3-1 .1-.9-.1-1.8.2-2.7 0-.1-.1-.2-.1-.3 0 .1-.1.2-.1.3-.1.8-.2 1.4-.3 2.2m16.4-15.2v.9s0 .1.1.1c0 0 .1-.1.1-.1.1-.6.1-1.2.2-1.7.1-.7.2-1.3.3-2 0-.1-.1-.1-.1-.2-.1 0-.2.1-.2.1-.1.4-.1.7-.2 1.1-.1.5 0 1.1-.2 1.8m-14.4 19.4c0 .1-.1.3-.1.4-.1.3-.2.6-.3.9 0 .1 0 .2.1.3.1-.1.1-.1.2-.2.2-.3.4-.6.5-1 .2-.6.5-1.1.4-1.8 0-.1 0-.1-.1-.2 0 .1-.1.1-.1.2-.3.5-.4.9-.6 1.4m2.5 1.3c0-.4 0-.9 0-1.3s0-.7.1-1.1c0-.2 0-.4 0-.6-.1.2-.3.4-.4.6v.3c0 .8-.1 1.6.2 2.4 0 .1.1.1.1.2 0-.1 0-.2 0-.5m-2.2-5.3c-.3.5-.5 1.1-.8 1.6s-.2 1-.3 1.4v.1s.1-.1.1-.1c0-.2.1-.3.1-.5.4-.8.7-1.7 1.1-2.5 0-.1.1-.2.2-.3v-.1h-.1c-.1.1-.1.2-.3.4m-.6-13.7c.4-.7.7-1.5 1.1-2.2.1-.1.1-.2.1-.4-.1.1-.2.1-.2.2-.4.8-.8 1.7-1.3 2.5-.2.3-.2.5 0 .8.1-.2.1-.5.2-.7 0 0 .1 0 .1-.2m13.5 26.4c.2-.6.3-1.2.2-1.8 0-.1-.1-.1-.1-.2 0 0-.1.1-.1.1 0 .1-.1.2-.1.3-.1.7-.2 1.4-.3 2 0 .2-.1.4-.1.6 0 .1 0 .1.1.2.1-.1.1-.1.2-.2 0-.3 0-.6.2-1m-10.5-14c0-.1 0-.2 0-.2 0-.1 0-.2 0-.3-.1.1-.1.2-.2.3 0 .1-.1.3-.1.4 0 .4.1.8-.1 1.2-.1.2 0 .5.1.7 0 .1.2.1.3.2 0-.1.1-.2.1-.3-.1-.6-.1-1.2-.1-2m11 5c0 .1 0 .3-.1.4s-.2.3 0 .3c0 0 .1-.1.2-.2.1-.3.1-.7.3-1 .3-.5.2-1 .2-1.5 0-.1-.1-.1-.1-.2 0 .1-.1.1-.1.2 0 .6-.2 1.2-.4 2m-91.5 21.6c-.3.1-.6.2-.9.3-.1 0-.1.1-.1.2h.2c.3-.1.6-.1.9-.2.6-.1 1.1-.1 1.7-.2.1 0 .2-.1.3-.2-.1 0-.2-.1-.3-.1-.6.1-1.1.2-1.8.2m7.1-26.1c-.3.1-.6.3-.9.4-.1 0-.1.1-.2.2.1 0 .2.1.3.1.5 0 1-.1 1.5-.2.1 0 .2-.1.3-.1-.1-.1-.1-.3-.2-.3-.3-.1-.5-.1-.8-.1m36-93.4c.2 0 .5 0 .7-.1.1 0 .1-.1.2-.2-.1 0-.1-.1-.2-.1-.2-.1-.3-.1-.5-.2-.6-.1-1 .3-1.5.4-.1 0-.1.1-.1.2.1 0 .1.1.2.1.4 0 .7-.1 1.2-.1m48.9 107.3c-.1.2-.1.3-.1.5 0 .1 0 .2.1.4.1-.1.2-.2.2-.3.5-.7.3-1.5.3-2.3 0-.1-.1-.2-.1-.3 0 .1 0 .2-.1.3-.1.5-.2 1-.3 1.7m-37.9-29c.1.2.3.4.3.6.1.4.3.2.4.1s.1-.3 0-.5c-.1-.3-.3-.5-.5-.8-.1-.2-.2-.3-.3-.4 0 .2 0 .4.1.6zm-4.3-76.7c0-.2 0-.4 0-.6 0-.3-.1-.4-.4-.4s-.2.2-.2.4-.1.5 0 .7.3.2.5.3c0-.1 0-.2.1-.4m29.7 90.1c.3-.4.6-.8.9-1.2.1-.1 0-.3 0-.5 0 0-.2-.1-.2-.1-.3.7-.7 1.3-1 2 0 0 .1.1.1.2.1-.1.2-.2.2-.4m2.4 0c0 .1 0 .2.1.4 0-.1.1-.2.1-.3 0-.5 0-1 0-1.5 0-.4-.1-.8 0-1.1.3-.6 0-1.1.1-1.7 0 0 0-.1-.1-.1 0 0-.1.1-.1.1-.1.7-.1 1.4-.2 2.1.1.7.1 1.3.1 2.1m-78.7-10.1c0-.2 0-.5 0-.7v-.1s-.1.1-.1.1c-.2.9-.2 1.8-.2 2.6v.1s.1-.1.1-.1c.2-.6.2-1.2.2-1.9m76.2-4.9c-.1.1-.1.2-.2.3-.2.4-.2.6.1.9 0 0 .1.1.1.1 0-.1.1-.1.1-.2 0-.5.1-.9.3-1.3.1-.1 0-.3 0-.5-.1.1-.2.3-.3.4 0 .1-.1.1-.1.3m-3.1-2.2c-.1 0-.3 0-.4 0s-.1.1-.2.2c.1 0 .1.1.2.1h.4c.5-.2 1.1-.4 1.6-.5.1 0 .1-.1.2-.2-.1 0-.1-.1-.2-.1-.5 0-1 .2-1.6.5m-69.9 46.9c.3-.1.6-.1.9-.2 0 0 0-.1.1-.2-.1 0-.1 0-.2 0-.7.1-1.4.2-2.1.2-.1 0-.2.1-.3.2.1 0 .2.1.3.1.4 0 .8-.1 1.3-.1m38.5-68.8h-.1v.1 2.3.1s.1.1.2.1c0 0 .1 0 .1-.1s0-.2 0-.3c-.1-.7-.1-1.4-.2-2.2m45.6 24.1c0 .1 0 .1-.1.2-.2.6-.5 1.3-.7 1.9 0 .1.1.2.1.2 0-.1 0-.1.1-.2.2-.6.5-1.1.7-1.7 0 0-.1-.3-.1-.4m.4 18.1c.1-.5.1-1 .1-1.5 0-.1-.1-.2-.1-.3-.1.1-.2.2-.2.3-.1.3-.1.5-.2.8v.9c0 .1.1.1.2.2.1-.1.2-.2.2-.4m.6-3.4v1.2c0 .1.1.1.2.2 0-.1.1-.1.1-.2 0-.4 0-.8 0-1.2 0-.3-.1-.5-.1-.8 0 .2-.1.4-.2.8m.4-19c.1-.1.2-.3-.1-.3-.4-.1-.8.1-1.2-.1 0 0-.2.1-.4.2.1 0 .2.1.3.1.3 0 .6 0 .8.4.3.4.5.1.6-.3m-90 48.1c.4-.1.8-.2 1.3-.3.1 0 .2-.1.3-.2-.1 0-.2-.1-.3-.1-.5.1-.9.1-1.4.2-.1 0-.2.1-.3.2.1.2.2.2.4.2m47.5-69.9c.2 0 .4.1.5 0s.2-.3.3-.4c0 0-.2-.2-.2-.2-.3.4-.8.3-1.2.3-.1 0-.1.1-.2.1.1.1.1.2.2.2zm1.8-36.4c.1.3.1.6.1.9v1c0 .1.1.1.1.2 0-.1.1-.1.1-.2 0-.8 0-1.6 0-2.5 0-.1-.1-.3-.2-.2-.3.1.1.2 0 .3 0 .1-.1.2-.1.5m42.1 56.8c-.3 0-.5 0-.8 0 .3.1.5.3.8.4h.4c.1-.1.2-.3.4-.5-.2.1-.3.1-.5.2-.1-.1-.2-.1-.3-.1m-14.1 37.9c-.1.2-.2.5-.2.7v.1h.1c.2-.3.4-.6.5-1 .1-.2 0-.4-.1-.7-.3.3-.3.6-.3.9m10.3-33c-.3.4-.1.8-.2 1.2 0 0 0 .1.1.1s.1-.1.2-.1c.1-.4.2-.7.2-1.1 0 0-.2-.1-.3-.1m-95.7 61.3c-.2-.2-.4 0-.4.1-.1.4 0 .8-.1 1.1 0 0 .1.1.1.1.1 0 .2 0 .2-.1.1-.3.2-.7.2-1.2m9.4-46.3v.5c0 .1.1.1.1.2.1-.1.2-.1.2-.2 0-.4 0-.8 0-1.1 0-.2-.1-.3-.2-.5 0 .2-.1.4-.1.5zm89.1 26.2c.3-.4.1-.9.2-1.4 0-.1 0-.1-.1-.2 0 .1-.1.2-.1.2-.2.5-.2 1 0 1.4m-48.6-56.3c0-.8 0-1.6 0-2.4 0-.1-.1-.1-.1-.2 0 0-.1.1-.1.1.1.9.1 1.8.2 2.5m6.7-43.8v.8c0 .1.1.1.2.2 0-.1.1-.1.1-.2 0-.4 0-.7 0-1.1 0-.1-.1-.1-.1-.2-.1.2-.1.3-.2.5m39.4 55.6c-.1 0-.1 0 0 0-.2-.1-.4-.3-.5-.3-.2.2 0 .3.1.4 0 .1.1.2.1.3s-.1.4.2.4c.1 0 .1-.2.1-.4 0-.1 0-.2 0-.4m-10.5 30.2c.1 0 .2-.1.2-.1 0-.3 0-.6 0-.9 0-.1-.1-.1-.1-.2-.1.1-.2.2-.2.3 0 .2 0 .6.1.9m-2.8-27.4c-.3.3-.4.5-.4.9v.1h.1c.2-.3.6-.6.3-1m10.1-134.1v.3s.2.1.2 0c.1-.2.3-.3.4-.5 0-.1-.1-.3-.1-.4-.1.1-.2.1-.3.2s-.1.3-.2.4m-10.5 166.3c0-.2 0-.5 0-.7 0-.1-.1-.1-.2-.2 0 .1-.1.1-.1.2 0 .3.1.6.2.9 0 .1.1.2.1.3 0-.1 0-.2 0-.5m-64.8-.2c-.1-.1-.1-.3-.1-.4 0-.3 0-.5 0-.8 0 0 0-.1-.1-.1 0 0-.1 0-.1.1v1.5s.2.1.2.1 0-.1.1-.4m-8-21.5c0-.1-.1-.4-.1-.4-.2-.1-.2.2-.2.3v1.1c0 .1.1.2.1.3 0-.1.1-.1.1-.2 0-.3 0-.7.1-1.1m72.8 1.4c-.1.3-.1.5-.1.8 0 .2.1.4.2.5 0-.2.1-.4.1-.5 0-.3 0-.6 0-.9 0 0-.1 0-.2.1m1.8 21.9c.1-.2.2-.4.3-.6s0-.4 0-.6c-.1.1-.2.3-.3.4zm-75.4-29.8c0 .3 0 .5.1.7 0-.2.1-.4.1-.5s.1-.1.1-.2c.1-.2.1-.4.1-.6-.1.1-.2.3-.4.6m12.2 42.5v.4c0-.1.1-.2.1-.3s.1-.1.1-.2c0-.2 0-.5 0-.7 0 0 0 0-.1 0-.2.2-.1.4-.1.8m28.2-92.1c0-.3-.1-.6-.1-.8 0 .3 0 .6-.1.8v.2c0 .2.1.5.1.7.1-.3.1-.5.1-.9m-3-27.3c-.1 0-.2.1-.2.1s0 .2.1.2h.4c.1 0 .4.1.3-.2-.1-.1-.3-.1-.6-.1m-24.1 117.7.3-.3c.1-.2.1-.4.1-.5-.1.1-.2.3-.3.4s-.1.2-.1.4m-6.2-.5c-.1 0-.3-.1-.4-.1-.2 0-.3.1-.5.1v.1h.6c0 .1.1.1.3-.1m-.9 1.2c.2 0 .4 0 .5-.3-.2 0-.4 0-.6 0-.1 0-.2.1-.3.2.1 0 .2.1.4.1m82.7 9.3v.2c.1-.1.3-.1.3-.2s-.1-.3-.1-.4c-.1 0-.1.1-.2.4m-78.1-13.7c0-.1 0-.1.1-.2 0-.2-.1-.3-.1-.2-.1.2-.1.3-.2.5 0 0 .1 0 .2-.1m-21.2 7.6v.2.3c.1-.1.1-.2.2-.3 0-.1.1-.3.1-.4-.1.1-.2.1-.3.2m106.6-53.8c-.1 0-.1-.1-.2-.1-.3-.1-.2.3-.4.3v.1c.1-.1.3-.1.4-.2.1.1.1.1.2-.1m-18.8 35c0-.2-.1-.5-.1-.7v.7.4s.1 0 .1-.1 0-.1 0-.3m-30.2-105.3c-.1-.1-.2-.1-.2-.1-.1 0-.2 0-.3.1.1 0 .2.1.2.1l.2.2c.1-.2.2-.3.1-.3m41.7 124.9c0 .1 0 .2.1.4 0-.1.1-.2.1-.3 0-.2 0-.4 0-.6 0 0-.1-.1-.1-.1v.1c-.1.1-.1.2-.1.5m-33.4-42.4c.1 0 .1 0 0 0 .1.1.1 0 .1 0 0-.1 0-.3 0-.4s-.1-.1-.2-.1v.2c0 .1 0 .2.1.3m34.7-7.6c-.4 0-.2.2-.2.4.1 0 .2-.1.3-.1 0-.1 0-.2-.1-.3m-.5 55.8c.1 0 .1 0 0 0 .1-.1.1-.2.1-.3.1-.3 0-.5-.1-.4zm-17-18.6v.2c.1.1.2.2.3.4 0-.1 0-.3 0-.4-.1-.2-.2-.2-.3-.2m16.9-41.1c-.3 0-.2.2-.2.3s.1.1.2.1c0 0 0-.2 0-.4m-88.9 13.4c0 .3.1.6.1.8 0-.3-.1-.6-.1-.8m1.9 9.4c-.1.1-.2.2-.4.3 0 0 .1.1.1.1.2-.1.4 0 .3-.4m85.4 1.8c0-.1 0-.1 0-.2s0-.1 0-.2c0 0-.1 0-.1.1 0 .2.1.4.1.7 0 0 0-.1.1-.1-.1-.1-.1-.1-.1-.3m-91.8 26.4c.1 0 .1 0 .2-.1 0 0 0-.1-.1-.1s-.3 0-.4 0-.2.1-.3.1c.2.1.3.1.6.1m-5.1 3.4c.1-.1.1-.1.1-.1-.1 0-.3 0-.4 0v.2s.1 0 .3-.1m10.2-48.2c0 .2.1.5.1.7 0-.2 0-.5 0-.7 0 0 0-.1-.1 0m5.7 41.8c.1-.1.1-.1.1-.1-.1 0-.3 0-.4 0v.2s.1 0 .3-.1m-12.7 1.5c0-.1 0-.1 0-.2s0-.1 0-.2c0 0-.1 0-.1.1 0 .2.1.4.1.7 0 0 0-.1.1-.1-.1-.1-.1-.1-.1-.3m92.7-27.7c-.1.1-.1.2-.2.3.1 0 .1.1.2.1 0-.1.1-.2.1-.3.1-.1 0-.1-.1-.1m-86.2-4.4c0-.1 0-.1-.1-.2 0 0-.1 0-.1.1v.4c0 .1.1.2.1.3.1-.2.1-.3.1-.6m87.5 8.7c0-.2-.1-.4-.1-.5v.6c-.1 0 0 0 .1-.1m-9.3 13.2c0-.2.1-.3.1-.5 0 0 0-.1-.1-.1 0 .1-.1.1-.1.2s0 .2.1.4m14.6-178.8c0-.1 0-.2 0-.3-.1.1-.2.1-.3.2.2.1.2.2.3.1m-52.4 129.8c0-.1 0-.1-.1-.2v.6c.1-.1.1-.2.1-.4m35.5 44.3c0 .2.1.4.1.5 0-.2 0-.4 0-.6.1 0 0 0-.1.1m-2.3-11.4c.1.1.1.1.1 0s0-.3 0-.4c0 0-.1-.1-.1-.1v.2zm-68.5 24.5c-.1.1-.2.1-.2.2 0 0 .1.1.1.1s.1-.1.1-.3m-4.5-24.7h.3v-.1s-.2 0-.3.1m1.8-.4c.1-.1.2-.1.3-.2-.1 0-.2 0-.3.2m73 11.9c0 .1-.1.2-.1.3 0 0 0 .1.1.1 0-.1.1-.1.1-.2 0 0 0-.1-.1-.2m-2.7-20.2c0-.1 0-.1-.1-.2 0 0-.1.1-.1.1.1.1-.2.4.2.1m-31.4-33.5s.1 0 0 0c.1.1.1.1.1 0s0-.2 0-.4c0 0-.1 0-.1-.1.1.2 0 .3 0 .5m32.4 46.6c.1 0 .1-.1.2-.1 0 0-.1 0-.2.1m2.2 1.1c-.1 0-.1.1-.2.1.1 0 .2 0 .2-.1m6.9-157.3c.1 0 .2 0 .2.1v-.1s-.1-.1-.2 0m-82.9 151.8c0-.1-.1-.1-.1-.2 0 0 0 .1.1.2m72-19.1c0-.1 0-.1 0-.2h-.1c0 .1 0 .2.1.2m-26.3-66.1c0 .1 0 .2-.1.2h.1c.1.1.1 0 0-.2m44.9 122.6c0-.1 0-.2.1-.2h-.1s-.1 0 0 .2m-43.6-53c-.1 0-.1 0 0 0-.1.1 0 0 0 0m3-78.5s-.1-.1 0 0c-.1 0-.1 0 0 0m38 126.9c.1 0 .1 0 0 0 .1 0 .1-.1 0 0m-4.6 4.2c-.1 0-.1-.1 0 0-.1 0-.1 0 0 0m5.3-197.9c.1 0 .1-.1 0 0 .1-.1 0-.1 0 0m-40.6 79.3c.1 0 .1 0 0 0 .1 0 .1-.1 0 0m25.4 98.2c.1 0 .1 0 0 0 .1 0 .1-.1 0 0z"/><path d="m27.1 94.2c-1.2-.6-2.3-1.3-3.4-1.9-.6-.3-1.2-.6-1.8-1-1-.6-2-1.1-3-1.7-1.3-.8-2.7-1.5-4.1-2.2-2.4-1.2-4.9-2.5-7.3-3.7-1.5-.7-2.9-1.2-4.3-1.9-1-.4-1.9-.9-2.8-1.4-.1-.1-.3-.1-.4-.2 0 0 .1-.2.1-.2.3 0 .6 0 .8.2 1.4.7 2.8 1.4 4.2 2 2.3 1 4.6 2.1 6.8 3.3 1.6.9 3.2 1.8 4.8 2.6 1.8.9 3.4 2.1 5.2 3 1.1.5 2.2 1.2 3.2 1.8 2.1 1.2 4.3 2.3 6.3 3.6 1.2.8 2.5 1.4 3.8 2.1.1.1.3.2.4.3.2.1.3.2.4 0 .2-.4.5-.2.6.1.6 1 1.6 1.3 2.5 1.8.2.1.3.2.5.3s.5.3.6.3c.3-.1.4-.5.4-.8s0-.6 0-.9c0-.1 0-.2 0-.3.1-.1.2-.2.4-.2.1 0 .2.1.2.2.2.6.9.6 1.2 1 .1-.1.2-.1.2-.2.1-.3.5-.4.6-.1.8 1.2 2.1 1.6 3.3 2 .4.1.8.2 1.2.3.7.2 1.4.5 2.1.6.3.1.5.1.7.3.1.1.2.1.3.2.8.2 1.5.4 2.2.9.1.1.3.1.4.2.2.1.3.2.5.2-.1.1-.3.1-.4.2s-.2.2-.2.2c-.1.5.1 1 .4 1.5.1.2.2.3.3.4.2.4.2.4-.3.5-.1 0-.2.1-.3.2-.2.4-.5.6-.9.4-.3-.2-.5-.1-.8-.1-1-.1-2-.1-3.1-.2-.1 0-.2 0-.3.1.1.1.2.2.3.2h.3c.9.1 1.9.1 2.8.2.4 0 .7.1 1.1.2.1 0 .1.2.1.3-.3.1-.3.2-.1.3.7.6 1.4 1.1 2.2 1.7.6.4 1.2.8 1.7 1.3l1.5 1.2v.2c-.1 0-.1 0-.2-.1-.2-.2-.5-.3-.7-.5-1.4-.9-2.8-1.9-4.1-3.1-.3-.3-.7-.4-1-.7-.4-.4-1-.3-1.5-.4-.7-.2-1.4-.2-2.1-.2s-1.3-.1-2-.3c-.1 0-.3 0-.4 0-.6 0-.6 0-.6.6v2.8c0 .6 0 .7-.7.6-.4 0-.8-.1-1.1-.3-.4-.2-.6-.9-.2-1.4.4-.6.2-1.3.3-1.9 0-.1-.1-.2-.2-.2-.4-.1-.8-.1-1.3-.2-.3 0-.5 0-.4.4.1.3.1.5.2.8.1.9-.2 1.8-.5 2.6-.1.4-.6.8-.9 1.2-.2.2-.5.1-.6-.2-.1-.5-.3-.9-.3-1.4 0-1.3-.1-2.6 0-3.9 0-1 .2-2 .3-3.1 0-.5.1-1 0-1.5 0-.3.4-.5 0-.8-.2-.2-.4-.4-.7-.5-1.2-.7-2.5-1.4-3.7-2.1-1.7-.9-3.4-1.7-5-2.8-.4-.3-.9-.7-1.5-.6-.1 0-.1-.1-.2-.1 0-.1.1-.1.1-.2.2-.2.2-.2-.1-.3-.4-.7-1.2-1.1-2-1.6m19 8h.1s-.1-.1-.1-.2c-.2 0-.3 0-.5 0 .2.1.3.1.5.2 0-.1 0-.1 0 0m-2.2 4.4c-.4 0-.7 0-1.1 0-.1 0-.2.1-.2.1.1.1.2.2.2.2.4 0 .8-.1 1.2 0 .4.2.6.1.9-.2.2-.3.5-.1.6.1.1.1.2.3.2.4 0 .2.1.2.3.1.1 0 .1-.1.2-.1.9-.1 1.7.2 2.6 0 .1 0 .1.1.2.1.2 0 .4.1.6.1.1 0 .1-.1.2-.2-.1 0-.1-.1-.2-.1-.4-.1-.9-.1-1.3-.1-.3 0-.6-.1-.8-.4s-.5-.4-.7 0c-.2.3-.5.2-.6 0-.1-.6-.5-.6-.9-.5-.2 0-.4.1-.5 0-.7-.5-1.6-.1-2.4-.4 0 0-.1.1-.2.1 0 0 .1.1.1.2.1.1.3.1.4.2.5.2 1.1.1 1.6.2.1 0 .1.1.2.1 0 .1-.1.2-.1.2-.2-.2-.3-.1-.5-.1m4.1-1.4c0 .1 0 .2.1.4 0-.1.1-.2.1-.3 0-.4 0-.8 0-1.2 0-.3.2-.2.4-.2.1 0 .1.1.2.2s.2.4.5.2c0 0-.2-.3-.3-.5-.1-.1-.2-.2-.4-.2-.5-.1-1.1-.2-1.6-.3-.6-.1-1.2-.3-1.8-.5-.3-.1-.6-.1-.9-.1-.1 0-.2.3-.2.4h.3c.3 0 .6-.3.8.2.1.2.2.5.6.3.5-.3.7-.1.7.5v.3c.1.3.1.7.2 1 0-.3.1-.7.1-1 0-.1 0-.2 0-.3.1-.1.2-.3.4-.4.4-.1.7.2.7.6 0 .1 0 .4.1.9m-5.2-4.3c-.2-.2-.4-.3-.7-.5-.1-.1-.3-.1-.5-.1-.1 0-.2.1-.2.2v.5s.1-.1.1-.1c.3-.4.3-.4.5 0 0 .1 0 .1.1.2.4.3.5.3.7-.2m1.8 9.9v.7c0 .3.4.4.7.3s0-.3 0-.4c-.1-.2-.1-.3-.1-.5-.2-.3-.4-.2-.6-.1m-.4-3.4c-.5-.1-1-.1-1.6-.2-.1 0-.1 0-.2.1.1.1.1.2.2.2.4.1.8.2 1.2.2.1 0 .4 0 .4-.3m7.3-2.9c.1.1.2.1.2.2.1.1.3.2.4 0 .2-.3-.1-.3-.2-.4s-.2 0-.4-.1-.3-.1-.5-.2c.2.1.3.2.5.5m-7.6-.1c.1.1.1.2.2.4.1-.1.2-.2.2-.3s0-.3 0-.4-.1-.1-.1-.1c-.1 0-.2 0-.2.1 0-.1 0 0-.1.3m1.8.3c0-.1 0-.2 0-.4-.1.1-.1.2-.2.3 0 .1-.1.2-.1.3s.2.2.3.3c-.1-.1-.1-.2 0-.5m5.1.5c.1.2.1.6.4.7-.1-.2-.2-.5-.3-.7 0-.2 0-.2-.1 0m1.3.7c0-.1.1-.3.1-.3-.1-.1-.3-.1-.4-.1 0 .1.1.2.1.3.1-.1.1-.1.2.1m-10-1.4v.2c.1.1.2.2.3.4 0-.1 0-.3 0-.4-.1-.1-.2-.2-.3-.2m6.4 1.8c0-.1 0-.2 0-.3-.1 0-.2 0-.2.1.1 0 .1.1.2.2m-7.4 6.2v-.1c0-.1-.1-.2-.1-.2 0 .1-.1.1-.1.2.1 0 .1.1.2.1z"/><path d="m17.3 191.6c1.5-1.1 3.2-1.8 4.8-2.7 1-.5 1.9-1.1 2.8-1.6.5-.3 1.1-.5 1.6-.9 1.6-.9 3.2-1.7 4.8-2.5.6-.3 1.2-.7 1.9-1 1.5-.6 2.9-1.5 4.5-2 .9-.3 1.5-.9 1.9-1.8.1-.3.3-.6.5-.9.1-.1.3-.1.4-.2.1.2.2.4.2.6s-.1.3-.2.5c-.1.3-.3.6.1.9.2.2.2.4 0 .7-.2.2-.3.5-.5.7-.2.3-.3.6.1.8.1.1.2.4.2.5-.5.9-1 1.7-1.5 2.6 0 .1-.1.1-.2.2 0-.1-.1-.2-.1-.3 0-.6.1-1.2.5-1.7.2-.3.3-.6.4-.9 0-.1 0-.2-.1-.3-.1 0-.2.1-.2.1-.2.2-.3.5-.4.7-.1.1-.2.1-.3.2.1-.2-.3-.3-.1-.6.2-.2.2-.6.4-.8s.1-.3-.1-.2c-.4.1-.8.2-1.1.3-.9.4-1.8.7-2.6 1.3-.5.4-1.2.5-1.8.8-.7.4-1.4.8-2.2 1.2-.7.4-1.4.7-2.1 1.1s-1.4.8-2.1 1.2c-.6.4-1.3.7-1.9 1.1-1.1.6-2.1 1.3-3.2 1.9-.7.4-1.5.7-2.3 1-.2.1-.3.1-.5.2-.4.1-.7.3-1.1.4-.5.2-1.1.5-1.6.7-.1.1-.3 0-.5 0 0-.2 0-.4.2-.5.5-.1 1-.4 1.4-.8z"/><path d="m23.5 57.9c1.4 1.3 2.7 2.5 4 3.7.7.7 1.5 1.3 2.2 1.9 1.2 1 2.4 2 3.8 2.9 1.3.9 2.5 1.9 3.8 2.8 1.1.8 2.2 1.6 3.3 2.4.7.5 1.4 1 2 1.5 1.3 1.1 2.6 2.2 3.8 3.4 1.3 1.2 2.4 2.5 3.6 3.8.9.9 1.8 1.9 2.7 2.8 1 1 2 1.9 3 2.8.9.9 1.8 1.7 2.7 2.6s1.8 1.7 2.7 2.6c1 .9 2 1.9 3.1 2.7 1.3 1.1 2.6 2.1 3.9 3.1 1.5 1.1 3.1 2 4.6 3.1 1 .7 2 1.4 2.8 2.3 1.1 1.1 2.4 2.2 3.5 3.3l2.1 2.1c.2.2.3.6.5.9v.2c-.1 0-.1-.1-.2-.1-.2-.3-.5-.7-.7-.9-.8-.8-1.7-1.7-2.5-2.5-.1-.1-.2-.1-.2-.2-.9-.8-1.7-1.7-2.6-2.5s-1.8-1.5-2.8-2.2c-1.6-1.2-3.3-2.3-4.9-3.5-1.1-.8-2.1-1.6-3.1-2.5-.9-.8-1.9-1.6-2.8-2.5-1.3-1.2-2.6-2.5-4-3.8-1.3-1.2-2.6-2.4-3.9-3.6-1-.9-2-1.8-2.9-2.8-1.1-1.1-2.1-2.2-3.1-3.2-.9-1-1.7-2-2.7-2.8-1-.9-2-1.9-3.2-2.6-.8-.5-1.5-1.1-2.2-1.7-1-.7-2-1.5-3-2.2-1.1-.8-2.2-1.6-3.4-2.4-1-.7-2-1.5-3-2.3-.4-.3-.7-.6-1.1-.9-1.2-1-2.3-2.1-3.5-3.1-1.7-1.5-3.5-3-5.1-4.6-.6-.6-1.3-1.1-1.9-1.7-2-1.9-4-3.9-6-5.9-1.2-1.3-2.4-2.6-3.4-4.1-.1-.1-.1-.2-.1-.3 0-.2-.1-.4-.1-.6.1.1.3.3.4.4.9 1.5 2 2.9 3.3 4.1 1.1 1.2 2.2 2.4 3.4 3.5 1.4 1.3 2.7 2.7 4.1 4 .7.6 1.3 1.3 2 1.9.6.3.8.5 1.1.7z"/><path d="m143.2 82.5c-.3.2-.5.4-.3.6s-.1.4-.1.5c0 0-.1.1-.2.1-.3-.4-.4-.2-.7.1-1.4 1.4-2.8 2.8-4.1 4.3-.6.7-1.3 1.1-2.2 1.2-.5.1-.8-.1-1-.6-.4-1.3-.3-2.6.3-3.8.1-.1.1-.3.3-.4 1.2-.6 1.8-1.8 2.8-2.6 1.2-.9 2.2-2 3.4-2.8.3-.2.5-.4.8-.6.6-.3.7-.2.9.4.1.5.4.9.6 1.4.1.3.1 2.1-.1 2.4 0-.2-.1 0-.4-.2m-7 6.1c.4-.3.8-.5 1.1-.8.4-.4.8-.9 1.2-1.4.2-.2.2-.3.1-.6-.2-.5-.3-1-.3-1.5 0-.4 0-.7 0-1.1 0-.1 0-.1 0-.2-.1 0-.2.1-.2.1-.4.4-.9.9-1.3 1.3-.1.1-.2.3-.4.1-.3-.3-.5-.2-.6.2s-.2.8-.2 1.2v2c-.2.8-.2.8.6.7m4.4-7.6c-.3.3-.6.5-.9.8-.4.3-.7.7-.6 1.3v.8c-.2.7-.1 1.4 0 2.1 0 .1.1.1.1.2 0 0 0-.1.1-.1.1-.2.3-.4.4-.5.7-.8 1.5-1.5 2.3-2.2.5-.4.5-.9.4-1.4s-.2-1 0-1.4c0-.1 0-.2-.1-.4-.1 0-.2.1-.3.1-.5.1-.9.3-1.4.7m2.5 0c-.1-.1-.1-.1-.1 0v.1c0 .4 0 .7.1 1.1-.1-.4-.1-.7 0-1.2z"/><path d="m100.2 201.7c.7.1 1.3.1 2 .2.1 0 .3 0 .1-.2-.4-.3 0-.5.1-.5.4-.1.3-.4.3-.6-.3-1.6-.7-3.2-1.1-4.9 0-.1.1-.3.2-.4.3-.1.2.2.2.3.3 1.4.6 2.8.9 4.1v.4c0 .2.1.4.2.5s.3 0 .5-.1c.8-.2 1.5-.5 2.3-.5.3 0 .6-.1.9-.1.1 0 .2.1.3.1-.1.1-.2.2-.3.2-.6.3-1.2.4-1.8.5-.1 0-.1.1-.2.1.1 0 .1 0 .2.1.3.1.5.3.8.3.9 0 1.8-.1 2.8-.1h.3c.3.4.7.4 1.1.4 1 0 1.9 0 2.9.2.8.2 1.6.1 2.4.1.8.1 1.5.1 2.3.2 0 0 .1.1.1.1 1.2 0 2.3.2 3.5.3 1 .1 2.1 0 3.1 0 .3 0 .5 0 .7.3.2.2.1.5-.1.5-.5-.1-1.1.4-1.6-.1 0 0-.1-.1-.2-.1-.8-.1-1.5-.1-2.3-.2-1.1 0-2.1-.1-3.1-.3-.5-.1-1.1 0-1.7-.1-.9-.1-1.8-.2-2.7-.2-1 0-1.9-.1-2.8-.3-.6-.1-1.1-.1-1.7-.2-.5 0-1-.1-1.5-.2-.1 0-.3 0-.3 0-.1.6-.6.4-1 .5s-.7.1-1.1.1c-.3 0-.6 0-.9 0-.2 0-.4.1-.3.4.1.6.2 1.1.3 1.7.1.4.1.8.1 1.2 0 .1-.1.2-.1.3-.1-.1-.3-.2-.3-.3-.1-.3-.1-.6-.2-.9-.1-.6-.2-1.2-.3-1.7 0-.2-.1-.4-.5-.2-.2.1-.6.2-.8.2-.1 0-.2-.1-.2-.1l.2-.2c.1-.1.3-.2.4-.3-.2-.1-.4-.2-.5-.2-.7 0-1.4 0-2.1 0-.1 0-.2-.1-.3-.2.1 0 .1-.1.2-.1 0 .1.3.1.6 0m5.7.2h.4c.1 0 .1-.1.2-.2-.1 0-.1 0-.2 0s-.2 0-.4 0c-.4 0-.9 0-1.3 0-.1 0-.1.1-.2.2.1 0 .1.1.2.1.4 0 .8-.1 1.3-.1m-2.5 0h.2v-.1c-.1 0-.2 0-.2.1z"/><path d="m61.7 116.3c.1-.4.1-.7.2-.9 0-.1.2-.2.4-.1.9.3 1.9.3 2.8.3.2 0 .5.1.7.2.3.3.7.4 1.1.4.2 0 .2.1.1.3-.2.2-.1.3.1.3.4.1.7.1 1.1.2.1 0 .1.1.1.1 0 .1-.1.2-.1.2-.6 0-.6.4-.4.8v.2c-.5.5-.9 1.1-1.8.9-.4-.1-.7 0-1.1 0s-.8 0-1.2 0c-.6 0-.8.2-.8.8 0 .5-.1.9.1 1.4.1.3.2.8-.4.8-.1 0-.2.2-.2.3 0 .3.1.6.1.9 0 .2 0 .5-.3.6-.1 0-.3-.2-.4-.4s-.1-.4-.2-.6c0-.7 0-1.5 0-2.2 0-.1 0-.3-.1-.4-.1.1-.2.1-.4.2s-.4.2-.6.3c-.1 0-.2 0-.2-.1v-.2c.2-.2.4-.5.6-.6.5-.2.4-.5.4-.8 0-.5 0-1 0-1.6.3-.5.4-.9.4-1.3m2.3 1.6c.3-.1.5-.1.8-.2.1 0 .1-.1.2-.1-.1-.1-.1-.1-.2-.2-.4-.2-.9-.3-1.3-.5-.6-.3-.8-.2-.8.5v.5c.1.3.3.4.6.3.1-.2.3-.3.7-.3m1.8-.3v.2h.1c0-.1 0-.2-.1-.2z"/><path d="m116.1 247.2c0-.9-.3-1.7-.7-2.4-.5-.9-.8-1.9-1-2.9-.5-2-1.1-4.1-1.8-6-.5-1.4-.9-3-1.3-4.4-.3-.9-.5-1.9-.8-2.8-.6-1.8-1.2-3.6-1.6-5.5-.1-.4-.3-.8-.3-1.2 0-.2-.2-.5-.6-.4-.2 0-.5 0-.7-.1-.1-.1-.2-.3.1-.3s.6 0 .8-.4c-.3 0-.6 0-.9 0-.4 0-.9.2-1.3.2-1.2.1-2.4.1-3.7.2-.2 0-.3 0-.3-.3 0-.1 0-.2 0-.2.2-.1.3-.2.5-.1.5.2.9.2 1.4 0h.3c1.2-.1 2.3-.2 3.5-.3.1 0 .2-.1.2-.2 0-.2-.1-.5-.1-.7 0-.1 0-.2.1-.2 0 0 .2 0 .2.1.1.1.1.2.1.3.2.5.5.9 1.1.7h.2c.2.2.5.4.7.5-.2.1-.4.2-.6.3-.1 0-.2.1-.3 0-.3-.1-.3.2-.3.4.2.7.4 1.4.6 2.1.4 1.5.9 2.9 1.3 4.4.3 1.3.8 2.5 1.1 3.8.3 1.2.7 2.4 1.1 3.7.4 1.4.9 2.8 1.3 4.1.5 1.4.9 2.9 1.4 4.3-.2.7.3 1.2.6 1.9s.4 1.5.6 2.2c.2.8.7 1.6 1 2.5.2.4.3.8.3 1.2 0 .1-.1.2-.2.2-.3 0-.8-.5-.7-.7.3-.4.1-.7-.1-1-.5-1.1-.9-2-1.2-3z"/><path d="m61.5 220.2c.1.1.4.3.3.4-.1.2-.2.3-.4.4-1.2.3-2.3.7-3.4 1.1-.4.1-.8.2-1.1.6-.1.2-.5.1-.8.2-.8.3-1.6.7-2.4 1-1 .3-2.1.5-3.2.2-.1 0-.3-.1-.4-.2-.2-.1-.4-.3-.4-.5 0-.3.3-.3.5-.3.4 0 .8-.1 1.2-.1.7-.1 1.4-.2 2.1-.4.2 0 .5-.1.7-.1.9-.1 1.8-.2 2.7-.5.1 0 .2-.1.3-.1.1-.1.3-.2.4-.3-.2 0-.3 0-.5.1-.5.1-.9.1-1.4.2-.4.1-.8.1-1.2.2-.3.1-.6.1-.8-.1s-.2-.4-.3-.7c.2 0 .3-.1.5-.1.6-.1 1.2-.1 1.8-.2.4 0 .5-.2.5-.6 0-.2 0-.5.1-.7.1-.1.4-.1.6-.2 1.1-.7 2.4-.8 3.6-1.2h.2c.2 0 .3.1.5.1-.1.1-.2.2-.4.3-.7.3-1.4.6-2.1.8-.4.1-.8.2-.9.6 0 .1-.1.1-.2.2s-.3.2-.4.4c.2 0 .4.1.6 0 .7-.1 1.3-.3 2-.4.8-.1 1.2-.1 1.7-.1z"/><path d="m120.8 102.9c.1-.4.1-.8.2-1.1 0-.1 0-.2-.1-.3-.1.1-.2.1-.2.2.2.8-.3 1.4-.7 2.1-.5.9-.5 1.8-.3 2.8 0 .1-.1.3-.2.4-.1-.1-.2-.2-.3-.3v-.1c-.1-1.6-.1-3.2-.1-4.8 0-.1.1-.2.2-.3.1.1.3.3.3.4v1.9.3c.1-.1.1-.2.2-.3.2-.4.3-.7.5-1.1 0-.1.1-.2.1-.3-.3-.6-.1-1.2-.1-1.7s-.3-.2-.4-.1c-.2.2-.4.4-.6.6-.1.1-.2 0-.4 0 .1-.1.1-.2.2-.3.7-.6 1.4-1.2 2.2-1.7.7-.5 1.3-1 1.9-1.6.1-.1.4-.3.5-.2.2.1.4.3.4.6v.3c.4.7 0 1.4-.2 2.1-.1.3-.1.6 0 .8.3.5 0 .8-.2 1.1 0 .1-.1.2-.2.2-.6 0-.8.4-1 .8-.3.3-.5.7-.8 1-.1.1-.2.2-.2.3 0 .5-.3.6-.7.6-.1 0-.3 0-.4 0h-.1c0-.1 0-.1.1-.2.5-.6.4-1.3.4-2.1m1.2-2.9c.1.3.1.6.2.9 0 0 0 .1.1.1s.1-.1.2-.1c.2-.3.2-.7.5-.9.4-.5.3-1 .2-1.4-.1-.6-.2-.6-.6-.2-.3.3-.4.5-.4.9-.1.2-.2.4-.2.7m1.1 1.1c.1-.1.1-.3.1-.4s0-.2-.1-.3c-.1.1-.2.1-.2.2-.5.8-1.1 1.7-1.6 2.5-.1.2-.1.4-.2.6 0 0 0 .1.1.1 0 0 .1-.1.1-.1.5-.6 1-1.2 1.5-1.8.3-.2.3-.4.3-.8m-2.6-.5v.5s0 .1.1.1c0 0 .1 0 .1-.1.3-.5.2-1.1.3-1.7h-.1c-.1.1-.3.2-.3.3-.2.4-.1.6-.1.9m.9.7c-.1.4-.1.8-.2 1.2 0 .1 0 .2.1.3.1-.1.1-.2.2-.3.2-.5.3-.9.1-1.4-.1-.2-.1-.4-.1-.6-.1.2-.1.4-.1.8m0-1.6c-.1-.1-.1-.1-.1 0v.4s.1 0 .1.1c0-.2 0-.3 0-.5z"/><path d="m73.1 125.8c0-.6 0-1.1-.1-1.6-.1-.4 0-.9.1-1.4 0-.3.3-.3.5-.3s.5.1.7.1c.4 0 .8 0 1.3.1s1 .1 1.4-.2c.1-.1.4-.1.5-.2 0 0 .1.1.1.2 0 0-.1.1-.2.2-.4.1-.5.3-.1.6.1.1.1.3.1.4-.1.1-.3.2-.4.2-.2-.1-.4-.2-.6-.3-.1 0-.2 0-.4.1.1 0 .2.1.3.1.3.2.6.5 1 .6.3.1.3.4.3.7s-.3.3-.5.3c-.4 0-.8 0-1.2 0-.1 0-.2.1-.3.1.1.1.2.2.3.2s.2.1.2.1c.1.1.1.2.1.3-.1 0-.3 0-.3-.1-.4-.4-.8-.8-1.4-.7-.1 0-.1 0-.2.1.2.6-.7.8-.5 1.4 0 .1-.1.3-.1.5 0 .3-.2.4-.5.4-.1 0-.3-.3-.3-.4 0-.4-.3-.9.1-1.2.1 0 .1-.1.1-.3m1.6-1.4c.1-.1.1-.1.2-.2-.1 0-.1-.1-.2-.1-.2 0-.3 0-.5 0-.1 0-.1 0-.2 0 .1.1.1.2.2.2.1.1.3.1.5.1m.7.1c.1.1.1.2.2.2 0 0 .1-.1.1-.1 0-.1-.1-.1-.3-.1m-1.5-1c.1 0 .2 0 .2.1v-.1s-.1 0-.2 0z"/><path d="m67.5 76.4c.9 1.5 1.7 2.9 2.7 4.3.6.9 1.4 1.8 2.1 2.7 1.2 1.5 2.4 2.9 3.6 4.4.7.9 1.5 1.8 2.2 2.7.6.8 1.2 1.7 1.8 2.5.8 1.2 1.6 2.5 2.4 3.7.5.7 1.2 1.4 1.7 2.1.7.8 1.3 1.6 1.9 2.5.1.1.2.3.3.4.5.6 1 1.1 1.5 1.7.1.1.1.3.2.4 0 .1-.1.2-.1.3-.1-.1-.1-.2-.2-.2-.2-.2-.3-.5-.6-.7-1.2-1.1-2-2.4-3-3.7-.3-.4-.6-.8-.9-1.2-1.4-1.4-2.3-3-3.3-4.6-.7-1.1-1.5-2.2-2.3-3.2-.9-1.1-1.8-2.3-2.7-3.5-.3-.4-.7-.8-1.1-1.3-.8-1-1.6-2.1-2.4-3-1-1.2-1.8-2.5-2.6-3.7-.7-1-1.4-2.1-2-3.1-.6-.9-1.2-1.9-2-2.7-.1-.1-.2-.1-.2-.2s0-.2 0-.3h.3l.9.9c.7.9 1.3 1.8 1.9 2.7-.2-.1-.2 0-.1.1z"/><path d="m131.7 87.9c0-.7.1-1.3 0-1.9-.2-1.6-.1-3.1-.1-4.7 0-.5 0-1.1.5-1.4.1-.1.1-.2.1-.3.1-.6.1-1.3.2-1.9.1-1.5.1-2.9.2-4.4 0-.1 0-.1.1-.2.1.1.2.1.2.2v.4c0 1.5.1 3.1 0 4.6-.1 1-.1 2-.1 3.1v.2c-.6.7-.3 1.6-.3 2.4v8c0 .8.1 1.5.1 2.3v.5c0 .1-.2.2-.3.2s-.2-.1-.2-.1c-.1-.2-.2-.4-.2-.7s0-.5 0-.8c0-.6 0-1.2 0-1.8s-.1-1.2 0-1.7c-.2-.7-.2-1.3-.2-2z"/><path d="m131.7 97.9c.2.7.2 1.4.2 2v5.6c0 1.6 0 3.2.2 4.8 0 .5-.3.9-.1 1.5.2.5.1 1 .1 1.5 0 1.4 0 2.8.3 4.2v.6c0 .1-.1.2-.1.4-.1-.1-.2-.2-.2-.4-.1-.4-.3-.9-.3-1.4-.1-.7-.1-1.5-.2-2.2-.1-1.1-.1-2.3-.1-3.4 0-.6.1-1.3.1-1.9 0-1.2 0-2.4-.2-3.6-.2-1.8-.1-3.6-.1-5.4 0-1-.1-1.9-.1-2.9 0-.1.1-.2.2-.4.1.1.2.2.3.3-.1.3-.1.5 0 .7z"/><path d="m130 89.5c.2-.1.4-.2.5-.2.2 0 .4.2.5.3s0 .3-.1.4c-.3.6-.4 1.2-.3 1.8.1 1-.3 2-.3 3 0 .1-.1.2-.1.2-.1 0-.2 0-.2-.1-.1-.2-.3-.3-.3-.5-.1-.4-.3-.2-.4-.1-.5.5-1 1.1-1.5 1.6-.1.1-.1.4-.3.1-.1-.1-.2-.4-.1-.5.2-.3.5-.6.8-.9s.6-.6.9-.9c.1-.1.1-.3.1-.3-.5-.5-.4-1.1-.4-1.7 0-.1 0-.1-.1-.2-.1 0-.1.1-.2.1-.4.4-.8.9-1.1 1.4 0 .1-.1.1-.2.1 0-.1-.2-.1-.1-.3.2-.6.5-1 .8-1.4.7-.5 1.4-1.2 2.1-1.9m-.2 1.2c-.5.5-.7 1.7-.5 2.3 0 .1-.1.4.2.4.1 0 .1-.3.1-.4 0-.8 0-1.7.6-2.4 0 0 0-.1 0-.2-.1 0-.2 0-.3 0 0 0 0 0-.1.3z"/><path d="m87.5 135.4c-.2-.3-.3-.6-.5-.8-.1-.1-.4-.1-.7-.1-.4.1-.9.2-1.3.3-.1 0-.2.1-.2.2v.6c0 .1-.2.2-.3.2 0-.1-.1-.2-.1-.2 0-.1-.1-.4-.1-.4-.3 0-.1.3-.2.4v.2c-.1.2-.2.5-.3.7-.3-.2-.2-.5 0-.7v-.1c-.8-.3 0-.6 0-1 0-.1.1-.2.1-.3s0-.2-.1-.2c-.3-.2-.3-.2 0-.5.2-.2.4-.4.1-.7-.2-.3-.2-.6.1-.8.1 0 .1-.2.2-.2.2-.3.3-.4.5 0 .1.4.4.5.7.7.2.1.5.4.9.1.2-.2.4 0 .3.3s0 .3.2.4c.4.4.9.8 1.4 1.2.1.1.5.3.2.6-.1.1.1.4.2.6.1.1.2.2.3.3v.2h-.2c-.6-.3-.9-.6-1.2-1m-2.6-1.4c.1-.1.1-.1.2-.2-.1 0-.2 0-.2-.1z"/><path d="m80.6 132.2c-.1.1-.1.3-.2.4-.1-.1-.1-.2-.2-.2s-.2 0-.3.1-.2.2-.3.3c-.1-.2-.2-.3-.2-.4.3-1.2.1-2.4.1-3.6 0-.4.5-.8.9-.6.9.4 1.8.9 2.6 1.4.1 0 .2.2.1.3-.1.2-.2.4-.4.5-.3.1-.6 0-.9 0-.8 0-1.2.5-1.2 1.2.1.2.1.4 0 .6m.6-2.4c0-.1.3-.1 0-.2-.1 0-.3 0-.4 0s-.1.1-.2.1c.1.1.2.1.2.2.1 0 .2 0 .4-.1z"/><path d="m112.7 183.2c.3-.1.4-.1.6-.2.4-.1.6 0 .6.5 0 .3.1.5.4.2 0 0 .2-.1.2 0 .1.1.2.2.2.2-.2.2-.3.4-.6.4-1.2 0-2.4 0-3.6 0-.4 0-.7 0-1 0s-.7.1-1 .1c-1 0-2 .1-2.9-.2-.3-.1-.6-.2-.9-.2-.1 0-.1-.1-.2-.2.1 0 .2-.1.2-.1.4.1.9.1 1.3.2.1 0 .3.1.4.1.7-.2 1.3.1 2 0 .4-.1.8-.1 1.2-.2h.1c.2-.7.7-.4 1.1-.4.6-.1 1.2-.2 1.9-.2z"/><path d="m136.5 222.6c-.2-.1-.4-.1-.6-.2-1-.1-1.9-.1-2.9-.2h-.1c-.2-.1-.5-.3-.5-.4.1-.2.4-.3.6-.2.8.3 1.7.2 2.5.1 1.3-.1 2.5-.3 3.8-.3h.2c.3-.4.4 0 .5.2.3.6.3.5-.3.6-.8.1-1.7.3-2.5.4-.2.2-.4.1-.7 0z"/><path d="m99.1 184.3c-.2-.6-.2-.5-.7-.5-.5.1-1.1.1-1.6.1 0 0-.1-.1-.1-.1 0-.1.1-.1.1-.2.5-.1 1-.3 1.6-.3.4 0 .5-.2.5-.6 0-.8 0-1.6 0-2.3 0-.2 0-.3 0-.5 0-.1.1-.2.2-.2s.2.1.2.2v.5 2.3c0 .2-.1.4.4.3.9-.2 1.8-.2 2.7-.2.1 0 .1.1.2.1-.1.1-.1.1-.2.2-.5.1-1 .3-1.6.4-.4.1-.9.1-1.3.2-.2 0-.2.1-.1.3.3.8.3 1.6.9 2.3 0 0 0 .2-.1.2 0 0-.1 0-.2 0-.4-.2-.4-.7-.5-1-.3-.4-.4-.8-.4-1.2z"/><path d="m132.5 126.6c.2-.3.4-.4.4 0 0 .8.1 1.6 0 2.3-.1.4 0 .8 0 1.2.1.9.1 1.8 0 2.7-.1.6-.1 1.2 0 1.8.1.7-.1 1.3-.1 2 0 0-.1.1-.2.1 0 0-.1 0-.1-.1 0 0 0-.1 0-.2-.1-2.8-.1-5.7-.1-8.5-.1-.3 0-.8.1-1.3z"/><path d="m86.8 136.5c.5-.3.9 0 1.2.1.4.1.7.3 1.1.3.3 0 .4.2.3.4-.2.2-.4.5-.5.7-.3.4-.7.8-1 1.2-.2.2-.4.2-.6.3s-.3.3-.4.5c0-.3-.1-.5-.1-.8 0-.4.1-.8.1-1.2 0-.2-.1-.5 0-.7 0-.2-.1-.5-.1-.8m1.2 1.5c.3.1.5-.2.7-.4l.2-.2c-.1 0-.2-.1-.3-.1-.2 0-.3 0-.5 0-.4.1-.4.1-.1.7m-.8.6c0 .1 0 .2-.1.2h.1s.1-.1 0-.2z"/><path d="m79.9 183.6c-.5 0-.9.1-1.3.1-.2 0-.4-.2-.6-.3-.1-.1-.2-.4 0-.6 0-.1.1-.1.1-.2.7-.6 1.4-1.1 2.1-1.7.1-.1.2-.1.4-.1 0 .1-.1.2-.1.3-.5.6-1 1.2-1.8 1.5 0 0-.1.1-.1.2 0 0 .1.1.1.1.6.1 1.2.1 1.7.2 1.1.1 2.1.1 3.2.1.8 0 1.5-.1 2.3-.1.1 0 .2.1.3.1-.1.1-.1.2-.2.2-.4.1-.8.2-1.2.2-1.5 0-3.1 0-4.9 0z"/><path d="m87.2 117.3c-.5-.6-.9-1.2-1.4-1.7-.2-.3-.5-.6-.6-.9-.1-.1 0-.3 0-.5.2.1.4-.2.6.2.3.6.8 1.1 1.3 1.6.2.2.4.4.7.3.4 0 1 .5 1.1.9 0 .1-.1.2-.1.2-.2 0-.3-.1-.5-.1-.1 0-.2 0-.3 0 0 .1.1.1.1.2.3.3.6.5.8.8.1.2.3.3.4.5 0 .1 0 .3-.1.4h-.3c-.6-.6-1.1-1.3-1.7-1.9z"/><path d="m131.4 145.8c.1-.5.1-1 .1-1.4 0-.3.1-.6-.1-.9-.1-.1-.1-.4 0-.5.3-1.1.1-2.2.1-3.3 0-.2 0-.4 0-.5s.2-.3.3-.4c.1.1.1.3.1.4v2.6c0 .3 0 .7.1 1 .1.2-.1.6-.1.9v2.3c0 .6-.2 1.2-.3 1.7 0 0-.1.1-.2.1 0 0-.1-.1-.1-.2.1-.6.1-1.2.1-1.8z"/><path d="m52.7 55.3c.7.9 1.3 1.7 2 2.6.2.2.3.5.4.8v.3c-.1 0-.2 0-.2-.1-.5-1.1-1.4-2-2.2-2.9-1-1.2-1.9-2.4-2.9-3.6-.6-.7-1.1-1.4-1.6-2.1-.1-.3-.2-.4-.2-.5v-.1s.1 0 .1.1c.2.2.3.4.5.6.7.8 1.3 1.6 2 2.5.7.7 1.4 1.5 2.1 2.4z"/><path d="m144.2 145.5c.5-.1.9-.1 1.3-.1.1 0 .1.1.2.1-.1.1-.1.1-.2.2s-.2.1-.3.2c-1.2 0-2.2.6-3.3.9-1.2.3-2.4.8-3.6.9-.5 0-1 .2-1.5.4-.1 0-.2 0-.3 0 .1-.1.1-.3.2-.3.4-.1.8-.3 1.2-.4 1.2-.1 2.3-.5 3.4-.8 1-.5 1.9-.8 2.9-1.1z"/><path d="m68.1 201.7c-.5 0-1 0-1.4.1-.3.1-.7.2-.9-.2-.2-.3-.2-.6.1-.5.8 0 1.6-.4 2.5 0 .5.2 1.2 0 1.8 0 .1 0 .2.1.3.1-.1.1-.1.2-.2.3 0 0-.1.1-.2.1-.7 0-1.3.1-2 .1z"/><path d="m39.7 197.8c-.3.4-.5.8-.8 1.1-.1.1-.2.1-.3.2 0-.1-.1-.3-.1-.3.3-.7.7-1.5 1.1-2.2.1-.3.3-.5.5-.7s.4-.3.6-.2c.3.2.3.5.1.7-.3.4-.7.9-1.1 1.4z"/><path d="m84.3 111.5c.6.6 1.2 1.2 1.9 1.7.3.2.3.6.8.7.3 0 .6.4.9.6s.2.3 0 .6c-.2.2-.3.2-.5 0-.6-.6-1.2-1.1-1.8-1.7-.5-.4-.9-.8-1.4-1.2-.2-.1-.3-.3-.4-.5 0-.1.1-.3.1-.4.2 0 .3.1.4.2z"/><path d="m126.4 93.6c.5-.1.4.4.4.6.1.6.2 1.3.2 1.9 0 .2-.1.5-.2.7-.1-.2-.3-.4-.4-.7-.2-.7-.2-1.4-.2-2.2.1-.1.1-.2.2-.3z"/><path d="m161.4 248.2c.1-.1.3-.2.3-.2.4.4.8.8.9 1.4 0 .1-.1.3-.1.4-.1-.1-.2-.1-.3-.2-.4-.3-.7-.8-.8-1.4z"/><path d="m46.3 170.9c-.3.1-.5-.1-.5-.4.2-.5.3-1.1.3-1.7 0-.1.2-.2.3-.3 0 .1.1.2.1.3 0 .4 0 .8-.2 1.2z"/><path d="m88.5 106.4c-.1-.3-.2-.5-.4-.7-.1-.2-.1-.4.1-.5.1-.1.3-.2.3.1.1.4.2.7.3 1.1.1.2.2.3-.1.4 0-.1-.1-.3-.2-.4z"/><path d="m133.4 152.6c-.4.4-.8.4-1.2.3-.1 0-.1-.1-.1-.1 0-.1.1-.2.1-.2.5.1.8-.3 1.2-.4.1 0 .3.1.4.1-.2.1-.3.2-.4.3z"/><path d="m99.9 167.4c-.3-.3-.1-.6.1-.7s.5.1.7.1c0 .1 0 .4-.1.4-.1.2-.4.2-.7.2z"/><path d="m87.1 97.3c0-.3.1-.4.3-.3.3.3.6.7.8 1.1 0 0 0 .2-.1.2h-.2c-.2-.3-.5-.6-.8-1z"/><path d="m154.7 136.9c0 .1-.1.2-.2.3 0 0-.1-.1-.1-.1.1-.1.2-.2.3-.2z"/><path d="m144.6 179c-.2.8-.6 1.1-1.2.8-.4-.2-.8-.6-1.2-.7-.3-.1-.4-.4-.4-.5 0-.7-.2-1.4.1-2.1.2-.5.5-.7.9-.7h1.1c.5 0 .4 0 .5.6.1.3 0 .6 0 .9s.1.6.1.9c.2.1.1.4.1.8m-.8.1c.1-.1.2-.1.2-.2 0-.4 0-.7 0-1.1 0-.9-.4-1.2-1.3-1.2-.3 0-.3.1-.3.3v1.2c0 .2.1.4.2.4.4.3.7.5 1.2.6z"/><path d="m47.4 179c-.6-.7-.6-1.6-.4-2.3s.9-1.1 1.6-1.2c.6-.1 1.9.7 2.2 1.3.5.9-.1 2.6-1 3-.9.3-1.7-.1-2.4-.8m.8-.3c0-.3 0-.6.1-1 0-.3-.2-.3-.4-.3-.3 0-.3.2-.2.3.1.4.2.6.5 1m1.7-1.8c-.2-.1-.5-.1-.7-.1 0 0-.1.1-.1.1 0 .1 0 .2.1.2.2.1.5.2.7.3h.3c-.1-.2-.1-.3-.3-.5m-1 2.1c-.1 0-.1 0 0 0-.1.1-.1.1-.1.1h.3c-.1-.1-.1-.2-.2-.1z"/><path d="m45.2 195.3c-.9-.3-1.2-1-1.5-1.8-.1-.5 0-.8.2-1.1.2-.2.4-.6.7-.6.4-.1.9 0 1.4 0 .1 0 .2.2.2.3 0 0-.1.2-.2.2-.3 0-.6 0-.9 0-.4-.1-.6.2-.7.5-.2.6.1 1.7.9 2.1.3.1.5.1.7-.1s.4-.4.5-.6c.2-.2.3-.5.1-.8-.1-.1-.2-.2-.1-.3 0-.2.1-.4.2-.5.2-.2.4-.1.5.1.1.1.2.2.3.3 0-.1 0-.2 0-.4 0-.1 0-.1 0-.2.1-.1.1-.3.2-.4 0 0 .2.1.3.2.9.8.9.8 1.7 0l.3-.3c.3-.2.7-.2.9 0 .4.4.8.9 1.2 1.4.4.4.8.8 1.4.8.1 0 .2.1.2.1 0 .1 0 .3-.1.3-.2 0-.3.2-.6.1-.4-.2-1-.3-1.5-.3-.4 0-.8.1-1.3.1-.4.1-.8-.1-1.2.1-.3.1-.7.1-1.1 0-.1 0-.2-.2-.4-.3.1-.1.2-.3.3-.3.4-.1.8-.1 1.3-.2.7-.1 1.4-.1 2-.2 0 0 .1-.1 0-.2-.2-.3-.4-.6-.7-.9-.2-.2-.5-.1-.7.1-.2.3-.5.5-.9.5-.2.1-.5.1-.7.1s-.5-.2-.6-.1c-.3.2-.6.4-.7.7-.2.5-.5 1-1 1.3.2.2-.1.4-.6.3z"/><path d="m50.2 190.3c-.1-.1-.2-.1-.3-.1-.2 0-.4.4-.6 0-.1-.2-.4-.4-.2-.8.1-.3.1-.6.1-1 0-.2.1-.4.1-.6 0-.3.2-.3.4-.2.6.1 1.2.1 1.8.3.9.3 1.8.3 2.7.5.3.1.6.1.9.1.1 0 .2.1.4.2-.1.1-.2.2-.3.3-.2.2-.2.4-.2.6-.1.5-.2 1-.3 1.4-.1.3-.2.3-.6.1-.8-.4-1.7-.8-2.6-.8-.4 0-.8 0-1.3 0m2.9-.5c.1.1.2.3.4.4 0-.1.1-.3.1-.4v-.1c.1-.2-.2-.5.2-.4.3 0 .4.2.4.5 0 .1-.1.2-.1.3s0 .2.1.2c.1-.1.2-.1.2-.2.1-.3-.1-.6.1-.8 0 0-.2-.3-.3-.4-.5-.1-1-.1-1.6-.2-.6 0-.8.2-.6.8 0 .1.2.2.2.3.1-.1.2-.2.2-.3s0-.2 0-.2c0-.2.1-.2.3-.2.6-.1.4.3.4.7m-2.7-1.3c-.5-.2-.5-.2-.5.2v.5c0 .3.6.7.9.5 0 0 .1-.2 0-.2-.4-.3-.3-.6-.4-1m.9 0c-.4.3-.3.7-.4 1.1-.1.2.1.1.2 0 .4-.3.4-.7.5-1.1 0 0 0 0-.3 0z"/><path d="m45 183.5c.5-.3 1-.4 1.5-.5.3 0 .5.1.5.4.1.5.3 1 .4 1.5 0 .2-.2.6-.4.7-.8.4-1.6.7-2.4 1.1-.3.1-.5 0-.6-.3-.2-.6-.4-1.2-.6-1.8-.1-.3.2-.5.5-.6.4-.2.7-.4 1.1-.5m-.2.8c.2 0 .4 0 .5-.1.4-.2.7-.2 1 .3.1.1.2.2.3.2h.1v-.1c-.1-.2-.2-.4-.2-.6-.1-.4-.4-.4-.7-.3-.4.1-.7.4-1.1.6-.1 0-.1 0-.2 0v.1c.1 0 .1-.1.3-.1m.5.4c-.2.1-.4.1-.6.2-.1 0-.2.2-.2.2.1.3.2.6.3 1 .2-.1.5-.2.7-.2.3-.1.6-.2 1-.3.1-.1.3-.1.4-.2s0-.2 0-.3c-.1 0-.1.1-.2.1-.5-.1-.8.2-1.2.4-.1.1-.3 0-.5 0 0-.2-.1-.4.2-.4.1 0 .1-.2.3-.3v-.1c-.1-.2-.1-.1-.2-.1z"/><path d="m49.8 181.1c.4-.5.9-.4 1.4-.4 1.1-.1 1.3.2 1.3 1.2 0 .3.1.6.1.9.1.5 0 .6-.5.8-.7.2-1.4.5-2.2.7-.9.3-1.2 0-1.4-.9 0-.3-.1-.5-.2-.8-.2-.5-.1-.6.3-.9.5-.2.8-.4 1.2-.6m-.7 1.7v.2c.4.9.4.9 1.4.7.4-.1.9-.2 1.1-.5.2-.2.1-.7.1-1.1 0-.2 0-.4 0-.6.1-.4-.2-.4-.4-.3-.3.1-.5.3-.7.3-.5 0-.9.3-1.4.5-.3.1-.4.3-.1.8z"/><path d="m43.5 182.5c-.3-.1-.7-.1-.7-.2-.1-.3-.3-.8-.2-1.1s.1-.5.1-.8c0-.4.2-.5.4-.4 1.3.4 2.7.3 4.1.3.5 0 .7.3.5.8 0 .2-.1.4-.1.6 0 .7-.2.9-.9.8-.6-.1-1.1 0-1.7 0-.5 0-1 0-1.5 0m1-.4c.3-.1.7-.2.9-.1.3.2.6.1 1 .1s.8-.5.7-.9c0-.1-.1-.1-.2-.2-1-.1-2-.2-3-.3-.6 0-.6 0-.6.6 0 .7 0 .7.7.8z"/><path d="m42.7 189.6c.3-.7.3-.7 1-1 .3-.2.7-.3 1-.5s.7-.1.9.2c.3.5.5 1.1.7 1.7v.1c-.7.7-1.3 1.4-2.4 1.5-.3 0-.5-.1-.6-.4-.2-.6-.4-1.1-.6-1.6m1.6-.7c.2.1.4.1.6.1.1 0 .2-.1.3-.1-.1-.1-.2-.3-.3-.3-.2.1-.5.2-.8.3-.2.1-.4.1-.5.2-.1 0-.1.2-.1.2.1 0 .3.1.4 0 .2 0 .3-.2.4-.4m.3.8c-.3-.1-.4.2-.6.3-.2.2-.3.3-.2.6.2.3.4.2.7.1s.5-.3.7-.4.2-.7 0-.9c0 0-.1 0-.2 0 0 .1-.2.2-.4.3z"/><path d="m53.3 186.7c-.6 0-.9-.2-1.1-.7-.1-.4-.2-.7-.4-1.1-.2-.3-.1-.5.2-.6s.6-.2.9-.4c.6-.2 1.2-.4 1.8-.7.1 0 .2-.1.4-.1.3 0 .5 0 .4.4v1.8c0 .4-.2.6-.5.8-.6.3-1.1.5-1.7.6m.7-.7c.5-.1.8-.4.7-.9 0-.3.1-.6.1-.9s-.2-.4-.3-.3c-.4.3-.9.4-1.4.5s-.6.4-.4.9c.1.2.2.4.3.7s.2.3.4.3c.1-.2.3-.3.6-.3z"/><path d="m53.3 196.1c.4.2.7.3.9.6.1.1.1.3.1.4-.1.2-.2.2-.3 0-.2-.1-.5-.1-.7-.2-.5-.2-1-.4-1.5-.4-.6 0-1.1-.2-1.7-.3-.4 0-.7-.1-1.1 0s-.8.2-1.3.3c-.1 0-.3-.1-.4-.1.1-.2.1-.3.2-.5.1-.1.3-.2.5-.2.7.1 1.4-.4 2.1-.1.4.2.9.2 1.4.2.6 0 1.2.2 1.8.3z"/><path d="m53.6 180.2c-.4-.4-.7-.8-.6-1.5 0-.2-.1-.4-.1-.6 0-.3.1-.4.3-.5.4-.1.3.2.3.4 0 .3 0 .2.2.1.1-.1.4.1.5.2.1.2-.1.3-.3.4-.3.1-.3.3-.3.5 0 .3.1.5.5.3.1 0 .1-.1.2-.1.2 0 .4.1.6.1-.1.1-.3.2-.4.4s-.3.3-.4.5v.4l.2-.2c.1-.1.3-.1.4-.1s.4.1.1.4c-.2.1-.3.3-.4.4-.2.2 0 .5.3.6.1 0 .2.1.3.1-.1.1-.2.3-.3.3-.4.1-1.1-.5-.9-.8s0-.4-.1-.6c-.2 0-.2-.3-.1-.7z"/><path d="m55.7 196.5c-.2.1-.3.1-.5.1-.1 0-.2-.2-.4-.3.1-.1.2-.2.3-.3.3-.1.6-.2.9-.3.1 0 .2 0 .4.1-.1.1-.1.2-.2.3s-.3.2-.5.4z"/><path d="m58.7 194.7c.1.2.1.3.1.5-.2 0-.3 0-.5-.1 0 0-.1-.2 0-.3.1 0 .2-.1.4-.1z"/><path d="m59.8 193.8c0-.4.2-.3.3-.3s.1.2.1.3c0 .3-.2.1-.4 0z"/><path d="m141.3 81.4c0 .2.1.3 0 .4 0 .1-.1.1-.1.1-.1 0-.2 0-.2-.1-.1-.1-.1-.3-.2-.4 0-.1.1-.2.1-.3.2.2.3.2.4.3z"/></svg>